<svg width="580" height="188" viewBox="0 0 580 188" fill="none" xmlns="http://www.w3.org/2000/svg">
<g clip-path="url(#clip0_687_1515)">
<path d="M0 5.05495H9.67291V42.9451H0V5.05495ZM13.6755 5.05495H42.9224V12.7912H23.3484V19.7539H42.8698V27.3495H23.3484V35.1912H43.0278V42.9451H13.6755V5.05495ZM46.6617 5.05495H56.4048V34.7165H74.1882V42.9451H46.6617V5.05495ZM77.8221 12.7385H66.973V5.05495H98.3792V12.7385H87.495V42.9451H77.8221V12.7385ZM108.105 30.3736C108.21 34.6813 110.615 36.8967 115.25 36.8967C119.305 36.8967 121.464 35.4725 121.464 33.1517C121.495 32.6123 121.373 32.0752 121.112 31.6023C120.851 31.1295 120.462 30.7401 119.99 30.4791C117.725 29.3187 113.406 28.5802 107.894 26.3648C102.382 24.1495 99.573 20.5626 99.573 15.8154C99.573 8.78243 105.208 3.96484 114.67 3.96484C124.133 3.96484 129.505 8.92309 129.505 16.4484H120.411C119.99 12.9319 117.936 11.2967 114.038 11.2967C110.773 11.2967 108.772 12.8264 108.772 14.7077C108.772 17.5561 111.721 18.2242 117.672 20.0879C122.044 21.5121 125.204 22.5143 127.047 23.9912C128.241 24.9473 129.198 26.1668 129.843 27.5545C130.489 28.9423 130.806 30.4607 130.769 31.9912C130.769 39.3758 124.94 43.9648 114.302 43.9648C104.471 43.9648 99.3623 39.4813 98.783 30.3209L108.105 30.3736Z" fill="#DD052B"/>
<path d="M129.031 5.72308H127.767V4.96704H131.155V5.72308H129.908V9.22199H129.031V5.72308ZM131.717 4.96704H133.016L133.858 8.20221L134.701 4.96704H136V9.22199H135.175V5.77583L134.315 9.22199H133.419L132.542 5.77583V9.22199H131.717V4.96704Z" fill="#1D1D1B"/>
</g>
<path d="M167.56 10.24V13L157.56 37.4L154.2 36.28L163.84 13.24H152V10.24H167.56ZM173.533 31.92C174.333 31.92 175 32.1867 175.533 32.72C176.067 33.2533 176.333 33.9067 176.333 34.68C176.333 35.4533 176.067 36.12 175.533 36.68C175 37.2133 174.333 37.48 173.533 37.48C172.76 37.48 172.107 37.2133 171.573 36.68C171.04 36.12 170.773 35.4533 170.773 34.68C170.773 33.9067 171.04 33.2533 171.573 32.72C172.107 32.1867 172.76 31.92 173.533 31.92ZM189.074 9.84C192.034 9.84 194.261 11.0267 195.754 13.4C197.274 15.7467 198.034 19.16 198.034 23.64C198.034 28.12 197.274 31.5467 195.754 33.92C194.261 36.2933 192.034 37.48 189.074 37.48C186.114 37.48 183.874 36.2933 182.354 33.92C180.861 31.5467 180.114 28.12 180.114 23.64C180.114 19.16 180.861 15.7467 182.354 13.4C183.874 11.0267 186.114 9.84 189.074 9.84ZM189.074 12.76C187.341 12.76 186.047 13.6133 185.194 15.32C184.367 17.0267 183.954 19.8 183.954 23.64C183.954 27.48 184.367 30.2667 185.194 32C186.047 33.7067 187.341 34.56 189.074 34.56C190.781 34.56 192.061 33.7067 192.914 32C193.767 30.2667 194.194 27.48 194.194 23.64C194.194 19.8267 193.767 17.0667 192.914 15.36C192.061 13.6267 190.781 12.76 189.074 12.76Z" fill="#333333"/>
<g clip-path="url(#clip1_687_1515)">
<path d="M230.311 83.4524H222.651L223.45 79.2706H243.634L242.799 83.4524H235.139L230.674 107.016H225.882L230.311 83.4524ZM252.165 107.489C244.977 107.489 241.274 102.216 241.274 96.0342C241.202 91.0887 243.053 86.2887 246.466 82.6887C249.08 80.1797 252.565 78.7978 256.195 78.8342C263.565 78.8342 267.05 84.0342 267.05 90.3251C267.122 95.1615 265.343 99.8887 262.076 103.452C259.462 106.034 255.905 107.452 252.202 107.416L252.165 107.489ZM252.891 103.452C254.924 103.416 256.848 102.58 258.264 101.089C260.66 98.6887 262.003 93.9615 262.003 90.4706C262.003 86.9797 260.733 82.8706 255.614 82.8706C253.545 82.9069 251.548 83.7433 250.132 85.2706C247.664 88.216 246.321 91.9251 246.357 95.7797C246.357 99.9615 248.208 103.452 252.855 103.452H252.891ZM285.02 94.6887H275.073L273.548 102.98H284.729L283.931 107.052H267.921L273.185 79.3797H288.541L287.742 83.4524H277.214L275.835 90.7251H285.818L285.02 94.6887ZM293.006 79.3069H308.254L307.455 83.3797H297.036L295.511 91.1615H305.204L304.406 95.1978H294.821L292.607 107.016H287.742L293.006 79.3069ZM312.537 79.3069H317.293L312.864 102.834H323.719L322.92 107.016H307.273L312.537 79.3069ZM331.669 105.961C330.507 107.343 328.438 107.525 327.059 106.361C325.679 105.198 325.498 103.125 326.659 101.743C326.768 101.598 326.913 101.452 327.059 101.343C328.22 99.9615 330.29 99.7796 331.669 100.943C333.049 102.107 333.23 104.18 332.069 105.561L331.669 105.961ZM327.385 101.634C326.296 102.725 326.296 104.507 327.385 105.598C328.474 106.689 330.253 106.689 331.342 105.598C332.432 104.507 332.432 102.725 331.342 101.634C330.834 101.125 330.108 100.834 329.382 100.798C328.62 100.798 327.857 101.089 327.385 101.634ZM329.273 101.816C329.6 101.78 329.927 101.852 330.253 101.925C330.616 102.071 330.834 102.434 330.798 102.834C330.834 103.125 330.689 103.38 330.435 103.525C330.29 103.634 330.108 103.671 329.927 103.707C330.181 103.743 330.399 103.852 330.544 104.071C330.653 104.216 330.725 104.434 330.725 104.616V105.307H330.108V104.98C330.144 104.652 330.036 104.325 329.781 104.143C329.564 104.034 329.309 103.998 329.092 104.034H328.583V105.452H327.966V101.78H329.273V101.816ZM329.963 102.398C329.709 102.289 329.455 102.252 329.201 102.252H328.583V103.561H329.164C329.382 103.561 329.564 103.561 329.745 103.489C330.072 103.343 330.217 102.943 330.072 102.616C330.036 102.507 329.963 102.434 329.89 102.361H329.963V102.398Z" fill="#003082"/>
<path d="M188.199 105.416L188.09 105.489C180.431 111.343 172.698 114.907 163.041 117.016C148.23 120.253 134.471 118.325 127.065 111.998C123.725 109.162 121.874 105.562 121.547 101.38C120.639 90.6161 128.735 79.4525 143.147 71.5616L143.292 71.4889L143.111 71.0889L142.966 71.1616C126.048 77.998 114.141 90.7252 115.049 102.798C115.412 107.743 117.626 112.107 121.438 115.452C129.279 122.325 143.22 124.434 158.685 121.125C171.137 118.471 181.048 112.907 188.381 105.925L188.526 105.78L188.199 105.416Z" fill="#003082"/>
<path d="M199.453 76.1433C196.513 69.5615 190.051 65.1252 181.266 63.5615C167.071 61.0524 150.045 67.1979 141.514 77.0888L141.405 77.1979L141.659 77.5615L141.804 77.4524C147.467 72.7252 155.853 69.1252 164.239 67.8524C176.691 65.9615 187.147 69.0888 192.193 76.2524C197.094 83.1979 195.714 96.6161 189.252 104.398L189.143 104.543L189.47 104.907L189.615 104.798C199.417 95.4888 204.137 86.6524 199.453 76.1433Z" fill="#892528"/>
<path d="M147.14 95.0526H137.738L136.721 100.471H147.213L146.378 104.907H130.659L135.051 81.4162H150.153L149.282 85.8526H139.48L138.573 90.6526H147.975L147.14 95.0526ZM156.688 85.8526H150.916L151.787 81.3799H171.718C170.52 81.6344 169.467 82.3617 168.487 83.3435C167.361 84.4708 167.143 85.8162 167.143 85.8162H161.916L158.358 104.834H153.13L156.688 85.8526Z" fill="#003082"/>
<path d="M167.325 99.1616C168.922 100.107 171.137 100.871 173.605 100.871C175.529 100.871 177.417 100.071 177.417 98.2161C177.417 96.9797 176.328 96.107 173.968 95.0888C171.246 93.9252 168.45 92.0707 168.45 88.6888C168.45 83.8525 172.952 81.0161 178.18 81.0161C181.374 81.0161 183.262 81.707 184.424 82.2888L182.717 86.6161C181.919 86.2161 179.958 85.4161 177.744 85.4525C175.239 85.4525 174.005 86.6161 174.005 87.707C174.005 89.1616 175.784 89.9979 177.78 90.9434C180.939 92.3252 183.044 94.2161 183.044 97.307C183.044 102.689 178.361 105.271 172.879 105.271C169.322 105.198 166.708 104.289 165.401 103.307L167.325 99.1616ZM198.219 110.434C197.602 111.052 196.839 111.38 195.932 111.38C195.024 111.38 194.298 111.052 193.645 110.434C193.028 109.816 192.701 109.052 192.701 108.143C192.701 107.271 193.028 106.507 193.645 105.852C194.262 105.234 195.024 104.907 195.896 104.907C196.803 104.907 197.565 105.234 198.183 105.852C198.8 106.471 199.126 107.234 199.126 108.143C199.163 109.016 198.836 109.78 198.219 110.434ZM193.971 106.18C193.427 106.725 193.173 107.38 193.173 108.143C193.173 108.907 193.427 109.562 193.971 110.107C194.516 110.652 195.169 110.943 195.932 110.943C196.694 110.943 197.348 110.689 197.892 110.107C198.437 109.562 198.691 108.907 198.691 108.143C198.691 107.38 198.437 106.725 197.892 106.18C197.348 105.634 196.694 105.343 195.932 105.343C195.169 105.343 194.516 105.634 193.971 106.18ZM195.859 106.362C196.295 106.362 196.622 106.398 196.839 106.471C197.202 106.616 197.384 106.907 197.384 107.38C197.384 107.707 197.275 107.925 197.021 108.071C196.912 108.143 196.73 108.216 196.513 108.252C196.803 108.289 196.985 108.398 197.13 108.616C197.275 108.798 197.311 108.98 197.311 109.162V109.671C197.311 109.78 197.311 109.816 197.348 109.852L197.384 109.889H196.803V109.416C196.803 109.016 196.694 108.725 196.476 108.616C196.331 108.543 196.113 108.507 195.787 108.507H195.278V109.889H194.661V106.362H195.859ZM196.549 106.907C196.404 106.834 196.15 106.762 195.787 106.762H195.242V108.034H195.787C196.041 108.034 196.259 107.998 196.367 107.962C196.622 107.852 196.73 107.671 196.73 107.416C196.767 107.162 196.694 106.98 196.549 106.907Z" fill="#003082"/>
</g>
<path d="M358.542 78.84C361.368 78.84 363.515 79.7733 364.982 81.64C366.448 83.48 367.182 86.0133 367.182 89.24C367.182 92.8933 366.688 95.84 365.702 98.08C364.715 100.293 363.208 102.067 361.182 103.4C359.155 104.707 356.408 105.867 352.942 106.88L352.102 104.12C355.675 103.107 358.408 101.733 360.302 100C362.222 98.2667 363.248 95.96 363.382 93.08C362.768 94.04 361.942 94.8133 360.902 95.4C359.862 95.9867 358.688 96.28 357.382 96.28C355.995 96.28 354.742 95.9333 353.622 95.24C352.502 94.52 351.608 93.52 350.942 92.24C350.302 90.9333 349.982 89.4133 349.982 87.68C349.982 85.8667 350.368 84.2933 351.142 82.96C351.915 81.6267 352.942 80.6133 354.222 79.92C355.528 79.2 356.968 78.84 358.542 78.84ZM358.142 93.4C360.248 93.4 362.022 92.2933 363.462 90.08C363.515 87.12 363.142 85 362.342 83.72C361.568 82.4133 360.328 81.76 358.622 81.76C357.048 81.76 355.835 82.28 354.982 83.32C354.128 84.36 353.702 85.84 353.702 87.76C353.702 89.6267 354.102 91.04 354.902 92C355.702 92.9333 356.782 93.4 358.142 93.4ZM388.887 96.48V99.4H385.407V106H381.847V99.4H370.407V96.76L378.447 78.84L381.527 80.12L374.287 96.48H381.887L382.207 89.28H385.407V96.48H388.887ZM391.376 95.04V91.92H409.616V95.04H391.376ZM420.984 79.24V106H417.304V83.16L411.064 86.96L409.464 84.36L417.744 79.24H420.984ZM436.529 78.84C439.489 78.84 441.716 80.0267 443.209 82.4C444.729 84.7467 445.489 88.16 445.489 92.64C445.489 97.12 444.729 100.547 443.209 102.92C441.716 105.293 439.489 106.48 436.529 106.48C433.569 106.48 431.329 105.293 429.809 102.92C428.316 100.547 427.569 97.12 427.569 92.64C427.569 88.16 428.316 84.7467 429.809 82.4C431.329 80.0267 433.569 78.84 436.529 78.84ZM436.529 81.76C434.796 81.76 433.502 82.6133 432.649 84.32C431.822 86.0267 431.409 88.8 431.409 92.64C431.409 96.48 431.822 99.2667 432.649 101C433.502 102.707 434.796 103.56 436.529 103.56C438.236 103.56 439.516 102.707 440.369 101C441.222 99.2667 441.649 96.48 441.649 92.64C441.649 88.8267 441.222 86.0667 440.369 84.36C439.516 82.6267 438.236 81.76 436.529 81.76ZM459.578 79.24V106H455.898V83.16L449.658 86.96L448.058 84.36L456.338 79.24H459.578Z" fill="#333333"/>
<g clip-path="url(#clip2_687_1515)">
<path fill-rule="evenodd" clip-rule="evenodd" d="M417.9 151.075H420.45V181.063H417.9V151.075Z" fill="black"/>
<path d="M449.374 174.32H446.691V160.21H441.863V157.91H454.201V160.21H449.374V174.32Z" fill="black"/>
<path d="M279.942 141.22C290.575 147.24 293.05 160.74 285.652 174.39C279.152 186.4 264.952 191.53 254.375 185.41C243.798 179.3 241.729 162.25 246.275 152.44C252.875 138.19 268.192 134.57 279.941 141.22" fill="#007FA3"/>
<path d="M279.693 151.34C281.647 153.65 282.51 156.7 282.061 159.7C281.549 163.07 279.521 166.02 276.561 167.71C273.772 169.21 270.636 169.97 267.467 169.88C267.442 170.4 267.338 172.18 267.287 172.46C267.233 172.78 267.095 173.08 266.887 173.33C266.474 173.79 265.929 174.11 265.326 174.25C264.907 174.37 264.473 174.44 264.037 174.45C263.981 174.45 263.926 174.45 263.871 174.44C263.495 174.4 263.144 174.23 262.88 173.96C262.635 173.68 262.489 173.33 262.466 172.96L262.439 172.61C262.371 172.31 261.99 156.98 262.064 157.25C262.12 155.42 265.083 155.1 266.692 155.42C268.301 155.74 267.892 157.71 267.852 160.11C267.852 160.11 267.775 163.28 267.626 166.62C269.446 166.54 271.225 166.05 272.836 165.2C275.773 163.99 277.657 161.06 277.547 157.88C277.547 154.43 274.188 150.56 267.99 150.56C261.792 150.56 259.134 152.13 256.133 154.61C255.458 155.17 254.933 155.73 254.442 156.11C253.951 156.48 252.642 156.53 252.291 155.67C251.869 154.62 252.659 153.45 253.123 152.89C254.395 151.391 255.926 150.13 257.642 149.17C260.376 147.61 263.45 146.72 266.6 146.6C270.118 146.52 275.669 146.8 279.668 151.32L279.693 151.34ZM266.256 176.72C265.947 176.47 265.587 176.3 265.202 176.22C265.078 176.19 264.951 176.18 264.825 176.18C264.091 176.2 263.413 176.59 263.011 177.2C262.644 177.72 262.492 178.36 262.587 178.98C262.636 179.34 262.784 179.69 263.013 179.97C263.302 180.28 263.677 180.51 264.091 180.61C264.357 180.68 264.631 180.72 264.907 180.72C265.468 180.73 266.016 180.55 266.457 180.2C266.937 179.82 267.212 179.23 267.201 178.62C267.19 177.88 266.842 177.18 266.256 176.72Z" fill="white"/>
<path d="M347.991 173.22C347.818 173.27 347.642 173.29 347.464 173.31C346.555 173.31 346.279 172.55 346.279 171.37V162.61C346.279 159.31 344.308 157.63 340.419 157.63C336.937 157.63 334.208 159.28 334.208 161.38C334.203 161.44 334.201 161.49 334.201 161.55C334.201 162.55 335.027 163.38 336.031 163.38H336.164C337.207 163.38 338.073 162.53 338.097 161.49C338.091 160.75 337.777 160.05 337.232 159.56C338.04 158.84 339.098 158.48 340.174 158.54C342.194 158.54 343.056 159.73 343.056 162.54V164.68C339.281 165.66 333.646 166.4 333.646 170.7C333.646 172.53 334.804 174.58 338.066 174.58C340.071 174.5 341.946 173.56 343.216 172.01C343.375 173.88 344.126 174.58 345.816 174.58C346.653 174.57 347.476 174.361 348.216 173.97C348.423 173.87 348.527 173.63 348.455 173.42C348.379 173.19 348.173 173.19 347.996 173.22H347.991ZM343.062 170.74C342.65 171.36 341.246 172.93 339.633 172.93C337.57 172.93 337.118 171.41 337.118 170.12C337.118 168.01 338.734 166.76 343.061 165.7L343.062 170.74Z" fill="black"/>
<path d="M359.546 157.63C357.946 157.63 356.405 158.53 355.082 160.69V158.26C355.082 158.02 354.883 157.81 354.64 157.81C354.631 157.81 354.621 157.81 354.611 157.82L350.311 157.93C350.106 157.94 349.943 158.11 349.943 158.31V158.33C349.93 158.52 350.068 158.7 350.26 158.73C351.676 158.93 351.86 159.6 351.86 160.3V172.34C351.86 173.19 351.643 173.47 350.283 173.56C350.081 173.57 349.919 173.73 349.919 173.94C349.919 174.14 350.089 174.31 350.295 174.31H357.025C357.228 174.31 357.395 174.15 357.396 173.94C357.396 173.74 357.237 173.58 357.037 173.57C355.483 173.49 355.08 173.24 355.08 172.34V162.44C355.66 160.99 356.845 159.86 358.323 159.35C358.255 159.59 358.219 159.84 358.214 160.08C358.214 161.19 359.124 162.1 360.229 162.1C361.334 162.1 362.244 161.19 362.244 160.08C362.244 160.07 362.245 160.05 362.245 160.03C362.245 158.71 361.154 157.61 359.829 157.61C359.733 157.61 359.638 157.62 359.544 157.63" fill="black"/>
<path d="M410.486 173.56C409.126 173.48 408.909 173.2 408.909 172.34V162.51C408.909 159.41 407.26 157.63 404.217 157.63C403.065 157.645 401.936 157.95 400.933 158.516C399.931 159.082 399.087 159.892 398.479 160.87V158.26C398.479 158.02 398.28 157.82 398.037 157.82H398.006L393.706 157.93C393.502 157.94 393.338 158.11 393.338 158.31V158.33C393.324 158.52 393.462 158.7 393.654 158.73C395.07 158.93 395.254 159.6 395.254 160.3V172.34C395.254 173.19 395.037 173.48 393.679 173.56C393.487 173.58 393.34 173.74 393.34 173.94C393.34 174.14 393.502 174.31 393.703 174.31H399.885C400.086 174.31 400.248 174.14 400.248 173.94C400.248 173.74 400.101 173.58 399.909 173.56C398.609 173.48 398.476 173.19 398.476 172.34V162.97C399.468 160.95 401.209 159.44 402.896 159.44C404.968 159.44 405.685 160.56 405.685 163.46V172.34C405.685 173.18 405.51 173.46 404.414 173.56C404.224 173.58 404.08 173.74 404.08 173.93C404.08 174.14 404.243 174.31 404.446 174.31H410.458C410.66 174.31 410.822 174.14 410.822 173.94C410.822 173.74 410.674 173.58 410.483 173.56" fill="black"/>
<path d="M384.63 157.63C384.498 157.63 384.366 157.62 384.234 157.62C379.58 157.62 375.75 161.45 375.75 166.11C375.75 170.76 379.58 174.59 384.234 174.59C388.888 174.59 392.718 170.76 392.718 166.11C392.721 166.02 392.722 165.93 392.722 165.84C392.722 161.38 389.089 157.69 384.63 157.63ZM384.63 173.69C381.13 173.69 380.184 170.29 380.184 166.11C380.184 161.92 381.132 158.52 384.63 158.52C388.128 158.52 389.076 161.92 389.076 166.11C389.076 170.29 388.128 173.69 384.63 173.69Z" fill="black"/>
<path d="M298.489 152.07C300.98 152.31 301.514 153.17 301.514 154.4V171.21C301.514 172.43 300.98 173.3 298.489 173.54C298.293 173.55 298.135 173.71 298.135 173.91C298.135 173.92 298.136 173.93 298.137 173.94V173.96C298.137 174.17 298.307 174.34 298.516 174.34H308.335C308.543 174.34 308.712 174.17 308.712 173.96V173.94C308.713 173.93 308.714 173.92 308.714 173.91C308.714 173.71 308.556 173.55 308.36 173.54C305.685 173.34 305.119 172.49 305.119 171.21V165.11H308.161C312.494 165.11 317.537 163.85 317.537 158.18C317.537 152.58 312.137 151.26 307.606 151.26H298.516C298.307 151.27 298.137 151.44 298.137 151.65V151.66C298.136 151.67 298.136 151.69 298.136 151.69C298.136 151.89 298.293 152.06 298.489 152.06V152.07ZM305.119 152.33H307.657C312.735 152.33 313.473 155.14 313.473 158.17C313.473 161.24 312.735 164.02 307.657 164.02H305.119V152.33Z" fill="black"/>
<path d="M324.996 157.63C320.721 157.63 317.245 161.52 317.245 166.27C317.245 171.09 320.505 174.58 324.996 174.58C327.742 174.72 330.328 173.23 331.584 170.79C331.749 170.47 331.703 170.15 331.508 170.04C331.328 169.94 331.104 170 330.991 170.17C329.785 171.79 328.391 172.92 326.291 172.92C321.546 172.92 320.612 168.04 320.813 165.08H331.143C331.66 165.08 331.754 164.78 331.754 164.27C331.754 161.97 330.574 157.63 324.996 157.63ZM320.872 164C321.23 160.49 322.647 158.57 324.799 158.57C327.683 158.57 328.184 161 328.184 162.99C328.184 163.34 328.168 163.65 328.143 164H320.872Z" fill="black"/>
<path d="M369.758 164.2C366.835 163.35 365.63 162.52 365.63 161.19C365.646 159.74 366.844 158.56 368.295 158.56H368.491C370.396 158.56 371.632 159.58 373.238 162.67C373.347 162.88 373.445 163.02 373.667 163.02C373.93 163.02 374.067 162.83 374.067 162.5V158.12C374.067 157.8 374.008 157.64 373.789 157.64C373.631 157.65 373.487 157.73 373.389 157.86L372.689 158.57C371.575 157.99 370.34 157.67 369.081 157.64C365.672 157.64 363.361 159.76 363.361 162.77C363.361 165.6 365.296 166.6 368.481 167.54C371.613 168.47 372.747 169.3 372.747 170.97C372.633 172.54 371.253 173.75 369.677 173.65C367.305 173.65 365.724 172.46 364.139 169.02C364.039 168.81 363.918 168.61 363.694 168.61C363.43 168.61 363.294 168.8 363.294 169.13V174.13C363.294 174.43 363.416 174.59 363.594 174.59C363.76 174.58 363.915 174.5 364.019 174.37L364.996 173.41C366.292 174.2 367.785 174.61 369.303 174.59C372.795 174.59 374.833 172.37 374.833 169.19C374.833 166.61 373.476 165.29 369.75 164.21" fill="black"/>
<path d="M440.426 162.87C440.517 164.37 439.892 165.84 438.743 166.81C437.351 167.81 435.657 168.29 433.949 168.18H432.242V174.32H429.56V157.91H434.284C435.919 157.78 437.546 158.23 438.893 159.16C439.953 160.09 440.521 161.46 440.425 162.87H440.426ZM432.241 165.92H433.667C434.727 166 435.788 165.75 436.699 165.2C437.371 164.66 437.733 163.82 437.663 162.96C437.723 162.16 437.403 161.38 436.799 160.85C436.005 160.32 435.056 160.07 434.105 160.15H432.24L432.241 165.92Z" fill="black"/>
<path d="M466 174.32H456.712V157.91H465.996V160.18H459.396V164.64H465.582V166.89H459.396V172.04H465.996L466 174.32Z" fill="black"/>
</g>
<path d="M493.32 158.4C494.68 158.4 495.92 158.72 497.04 159.36C498.16 160 499.053 160.96 499.72 162.24C500.387 163.52 500.72 165.08 500.72 166.92C500.72 168.813 500.333 170.493 499.56 171.96C498.813 173.4 497.787 174.52 496.48 175.32C495.2 176.093 493.773 176.48 492.2 176.48C489.08 176.48 486.8 175.333 485.36 173.04C483.92 170.72 483.2 167.52 483.2 163.44C483.2 160.533 483.6 157.987 484.4 155.8C485.227 153.587 486.4 151.88 487.92 150.68C489.44 149.453 491.24 148.84 493.32 148.84C495.347 148.84 497.187 149.387 498.84 150.48L497.4 152.92C496.147 152.147 494.773 151.76 493.28 151.76C491.36 151.76 489.84 152.68 488.72 154.52C487.6 156.36 486.987 158.827 486.88 161.92C488.533 159.573 490.68 158.4 493.32 158.4ZM492.2 173.56C493.747 173.56 494.933 172.973 495.76 171.8C496.587 170.627 497 169.04 497 167.04C497 163.227 495.56 161.32 492.68 161.32C491.507 161.32 490.427 161.653 489.44 162.32C488.453 162.96 487.613 163.853 486.92 165C487 167.933 487.453 170.093 488.28 171.48C489.133 172.867 490.44 173.56 492.2 173.56ZM514.648 158.4C516.008 158.4 517.248 158.72 518.368 159.36C519.488 160 520.381 160.96 521.048 162.24C521.715 163.52 522.048 165.08 522.048 166.92C522.048 168.813 521.661 170.493 520.888 171.96C520.141 173.4 519.115 174.52 517.808 175.32C516.528 176.093 515.101 176.48 513.528 176.48C510.408 176.48 508.128 175.333 506.688 173.04C505.248 170.72 504.528 167.52 504.528 163.44C504.528 160.533 504.928 157.987 505.728 155.8C506.555 153.587 507.728 151.88 509.248 150.68C510.768 149.453 512.568 148.84 514.648 148.84C516.675 148.84 518.515 149.387 520.168 150.48L518.728 152.92C517.475 152.147 516.101 151.76 514.608 151.76C512.688 151.76 511.168 152.68 510.048 154.52C508.928 156.36 508.315 158.827 508.208 161.92C509.861 159.573 512.008 158.4 514.648 158.4ZM513.528 173.56C515.075 173.56 516.261 172.973 517.088 171.8C517.915 170.627 518.328 169.04 518.328 167.04C518.328 163.227 516.888 161.32 514.008 161.32C512.835 161.32 511.755 161.653 510.768 162.32C509.781 162.96 508.941 163.853 508.248 165C508.328 167.933 508.781 170.093 509.608 171.48C510.461 172.867 511.768 173.56 513.528 173.56ZM524.936 165.04V161.92H543.176V165.04H524.936ZM558.615 149.24V152L548.615 176.4L545.255 175.28L554.895 152.24H543.055V149.24H558.615ZM576.042 152.12H565.602V160C566.962 159.307 568.389 158.96 569.882 158.96C572.176 158.96 574.016 159.72 575.402 161.24C576.789 162.733 577.482 164.8 577.482 167.44C577.482 169.2 577.096 170.773 576.322 172.16C575.549 173.52 574.456 174.587 573.042 175.36C571.656 176.107 570.042 176.48 568.202 176.48C566.576 176.48 565.122 176.2 563.842 175.64C562.562 175.053 561.376 174.2 560.282 173.08L562.442 170.96C563.296 171.813 564.176 172.453 565.082 172.88C565.989 173.28 567.016 173.48 568.162 173.48C569.869 173.48 571.202 172.947 572.162 171.88C573.149 170.813 573.642 169.307 573.642 167.36C573.642 165.413 573.202 164 572.322 163.12C571.442 162.24 570.256 161.8 568.762 161.8C568.069 161.8 567.429 161.88 566.842 162.04C566.256 162.173 565.629 162.4 564.962 162.72H562.082V149.24H576.562L576.042 152.12Z" fill="#333333"/>
<defs>
<clipPath id="clip0_687_1515">
<rect width="136" height="40" fill="white" transform="translate(0 4)"/>
</clipPath>
<clipPath id="clip1_687_1515">
<rect width="218.182" height="60" fill="white" transform="translate(115 63)"/>
</clipPath>
<clipPath id="clip2_687_1515">
<rect width="222" height="50" fill="white" transform="translate(244 138)"/>
</clipPath>
</defs>
</svg>
