<svg width="400" height="220" viewBox="0 0 400 220" fill="none" xmlns="http://www.w3.org/2000/svg">
<g clip-path="url(#clip0_1238_5510)">
<path d="M57.873 10.6593H63.8229V34.3407H57.873V10.6593ZM66.2849 10.6593H84.2747V15.4945H72.2347V19.8462H84.2423V24.5934H72.2347V29.4945H84.3395V34.3407H66.2849V10.6593ZM86.5747 10.6593H92.5677V29.1978H103.506V34.3407H86.5747V10.6593ZM105.742 15.4615H99.0683V10.6593H118.386V15.4615H111.691V34.3407H105.742V15.4615ZM124.369 26.4835C124.433 29.1758 125.913 30.5604 128.763 30.5604C131.258 30.5604 132.586 29.6703 132.586 28.2198C132.605 27.8827 132.53 27.547 132.369 27.2515C132.209 26.9559 131.969 26.7126 131.679 26.5495C130.286 25.8242 127.63 25.3626 124.239 23.978C120.848 22.5934 119.121 20.3517 119.121 17.3846C119.121 12.989 122.587 9.97803 128.407 9.97803C134.227 9.97803 137.532 13.0769 137.532 17.7802H131.938C131.679 15.5824 130.416 14.5604 128.018 14.5604C126.01 14.5604 124.779 15.5165 124.779 16.6923C124.779 18.4725 126.593 18.8901 130.254 20.055C132.942 20.9451 134.886 21.5714 136.02 22.4945C136.754 23.0921 137.343 23.8543 137.74 24.7216C138.137 25.5889 138.332 26.5379 138.309 27.4945C138.309 32.1099 134.724 34.978 128.18 34.978C122.133 34.978 118.991 32.1758 118.635 26.4506L124.369 26.4835Z" fill="#DD052B"/>
<path d="M137.24 11.077H136.462V10.6044H138.546V11.077H137.78V13.2638H137.24V11.077ZM138.892 10.6044H139.691L140.209 12.6264L140.728 10.6044H141.527V13.2638H141.019V11.1099L140.49 13.2638H139.939L139.4 11.1099V13.2638H138.892V10.6044Z" fill="#1D1D1B"/>
</g>
<line x1="100.2" y1="40" x2="100.2" y2="60" stroke="#333333"/>
<path d="M99.4602 69.98C100.26 69.98 100.947 70.1267 101.52 70.42C102.107 70.7 102.547 71.08 102.84 71.56C103.134 72.04 103.28 72.5533 103.28 73.1C103.28 73.62 103.187 74.0667 103 74.44C102.827 74.8 102.614 75.0933 102.36 75.32C102.107 75.5467 101.767 75.8133 101.34 76.12C100.78 76.5067 100.36 76.8667 100.08 77.2C99.8002 77.52 99.6602 77.9533 99.6602 78.5V79.4H97.8402V78.4C97.8402 77.8267 97.9335 77.34 98.1202 76.94C98.3202 76.54 98.5535 76.22 98.8202 75.98C99.0869 75.74 99.4402 75.4667 99.8802 75.16C100.387 74.8267 100.76 74.5267 101 74.26C101.24 73.9933 101.36 73.6467 101.36 73.22C101.36 72.6733 101.18 72.2533 100.82 71.96C100.46 71.6533 99.9669 71.5 99.3402 71.5C98.2735 71.5 97.3469 71.98 96.5602 72.94L95.3002 71.96C96.4202 70.64 97.8069 69.98 99.4602 69.98ZM98.8002 81.46C99.2002 81.46 99.5335 81.5933 99.8002 81.86C100.067 82.1267 100.2 82.4533 100.2 82.84C100.2 83.2267 100.067 83.56 99.8002 83.84C99.5335 84.1067 99.2002 84.24 98.8002 84.24C98.4135 84.24 98.0869 84.1067 97.8202 83.84C97.5535 83.56 97.4202 83.2267 97.4202 82.84C97.4202 82.4533 97.5535 82.1267 97.8202 81.86C98.0869 81.5933 98.4135 81.46 98.8002 81.46Z" fill="#333333"/>
<g clip-path="url(#clip1_1238_5510)">
<path fill-rule="evenodd" clip-rule="evenodd" d="M143.73 140.153H145.515V161.144H143.73V140.153Z" fill="black"/>
<path d="M165.762 156.424H163.884V146.547H160.504V144.937H169.141V146.547H165.762V156.424Z" fill="black"/>
<path d="M47.1594 133.254C54.6025 137.468 56.3349 146.918 51.1563 156.473C46.6063 164.88 36.6663 168.471 29.2625 164.187C21.8586 159.91 20.4103 147.975 23.5925 141.108C28.2125 131.133 38.9343 128.599 47.1586 133.254" fill="#007FA3"/>
<path d="M46.9852 140.338C48.353 141.955 48.9571 144.09 48.6428 146.19C48.2844 148.549 46.8648 150.614 44.7928 151.797C42.8405 152.847 40.6453 153.379 38.427 153.316C38.4095 153.68 38.3367 154.926 38.301 155.122C38.2632 155.346 38.1666 155.556 38.021 155.731C37.7319 156.053 37.3504 156.277 36.9283 156.375C36.635 156.459 36.3312 156.508 36.026 156.515C35.9868 156.515 35.9483 156.515 35.9098 156.508C35.6466 156.48 35.4009 156.361 35.2161 156.172C35.0446 155.976 34.9424 155.731 34.9263 155.472L34.9074 155.227C34.8598 155.017 34.5931 144.286 34.6449 144.475C34.6841 143.194 36.7582 142.97 37.8845 143.194C39.0108 143.418 38.7245 144.797 38.6965 146.477C38.6965 146.477 38.6426 148.696 38.5383 151.034C39.8123 150.978 41.0576 150.635 42.1853 150.04C44.2412 149.193 45.56 147.142 45.483 144.916C45.483 142.501 43.1317 139.792 38.7931 139.792C34.4545 139.792 32.5939 140.891 30.4932 142.627C30.0207 143.019 29.6532 143.411 29.3095 143.677C28.9658 143.936 28.0495 143.971 27.8038 143.369C27.5084 142.634 28.0614 141.815 28.3862 141.423C29.2768 140.373 30.3481 139.491 31.5495 138.819C33.4633 137.727 35.6151 137.104 37.8201 137.02C40.2827 136.964 44.1684 137.16 46.9677 140.324L46.9852 140.338ZM37.5793 158.104C37.363 157.929 37.111 157.81 36.8415 157.754C36.7547 157.733 36.6658 157.726 36.5776 157.726C36.0638 157.74 35.5892 158.013 35.3078 158.44C35.0509 158.804 34.9445 159.252 35.011 159.686C35.0453 159.938 35.1489 160.183 35.3092 160.379C35.5115 160.596 35.774 160.757 36.0638 160.827C36.25 160.876 36.4418 160.904 36.635 160.904C37.0277 160.911 37.4113 160.785 37.72 160.54C38.056 160.274 38.2485 159.861 38.2408 159.434C38.2331 158.916 37.9895 158.426 37.5793 158.104Z" fill="white"/>
<path d="M94.7939 155.654C94.6728 155.689 94.5496 155.703 94.425 155.717C93.7887 155.717 93.5955 155.185 93.5955 154.359V148.227C93.5955 145.917 92.2158 144.741 89.4935 144.741C87.0561 144.741 85.1458 145.896 85.1458 147.366C85.1423 147.408 85.1409 147.443 85.1409 147.485C85.1409 148.185 85.7191 148.766 86.4219 148.766H86.515C87.2451 148.766 87.8513 148.171 87.8681 147.443C87.8639 146.925 87.6441 146.435 87.2626 146.092C87.8282 145.588 88.5688 145.336 89.322 145.378C90.736 145.378 91.3394 146.211 91.3394 148.178V149.676C88.6969 150.362 84.7524 150.88 84.7524 153.89C84.7524 155.171 85.563 156.606 87.8464 156.606C89.2499 156.55 90.5624 155.892 91.4514 154.807C91.5627 156.116 92.0884 156.606 93.2714 156.606C93.8574 156.599 94.4332 156.453 94.9514 156.179C95.0963 156.109 95.1691 155.941 95.1187 155.794C95.0655 155.633 94.9213 155.633 94.7974 155.654H94.7939ZM91.3436 153.918C91.0552 154.352 90.0724 155.451 88.9433 155.451C87.4992 155.451 87.1828 154.387 87.1828 153.484C87.1828 152.007 88.314 151.132 91.3429 150.39L91.3436 153.918Z" fill="black"/>
<path d="M102.882 144.741C101.762 144.741 100.683 145.371 99.7572 146.883V145.182C99.7572 145.014 99.6179 144.867 99.4478 144.867C99.4415 144.867 99.4345 144.867 99.4275 144.874L96.4175 144.951C96.274 144.958 96.1599 145.077 96.1599 145.217V145.231C96.1508 145.364 96.2474 145.49 96.3818 145.511C97.373 145.651 97.5018 146.12 97.5018 146.61V155.038C97.5018 155.633 97.3499 155.829 96.3979 155.892C96.2565 155.899 96.1431 156.011 96.1431 156.158C96.1431 156.298 96.2621 156.417 96.4063 156.417H101.117C101.259 156.417 101.376 156.305 101.377 156.158C101.377 156.018 101.266 155.906 101.126 155.899C100.038 155.843 99.7558 155.668 99.7558 155.038V148.108C100.162 147.093 100.991 146.302 102.026 145.945C101.978 146.113 101.953 146.288 101.95 146.456C101.95 147.233 102.587 147.87 103.36 147.87C104.134 147.87 104.771 147.233 104.771 146.456C104.771 146.449 104.771 146.435 104.771 146.421C104.771 145.497 104.008 144.727 103.08 144.727C103.013 144.727 102.946 144.734 102.881 144.741" fill="black"/>
<path d="M138.54 155.892C137.588 155.836 137.436 155.64 137.436 155.038V148.157C137.436 145.987 136.282 144.741 134.152 144.741C133.346 144.752 132.555 144.965 131.853 145.361C131.151 145.757 130.56 146.324 130.135 147.009V145.182C130.135 145.014 129.996 144.874 129.826 144.874H129.804L126.794 144.951C126.651 144.958 126.536 145.077 126.536 145.217V145.231C126.527 145.364 126.623 145.49 126.758 145.511C127.749 145.651 127.877 146.12 127.877 146.61V155.038C127.877 155.633 127.726 155.836 126.775 155.892C126.641 155.906 126.538 156.018 126.538 156.158C126.538 156.298 126.651 156.417 126.792 156.417H131.119C131.26 156.417 131.373 156.298 131.373 156.158C131.373 156.018 131.27 155.906 131.136 155.892C130.226 155.836 130.133 155.633 130.133 155.038V148.479C130.827 147.065 132.046 146.008 133.227 146.008C134.677 146.008 135.179 146.792 135.179 148.822V155.038C135.179 155.626 135.057 155.822 134.29 155.892C134.157 155.906 134.056 156.018 134.056 156.151C134.056 156.298 134.17 156.417 134.312 156.417H138.52C138.662 156.417 138.775 156.298 138.775 156.158C138.775 156.018 138.672 155.906 138.538 155.892" fill="black"/>
<path d="M120.441 144.741C120.349 144.741 120.256 144.734 120.164 144.734C116.906 144.734 114.225 147.415 114.225 150.677C114.225 153.932 116.906 156.613 120.164 156.613C123.422 156.613 126.103 153.932 126.103 150.677C126.105 150.614 126.106 150.551 126.106 150.488C126.106 147.366 123.562 144.783 120.441 144.741ZM120.441 155.983C117.991 155.983 117.329 153.603 117.329 150.677C117.329 147.744 117.993 145.364 120.441 145.364C122.89 145.364 123.553 147.744 123.553 150.677C123.553 153.603 122.89 155.983 120.441 155.983Z" fill="black"/>
<path d="M60.1423 140.849C61.886 141.017 62.2599 141.619 62.2599 142.48V154.247C62.2599 155.101 61.886 155.71 60.1423 155.878C60.0051 155.885 59.8945 155.997 59.8945 156.137C59.8945 156.144 59.8952 156.151 59.8959 156.158V156.172C59.8959 156.319 60.015 156.438 60.1613 156.438H67.0345C67.1801 156.438 67.2984 156.319 67.2984 156.172V156.158C67.2991 156.151 67.2999 156.144 67.2999 156.137C67.2999 155.997 67.1893 155.885 67.0521 155.878C65.1796 155.738 64.7833 155.143 64.7833 154.247V149.977H66.9127C69.9458 149.977 73.476 149.095 73.476 145.126C73.476 141.206 69.6959 140.282 66.5242 140.282H60.1613C60.015 140.289 59.8959 140.408 59.8959 140.555V140.562C59.8952 140.569 59.8953 140.583 59.8953 140.583C59.8953 140.723 60.0051 140.842 60.1423 140.842V140.849ZM64.7833 141.031H66.56C70.1146 141.031 70.6311 142.998 70.6311 145.119C70.6311 147.268 70.1146 149.214 66.56 149.214H64.7833V141.031Z" fill="black"/>
<path d="M78.6972 144.741C75.7047 144.741 73.2715 147.464 73.2715 150.789C73.2715 154.163 75.5535 156.606 78.6972 156.606C80.6194 156.704 82.4296 155.661 83.3088 153.953C83.4243 153.729 83.3921 153.505 83.2556 153.428C83.1296 153.358 82.9728 153.4 82.8937 153.519C82.0495 154.653 81.0737 155.444 79.6037 155.444C76.2822 155.444 75.6284 152.028 75.7691 149.956H83.0001C83.362 149.956 83.4278 149.746 83.4278 149.389C83.4278 147.779 82.6018 144.741 78.6972 144.741ZM75.8104 149.2C76.061 146.743 77.0529 145.399 78.5593 145.399C80.5781 145.399 80.9288 147.1 80.9288 148.493C80.9288 148.738 80.9176 148.955 80.9001 149.2H75.8104Z" fill="black"/>
<path d="M110.031 149.34C107.985 148.745 107.141 148.164 107.141 147.233C107.152 146.218 107.991 145.392 109.007 145.392H109.144C110.477 145.392 111.342 146.106 112.467 148.269C112.543 148.416 112.612 148.514 112.767 148.514C112.951 148.514 113.047 148.381 113.047 148.15V145.084C113.047 144.86 113.006 144.748 112.852 144.748C112.742 144.755 112.641 144.811 112.572 144.902L112.082 145.399C111.303 144.993 110.438 144.769 109.557 144.748C107.17 144.748 105.553 146.232 105.553 148.339C105.553 150.32 106.907 151.02 109.137 151.678C111.329 152.329 112.123 152.91 112.123 154.079C112.043 155.178 111.077 156.025 109.974 155.955C108.314 155.955 107.207 155.122 106.097 152.714C106.027 152.567 105.943 152.427 105.786 152.427C105.601 152.427 105.506 152.56 105.506 152.791V156.291C105.506 156.501 105.591 156.613 105.716 156.613C105.832 156.606 105.941 156.55 106.013 156.459L106.697 155.787C107.604 156.34 108.65 156.627 109.712 156.613C112.157 156.613 113.583 155.059 113.583 152.833C113.583 151.027 112.633 150.103 110.025 149.347" fill="black"/>
<path d="M159.498 148.409C159.562 149.459 159.124 150.488 158.32 151.167C157.345 151.867 156.159 152.203 154.964 152.126H153.769V156.424H151.892V144.937H155.198C156.343 144.846 157.482 145.161 158.425 145.812C159.167 146.463 159.564 147.422 159.497 148.409H159.498ZM153.768 150.544H154.766C155.508 150.6 156.251 150.425 156.889 150.04C157.359 149.662 157.613 149.074 157.564 148.472C157.606 147.912 157.382 147.366 156.959 146.995C156.403 146.624 155.739 146.449 155.073 146.505H153.768L153.768 150.544Z" fill="black"/>
<path d="M177.4 156.424H170.898V144.937H177.397V146.526H172.777V149.648H177.107V151.223H172.777V154.828H177.397L177.4 156.424Z" fill="black"/>
</g>
<line x1="100.2" y1="171" x2="100.2" y2="191" stroke="#333333"/>
<path d="M99.4602 200.98C100.26 200.98 100.947 201.127 101.52 201.42C102.107 201.7 102.547 202.08 102.84 202.56C103.134 203.04 103.28 203.553 103.28 204.1C103.28 204.62 103.187 205.067 103 205.44C102.827 205.8 102.614 206.093 102.36 206.32C102.107 206.547 101.767 206.813 101.34 207.12C100.78 207.507 100.36 207.867 100.08 208.2C99.8002 208.52 99.6602 208.953 99.6602 209.5V210.4H97.8402V209.4C97.8402 208.827 97.9335 208.34 98.1202 207.94C98.3202 207.54 98.5535 207.22 98.8202 206.98C99.0869 206.74 99.4402 206.467 99.8802 206.16C100.387 205.827 100.76 205.527 101 205.26C101.24 204.993 101.36 204.647 101.36 204.22C101.36 203.673 101.18 203.253 100.82 202.96C100.46 202.653 99.9669 202.5 99.3402 202.5C98.2735 202.5 97.3469 202.98 96.5602 203.94L95.3002 202.96C96.4202 201.64 97.8069 200.98 99.4602 200.98ZM98.8002 212.46C99.2002 212.46 99.5335 212.593 99.8002 212.86C100.067 213.127 100.2 213.453 100.2 213.84C100.2 214.227 100.067 214.56 99.8002 214.84C99.5335 215.107 99.2002 215.24 98.8002 215.24C98.4135 215.24 98.0869 215.107 97.8202 214.84C97.5535 214.56 97.4202 214.227 97.4202 213.84C97.4202 213.453 97.5535 213.127 97.8202 212.86C98.0869 212.593 98.4135 212.46 98.8002 212.46Z" fill="#333333"/>
<g clip-path="url(#clip2_1238_5510)">
<path d="M310.795 11.9305H306.327L306.793 9.49116H318.567L318.08 11.9305H313.611L311.007 25.676H308.211L310.795 11.9305ZM323.543 25.9518C319.35 25.9518 317.19 22.876 317.19 19.2699C317.148 16.3851 318.228 13.5851 320.219 11.4851C321.743 10.0215 323.776 9.2154 325.894 9.23661C330.193 9.23661 332.226 12.2699 332.226 15.9396C332.268 18.7609 331.231 21.5184 329.325 23.5972C327.8 25.1033 325.725 25.9306 323.565 25.9093L323.543 25.9518ZM323.967 23.5972C325.153 23.576 326.275 23.0881 327.101 22.2184C328.499 20.8184 329.282 18.0609 329.282 16.0245C329.282 13.9881 328.541 11.5912 325.555 11.5912C324.348 11.6124 323.183 12.1002 322.358 12.9912C320.917 14.7093 320.134 16.873 320.155 19.1215C320.155 21.5609 321.235 23.5972 323.946 23.5972H323.967ZM342.708 18.4851H336.906L336.017 23.3215H342.539L342.073 25.6972H332.734L335.805 9.5548H344.763L344.297 11.9305H338.155L337.351 16.173H343.174L342.708 18.4851ZM347.367 9.51237H356.262L355.796 11.8881H349.718L348.829 16.4275H354.483L354.017 18.7821H348.426L347.134 25.676H344.297L347.367 9.51237ZM358.76 9.51237H361.535L358.951 23.2366H365.283L364.817 25.676H355.69L358.76 9.51237ZM369.921 25.0609C369.243 25.8669 368.036 25.973 367.231 25.2942C366.426 24.6154 366.321 23.4063 366.998 22.6003C367.062 22.5154 367.146 22.4306 367.231 22.3669C367.909 21.5609 369.116 21.4548 369.921 22.1336C370.725 22.8124 370.831 24.0215 370.154 24.8275L369.921 25.0609ZM367.422 22.5366C366.786 23.173 366.786 24.2124 367.422 24.8487C368.057 25.4851 369.095 25.4851 369.73 24.8487C370.365 24.2124 370.365 23.173 369.73 22.5366C369.434 22.2396 369.01 22.0699 368.587 22.0487C368.142 22.0487 367.697 22.2184 367.422 22.5366ZM368.523 22.6427C368.714 22.6215 368.904 22.6639 369.095 22.7063C369.307 22.7912 369.434 23.0033 369.412 23.2366C369.434 23.4063 369.349 23.5548 369.201 23.6396C369.116 23.7033 369.01 23.7245 368.904 23.7457C369.052 23.7669 369.179 23.8306 369.264 23.9578C369.328 24.0427 369.37 24.1699 369.37 24.276V24.679H369.01V24.4881C369.031 24.2972 368.968 24.1063 368.819 24.0003C368.692 23.9366 368.544 23.9154 368.417 23.9366H368.121V24.7639H367.761V22.6215H368.523V22.6427ZM368.925 22.9821C368.777 22.9184 368.629 22.8972 368.481 22.8972H368.121V23.6609H368.459C368.587 23.6609 368.692 23.6609 368.798 23.6184C368.989 23.5336 369.074 23.3002 368.989 23.1093C368.968 23.0457 368.925 23.0033 368.883 22.9609H368.925V22.9821Z" fill="#003082"/>
<path d="M286.23 24.7426L286.166 24.7851C281.698 28.2002 277.187 30.279 271.554 31.5093C262.914 33.3972 254.888 32.2729 250.568 28.582C248.62 26.9275 247.54 24.8275 247.349 22.3881C246.82 16.1093 251.542 9.59718 259.949 4.99415L260.034 4.95172L259.928 4.71838L259.844 4.76081C249.975 8.74869 243.029 16.1729 243.559 23.2154C243.77 26.1002 245.062 28.6457 247.286 30.5972C251.86 34.6063 259.992 35.8366 269.013 33.9063C276.277 32.3578 282.058 29.1123 286.336 25.0396L286.42 24.9548L286.23 24.7426Z" fill="#003082"/>
<path d="M292.795 7.66689C291.08 3.8275 287.31 1.23962 282.185 0.327497C273.905 -1.13614 263.973 2.44871 258.997 8.2184L258.933 8.28204L259.081 8.49416L259.166 8.43052C262.47 5.67295 267.361 3.57295 272.253 2.83053C279.517 1.72749 285.616 3.55174 288.559 7.73053C291.418 11.782 290.614 19.6093 286.844 24.1487L286.781 24.2336L286.971 24.4457L287.056 24.382C292.774 18.9517 295.527 13.7972 292.795 7.66689Z" fill="#892528"/>
<path d="M262.279 18.6972H256.794L256.201 21.8578H262.321L261.834 24.4457H252.665L255.227 10.7426H264.037L263.528 13.3305H257.811L257.281 16.1305H262.766L262.279 18.6972ZM267.848 13.3305H264.481L264.989 10.7214H276.616C275.917 10.8699 275.303 11.2942 274.731 11.8669C274.074 12.5245 273.947 13.3093 273.947 13.3093H270.898L268.822 24.4033H265.773L267.848 13.3305Z" fill="#003082"/>
<path d="M274.053 21.0942C274.985 21.6457 276.277 22.0912 277.717 22.0912C278.839 22.0912 279.94 21.6245 279.94 20.5427C279.94 19.8215 279.305 19.3124 277.928 18.7184C276.34 18.0396 274.71 16.9578 274.71 14.9851C274.71 12.1639 277.335 10.5093 280.385 10.5093C282.248 10.5093 283.35 10.9124 284.027 11.2518L283.032 13.776C282.566 13.5427 281.423 13.076 280.131 13.0972C278.67 13.0972 277.95 13.776 277.95 14.4124C277.95 15.2609 278.987 15.7487 280.152 16.3002C281.994 17.1063 283.223 18.2093 283.223 20.0124C283.223 23.1518 280.491 24.6578 277.293 24.6578C275.218 24.6154 273.693 24.0851 272.931 23.5124L274.053 21.0942ZM292.075 27.6699C291.715 28.0305 291.27 28.2215 290.74 28.2215C290.211 28.2215 289.787 28.0305 289.406 27.6699C289.046 27.3093 288.856 26.8639 288.856 26.3336C288.856 25.8245 289.046 25.379 289.406 24.9972C289.766 24.6366 290.211 24.4457 290.719 24.4457C291.249 24.4457 291.693 24.6366 292.053 24.9972C292.413 25.3578 292.604 25.8033 292.604 26.3336C292.625 26.8427 292.435 27.2881 292.075 27.6699ZM289.597 25.1881C289.279 25.5063 289.131 25.8881 289.131 26.3336C289.131 26.779 289.279 27.1609 289.597 27.479C289.914 27.7972 290.296 27.9669 290.74 27.9669C291.185 27.9669 291.566 27.8184 291.884 27.479C292.202 27.1609 292.35 26.779 292.35 26.3336C292.35 25.8881 292.202 25.5063 291.884 25.1881C291.566 24.8699 291.185 24.7002 290.74 24.7002C290.296 24.7002 289.914 24.8699 289.597 25.1881ZM290.698 25.2942C290.952 25.2942 291.143 25.3154 291.27 25.3578C291.482 25.4427 291.587 25.6124 291.587 25.8881C291.587 26.079 291.524 26.2063 291.376 26.2912C291.312 26.3336 291.206 26.376 291.079 26.3972C291.249 26.4184 291.354 26.4821 291.439 26.6093C291.524 26.7154 291.545 26.8215 291.545 26.9275V27.2245C291.545 27.2881 291.545 27.3093 291.566 27.3305L291.587 27.3518H291.249V27.076C291.249 26.8427 291.185 26.673 291.058 26.6093C290.973 26.5669 290.846 26.5457 290.656 26.5457H290.359V27.3518H289.999V25.2942H290.698ZM291.1 25.6124C291.016 25.5699 290.867 25.5275 290.656 25.5275H290.338V26.2699H290.656C290.804 26.2699 290.931 26.2487 290.994 26.2275C291.143 26.1639 291.206 26.0578 291.206 25.9093C291.227 25.7609 291.185 25.6548 291.1 25.6124Z" fill="#003082"/>
</g>
<line x1="307.667" y1="40" x2="307.667" y2="60" stroke="#333333"/>
<path d="M306.927 69.98C307.727 69.98 308.413 70.1267 308.987 70.42C309.573 70.7 310.013 71.08 310.307 71.56C310.6 72.04 310.747 72.5533 310.747 73.1C310.747 73.62 310.653 74.0667 310.467 74.44C310.293 74.8 310.08 75.0933 309.827 75.32C309.573 75.5467 309.233 75.8133 308.807 76.12C308.247 76.5067 307.827 76.8667 307.547 77.2C307.267 77.52 307.127 77.9533 307.127 78.5V79.4H305.307V78.4C305.307 77.8267 305.4 77.34 305.587 76.94C305.787 76.54 306.02 76.22 306.287 75.98C306.553 75.74 306.907 75.4667 307.347 75.16C307.853 74.8267 308.227 74.5267 308.467 74.26C308.707 73.9933 308.827 73.6467 308.827 73.22C308.827 72.6733 308.647 72.2533 308.287 71.96C307.927 71.6533 307.433 71.5 306.807 71.5C305.74 71.5 304.813 71.98 304.027 72.94L302.767 71.96C303.887 70.64 305.273 69.98 306.927 69.98ZM306.267 81.46C306.667 81.46 307 81.5933 307.267 81.86C307.533 82.1267 307.667 82.4533 307.667 82.84C307.667 83.2267 307.533 83.56 307.267 83.84C307 84.1067 306.667 84.24 306.267 84.24C305.88 84.24 305.553 84.1067 305.287 83.84C305.02 83.56 304.887 83.2267 304.887 82.84C304.887 82.4533 305.02 82.1267 305.287 81.86C305.553 81.5933 305.88 81.46 306.267 81.46Z" fill="#333333"/>
<g clip-path="url(#clip3_1238_5510)">
<path d="M265.083 152.298C265.52 147.767 269.308 143.73 273.911 143.373C276.513 143.014 279.004 144.268 280.84 146.029C281.08 145.434 281.304 144.835 281.522 144.235C281.824 144.23 282.122 144.227 282.424 144.224C282.44 146.573 282.432 148.924 282.426 151.273C282.111 151.273 281.796 151.27 281.481 151.268C281.05 149.469 280.317 147.656 278.893 146.415C277.209 144.909 274.555 144.404 272.543 145.534C270.958 146.435 270.168 148.223 269.767 149.922C269.214 152.439 269.253 155.097 269.949 157.584C270.392 159.112 271.265 160.643 272.733 161.383C274.713 162.375 277.226 161.856 278.843 160.411C280.278 159.17 281.044 157.363 281.484 155.559C281.796 155.559 282.109 155.556 282.421 155.553C282.443 157.905 282.429 160.256 282.429 162.608C282.125 162.602 281.824 162.594 281.52 162.588C281.301 161.989 281.077 161.392 280.84 160.8C279.261 162.223 277.353 163.392 275.175 163.5H274.381C272.391 163.354 270.428 162.66 268.868 161.4C266.748 159.739 265.401 157.189 265.083 154.528V152.298Z" fill="#53565A"/>
<path d="M285.882 143.887C291.343 143.882 296.803 143.876 302.266 143.89C302.374 145.396 302.418 146.91 302.556 148.416C302.305 148.421 301.804 148.435 301.553 148.444C301.282 147.313 300.994 145.785 299.62 145.548C297.414 145.227 295.163 145.481 292.941 145.404C292.941 147.637 292.93 149.869 292.946 152.105C294.398 152.036 295.926 152.295 297.317 151.776C298.34 151.298 298.213 149.985 298.293 149.046C298.63 149.063 298.97 149.076 299.308 149.093C299.288 151.607 299.291 154.125 299.305 156.639C298.968 156.65 298.628 156.661 298.288 156.67C298.229 155.727 298.343 154.429 297.328 153.942C295.935 153.392 294.395 153.696 292.938 153.627C292.96 155.437 292.894 157.25 292.965 159.057C293.032 159.822 293.14 160.803 293.936 161.168C295.053 161.582 296.275 161.383 297.442 161.428C298.724 161.383 300.109 161.616 301.301 161.016C302.252 160.502 302.302 159.292 302.595 158.374C302.844 158.383 303.341 158.402 303.59 158.413C303.463 159.922 303.427 161.436 303.297 162.947C297.491 162.942 291.685 162.953 285.882 162.942C285.882 162.624 285.888 162.309 285.891 161.994C286.809 161.875 288.086 162.011 288.55 161.008C288.979 159.971 288.876 158.811 288.929 157.711C288.921 154.575 288.948 151.439 288.915 148.303C288.835 147.355 288.935 146.297 288.354 145.484C287.724 144.829 286.726 144.923 285.893 144.816C285.888 144.506 285.885 144.194 285.882 143.887Z" fill="#53565A"/>
<path d="M306.493 143.882C309.852 143.884 313.214 143.882 316.576 143.884C316.576 144.116 316.571 144.583 316.571 144.816C315.76 144.915 314.823 144.84 314.171 145.421C313.521 146.214 313.596 147.316 313.538 148.283C313.546 151.69 313.513 155.097 313.554 158.504C313.626 159.463 313.607 160.745 314.644 161.196C315.86 161.602 317.165 161.37 318.42 161.428C319.811 161.37 321.282 161.629 322.603 161.082C323.643 160.607 323.742 159.344 324.005 158.377C324.245 158.385 324.729 158.399 324.972 158.408C324.937 159.922 324.82 161.433 324.721 162.947C318.644 162.947 312.567 162.945 306.49 162.947C306.49 162.713 306.485 162.24 306.485 162.005C307.347 161.881 308.406 161.997 309.031 161.265C309.493 160.546 309.49 159.648 309.523 158.825C309.529 155.321 309.518 151.815 309.529 148.311C309.509 147.441 309.529 146.515 309.133 145.714C308.592 144.796 307.394 144.932 306.488 144.816C306.488 144.583 306.49 144.116 306.493 143.882Z" fill="#53565A"/>
<path d="M327.397 143.912C330.952 143.843 334.511 143.904 338.069 143.879C339.893 143.851 341.812 144.398 343.106 145.744C344.792 147.388 344.992 150.273 343.618 152.171C342.487 153.746 340.521 154.542 338.622 154.586C337.239 154.605 335.86 154.578 334.477 154.592C334.502 156.269 334.414 157.952 334.527 159.629C334.593 160.32 334.699 161.143 335.321 161.569C335.97 161.955 336.764 161.889 337.488 161.978C337.502 162.301 337.516 162.624 337.527 162.947C334.159 162.942 330.789 162.956 327.422 162.939C327.422 162.627 327.425 162.315 327.425 162.005C328.24 161.875 329.216 162 329.858 161.383C330.463 160.679 330.397 159.673 330.466 158.805C330.469 155.205 330.471 151.607 330.466 148.007C330.408 147.2 330.444 146.321 330.004 145.609C329.418 144.799 328.312 144.934 327.436 144.818C327.425 144.514 327.411 144.213 327.397 143.912ZM334.477 145.404C334.475 147.982 334.475 150.56 334.477 153.135C335.876 153.133 337.419 153.276 338.641 152.458C340.878 150.991 340.717 147.079 338.329 145.843C337.145 145.208 335.76 145.434 334.477 145.404Z" fill="#53565A"/>
<path d="M346.214 143.895C349.584 143.865 352.954 143.893 356.322 143.882C356.319 144.197 356.311 144.512 356.302 144.829C355.401 144.929 354.237 144.796 353.687 145.683C353.131 146.739 353.308 147.979 353.275 149.126C353.283 152.436 353.269 155.747 353.278 159.057C353.322 159.82 353.311 160.676 353.806 161.312C354.444 161.991 355.459 161.886 356.305 161.991C356.311 162.309 356.316 162.627 356.322 162.947C352.954 162.942 349.59 162.956 346.222 162.939C346.222 162.627 346.222 162.315 346.225 162.005C347.038 161.867 348.008 161.991 348.652 161.378C349.18 160.745 349.18 159.866 349.205 159.087C349.191 155.208 349.205 151.331 349.2 147.452C349.161 146.708 349.109 145.846 348.514 145.313C347.848 144.854 346.999 144.91 346.23 144.816C346.225 144.509 346.219 144.202 346.214 143.895Z" fill="#53565A"/>
<path d="M359.147 143.887C362.719 143.876 366.291 143.887 369.866 143.879C371.815 143.857 373.877 144.525 375.141 146.07C376.642 147.847 376.634 150.696 375.121 152.461C373.977 153.834 372.172 154.528 370.41 154.583C369.009 154.611 367.607 154.575 366.205 154.592C366.288 156.645 365.976 158.756 366.479 160.77C366.819 161.966 368.248 161.884 369.238 161.994C369.241 162.309 369.246 162.624 369.252 162.942C365.885 162.95 362.514 162.947 359.147 162.942C359.15 162.627 359.153 162.315 359.155 162.002C360.034 161.875 361.146 162.005 361.743 161.207C362.199 160.4 362.166 159.433 362.196 158.535C362.183 154.945 362.208 151.353 362.188 147.764C362.122 146.877 362.141 145.752 361.306 145.2C360.648 144.854 359.871 144.907 359.155 144.818C359.15 144.506 359.147 144.197 359.147 143.887ZM366.202 145.407C366.202 147.982 366.202 150.56 366.202 153.135C367.554 153.124 369.034 153.282 370.242 152.544C372.523 151.179 372.528 147.333 370.261 145.957C369.047 145.197 367.56 145.426 366.202 145.407Z" fill="#53565A"/>
<path d="M249.399 141C250.559 142.895 251.486 144.917 252.556 146.861C253.289 146.386 254.016 145.9 254.757 145.432C253.896 148.564 253.144 151.724 252.357 154.874C252.376 153.918 252.691 153.009 252.878 152.08C253.332 150.033 253.946 148.021 254.383 145.97C254.115 146.139 253.813 146.278 253.605 146.525C253.448 146.787 253.421 147.1 253.356 147.394C252.713 150.865 251.986 154.321 251.359 157.796C251.587 157.524 251.783 157.228 251.937 156.909C253.359 155.37 254.837 153.876 256.455 152.543C256.479 153.076 256.472 153.61 256.475 154.144C257.898 153.929 259.32 153.713 260.743 153.506C260.375 154.115 260.062 154.761 259.636 155.333C259.798 154.858 259.999 154.396 260.198 153.935C259.664 154.216 259.359 154.744 259.025 155.219C258.634 155.798 258.179 156.331 257.815 156.929C258.028 156.982 258.245 157.036 258.459 157.09C258.591 156.969 258.72 156.846 258.849 156.721C258.835 156.816 258.809 157.002 258.794 157.095C259.214 157.176 259.633 157.255 260.05 157.344C259.029 157.991 257.991 158.613 257.009 159.319C256.819 159.453 256.619 159.579 256.406 159.675C257.323 158.72 258.597 158.222 259.633 157.412C259.225 157.324 258.8 157.178 258.381 157.275C258.187 157.359 258.024 157.5 257.861 157.63C256.418 158.908 254.947 160.156 253.5 161.429C253.059 161.791 252.648 162.191 252.315 162.657C252.018 163.081 251.599 163.471 251.569 164.021C251.266 164.579 250.813 165.058 250.491 165.615C250.964 163.878 251.893 162.302 252.928 160.845C253.939 159.453 255.09 158.165 256.319 156.962C256.8 156.497 257.251 155.991 257.806 155.609C257.764 155.598 257.679 155.574 257.638 155.561C257.424 155.501 257.207 155.42 256.983 155.465C256.279 155.566 255.554 155.731 254.977 156.172C254.243 156.707 253.418 157.173 252.915 157.958C254.111 157.444 255.107 156.522 256.355 156.127L256.592 156.089C253.402 157.806 250.342 159.985 248.308 163.039C248.746 161.398 249.718 159.971 250.612 158.557C250.474 154.509 249.977 150.481 249.423 146.471C249.382 146.56 249.3 146.734 249.258 146.821C249.201 146.295 249.346 145.774 249.307 145.247C249.26 144.638 249.141 144.035 248.996 143.443C248.752 144.735 248.712 146.052 248.575 147.357C248.282 150.01 248.097 152.674 247.844 155.332C247.695 156.714 247.755 158.108 247.819 159.493C247.848 158.511 248.023 157.54 248.001 156.555C248.133 153.859 248.415 151.172 248.836 148.506C248.933 147.936 248.942 147.328 249.258 146.821C249.276 147.055 249.263 147.285 249.224 147.514C248.441 152.659 247.98 157.857 247.977 163.062C247.748 162.03 247.603 160.98 247.388 159.945C245.663 158.481 243.767 157.234 241.829 156.074C241.527 155.868 241.197 155.711 240.854 155.591C240.592 155.461 240.332 155.327 240.07 155.201C240.493 155.868 241.114 156.365 241.65 156.936C242.423 157.739 243.239 158.503 243.961 159.357C244.223 159.663 244.523 159.932 244.837 160.184C244.137 159.065 243.206 158.115 242.297 157.165C241.867 156.693 241.295 156.321 241.05 155.705C241.645 156.146 242.128 156.713 242.658 157.224C245.016 159.618 247.225 162.347 248.193 165.618C245.895 162.002 242.235 159.585 238.677 157.345C239.121 157.254 239.566 157.162 240.01 157.069C239.359 155.87 238.672 154.691 238 153.503C239.426 153.722 240.854 153.924 242.278 154.151C242.275 153.616 242.275 153.081 242.29 152.547C243.61 153.68 244.934 154.835 246.048 156.176C245.503 155.805 245.108 155.269 244.624 154.829C243.961 154.224 243.318 153.594 242.599 153.056C242.605 153.483 242.547 153.929 242.685 154.343C242.934 154.705 243.325 154.931 243.643 155.227C244.81 156.313 246.021 157.354 247.188 158.441C247.121 158.069 247.092 157.684 246.96 157.327C246.697 156.967 246.35 156.67 246.137 156.273C246.388 156.484 246.601 156.733 246.81 156.985C245.981 153.114 245.046 149.266 244.035 145.438C244.768 145.903 245.494 146.379 246.217 146.86C247.304 144.921 248.255 142.908 249.399 141ZM249.383 141.479C249.208 141.756 249.035 142.053 248.998 142.385C249.787 144.108 250.742 145.757 251.496 147.497C251.826 147.42 252.149 147.304 252.403 147.07C252.489 146.882 252.294 146.707 252.238 146.535C251.393 144.981 250.566 143.417 249.737 141.854C249.645 141.711 249.579 141.502 249.383 141.479ZM244.465 146.046C244.579 146.371 244.612 146.764 244.893 146.999C245.205 147.255 245.531 147.51 245.908 147.664C246.078 147.521 246.151 147.304 246.257 147.115C245.663 146.753 245.103 146.329 244.465 146.046ZM255.689 153.531C255.649 153.803 255.656 154.08 255.657 154.354C255.894 154.321 256.131 154.289 256.369 154.257C256.376 153.763 256.378 153.27 256.355 152.777C256.107 152.999 255.79 153.195 255.689 153.531ZM238.584 153.821C238.8 154.177 238.931 154.724 239.433 154.746C240.364 154.9 241.289 155.087 242.218 155.253C242.29 154.973 242.34 154.686 242.358 154.397C241.101 154.2 239.847 153.985 238.584 153.821Z" fill="#B3A369"/>
<path d="M249.383 141.479C249.579 141.502 249.645 141.711 249.736 141.854C250.565 143.417 251.393 144.981 252.238 146.535C252.294 146.707 252.488 146.881 252.402 147.07C252.149 147.304 251.825 147.42 251.496 147.497C250.742 145.757 249.786 144.108 248.998 142.385C249.035 142.053 249.208 141.756 249.383 141.479Z" fill="#D3CAA9"/>
<path d="M248.996 143.443C249.141 144.035 249.26 144.638 249.307 145.247C249.346 145.774 249.201 146.295 249.258 146.821C248.942 147.328 248.933 147.936 248.836 148.506C248.415 151.172 248.133 153.859 248.001 156.555C248.023 157.54 247.848 158.511 247.819 159.493C247.755 158.108 247.695 156.714 247.844 155.332C248.097 152.674 248.282 150.01 248.575 147.357C248.711 146.052 248.751 144.735 248.996 143.443Z" fill="#D3CAA9"/>
<path d="M244.464 146.046C245.103 146.329 245.663 146.753 246.257 147.115C246.151 147.304 246.078 147.521 245.908 147.664C245.531 147.51 245.205 147.255 244.892 146.999C244.612 146.764 244.579 146.371 244.464 146.046Z" fill="#D3CAA9"/>
<path d="M253.605 146.525C253.813 146.278 254.115 146.139 254.383 145.97C253.946 148.021 253.332 150.033 252.878 152.08C252.69 153.009 252.375 153.918 252.357 154.874C252.247 155.558 252.055 156.226 251.937 156.909C251.783 157.228 251.587 157.524 251.359 157.796C251.986 154.321 252.713 150.865 253.356 147.394C253.421 147.1 253.448 146.787 253.605 146.525Z" fill="#D3CAA9"/>
<path d="M255.689 153.531C255.79 153.195 256.107 152.999 256.354 152.777C256.377 153.27 256.376 153.763 256.369 154.257C256.131 154.289 255.893 154.321 255.657 154.354C255.656 154.08 255.649 153.803 255.689 153.531Z" fill="#D3CAA9"/>
<path d="M242.599 153.056C243.318 153.594 243.961 154.224 244.623 154.829C245.107 155.269 245.503 155.805 246.048 156.176L246.1 156.213L246.137 156.273C246.35 156.67 246.697 156.967 246.96 157.327C247.092 157.684 247.121 158.069 247.188 158.441C246.021 157.354 244.81 156.313 243.643 155.227C243.325 154.931 242.934 154.705 242.685 154.343C242.547 153.929 242.605 153.483 242.599 153.056Z" fill="#D3CAA9"/>
<path d="M238.584 153.821C239.847 153.985 241.101 154.2 242.358 154.397C242.34 154.686 242.29 154.973 242.218 155.253C241.289 155.087 240.364 154.9 239.433 154.746C238.93 154.724 238.8 154.177 238.584 153.821Z" fill="#D3CAA9"/>
<path d="M259.025 155.219C259.358 154.744 259.663 154.215 260.197 153.935C259.998 154.396 259.798 154.858 259.636 155.333C259.413 155.815 259.151 156.286 258.849 156.721C258.72 156.846 258.591 156.969 258.459 157.09C258.244 157.036 258.028 156.982 257.815 156.929C258.179 156.331 258.634 155.798 259.025 155.219Z" fill="#D3CAA9"/>
<path d="M240.07 155.201C240.332 155.327 240.591 155.46 240.854 155.591C240.902 155.619 241.001 155.677 241.05 155.705C241.295 156.321 241.867 156.693 242.297 157.165C243.206 158.115 244.137 159.065 244.837 160.184C244.523 159.932 244.223 159.663 243.961 159.357C243.239 158.503 242.423 157.739 241.65 156.936C241.114 156.365 240.493 155.868 240.07 155.201Z" fill="#D3CAA9"/>
<path d="M256.983 155.465C257.206 155.42 257.424 155.501 257.637 155.561C257.221 155.771 256.815 156.021 256.354 156.127C255.107 156.522 254.111 157.444 252.915 157.958C253.418 157.173 254.242 156.707 254.977 156.172C255.554 155.731 256.278 155.566 256.983 155.465Z" fill="#D3CAA9"/>
<path d="M257.861 157.63C258.024 157.5 258.187 157.359 258.381 157.275C258.8 157.178 259.225 157.324 259.633 157.412C258.597 158.222 257.322 158.72 256.406 159.675C255.236 160.615 254.015 161.505 252.95 162.57C252.459 163.023 252.043 163.55 251.569 164.021C251.599 163.471 252.017 163.081 252.315 162.657C252.648 162.191 253.058 161.791 253.499 161.429C254.947 160.156 256.418 158.908 257.861 157.63Z" fill="#D3CAA9"/>
</g>
<line x1="307.667" y1="171" x2="307.667" y2="191" stroke="#333333"/>
<path d="M306.927 200.98C307.727 200.98 308.413 201.127 308.987 201.42C309.573 201.7 310.013 202.08 310.307 202.56C310.6 203.04 310.747 203.553 310.747 204.1C310.747 204.62 310.653 205.067 310.467 205.44C310.293 205.8 310.08 206.093 309.827 206.32C309.573 206.547 309.233 206.813 308.807 207.12C308.247 207.507 307.827 207.867 307.547 208.2C307.267 208.52 307.127 208.953 307.127 209.5V210.4H305.307V209.4C305.307 208.827 305.4 208.34 305.587 207.94C305.787 207.54 306.02 207.22 306.287 206.98C306.553 206.74 306.907 206.467 307.347 206.16C307.853 205.827 308.227 205.527 308.467 205.26C308.707 204.993 308.827 204.647 308.827 204.22C308.827 203.673 308.647 203.253 308.287 202.96C307.927 202.653 307.433 202.5 306.807 202.5C305.74 202.5 304.813 202.98 304.027 203.94L302.767 202.96C303.887 201.64 305.273 200.98 306.927 200.98ZM306.267 212.46C306.667 212.46 307 212.593 307.267 212.86C307.533 213.127 307.667 213.453 307.667 213.84C307.667 214.227 307.533 214.56 307.267 214.84C307 215.107 306.667 215.24 306.267 215.24C305.88 215.24 305.553 215.107 305.287 214.84C305.02 214.56 304.887 214.227 304.887 213.84C304.887 213.453 305.02 213.127 305.287 212.86C305.553 212.593 305.88 212.46 306.267 212.46Z" fill="#333333"/>
<line y1="110.5" x2="400" y2="110.5" stroke="#C4C4C4"/>
<line x1="199.5" y1="210" x2="199.5" y2="10" stroke="#C4C4C4"/>
<defs>
<clipPath id="clip0_1238_5510">
<rect width="83.6538" height="25" fill="white" transform="translate(57.873 10)"/>
</clipPath>
<clipPath id="clip1_1238_5510">
<rect width="155.4" height="35" fill="white" transform="translate(22 131)"/>
</clipPath>
<clipPath id="clip2_1238_5510">
<rect width="127.273" height="35" fill="white" transform="translate(243.53)"/>
</clipPath>
<clipPath id="clip3_1238_5510">
<rect width="138.333" height="25" fill="white" transform="translate(238 141)"/>
</clipPath>
</defs>
</svg>
