<svg width="1512" height="479" viewBox="0 0 1512 479" fill="none" xmlns="http://www.w3.org/2000/svg">
<g opacity="0.15" clip-path="url(#clip0_882_3801)">
<path d="M691.287 279.946V280.946H692.287H700.389V475.515H684.84H658.914H643.365V282.878H649.812H650.812V281.878V278.461H651.467H652.467V277.461V273.216H652.743V272.939H663.603H664.603V272.387H673.808H674.808V271.559H676.669V272.387H677.669H678.324V272.939H679.324H686.047V273.216H686.598V277.461V278.461H687.598H691.287V279.946Z" fill="white" stroke="#333333" stroke-width="2"/>
<path d="M941.448 442.833V443.833H942.448H988.888V451.944V467.957V478H986.854H978.58H971.96H935.001H928.933H891.975H871.84H863.566H860.98V467.957V451.944V443.833H863.566H864.566V442.833V116.23V108.224V106.291V104.911V95.4196H865.221H866.324H867.324V94.4196V91.3827V88.6219V87.6219H866.324H864.566V86.0328H873.771H874.771V85.0328V82.7199H876.529H877.529V81.7199V80.5112H928.485V81.7199V82.7199H929.485H931.243V85.0328V86.0328H932.243H941.448V87.6219H939.69H938.69V88.6219V91.3827V94.4196V95.4196H939.69H941.069H941.448V104.911V106.291V108.224V116.23V442.833Z" fill="white" stroke="#333333" stroke-width="2"/>
<mask id="path-3-inside-1_882_3801" fill="white">
<path d="M457.02 427.097V423.784V417.986V413.845V408.047V404.182V398.108V394.243V388.169V384.304V378.231V375.194V369.12V366.359V360.561V356.42V350.622V346.481V340.684V336.818V330.745V326.88V320.806V316.941V311.143V307.002V301.204V297.063V291.265V287.124V281.326V277.461V271.387V267.522V261.448V257.583V251.509V247.644V241.847V237.705V231.908V227.767V221.969V217.828V212.03V208.165V202.091V198.226V192.152V188.287V182.489V178.072H445.987V174.207H446.815V164.544H444.884V158.194H445.436V157.09H415.372V155.709H410.683V150.188L409.304 147.979V126.721L408.477 123.684V117.61H407.374V123.408L406.546 126.721V147.979L405.167 150.188V155.709H400.478V157.09H370.415V158.194H370.967V164.544H369.036V173.931V174.207H369.863V178.072H359.107V182.489V188.287V192.152V198.226V202.091V208.165V212.03V217.828V221.969V227.767V231.908V237.705V241.847V247.644V251.509V257.583V261.448V267.522V271.387V277.461V281.326V287.124V291.265V297.063V301.204V307.002V311.143V316.941V320.806V326.88V330.745V336.818V340.684V346.481V350.622V356.42V360.561V366.359V369.12V375.194V378.231V384.304V388.169V394.243V398.108V404.182V408.047V413.845V417.986V423.784V427.097H323.803V435.931V478.172H330.146V435.931V478.172H334.559V435.931H348.626V477.343H351.936H355.245H359.382H369.036H379.241H385.86H389.998H393.031H402.133H403.512H412.338H413.717H422.819H430.266H436.886H441.023H446.815H460.605H463.915H467.225V435.931V477.343H471.638V435.931H485.704V477.343H492.048V435.931V427.097H457.02Z"/>
</mask>
<path d="M457.02 427.097V423.784V417.986V413.845V408.047V404.182V398.108V394.243V388.169V384.304V378.231V375.194V369.12V366.359V360.561V356.42V350.622V346.481V340.684V336.818V330.745V326.88V320.806V316.941V311.143V307.002V301.204V297.063V291.265V287.124V281.326V277.461V271.387V267.522V261.448V257.583V251.509V247.644V241.847V237.705V231.908V227.767V221.969V217.828V212.03V208.165V202.091V198.226V192.152V188.287V182.489V178.072H445.987V174.207H446.815V164.544H444.884V158.194H445.436V157.09H415.372V155.709H410.683V150.188L409.304 147.979V126.721L408.477 123.684V117.61H407.374V123.408L406.546 126.721V147.979L405.167 150.188V155.709H400.478V157.09H370.415V158.194H370.967V164.544H369.036V173.931V174.207H369.863V178.072H359.107V182.489V188.287V192.152V198.226V202.091V208.165V212.03V217.828V221.969V227.767V231.908V237.705V241.847V247.644V251.509V257.583V261.448V267.522V271.387V277.461V281.326V287.124V291.265V297.063V301.204V307.002V311.143V316.941V320.806V326.88V330.745V336.818V340.684V346.481V350.622V356.42V360.561V366.359V369.12V375.194V378.231V384.304V388.169V394.243V398.108V404.182V408.047V413.845V417.986V423.784V427.097H323.803V435.931V478.172H330.146V435.931V478.172H334.559V435.931H348.626V477.343H351.936H355.245H359.382H369.036H379.241H385.86H389.998H393.031H402.133H403.512H412.338H413.717H422.819H430.266H436.886H441.023H446.815H460.605H463.915H467.225V435.931V477.343H471.638V435.931H485.704V477.343H492.048V435.931V427.097H457.02Z" fill="white" stroke="#333333" stroke-width="4" mask="url(#path-3-inside-1_882_3801)"/>
<path d="M1291.9 163.335H1303.04V163.716V164.716H1304.04H1306.62V190.772V191.772H1307.62H1317.93V209.545V210.545H1318.93H1327.31V474.963H1307.62H1266.42V164.716H1267.35H1268.35V163.716V161.955H1280.42V163.716V164.716H1281.42H1289.97H1290.97V163.716V163.335H1291.52H1291.9Z" fill="white" stroke="#333333" stroke-width="2"/>
<path d="M1478.73 403.906V404.906H1479.73H1481.76V476.896H1422.09H1335.93V404.906H1340.17H1341.17V403.906V401.317H1344.31H1345.31V400.317V327.62L1400.4 310.837V400.317V401.317H1401.4H1417.67H1418.67V400.317V262.529L1473.77 279.579V400.317V401.317H1474.77H1478.73V403.906Z" fill="white" stroke="#333333" stroke-width="2"/>
<path d="M149.593 417.158V418.158H150.593H168.073V475.239H27.7539V418.158H44.9575H45.9575V417.158V276.529H51.3012H52.3012V275.529V267.694H62.3336H63.3336V266.694V245.331H73.3661H74.3661V244.331V243.779V242.399V241.295V239.914V238.534V237.272L78.2331 233.144L78.5033 232.855V232.46V232.184V231.356V231.154L78.61 231.083L81.0923 229.427L81.5372 229.13V228.595V224.901H83.2953H84.2953V223.901V220.76H86.8809H87.8809V219.76V218.276H89.9148H90.9148V217.276V215.791H92.3971H93.3971V214.791V213.306H95.7068H96.7068V212.306V209.993H97.7408H97.9133H98.7408H98.9133H99.9473V212.306V213.306H100.947H103.257V214.791V215.791H104.257H105.739V217.276V218.276H106.739H108.773V219.76V220.76H109.773H112.083V223.901V224.901H113.083H115.117V228.595V229.13L115.562 229.427L117.875 230.97V231.356V232.184V232.46V232.874L118.168 233.167L122.012 237.015V238.534V239.362V239.914V241.295V242.399V243.779V244.331V245.331H123.012H132.217V266.694V267.694H133.217H143.25V275.529V276.529H144.25H149.593V417.158Z" fill="white" stroke="#333333" stroke-width="2"/>
<path d="M250.264 189.391V190.391H251.264H258.815V475.239H240.232H239.232V476.239V476.62H158.764V476.239V475.239H157.764H139.182V190.391H146.732H147.732V189.391V161.955H157.764H158.764V160.955V132.69H169.624H170.624V131.69V121.923H174.313H175.313V120.923V115.85H175.795V120.923V121.923H176.795H177.899H178.899V120.923V109.776H179.381V120.923V121.923H180.381H182.312H183.312V120.923V109.776H183.794V120.923V121.923H184.794H186.449H187.449V120.923V119.715H189.862V120.923V121.923H190.862H196.654H197.654V120.923V115.85H198.136V120.923V121.923H199.136H201.067H202.067V120.923V115.85H202.549V120.923V121.923H203.549H209.341H210.341V120.923V120.819H210.823V120.923V121.923H211.823H215.685H216.685V120.923V119.991H219.098V120.923V121.923H220.098H227.372V131.69V132.69H228.372H239.232V160.955V161.955H240.232H250.264V189.391Z" fill="white" stroke="#333333" stroke-width="2"/>
<mask id="path-8-inside-2_882_3801" fill="white">
<path d="M598.512 453.325V220.312H591.065V200.435H590.513V176.968H585.273V166.201H580.86V153.501L559.898 127.549H558.243H556.312H555.485H551.9H550.796H547.487H546.383H543.074H541.97H538.385H537.557H533.42H532.317H530.386H528.731L527.076 129.482V129.758L511.355 149.084L507.77 153.501V166.201H503.357V176.968H497.565V200.435H495.634H495.082V222.797H492.6V453.325H485.98V455.257V455.809V476.239H490.118H491.497H491.773H493.152H493.427H494.806H495.082H496.737H500.599H501.978H503.632H503.908H505.287H505.563H507.218H511.079H512.183H512.458H514.113H514.389H515.768H516.044H517.423H521.56H522.663H522.939H524.594H524.87H526.249H526.525H527.904H532.041H533.144H533.42H535.075H535.351H536.73H537.006H538.385H542.522H543.625H543.901H545.556H547.211H547.487H548.866H553.003H554.106H554.382H555.761H556.037H557.692H557.967H559.346H563.484H564.587H564.863H566.242H566.518H568.172H568.448H569.827H573.689H575.068H575.344H576.723H576.998H578.653H578.929H580.308H584.17H585.549H585.824H587.203H587.479H589.134H590.789H594.65H596.029H596.305H597.684H597.96H599.339H599.615H601.27H605.683V455.809V455.257V453.325H598.512Z"/>
</mask>
<path d="M598.512 453.325V220.312H591.065V200.435H590.513V176.968H585.273V166.201H580.86V153.501L559.898 127.549H558.243H556.312H555.485H551.9H550.796H547.487H546.383H543.074H541.97H538.385H537.557H533.42H532.317H530.386H528.731L527.076 129.482V129.758L511.355 149.084L507.77 153.501V166.201H503.357V176.968H497.565V200.435H495.634H495.082V222.797H492.6V453.325H485.98V455.257V455.809V476.239H490.118H491.497H491.773H493.152H493.427H494.806H495.082H496.737H500.599H501.978H503.632H503.908H505.287H505.563H507.218H511.079H512.183H512.458H514.113H514.389H515.768H516.044H517.423H521.56H522.663H522.939H524.594H524.87H526.249H526.525H527.904H532.041H533.144H533.42H535.075H535.351H536.73H537.006H538.385H542.522H543.625H543.901H545.556H547.211H547.487H548.866H553.003H554.106H554.382H555.761H556.037H557.692H557.967H559.346H563.484H564.587H564.863H566.242H566.518H568.172H568.448H569.827H573.689H575.068H575.344H576.723H576.998H578.653H578.929H580.308H584.17H585.549H585.824H587.203H587.479H589.134H590.789H594.65H596.029H596.305H597.684H597.96H599.339H599.615H601.27H605.683V455.809V455.257V453.325H598.512Z" fill="white" stroke="#333333" stroke-width="4" mask="url(#path-8-inside-2_882_3801)"/>
<path d="M835.261 458.57V459.57H836.261H860.084V476.343H836.261H815.299H814.747H743.209V149.961L746.701 114.469H754.069H778.065H785.583L814.299 150.263V167.581V168.581H814.683L817.615 194.198L817.717 195.085H818.419L828.09 206.597V449.288H820.264H819.264V450.288V456.637V457.637H820.264H835.261V458.57Z" fill="white" stroke="#333333" stroke-width="2"/>
<path d="M1114.94 1.27612L1119.61 479.38H999.172L1003.57 1.27612H1114.94Z" fill="white" stroke="#333333" stroke-width="2"/>
<path d="M1285.28 435.827H1286.28V434.827V392.206H1294.66H1295.66V391.206V349.69H1304.31H1305.31V348.69V256.099H1312.04H1313.04V255.099V247.816H1324.45H1325.45V246.816V242.295H1354.61V246.816V247.816H1355.61H1358.75V255.099V263.381V348.69V358.905V396.728V400.869V448.907V452.772V476.62H1236.91V435.827H1285.28Z" fill="white" stroke="#333333" stroke-width="2"/>
<path d="M1462.18 328.984H1463.08H1463.18H1465.39H1466.04H1466.39H1467.04H1467.7H1467.87H1468.7H1468.87H1469.35H1469.52H1470.35H1470.52H1470.9H1471.01H1471.9H1472.01H1472.66V332.401V333.401H1473.66H1477.35V344.549V345.549H1478.35H1481.49V356.42V357.42H1482.49H1484.8V474.687H1478.35H1477.35V475.239H1447.36V474.687H1446.36H1439.63V357.42H1441.94H1442.94V356.42V345.549H1446.36H1447.36V344.549V333.401H1450.77H1451.77V332.401V328.984H1454.08H1454.73H1455.08H1455.73H1457.11H1457.22H1458.11H1458.22H1460.42H1460.53H1461.42H1461.53H1462.08H1462.18Z" fill="white" stroke="#333333" stroke-width="2"/>
<path d="M1408.4 330.916H1409.29H1409.4H1411.6H1412.26H1412.6H1413.26H1413.91H1414.09H1414.91H1415.09H1415.57H1415.74H1416.57H1416.74H1416.95H1417.12H1417.95H1418.12H1418.88V334.334V335.334H1419.88H1423.29V346.481V347.481H1424.29H1427.7V358.353V359.353H1428.7H1431.01V476.62H1424.29H1423.29V477.172H1393.3V476.62H1392.3H1385.85V359.353H1388.16H1389.16V358.353V347.481H1392.3H1393.3V346.481V335.334H1396.99H1397.99V334.334V330.916H1400.3H1400.95H1401.3H1401.95H1403.33H1403.43H1404.33H1404.43H1406.64H1406.74H1407.64H1407.74H1408.29H1408.4Z" fill="white" stroke="#333333" stroke-width="2"/>
<mask id="path-14-inside-3_882_3801" fill="white">
<path d="M330.698 429.858V375.746V374.641V373.261V371.881V370.5V369.396V368.016V366.635V365.531V364.15V363.322V361.942V361.114V359.733V358.353V357.248V355.868V354.488V353.383V352.003V350.622V349.518V348.138V346.757V345.377V344.273V342.892V341.788V340.407V339.027V337.647V336.542V335.162V333.782V332.677V331.297V329.916V328.812V327.432V326.051V324.947V323.567V322.186V321.082V319.701V318.321V316.941V315.836V314.456V313.076V311.971V310.591V309.21V308.106V306.726V305.345V304.241V302.861V301.48V300.376V298.995V297.615V296.235V295.13V293.75V292.646V291.265V289.885V288.504V287.4V286.02V284.639V283.535V282.154V280.774V279.67V278.289V276.909V275.529V274.424V273.044V271.939V270.559V269.179V267.798V266.694V265.314V263.933V262.829V261.448V260.068V258.964V257.583V256.203V254.822V253.718V252.338V251.51V251.233V249.853V248.473V247.092V245.988V244.608V243.227V242.123V241.571V240.742V238.534L326.285 234.393V234.116V233.564V232.46H325.733L310.564 222.521H310.288H310.012H309.461V220.588H307.53V218.38H306.151V215.895H304.22V199.882H303.393V215.895H301.462V218.38H300.359V220.588H298.152V222.521H297.601H297.049L282.155 232.46H281.604V233.564V234.116V234.669L276.915 238.81V240.742V242.123V243.227V244.608V245.988V247.092V248.473V249.853V251.233V251.51V252.338V253.718V254.822V256.203V257.583V258.964V260.068V261.448V262.829V263.933V265.314V266.694V267.798V269.179V270.559V271.939V273.044V274.424V275.529V276.909V278.289V279.67V280.774V282.154V283.535V284.639V286.02V287.4V288.504V289.885V291.265V292.646V293.75V295.13V296.235V297.615V298.995V300.376V301.48V302.861V304.241V305.345V306.726V308.106V309.21V310.591V311.971V313.076V314.456V315.836V316.941V318.321V319.701V321.082V322.186V323.567V324.947V326.051V327.432V328.812V329.916V331.297V332.677V333.782V335.162V336.542V337.647V339.027V340.407V341.788V342.892V344.273V345.377V346.757V348.138V349.518V350.622V352.003V353.383V354.488V355.868V357.248V358.353V359.733V361.114V361.942V363.322V364.15V365.531V366.635V368.016V369.396V370.5V371.881V373.261V374.641V375.746V429.858H255.953V476.515H351.108V429.858H330.698Z"/>
</mask>
<path d="M330.698 429.858V375.746V374.641V373.261V371.881V370.5V369.396V368.016V366.635V365.531V364.15V363.322V361.942V361.114V359.733V358.353V357.248V355.868V354.488V353.383V352.003V350.622V349.518V348.138V346.757V345.377V344.273V342.892V341.788V340.407V339.027V337.647V336.542V335.162V333.782V332.677V331.297V329.916V328.812V327.432V326.051V324.947V323.567V322.186V321.082V319.701V318.321V316.941V315.836V314.456V313.076V311.971V310.591V309.21V308.106V306.726V305.345V304.241V302.861V301.48V300.376V298.995V297.615V296.235V295.13V293.75V292.646V291.265V289.885V288.504V287.4V286.02V284.639V283.535V282.154V280.774V279.67V278.289V276.909V275.529V274.424V273.044V271.939V270.559V269.179V267.798V266.694V265.314V263.933V262.829V261.448V260.068V258.964V257.583V256.203V254.822V253.718V252.338V251.51V251.233V249.853V248.473V247.092V245.988V244.608V243.227V242.123V241.571V240.742V238.534L326.285 234.393V234.116V233.564V232.46H325.733L310.564 222.521H310.288H310.012H309.461V220.588H307.53V218.38H306.151V215.895H304.22V199.882H303.393V215.895H301.462V218.38H300.359V220.588H298.152V222.521H297.601H297.049L282.155 232.46H281.604V233.564V234.116V234.669L276.915 238.81V240.742V242.123V243.227V244.608V245.988V247.092V248.473V249.853V251.233V251.51V252.338V253.718V254.822V256.203V257.583V258.964V260.068V261.448V262.829V263.933V265.314V266.694V267.798V269.179V270.559V271.939V273.044V274.424V275.529V276.909V278.289V279.67V280.774V282.154V283.535V284.639V286.02V287.4V288.504V289.885V291.265V292.646V293.75V295.13V296.235V297.615V298.995V300.376V301.48V302.861V304.241V305.345V306.726V308.106V309.21V310.591V311.971V313.076V314.456V315.836V316.941V318.321V319.701V321.082V322.186V323.567V324.947V326.051V327.432V328.812V329.916V331.297V332.677V333.782V335.162V336.542V337.647V339.027V340.407V341.788V342.892V344.273V345.377V346.757V348.138V349.518V350.622V352.003V353.383V354.488V355.868V357.248V358.353V359.733V361.114V361.942V363.322V364.15V365.531V366.635V368.016V369.396V370.5V371.881V373.261V374.641V375.746V429.858H255.953V476.515H351.108V429.858H330.698Z" fill="white" stroke="#333333" stroke-width="4" mask="url(#path-14-inside-3_882_3801)"/>
<path d="M683.185 457.914H684.185V456.914V456.257H699.458H700.458V455.257V448.631V447.631H699.458H691.632V252.979L701.578 241.19H702.287L702.383 240.297L705.417 212.137L705.423 212.084V212.03V194.152L734.975 156.157H742.761H767.308H774.671L778.168 193.855V475.791H705.25H704.423H683.185H658.811V457.914H683.185Z" fill="white" stroke="#333333" stroke-width="2"/>
<path d="M552.829 370.224V371.224H553.829H561.655V386.789V446.423V475.515H553.829H551.071H546.934H544.728H540.591H538.384H534.247H532.04H527.903H525.697H521.56H519.077H515.216H512.734H508.596H506.39H502.253H500.046H495.909H493.703H489.565H486.807H485.704H474.672H472.189H469.155H467.776H464.742H463.087H460.054H458.399H455.64H453.986H450.952H449.297H446.263H444.608H441.85H440.092V242.951V195.085H441.85H442.85V194.085V192.324H507.872V194.085V195.085H508.872H510.63V229.699V242.951V275.805V293.75V294.084L510.831 294.351L552.829 350.129V370.224Z" fill="white" stroke="#333333" stroke-width="2"/>
<path d="M56.2655 327.603H57.2655V326.603V322.082H98.0164V473.583H92.3969H56.2655H50.9219V327.603H56.2655Z" fill="white" stroke="#333333" stroke-width="2"/>
<path d="M1059.67 476.067H1056.81V451.288H1059.67H1060.67V450.288V221.312H1069.6H1070.6V220.312V218.276H1077.7V220.312V221.312H1078.7H1123.76V238.258V239.258H1124.76H1133.69V450.288V451.288H1134.69H1140.86V476.067H1134.69H1133.69V477.067V477.172H1124.76H1069.87H1060.67V477.067V476.067H1059.67Z" fill="white" stroke="#333333" stroke-width="2"/>
<path d="M1000.47 448.079V449.079H1001.47H1004.33V478H1001.47H1000.47V479V479.38H991.267H936.381H927.451V479V478H926.451H920.28V449.079H926.451H927.451V448.079V204.471H936.381H937.381V203.471V184.041H982.441H983.441V183.041V180.452H990.543V183.041V184.041H991.543H1000.47V448.079Z" fill="white" stroke="#333333" stroke-width="2"/>
<mask id="path-20-inside-4_882_3801" fill="white">
<path d="M294.016 323.567H293.464H292.361H291.809H290.706H290.154H289.051H288.499H287.396V321.91V321.358V318.873V318.321V317.493V316.941V315.56H286.844H285.741H285.465H284.086H283.811H282.431H282.156H281.052H280.501H279.398H278.846H277.743H277.191H276.088H275.536H274.433H273.881H272.778H272.226H271.123H270.847H269.468H269.192H267.813H267.538H266.434H265.883H264.78H264.228H263.125H262.573H261.47H260.918H259.815H259.263H258.16H257.884H256.505H256.229H255.402V323.567H254.85H254.574H253.471H252.92H252.368H250.989V324.395V324.947V326.327V327.156V327.432V327.984V329.088V330.469V331.021V332.125V332.953V333.505V334.058V335.162V336.542V336.818V338.199V339.027V339.579V339.855V341.236V342.616V342.892V344.273V345.101V345.653V345.929V347.309V348.69V348.966V350.346V351.175V351.451V352.003V353.383V354.488V355.04V356.42V357.248V357.524V358.077V359.457V360.561V361.114V362.494V363.322V363.598V364.15V365.255V366.635V367.187V368.292V369.12V369.672V369.948V371.328V372.709V372.985V374.365V375.194V375.746V376.022V377.402V378.783V379.059V380.439V381.267V381.543V381.82V382.096V383.476V384.58V385.133V386.513V387.341V387.617V388.169V389.55V390.654V391.206V392.587V393.415V393.691V394.243V395.624V396.728V397.28V398.384V399.213V399.765V400.317V401.421V402.802V403.078V404.458V405.286V405.839V406.115V407.495V408.875V409.152V410.532V411.36V411.912V412.188V413.569V414.949V415.225V416.606V417.434V417.71V418.262V419.643V420.747V421.299V422.68V423.508V423.784V424.336V425.716V426.821V427.373V427.925V428.477V429.858V430.41V431.514H248.782H248.231H246.3H245.748H244.094H243.266H241.611H241.06H239.129H238.577H236.371V430.41V429.029V428.477V427.373V425.992V425.716V424.336V422.956V422.68V421.299V420.195V419.643V418.262V417.158V416.606V416.33V415.501V414.121V413.569V412.465V411.084V410.808V410.256V409.428V408.047V407.771V406.391V405.286V404.734V404.458V403.63V402.25V401.697V400.593V399.213V398.937V398.384V397.556V396.176V395.9V394.519V393.415V392.863V392.587V391.482V390.378V389.826V388.722V387.341V387.065V386.789V386.513V385.685V384.304V384.028V382.648V381.267V380.991V380.715V379.611V378.507V377.954V376.85V375.47V375.194V374.918V374.641V373.813V372.433V372.157V370.776V369.396V369.12V368.568V367.739V366.635V366.083V364.703V363.598V363.046V362.77V361.942V360.561V360.009V358.905V357.524V357.248V356.696V355.868V354.488V354.212V352.831V351.727V351.175V350.899V350.07V348.69V348.138V347.033V345.653V345.377V344.825V343.996V342.616V342.34V340.96V339.855V339.303V339.027V337.923V336.818V336.266V335.162V333.782V333.505V333.229V332.953V332.125V330.745V330.469V329.088V327.708V327.432V327.156V326.051V324.947V324.395V323.567V323.29V321.91V321.634V321.358V321.082V320.254V318.873V318.597V317.217V315.836V315.56V315.284V314.18V313.075V312.523V311.143V310.039V309.486V309.21V308.382V307.002V306.45V305.345V303.965V303.689V303.137V302.308V300.928V300.652V299.271V298.167V297.615V297.339V296.511H234.164H233.613H231.406V295.13V294.578V293.474V292.093V291.817V291.265V290.437V289.056V288.78V287.4V286.296V285.743V285.467V284.363V283.259V282.707V281.602V280.222V279.946V279.67V279.394V278.565V278.289H230.855H230.303H227.545H227.269H224.511H223.959H221.201H220.65H218.167H217.616H214.858H214.306H211.548H211.272H210.445H208.514H207.962H205.204H204.653H201.894H201.619H199.412H198.86H198.309H195.551H195.275H192.517H191.965H189.483V278.565V279.394V279.67V279.946V280.222V281.602V282.707V283.259V284.363V285.467V285.743V286.296V287.4V288.78V289.056V290.437V291.265V291.817V292.093V293.474V294.578V295.13V296.511V297.339V297.615V298.167V299.271V300.652V300.928V302.308V303.137V303.689V303.965V305.345V306.45V307.002V308.382V309.21V309.486V310.039V311.143V312.523V313.075V314.18V315.284V315.56H189.207H188.655H185.897H185.622H183.415V317.217V318.597V318.873V320.254V321.082V321.358V321.634V321.91V323.29V324.395V324.947V326.051V327.432V327.708V329.088V330.469V330.745V332.125V333.229V333.782V335.162V336.266V336.818V337.923V339.303V339.855V340.96V342.34V342.616V343.996V345.377V345.653V347.033V348.138V348.69V350.07V351.175V351.727V352.831V354.212V354.488V355.868V357.248V357.524V358.905V360.009V360.561V361.942V363.046V363.598V364.703V366.083V366.635V367.739V369.12V369.396V370.776V372.157V372.433V373.813V374.918V375.47V376.85V377.954V378.507V379.611V380.991V381.267V382.648V384.028V384.304V385.685V386.789V387.341V388.722V389.826V390.378V391.482V392.863V393.415V394.519V395.9V396.176V397.556V398.937V399.213V400.593V401.697V402.25V403.63V404.734V405.286V406.391V407.771V408.047V409.428V410.808V411.084V412.465V413.569V414.121V415.501V416.606V417.158V418.262V419.643V420.195V421.299V422.68V422.956V424.336V425.716V425.992V427.373V428.477V429.029V430.41V431.514V432.066V433.171V434.551V434.827V436.207V437.588V437.864V439.244V440.349V440.901V476.791V477.896V478.448V479.552H217.34H236.371V479.828H250.989H287.12H295.395V477.896V477.343V441.729V440.349V439.797V438.692V437.312V436.76V435.655V433.447V432.895V431.514V430.41V429.858V428.477V427.373V426.821V425.716V424.336V423.784V422.68V421.299V420.747V419.643V418.262V417.71V416.606V415.225V414.949V413.569V412.188V411.912V410.532V409.152V408.875V407.495V406.115V405.839V404.458V403.078V402.802V401.421V400.317V399.765V398.384V397.28V396.728V395.624V394.243V393.691V392.587V391.206V390.654V389.55V388.169V387.617V386.513V385.133V384.58V383.476V382.096V381.82V380.439V379.059V378.783V377.402V376.022V375.746V374.365V372.985V372.709V371.328V369.948V369.672V368.292V367.187V366.635V365.255V364.15V363.598V362.494V361.114V360.561V359.457V358.077V357.524V356.42V355.04V354.488V353.383V352.003V351.451V350.346V348.966V348.69V347.309V345.929V345.653V344.273V342.892V342.616V341.236V339.855V339.579V338.199V336.818V336.542V335.162V334.058V333.505V332.125V331.021V330.469V329.088V327.984V327.432V326.327V324.947V324.395V323.567H294.016Z"/>
</mask>
<path d="M294.016 323.567H293.464H292.361H291.809H290.706H290.154H289.051H288.499H287.396V321.91V321.358V318.873V318.321V317.493V316.941V315.56H286.844H285.741H285.465H284.086H283.811H282.431H282.156H281.052H280.501H279.398H278.846H277.743H277.191H276.088H275.536H274.433H273.881H272.778H272.226H271.123H270.847H269.468H269.192H267.813H267.538H266.434H265.883H264.78H264.228H263.125H262.573H261.47H260.918H259.815H259.263H258.16H257.884H256.505H256.229H255.402V323.567H254.85H254.574H253.471H252.92H252.368H250.989V324.395V324.947V326.327V327.156V327.432V327.984V329.088V330.469V331.021V332.125V332.953V333.505V334.058V335.162V336.542V336.818V338.199V339.027V339.579V339.855V341.236V342.616V342.892V344.273V345.101V345.653V345.929V347.309V348.69V348.966V350.346V351.175V351.451V352.003V353.383V354.488V355.04V356.42V357.248V357.524V358.077V359.457V360.561V361.114V362.494V363.322V363.598V364.15V365.255V366.635V367.187V368.292V369.12V369.672V369.948V371.328V372.709V372.985V374.365V375.194V375.746V376.022V377.402V378.783V379.059V380.439V381.267V381.543V381.82V382.096V383.476V384.58V385.133V386.513V387.341V387.617V388.169V389.55V390.654V391.206V392.587V393.415V393.691V394.243V395.624V396.728V397.28V398.384V399.213V399.765V400.317V401.421V402.802V403.078V404.458V405.286V405.839V406.115V407.495V408.875V409.152V410.532V411.36V411.912V412.188V413.569V414.949V415.225V416.606V417.434V417.71V418.262V419.643V420.747V421.299V422.68V423.508V423.784V424.336V425.716V426.821V427.373V427.925V428.477V429.858V430.41V431.514H248.782H248.231H246.3H245.748H244.094H243.266H241.611H241.06H239.129H238.577H236.371V430.41V429.029V428.477V427.373V425.992V425.716V424.336V422.956V422.68V421.299V420.195V419.643V418.262V417.158V416.606V416.33V415.501V414.121V413.569V412.465V411.084V410.808V410.256V409.428V408.047V407.771V406.391V405.286V404.734V404.458V403.63V402.25V401.697V400.593V399.213V398.937V398.384V397.556V396.176V395.9V394.519V393.415V392.863V392.587V391.482V390.378V389.826V388.722V387.341V387.065V386.789V386.513V385.685V384.304V384.028V382.648V381.267V380.991V380.715V379.611V378.507V377.954V376.85V375.47V375.194V374.918V374.641V373.813V372.433V372.157V370.776V369.396V369.12V368.568V367.739V366.635V366.083V364.703V363.598V363.046V362.77V361.942V360.561V360.009V358.905V357.524V357.248V356.696V355.868V354.488V354.212V352.831V351.727V351.175V350.899V350.07V348.69V348.138V347.033V345.653V345.377V344.825V343.996V342.616V342.34V340.96V339.855V339.303V339.027V337.923V336.818V336.266V335.162V333.782V333.505V333.229V332.953V332.125V330.745V330.469V329.088V327.708V327.432V327.156V326.051V324.947V324.395V323.567V323.29V321.91V321.634V321.358V321.082V320.254V318.873V318.597V317.217V315.836V315.56V315.284V314.18V313.075V312.523V311.143V310.039V309.486V309.21V308.382V307.002V306.45V305.345V303.965V303.689V303.137V302.308V300.928V300.652V299.271V298.167V297.615V297.339V296.511H234.164H233.613H231.406V295.13V294.578V293.474V292.093V291.817V291.265V290.437V289.056V288.78V287.4V286.296V285.743V285.467V284.363V283.259V282.707V281.602V280.222V279.946V279.67V279.394V278.565V278.289H230.855H230.303H227.545H227.269H224.511H223.959H221.201H220.65H218.167H217.616H214.858H214.306H211.548H211.272H210.445H208.514H207.962H205.204H204.653H201.894H201.619H199.412H198.86H198.309H195.551H195.275H192.517H191.965H189.483V278.565V279.394V279.67V279.946V280.222V281.602V282.707V283.259V284.363V285.467V285.743V286.296V287.4V288.78V289.056V290.437V291.265V291.817V292.093V293.474V294.578V295.13V296.511V297.339V297.615V298.167V299.271V300.652V300.928V302.308V303.137V303.689V303.965V305.345V306.45V307.002V308.382V309.21V309.486V310.039V311.143V312.523V313.075V314.18V315.284V315.56H189.207H188.655H185.897H185.622H183.415V317.217V318.597V318.873V320.254V321.082V321.358V321.634V321.91V323.29V324.395V324.947V326.051V327.432V327.708V329.088V330.469V330.745V332.125V333.229V333.782V335.162V336.266V336.818V337.923V339.303V339.855V340.96V342.34V342.616V343.996V345.377V345.653V347.033V348.138V348.69V350.07V351.175V351.727V352.831V354.212V354.488V355.868V357.248V357.524V358.905V360.009V360.561V361.942V363.046V363.598V364.703V366.083V366.635V367.739V369.12V369.396V370.776V372.157V372.433V373.813V374.918V375.47V376.85V377.954V378.507V379.611V380.991V381.267V382.648V384.028V384.304V385.685V386.789V387.341V388.722V389.826V390.378V391.482V392.863V393.415V394.519V395.9V396.176V397.556V398.937V399.213V400.593V401.697V402.25V403.63V404.734V405.286V406.391V407.771V408.047V409.428V410.808V411.084V412.465V413.569V414.121V415.501V416.606V417.158V418.262V419.643V420.195V421.299V422.68V422.956V424.336V425.716V425.992V427.373V428.477V429.029V430.41V431.514V432.066V433.171V434.551V434.827V436.207V437.588V437.864V439.244V440.349V440.901V476.791V477.896V478.448V479.552H217.34H236.371V479.828H250.989H287.12H295.395V477.896V477.343V441.729V440.349V439.797V438.692V437.312V436.76V435.655V433.447V432.895V431.514V430.41V429.858V428.477V427.373V426.821V425.716V424.336V423.784V422.68V421.299V420.747V419.643V418.262V417.71V416.606V415.225V414.949V413.569V412.188V411.912V410.532V409.152V408.875V407.495V406.115V405.839V404.458V403.078V402.802V401.421V400.317V399.765V398.384V397.28V396.728V395.624V394.243V393.691V392.587V391.206V390.654V389.55V388.169V387.617V386.513V385.133V384.58V383.476V382.096V381.82V380.439V379.059V378.783V377.402V376.022V375.746V374.365V372.985V372.709V371.328V369.948V369.672V368.292V367.187V366.635V365.255V364.15V363.598V362.494V361.114V360.561V359.457V358.077V357.524V356.42V355.04V354.488V353.383V352.003V351.451V350.346V348.966V348.69V347.309V345.929V345.653V344.273V342.892V342.616V341.236V339.855V339.579V338.199V336.818V336.542V335.162V334.058V333.505V332.125V331.021V330.469V329.088V327.984V327.432V326.327V324.947V324.395V323.567H294.016Z" fill="white" stroke="#333333" stroke-width="4" mask="url(#path-20-inside-4_882_3801)"/>
<path d="M117.323 370.776V371.776H118.323H119.254V476.896H76.0205V371.776H76.9512H77.9512V370.776V366.255H117.323V370.776Z" fill="white" stroke="#333333" stroke-width="2"/>
<mask id="path-22-inside-5_882_3801" fill="white">
<path d="M166.59 156.814V154.605H164.935H151.42H143.422V156.814H117.22V157.918V158.47V168.961V170.342V174.207V175.587V179.729V181.109V184.974V186.355V190.496V191.876V195.741V197.122V200.987V202.643V206.508V207.889V211.754V213.41V217.276V218.656V222.521V223.901V228.043V229.423V233.288V234.669V238.81V240.19V244.055V245.436V249.577V250.957V254.823V256.203V260.068V261.725V265.59V266.97V270.835V272.492V276.357V277.737V281.602V282.983V287.124V288.504V292.369V293.75V297.891V299.271V303.137V304.517V308.658V310.039V313.904V315.284V319.149V320.806V324.671V326.051V329.916V331.573V335.438V336.818V340.684V342.064V346.205V347.586V351.451V352.831V356.972V358.353V362.218V363.598V367.463V369.12V372.985V374.365V378.231V379.887V383.752V385.133V388.998V390.378V394.519V395.9V399.765V401.145V405.286V406.667V410.532V411.912V416.054V417.434V421.299V422.68V426.545V428.201V432.066V433.447V437.312V438.968V442.833V444.214V448.079V449.459V453.601V454.981V458.846V460.227V464.368V465.748V469.613V470.994V475.135H121.081V477.344H122.184V475.135H123.563V477.344H124.942V475.135H126.322V477.344H127.425V475.135H129.08V477.344H130.183V475.135H131.562V477.344H132.941V475.135H134.32V477.344H135.423V475.135H136.802V477.344H138.181V475.135H139.56V477.344H140.664V475.135H142.319V477.344H143.422V475.135H144.801V477.344H146.18V475.135H147.559V477.344H148.662V475.135H150.041V477.344H151.42V475.135H152.799V477.344H153.903V475.135H155.282V477.344H156.661V475.135H158.04V477.344H159.143V475.135H160.798V477.344H161.901V475.135H163.28V477.344H164.659V475.135H166.038V477.344H167.142V475.135H168.521V477.344H169.9V475.135H171.279V477.344H172.382V475.135H174.037V477.344H175.14V475.135H176.519V477.344H177.898V475.135H179.277V477.344H180.381V475.135H191.137V470.994V469.613V465.748V464.368V460.227V458.846V454.981V453.601V449.459V448.079V444.214V442.833V438.968V437.312V433.447V432.066V428.201V426.545V422.68V421.299V417.434V416.054V411.912V410.532V406.667V405.286V401.145V399.765V395.9V394.519V390.378V388.998V385.133V383.752V379.887V378.231V374.365V372.985V369.12V367.463V363.598V362.218V358.353V356.972V352.831V351.451V347.586V346.205V342.064V340.684V336.818V335.438V331.573V329.916V326.051V324.671V320.806V319.149V315.284V313.904V310.039V308.658V304.517V303.137V299.271V297.891V293.75V292.369V288.504V287.124V282.983V281.602V277.737V276.357V272.492V270.835V266.97V265.59V261.725V260.068V256.203V254.823V250.957V249.577V245.436V244.055V240.19V238.81V234.669V233.288V229.423V228.043V223.901V222.521V218.656V217.276V213.41V211.754V207.889V206.508V202.643V200.987V197.122V195.741V191.876V190.496V186.355V184.974V181.109V179.729V175.587V174.207V170.342V168.961V158.47V157.918V156.814H166.59Z"/>
</mask>
<path d="M166.59 156.814V154.605H164.935H151.42H143.422V156.814H117.22V157.918V158.47V168.961V170.342V174.207V175.587V179.729V181.109V184.974V186.355V190.496V191.876V195.741V197.122V200.987V202.643V206.508V207.889V211.754V213.41V217.276V218.656V222.521V223.901V228.043V229.423V233.288V234.669V238.81V240.19V244.055V245.436V249.577V250.957V254.823V256.203V260.068V261.725V265.59V266.97V270.835V272.492V276.357V277.737V281.602V282.983V287.124V288.504V292.369V293.75V297.891V299.271V303.137V304.517V308.658V310.039V313.904V315.284V319.149V320.806V324.671V326.051V329.916V331.573V335.438V336.818V340.684V342.064V346.205V347.586V351.451V352.831V356.972V358.353V362.218V363.598V367.463V369.12V372.985V374.365V378.231V379.887V383.752V385.133V388.998V390.378V394.519V395.9V399.765V401.145V405.286V406.667V410.532V411.912V416.054V417.434V421.299V422.68V426.545V428.201V432.066V433.447V437.312V438.968V442.833V444.214V448.079V449.459V453.601V454.981V458.846V460.227V464.368V465.748V469.613V470.994V475.135H121.081V477.344H122.184V475.135H123.563V477.344H124.942V475.135H126.322V477.344H127.425V475.135H129.08V477.344H130.183V475.135H131.562V477.344H132.941V475.135H134.32V477.344H135.423V475.135H136.802V477.344H138.181V475.135H139.56V477.344H140.664V475.135H142.319V477.344H143.422V475.135H144.801V477.344H146.18V475.135H147.559V477.344H148.662V475.135H150.041V477.344H151.42V475.135H152.799V477.344H153.903V475.135H155.282V477.344H156.661V475.135H158.04V477.344H159.143V475.135H160.798V477.344H161.901V475.135H163.28V477.344H164.659V475.135H166.038V477.344H167.142V475.135H168.521V477.344H169.9V475.135H171.279V477.344H172.382V475.135H174.037V477.344H175.14V475.135H176.519V477.344H177.898V475.135H179.277V477.344H180.381V475.135H191.137V470.994V469.613V465.748V464.368V460.227V458.846V454.981V453.601V449.459V448.079V444.214V442.833V438.968V437.312V433.447V432.066V428.201V426.545V422.68V421.299V417.434V416.054V411.912V410.532V406.667V405.286V401.145V399.765V395.9V394.519V390.378V388.998V385.133V383.752V379.887V378.231V374.365V372.985V369.12V367.463V363.598V362.218V358.353V356.972V352.831V351.451V347.586V346.205V342.064V340.684V336.818V335.438V331.573V329.916V326.051V324.671V320.806V319.149V315.284V313.904V310.039V308.658V304.517V303.137V299.271V297.891V293.75V292.369V288.504V287.124V282.983V281.602V277.737V276.357V272.492V270.835V266.97V265.59V261.725V260.068V256.203V254.823V250.957V249.577V245.436V244.055V240.19V238.81V234.669V233.288V229.423V228.043V223.901V222.521V218.656V217.276V213.41V211.754V207.889V206.508V202.643V200.987V197.122V195.741V191.876V190.496V186.355V184.974V181.109V179.729V175.587V174.207V170.342V168.961V158.47V157.918V156.814H166.59Z" fill="white" stroke="#333333" stroke-width="4" mask="url(#path-22-inside-5_882_3801)"/>
<mask id="path-23-inside-6_882_3801" fill="white">
<path d="M1064.08 316.388V314.18V313.352V311.143V310.315V308.106V304.241V303.965V301.756V300.928V298.719V298.167V295.958V295.13V293.75V292.922V292.093V289.885V289.056V287.124V286.296V284.087V283.259V281.05V280.222V278.013V277.185V274.976V274.148V271.939V271.111V269.731V268.903V268.074V265.866V265.037V262.829V262.277V260.068V259.24V257.031V256.203V253.994V253.166V250.957V250.129V248.749V247.92V247.092V244.884V244.055V241.847V241.018V238.81V237.982V235.773V234.945V232.736V231.908V229.699V229.147V227.767V226.938V226.11V223.901V223.073V220.865V220.036V218.104V217.275V215.067V214.239V212.03V211.202V208.993V208.165V206.784V205.956V205.128V202.919V202.091V199.882V199.054V196.846V196.017V193.809V192.98V190.772V189.944V187.735V186.907V185.526V184.974V184.146V181.937V181.109V178.9V178.072V175.863V175.035V172.827V171.998V170.066H1062.43H1061.6H1058.57V168.133V167.029H1063.81V164.544V162.059H1058.57V154.053H1054.7V148.255H1050.84V138.04H1049.74V127.825H1048.91V138.04H1047.81V148.255H1043.4V149.084H996.784V147.703H992.646V137.488H991.543V127.273H990.716V137.488H989.613V147.703H985.475V153.501H982.166V161.507H976.649V163.992V166.477H982.166V167.581V169.514H979.408H978.58H976.925V171.446V172.274V174.483V175.311V177.52V178.348V180.557V181.385V183.594V184.974V185.802V187.183V188.011V190.22V191.048V193.256V194.085V196.017V196.846V199.054V199.882V202.091V202.919V205.128V205.956V208.165V208.993V211.202V212.03V214.239V215.067V217.275V218.104V220.312V220.865V223.073V223.901V226.11V226.938V229.147V229.975V232.184V233.012V235.221V236.049V238.258V239.086V241.295V242.123V244.331V245.16V247.368V248.197V249.025V250.405V251.233V253.442V253.994V256.203V257.031V259.24V260.068V262.277V263.105V265.314V266.142V268.35V269.179V270.007V271.387V272.216V274.424V275.252V277.461V278.289V280.498V281.326V283.535V284.363V286.572V287.4V289.609V290.437V292.646V293.474V294.302V295.682V296.511V298.719V299.548V301.756V302.584V304.793V305.621V307.83V308.658V310.867V311.695V313.904V314.732V316.941V317.769V319.978V320.806V323.014V323.843V326.051V326.88V329.088V329.916V332.125V332.953V335.162V335.99V338.199V339.027V340.96V341.788V343.997V344.825V347.033V347.862V350.07V350.899V353.107V353.935V356.144V356.972V359.181V360.009V362.218V363.046V365.255V366.083V368.292V369.12V371.329V372.157V374.365V375.194V377.402V378.231V380.439V381.267V383.476V384.304V386.513V387.341V389.55V390.378V391.206V392.587V393.415V395.624V396.452V398.661V399.489V401.697V402.526V404.734V405.563V407.771V408.599V410.808V411.636V413.845V414.673V415.501V416.882V417.71V419.919V420.747V422.956V423.784V425.993V426.821V429.029V429.858V432.066V432.895V435.103V435.931V438.14V438.968V439.797V441.177V442.005V444.214V445.042V447.251V448.079V450.288V451.116V453.324V454.153V456.361V457.19V459.398V460.227V462.435V463.263V465.472V466.3V468.509V469.337V471.546V472.374V474.583V475.411V475.687H978.58H979.408H986.854H987.682H988.509V476.239H989.337H992.371H992.922H994.026H996.784H997.887H998.439H1001.47H1003.4V475.687H1004.23H1011.68H1012.5H1019.95H1020.78H1028.23H1029.05H1036.5H1037.33V476.239H1039.26H1042.29H1042.84H1043.95H1046.71H1047.81H1048.36H1051.39H1052.22V475.687H1053.05H1053.88H1061.32H1062.15H1063.81V475.411V474.583V472.374V469.337V467.129V466.3V464.092V463.263V461.883V461.055V460.227V458.294V457.466V455.257V454.429V452.22V451.392V449.183V448.355V446.146V445.318V443.11V442.281V440.073V439.244V437.864V437.036V436.208V433.999V433.171V430.962V430.134V427.925V427.097V425.164V424.336V422.127V421.299V419.091V418.262V416.054V415.225V413.845V413.017V412.189V409.98V409.152V406.943V406.115V403.906V403.078V400.869V400.317V398.108V397.28V395.072V394.243V392.035V391.206V389.826V388.998V388.169V385.961V385.133V382.924V382.096V379.887V379.059V376.85V376.022V373.813V372.985V370.776V369.948V367.739V367.187V365.807V364.979V364.15V361.942V361.114V358.905V358.077V355.868V355.04V352.831V352.003V349.794V348.966V346.757V345.929V343.72V342.892V341.512V340.684V339.855V337.923V337.095V334.886V334.058V331.849V331.297V329.088V328.26V326.051V325.223V323.014V322.186V320.254V319.425V318.045V317.217V316.388H1064.08ZM996.784 150.74H1043.4V153.777H1040.64H1000.09H996.784V150.74Z"/>
</mask>
<path d="M1064.08 316.388V314.18V313.352V311.143V310.315V308.106V304.241V303.965V301.756V300.928V298.719V298.167V295.958V295.13V293.75V292.922V292.093V289.885V289.056V287.124V286.296V284.087V283.259V281.05V280.222V278.013V277.185V274.976V274.148V271.939V271.111V269.731V268.903V268.074V265.866V265.037V262.829V262.277V260.068V259.24V257.031V256.203V253.994V253.166V250.957V250.129V248.749V247.92V247.092V244.884V244.055V241.847V241.018V238.81V237.982V235.773V234.945V232.736V231.908V229.699V229.147V227.767V226.938V226.11V223.901V223.073V220.865V220.036V218.104V217.275V215.067V214.239V212.03V211.202V208.993V208.165V206.784V205.956V205.128V202.919V202.091V199.882V199.054V196.846V196.017V193.809V192.98V190.772V189.944V187.735V186.907V185.526V184.974V184.146V181.937V181.109V178.9V178.072V175.863V175.035V172.827V171.998V170.066H1062.43H1061.6H1058.57V168.133V167.029H1063.81V164.544V162.059H1058.57V154.053H1054.7V148.255H1050.84V138.04H1049.74V127.825H1048.91V138.04H1047.81V148.255H1043.4V149.084H996.784V147.703H992.646V137.488H991.543V127.273H990.716V137.488H989.613V147.703H985.475V153.501H982.166V161.507H976.649V163.992V166.477H982.166V167.581V169.514H979.408H978.58H976.925V171.446V172.274V174.483V175.311V177.52V178.348V180.557V181.385V183.594V184.974V185.802V187.183V188.011V190.22V191.048V193.256V194.085V196.017V196.846V199.054V199.882V202.091V202.919V205.128V205.956V208.165V208.993V211.202V212.03V214.239V215.067V217.275V218.104V220.312V220.865V223.073V223.901V226.11V226.938V229.147V229.975V232.184V233.012V235.221V236.049V238.258V239.086V241.295V242.123V244.331V245.16V247.368V248.197V249.025V250.405V251.233V253.442V253.994V256.203V257.031V259.24V260.068V262.277V263.105V265.314V266.142V268.35V269.179V270.007V271.387V272.216V274.424V275.252V277.461V278.289V280.498V281.326V283.535V284.363V286.572V287.4V289.609V290.437V292.646V293.474V294.302V295.682V296.511V298.719V299.548V301.756V302.584V304.793V305.621V307.83V308.658V310.867V311.695V313.904V314.732V316.941V317.769V319.978V320.806V323.014V323.843V326.051V326.88V329.088V329.916V332.125V332.953V335.162V335.99V338.199V339.027V340.96V341.788V343.997V344.825V347.033V347.862V350.07V350.899V353.107V353.935V356.144V356.972V359.181V360.009V362.218V363.046V365.255V366.083V368.292V369.12V371.329V372.157V374.365V375.194V377.402V378.231V380.439V381.267V383.476V384.304V386.513V387.341V389.55V390.378V391.206V392.587V393.415V395.624V396.452V398.661V399.489V401.697V402.526V404.734V405.563V407.771V408.599V410.808V411.636V413.845V414.673V415.501V416.882V417.71V419.919V420.747V422.956V423.784V425.993V426.821V429.029V429.858V432.066V432.895V435.103V435.931V438.14V438.968V439.797V441.177V442.005V444.214V445.042V447.251V448.079V450.288V451.116V453.324V454.153V456.361V457.19V459.398V460.227V462.435V463.263V465.472V466.3V468.509V469.337V471.546V472.374V474.583V475.411V475.687H978.58H979.408H986.854H987.682H988.509V476.239H989.337H992.371H992.922H994.026H996.784H997.887H998.439H1001.47H1003.4V475.687H1004.23H1011.68H1012.5H1019.95H1020.78H1028.23H1029.05H1036.5H1037.33V476.239H1039.26H1042.29H1042.84H1043.95H1046.71H1047.81H1048.36H1051.39H1052.22V475.687H1053.05H1053.88H1061.32H1062.15H1063.81V475.411V474.583V472.374V469.337V467.129V466.3V464.092V463.263V461.883V461.055V460.227V458.294V457.466V455.257V454.429V452.22V451.392V449.183V448.355V446.146V445.318V443.11V442.281V440.073V439.244V437.864V437.036V436.208V433.999V433.171V430.962V430.134V427.925V427.097V425.164V424.336V422.127V421.299V419.091V418.262V416.054V415.225V413.845V413.017V412.189V409.98V409.152V406.943V406.115V403.906V403.078V400.869V400.317V398.108V397.28V395.072V394.243V392.035V391.206V389.826V388.998V388.169V385.961V385.133V382.924V382.096V379.887V379.059V376.85V376.022V373.813V372.985V370.776V369.948V367.739V367.187V365.807V364.979V364.15V361.942V361.114V358.905V358.077V355.868V355.04V352.831V352.003V349.794V348.966V346.757V345.929V343.72V342.892V341.512V340.684V339.855V337.923V337.095V334.886V334.058V331.849V331.297V329.088V328.26V326.051V325.223V323.014V322.186V320.254V319.425V318.045V317.217V316.388H1064.08ZM996.784 150.74H1043.4V153.777H1040.64H1000.09H996.784V150.74Z" fill="white" stroke="#333333" stroke-width="4" mask="url(#path-23-inside-6_882_3801)"/>
<mask id="path-24-inside-7_882_3801" fill="white">
<path d="M159.143 259.516H143.973V257.583H120.805V259.516H105.911H101.223V265.037V268.35V270.559V274.148V276.081V279.67V281.878V285.191V287.4V290.713V292.922V296.235V298.443V301.756V303.965V307.554V309.486V313.075V315.284V318.597V320.806V324.119V326.327V329.64V331.849V335.162V337.371V340.96V342.892V346.481V348.69V352.003V354.212V357.524V359.733V363.046V365.255V368.568V370.776V374.365V376.298V379.887V382.096V385.409V387.617V390.93V393.139V396.452V398.66V401.973V404.182V407.771V409.704V413.293V415.501V418.814V421.023V424.336V426.545V429.858V432.066V435.379V437.588V441.177V443.109V446.699V448.907V452.22V454.429V457.742V459.95V462.159V463.263V465.472V467.128V468.785V473.202V473.478H105.911H108.67H110.324V473.202H113.91V473.478H114.737V473.202H119.426H122.184H122.46V473.478H124.115V473.202H126.597H127.425H130.735H133.217H133.768V473.478H135.423V473.202H137.354H138.457H141.767H144.525H144.801V473.478H146.456V473.202H150.041H151.145H156.109V473.478H158.591H159.143H160.246H160.798H161.901H163.832V473.202V468.785V467.128V465.472V463.263V462.159V459.95V457.742V454.429V452.22V448.907V446.699V443.109V441.177V437.588V435.379V432.066V429.858V426.545V424.336V421.023V418.814V415.501V413.293V409.704V407.771V404.182V401.973V398.66V396.452V393.139V390.93V387.617V385.409V382.096V379.887V376.298V374.365V370.776V368.568V365.255V363.046V359.733V357.524V354.212V352.003V348.69V346.481V342.892V340.96V337.371V335.162V331.849V329.64V326.327V324.119V320.806V318.597V315.284V313.075V309.486V307.554V303.965V301.756V298.443V296.235V292.922V290.713V287.4V285.191V281.878V279.67V276.081V274.148V270.559V268.35V265.037V259.516H159.143Z"/>
</mask>
<path d="M159.143 259.516H143.973V257.583H120.805V259.516H105.911H101.223V265.037V268.35V270.559V274.148V276.081V279.67V281.878V285.191V287.4V290.713V292.922V296.235V298.443V301.756V303.965V307.554V309.486V313.075V315.284V318.597V320.806V324.119V326.327V329.64V331.849V335.162V337.371V340.96V342.892V346.481V348.69V352.003V354.212V357.524V359.733V363.046V365.255V368.568V370.776V374.365V376.298V379.887V382.096V385.409V387.617V390.93V393.139V396.452V398.66V401.973V404.182V407.771V409.704V413.293V415.501V418.814V421.023V424.336V426.545V429.858V432.066V435.379V437.588V441.177V443.109V446.699V448.907V452.22V454.429V457.742V459.95V462.159V463.263V465.472V467.128V468.785V473.202V473.478H105.911H108.67H110.324V473.202H113.91V473.478H114.737V473.202H119.426H122.184H122.46V473.478H124.115V473.202H126.597H127.425H130.735H133.217H133.768V473.478H135.423V473.202H137.354H138.457H141.767H144.525H144.801V473.478H146.456V473.202H150.041H151.145H156.109V473.478H158.591H159.143H160.246H160.798H161.901H163.832V473.202V468.785V467.128V465.472V463.263V462.159V459.95V457.742V454.429V452.22V448.907V446.699V443.109V441.177V437.588V435.379V432.066V429.858V426.545V424.336V421.023V418.814V415.501V413.293V409.704V407.771V404.182V401.973V398.66V396.452V393.139V390.93V387.617V385.409V382.096V379.887V376.298V374.365V370.776V368.568V365.255V363.046V359.733V357.524V354.212V352.003V348.69V346.481V342.892V340.96V337.371V335.162V331.849V329.64V326.327V324.119V320.806V318.597V315.284V313.075V309.486V307.554V303.965V301.756V298.443V296.235V292.922V290.713V287.4V285.191V281.878V279.67V276.081V274.148V270.559V268.35V265.037V259.516H159.143Z" fill="white" stroke="#333333" stroke-width="4" mask="url(#path-24-inside-7_882_3801)"/>
<path d="M1014.54 263.381V264.381H1015.54H1021.16V273.872V418.814V459.398V474.963H891.7H888.39H878.737H874.324H871.014H864.946H864.119H858.327H857.499H851.707H850.88H845.088H844.26H838.744H837.641H832.124H831.573H831.021H828.539H825.505H824.678H818.885H818.058H816.852V474.859V473.478V472.374V470.994V468.785V467.785H815.852H814.921V465.92H815.852H816.852V464.92V463.146L828.868 458.962L829.539 458.729V458.018V419.814H831.573H832.573V418.814V155.71V151.844V133.795H839.02H840.02V132.795V129.378H902.284V132.795V133.795H903.284H913.868V145.771V146.771H914.868H919.936V155.71V418.814V419.814H920.936H932.244H933.244V418.814V272.768V272.492V268.903V250.577H941.898H942.898V249.577V247.816H1005.16V249.577V250.577H1006.16H1014.54V263.381Z" fill="white" stroke="#333333" stroke-width="2"/>
<path d="M1275.73 458.57V459.503V459.57V460.503V473.859H1275.35H1273.97H1272.6H1270.67H1269.29H1267.36H1266.53H1265.98H1264.05H1262.94H1262.67H1258.53H1257.7H1256.32H1256.05H1253.56H1243.64H1230.67H1217.71H1205.02H1192.06H1179.1H1156.2H1153.72H1153.45H1152.34H1150.69H1149.31H1147.38H1146H1144.07H1143.24H1142.96H1140.76H1139.65H1139.38H1135.24H1134.41H1134.04V460.503V458.57V44.0686H1134.41H1135.41V43.0686V42.4121H1151.34V43.0686V44.0686H1152.34H1153.72H1166.41H1169.99H1171.37H1176.89H1178.27H1179.1H1183.78H1185.16H1190.68H1192.06H1197.3H1198.95H1204.19H1205.02H1205.57H1211.09H1212.47H1217.71H1217.99H1219.36H1224.88H1226.26H1230.67H1231.5H1233.15H1238.4H1239.77H1243.64H1256.32H1257.7H1258.7V43.0686V42.4121H1274.63V43.0686V44.0686H1275.63H1275.73V458.57Z" fill="white" stroke="#333333" stroke-width="2"/>
<mask id="path-27-inside-8_882_3801" fill="white">
<path d="M1136.9 443.938L1116.21 437.036V434.551H1113.45L1105.18 167.581H1107.38L1119.8 158.746L1122.83 146.599L1124.21 141.077L1125.59 135.28L1126.14 133.623H1128.35V131.138H1127.24V128.654H1126.14V126.445H1126.42V125.617H1119.8C1119.8 125.341 1119.52 125.065 1119.52 124.788C1119.52 124.788 1119.52 124.788 1119.52 124.512C1119.52 124.236 1119.24 124.236 1119.24 124.236C1119.24 123.96 1118.97 123.96 1118.97 123.684C1117.59 122.304 1114.83 121.199 1109.87 120.647L1111.52 114.573H1108.21H1106.56H1104.07H1102.42H1101.04V109.052H1105.45V106.567H1100.49L1099.66 60.7377H1099.11V51.6271H1098.83H1098.56V60.7377H1098.01L1097.18 106.015H1092.77V108.5H1097.18V114.021H1095.52H1093.87H1091.39H1089.73H1086.42L1088.08 120.095C1080.91 120.923 1077.87 122.58 1076.77 125.065H1071.25V125.893V128.101H1068.49V130.586H1067.39V133.071H1069.32L1071.25 140.525L1072.63 146.047L1075.67 158.194L1088.08 167.029H1090.28L1082.01 433.999H1079.25V436.484L1060.5 443.386V445.87V451.668V454.153V459.95V462.435V468.233V470.718V472.374H1063.25H1065.74H1071.53H1074.01H1079.8H1082.29H1083.94H1085.87H1088.08H1090.56H1096.35H1098.56H1098.83H1104.63H1107.11H1109.04H1111.25H1112.9H1115.38H1121.17H1123.66H1129.45H1131.93H1136.62V470.718V468.233V462.435V459.95V454.153V451.668V445.87L1136.9 443.938ZM1120.35 128.378V128.101C1120.35 127.825 1120.35 127.273 1120.35 126.997H1125.31V128.378H1120.35ZM1076.22 126.169H1071.8H1076.22ZM1072.08 126.721H1076.22C1076.22 126.997 1076.22 127.549 1076.22 127.825V128.101H1072.08V126.721Z"/>
</mask>
<path d="M1136.9 443.938L1116.21 437.036V434.551H1113.45L1105.18 167.581H1107.38L1119.8 158.746L1122.83 146.599L1124.21 141.077L1125.59 135.28L1126.14 133.623H1128.35V131.138H1127.24V128.654H1126.14V126.445H1126.42V125.617H1119.8C1119.8 125.341 1119.52 125.065 1119.52 124.788C1119.52 124.788 1119.52 124.788 1119.52 124.512C1119.52 124.236 1119.24 124.236 1119.24 124.236C1119.24 123.96 1118.97 123.96 1118.97 123.684C1117.59 122.304 1114.83 121.199 1109.87 120.647L1111.52 114.573H1108.21H1106.56H1104.07H1102.42H1101.04V109.052H1105.45V106.567H1100.49L1099.66 60.7377H1099.11V51.6271H1098.83H1098.56V60.7377H1098.01L1097.18 106.015H1092.77V108.5H1097.18V114.021H1095.52H1093.87H1091.39H1089.73H1086.42L1088.08 120.095C1080.91 120.923 1077.87 122.58 1076.77 125.065H1071.25V125.893V128.101H1068.49V130.586H1067.39V133.071H1069.32L1071.25 140.525L1072.63 146.047L1075.67 158.194L1088.08 167.029H1090.28L1082.01 433.999H1079.25V436.484L1060.5 443.386V445.87V451.668V454.153V459.95V462.435V468.233V470.718V472.374H1063.25H1065.74H1071.53H1074.01H1079.8H1082.29H1083.94H1085.87H1088.08H1090.56H1096.35H1098.56H1098.83H1104.63H1107.11H1109.04H1111.25H1112.9H1115.38H1121.17H1123.66H1129.45H1131.93H1136.62V470.718V468.233V462.435V459.95V454.153V451.668V445.87L1136.9 443.938ZM1120.35 128.378V128.101C1120.35 127.825 1120.35 127.273 1120.35 126.997H1125.31V128.378H1120.35ZM1076.22 126.169H1071.8H1076.22ZM1072.08 126.721H1076.22C1076.22 126.997 1076.22 127.549 1076.22 127.825V128.101H1072.08V126.721Z" fill="white" stroke="#333333" stroke-width="4" mask="url(#path-27-inside-8_882_3801)"/>
<mask id="path-28-inside-9_882_3801" fill="white">
<path d="M1451.87 435.379V431.79V430.962V428.753V425.993V425.164V422.956V419.919H1451.05H1450.49H1449.67H1448.29H1447.46H1446.63H1445.53H1444.7H1443.87H1442.49H1441.67H1440.84H1439.74H1438.91H1438.08H1436.7H1436.15H1435.32H1433.94H1433.12H1432.29H1431.19H1430.36H1429.53H1428.15H1427.33H1426.5H1425.39H1424.57H1423.74H1422.36H1421.53H1420.98H1419.6H1418.78H1417.95H1416.57H1416.02H1415.19H1413.81V418.814V416.882V413.293V412.465V410.532V407.219V406.115V404.182H1412.98H1412.16H1411.05H1410.22H1409.4H1408.02H1407.19H1406.36H1405.26H1404.43H1403.61H1402.23H1401.4H1400.85H1399.47H1398.64H1397.81H1396.43H1395.88H1395.06H1393.68H1392.85H1392.02H1390.92H1390.09H1389.26H1387.88H1387.06H1386.51H1385.13H1384.3H1383.47H1382.09H1381.54H1380.71H1379.33H1378.51H1377.68H1376.58H1375.75H1375.2V400.317V399.213V397.28V393.967V393.139V390.93V387.893H1349.55L1344.03 384.304L1338.79 387.893H1335.76V387.065V385.133V382.648V381.544V379.611V376.574V375.47V373.537V371.052H1334.93H1332.72H1332.17H1331.34H1329.96H1329.69L1324.45 367.463L1319.21 371.052H1318.38H1317.55H1317H1315.62H1314.79H1313.97H1312.59H1312.04H1311.21H1309.83H1309H1308.73L1303.49 367.463L1298.25 371.052H1297.42H1296.87H1295.49H1294.66H1293.83V369.948V368.016V365.807V364.703V362.77V360.285V359.181V357.248V353.659H1292.45H1291.9H1291.07H1289.7H1288.87H1288.04H1286.94H1286.11H1285.28H1283.9H1283.08H1282.52H1281.15H1280.32H1279.49H1278.11H1277.56H1276.73H1275.35H1274.53H1273.7H1272.59H1271.77H1270.94H1269.56H1268.73H1267.91H1266.8H1265.98H1265.15H1263.77H1262.94H1262.39H1261.01H1260.18H1259.36H1257.98H1257.43H1256.6H1255.22H1254.39H1253.56H1252.46H1251.63H1250.81H1249.43H1248.6H1248.05H1246.67H1245.84H1245.57V357.248V359.181V360.285V362.77V364.703V365.807V368.016V369.948V371.052V373.537V375.47V376.574V379.611V381.544V382.648V385.133V387.065V387.893V388.17V390.93V391.482V393.139V393.967V397.28V399.213V400.317V404.182V406.115V407.219V408.599V410.532V412.465V413.293V416.882V418.814V419.919V422.956V425.164V425.993V428.753V430.962V431.79V435.379V437.312H1241.15V473.202H1242.81H1245.57H1245.84H1246.67H1248.05H1248.6H1249.43H1250.81H1251.63H1252.46H1253.56H1254.39H1255.22H1256.6H1257.43H1257.98H1259.36H1260.18H1261.01H1262.39H1262.94H1263.77H1265.15H1265.98H1266.8H1267.91H1268.73H1269.56H1270.94H1271.77H1272.59H1273.7H1274.53H1275.35H1276.73H1277.56H1278.11H1279.49H1280.32H1281.15H1282.52H1283.08H1283.9H1285.28H1286.11H1286.94H1288.04H1288.87H1289.7H1291.07H1291.9H1292.45H1293.83H1294.11H1294.66H1295.49H1296.87H1297.42H1298.25H1299.62H1300.45H1301.28H1302.38H1303.21H1304.04H1305.42H1306.24H1307.07H1308.17H1309H1309.83H1311.21H1312.04H1312.31H1312.59H1313.97H1314.52H1314.79H1315.62H1317H1317.55H1318.38H1319.76H1320.59H1321.41H1322.52H1323.34H1324.17H1325.55H1326.38H1327.21H1328.31H1329.14H1329.96H1331.34H1332.17H1332.72H1334.1H1334.93H1335.2H1335.48H1337.13H1337.96H1338.79H1340.44H1341.27H1342.1H1343.2H1344.03H1344.86H1346.24H1347.06H1347.62H1348.99H1349.82H1350.65H1351.75H1352.58H1353.41H1354.79H1355.61H1356.44H1357.54H1358.37H1359.2H1360.58H1361.41H1361.96H1363.34H1363.89H1364.16H1364.99H1366.37H1366.92H1367.75H1369.13H1369.96H1370.78H1371.89H1372.71H1373.54H1374.65H1374.92H1375.75H1376.58H1377.68H1378.51H1379.33H1380.71H1381.54H1382.09H1383.47H1384.3H1385.13H1386.51H1387.06H1387.88H1389.26H1390.09H1390.92H1392.02H1392.85H1393.68H1394.78H1395.06H1395.88H1396.43H1397.81H1398.64H1399.47H1400.85H1401.4H1402.23H1403.61H1404.43H1405.26H1406.36H1407.19H1408.02H1409.4H1410.22H1411.05H1412.16H1412.98H1413.81H1415.19H1416.02H1416.57H1417.95H1418.78H1419.6H1420.98H1421.53H1422.36H1423.74H1424.57H1425.39H1426.5H1427.33H1428.15H1429.53H1430.36H1431.19H1431.46H1432.29H1433.12H1433.39H1433.94H1435.32H1436.15H1436.7H1438.08H1438.91H1439.74H1440.84H1441.67H1442.49H1443.87H1444.7H1445.53H1446.63H1447.46H1448.29H1449.67H1450.49H1450.77H1451.05H1451.87H1452.42H1453.25H1454.08H1455.46H1456.01H1456.84H1458.22H1459.04H1459.87H1460.97H1461.8H1462.63H1464.01H1464.84H1465.66H1466.77H1467.59H1468.42H1469.8H1470.63H1471.18H1472.56H1473.39H1474.21H1475.59H1476.42H1477.25H1478.63H1479.45H1480.28H1481.38H1482.21H1483.04H1484.14H1484.97H1485.52H1486.9H1487.73H1488.56H1489.11V470.718V469.889V467.681V464.368V463.263V461.331V457.742V456.637V454.705V451.116V450.288V448.079V444.766V443.662V441.729V438.416V437.312V435.379H1451.87Z"/>
</mask>
<path d="M1451.87 435.379V431.79V430.962V428.753V425.993V425.164V422.956V419.919H1451.05H1450.49H1449.67H1448.29H1447.46H1446.63H1445.53H1444.7H1443.87H1442.49H1441.67H1440.84H1439.74H1438.91H1438.08H1436.7H1436.15H1435.32H1433.94H1433.12H1432.29H1431.19H1430.36H1429.53H1428.15H1427.33H1426.5H1425.39H1424.57H1423.74H1422.36H1421.53H1420.98H1419.6H1418.78H1417.95H1416.57H1416.02H1415.19H1413.81V418.814V416.882V413.293V412.465V410.532V407.219V406.115V404.182H1412.98H1412.16H1411.05H1410.22H1409.4H1408.02H1407.19H1406.36H1405.26H1404.43H1403.61H1402.23H1401.4H1400.85H1399.47H1398.64H1397.81H1396.43H1395.88H1395.06H1393.68H1392.85H1392.02H1390.92H1390.09H1389.26H1387.88H1387.06H1386.51H1385.13H1384.3H1383.47H1382.09H1381.54H1380.71H1379.33H1378.51H1377.68H1376.58H1375.75H1375.2V400.317V399.213V397.28V393.967V393.139V390.93V387.893H1349.55L1344.03 384.304L1338.79 387.893H1335.76V387.065V385.133V382.648V381.544V379.611V376.574V375.47V373.537V371.052H1334.93H1332.72H1332.17H1331.34H1329.96H1329.69L1324.45 367.463L1319.21 371.052H1318.38H1317.55H1317H1315.62H1314.79H1313.97H1312.59H1312.04H1311.21H1309.83H1309H1308.73L1303.49 367.463L1298.25 371.052H1297.42H1296.87H1295.49H1294.66H1293.83V369.948V368.016V365.807V364.703V362.77V360.285V359.181V357.248V353.659H1292.45H1291.9H1291.07H1289.7H1288.87H1288.04H1286.94H1286.11H1285.28H1283.9H1283.08H1282.52H1281.15H1280.32H1279.49H1278.11H1277.56H1276.73H1275.35H1274.53H1273.7H1272.59H1271.77H1270.94H1269.56H1268.73H1267.91H1266.8H1265.98H1265.15H1263.77H1262.94H1262.39H1261.01H1260.18H1259.36H1257.98H1257.43H1256.6H1255.22H1254.39H1253.56H1252.46H1251.63H1250.81H1249.43H1248.6H1248.05H1246.67H1245.84H1245.57V357.248V359.181V360.285V362.77V364.703V365.807V368.016V369.948V371.052V373.537V375.47V376.574V379.611V381.544V382.648V385.133V387.065V387.893V388.17V390.93V391.482V393.139V393.967V397.28V399.213V400.317V404.182V406.115V407.219V408.599V410.532V412.465V413.293V416.882V418.814V419.919V422.956V425.164V425.993V428.753V430.962V431.79V435.379V437.312H1241.15V473.202H1242.81H1245.57H1245.84H1246.67H1248.05H1248.6H1249.43H1250.81H1251.63H1252.46H1253.56H1254.39H1255.22H1256.6H1257.43H1257.98H1259.36H1260.18H1261.01H1262.39H1262.94H1263.77H1265.15H1265.98H1266.8H1267.91H1268.73H1269.56H1270.94H1271.77H1272.59H1273.7H1274.53H1275.35H1276.73H1277.56H1278.11H1279.49H1280.32H1281.15H1282.52H1283.08H1283.9H1285.28H1286.11H1286.94H1288.04H1288.87H1289.7H1291.07H1291.9H1292.45H1293.83H1294.11H1294.66H1295.49H1296.87H1297.42H1298.25H1299.62H1300.45H1301.28H1302.38H1303.21H1304.04H1305.42H1306.24H1307.07H1308.17H1309H1309.83H1311.21H1312.04H1312.31H1312.59H1313.97H1314.52H1314.79H1315.62H1317H1317.55H1318.38H1319.76H1320.59H1321.41H1322.52H1323.34H1324.17H1325.55H1326.38H1327.21H1328.31H1329.14H1329.96H1331.34H1332.17H1332.72H1334.1H1334.93H1335.2H1335.48H1337.13H1337.96H1338.79H1340.44H1341.27H1342.1H1343.2H1344.03H1344.86H1346.24H1347.06H1347.62H1348.99H1349.82H1350.65H1351.75H1352.58H1353.41H1354.79H1355.61H1356.44H1357.54H1358.37H1359.2H1360.58H1361.41H1361.96H1363.34H1363.89H1364.16H1364.99H1366.37H1366.92H1367.75H1369.13H1369.96H1370.78H1371.89H1372.71H1373.54H1374.65H1374.92H1375.75H1376.58H1377.68H1378.51H1379.33H1380.71H1381.54H1382.09H1383.47H1384.3H1385.13H1386.51H1387.06H1387.88H1389.26H1390.09H1390.92H1392.02H1392.85H1393.68H1394.78H1395.06H1395.88H1396.43H1397.81H1398.64H1399.47H1400.85H1401.4H1402.23H1403.61H1404.43H1405.26H1406.36H1407.19H1408.02H1409.4H1410.22H1411.05H1412.16H1412.98H1413.81H1415.19H1416.02H1416.57H1417.95H1418.78H1419.6H1420.98H1421.53H1422.36H1423.74H1424.57H1425.39H1426.5H1427.33H1428.15H1429.53H1430.36H1431.19H1431.46H1432.29H1433.12H1433.39H1433.94H1435.32H1436.15H1436.7H1438.08H1438.91H1439.74H1440.84H1441.67H1442.49H1443.87H1444.7H1445.53H1446.63H1447.46H1448.29H1449.67H1450.49H1450.77H1451.05H1451.87H1452.42H1453.25H1454.08H1455.46H1456.01H1456.84H1458.22H1459.04H1459.87H1460.97H1461.8H1462.63H1464.01H1464.84H1465.66H1466.77H1467.59H1468.42H1469.8H1470.63H1471.18H1472.56H1473.39H1474.21H1475.59H1476.42H1477.25H1478.63H1479.45H1480.28H1481.38H1482.21H1483.04H1484.14H1484.97H1485.52H1486.9H1487.73H1488.56H1489.11V470.718V469.889V467.681V464.368V463.263V461.331V457.742V456.637V454.705V451.116V450.288V448.079V444.766V443.662V441.729V438.416V437.312V435.379H1451.87Z" fill="white" stroke="#333333" stroke-width="4" mask="url(#path-28-inside-9_882_3801)"/>
<mask id="path-29-inside-10_882_3801" fill="white">
<path d="M1185.99 442.557V439.244V437.588H1182.13V415.225V414.121V411.084V410.256H1182.68V409.152H1179.92V407.771V407.219H1181.03V406.391H1180.47C1180.2 405.01 1179.65 403.906 1178.54 403.078C1177.99 401.697 1176.89 400.869 1175.51 400.593V397.004H1174.68V400.593C1173.3 400.869 1171.92 401.697 1171.37 403.078C1170.54 403.906 1169.72 405.01 1169.44 406.391H1168.89V407.219H1169.99V407.771V409.152H1167.23V410.256H1167.79V411.084V414.121V415.225V439.244H1165.03L1152.34 431.79V429.029H1152.07V422.956C1152.34 422.956 1152.34 422.68 1152.34 422.403C1152.34 422.127 1152.07 421.851 1151.79 421.851C1151.51 421.851 1151.24 422.127 1151.24 422.403C1151.24 422.68 1151.51 422.956 1151.51 422.956V429.029H1151.24V431.79L1138 439.244H1129.45V437.588H1117.59V439.244V442.557H1115.11V444.214H1117.59V445.87V450.288V451.668V456.637V458.294V459.122V473.202H1120.07H1123.66H1127.52H1128.07H1134.96H1135.52H1139.38H1139.93H1146.82H1147.38H1151.79H1152.34H1159.24H1159.79H1163.65H1164.2H1168.34H1171.1H1171.65H1174.96H1175.51H1182.4H1182.96H1186.27V459.122V458.294V456.637V451.668V450.288V445.87V444.214H1188.75V442.557H1185.99ZM1174.41 407.219H1176.06V407.771V413.017H1174.41V407.771V407.219ZM1178.82 407.771V409.152H1178.27V410.256H1178.82V412.741H1177.16V407.495V406.943H1178.82V407.771ZM1171.65 407.771V407.219H1173.3V407.771V413.017H1171.65V410.532H1172.2V409.428H1171.65V407.771Z"/>
</mask>
<path d="M1185.99 442.557V439.244V437.588H1182.13V415.225V414.121V411.084V410.256H1182.68V409.152H1179.92V407.771V407.219H1181.03V406.391H1180.47C1180.2 405.01 1179.65 403.906 1178.54 403.078C1177.99 401.697 1176.89 400.869 1175.51 400.593V397.004H1174.68V400.593C1173.3 400.869 1171.92 401.697 1171.37 403.078C1170.54 403.906 1169.72 405.01 1169.44 406.391H1168.89V407.219H1169.99V407.771V409.152H1167.23V410.256H1167.79V411.084V414.121V415.225V439.244H1165.03L1152.34 431.79V429.029H1152.07V422.956C1152.34 422.956 1152.34 422.68 1152.34 422.403C1152.34 422.127 1152.07 421.851 1151.79 421.851C1151.51 421.851 1151.24 422.127 1151.24 422.403C1151.24 422.68 1151.51 422.956 1151.51 422.956V429.029H1151.24V431.79L1138 439.244H1129.45V437.588H1117.59V439.244V442.557H1115.11V444.214H1117.59V445.87V450.288V451.668V456.637V458.294V459.122V473.202H1120.07H1123.66H1127.52H1128.07H1134.96H1135.52H1139.38H1139.93H1146.82H1147.38H1151.79H1152.34H1159.24H1159.79H1163.65H1164.2H1168.34H1171.1H1171.65H1174.96H1175.51H1182.4H1182.96H1186.27V459.122V458.294V456.637V451.668V450.288V445.87V444.214H1188.75V442.557H1185.99ZM1174.41 407.219H1176.06V407.771V413.017H1174.41V407.771V407.219ZM1178.82 407.771V409.152H1178.27V410.256H1178.82V412.741H1177.16V407.495V406.943H1178.82V407.771ZM1171.65 407.771V407.219H1173.3V407.771V413.017H1171.65V410.532H1172.2V409.428H1171.65V407.771Z" fill="white" stroke="#333333" stroke-width="4" mask="url(#path-29-inside-10_882_3801)"/>
<mask id="path-30-inside-11_882_3801" fill="white">
<path d="M1049.46 474.859V473.478H1048.91V472.098H1048.08V467.957H1046.98V455.809H1048.08V452.22H1046.98H1043.95H1040.91H1037.88V438.968H1038.98V437.864H1037.88V426.269L1035.67 424.336H1031.81L1029.88 421.851V419.09V418.538V418.262H1030.16V417.986H1029.88C1029.88 417.434 1029.33 416.882 1028.78 416.606V415.501V416.606C1028.23 416.606 1027.67 417.158 1027.67 417.986H1027.4V418.262H1027.67V418.538V419.09V421.851L1025.74 424.336H1023.81C1022.43 421.023 1019.68 418.814 1016.09 418.262V415.778V415.225V414.949H1016.37V414.673H1016.09C1016.09 414.121 1015.54 413.569 1014.99 413.293V411.36V413.017C1014.44 413.017 1013.88 413.569 1013.88 414.397H1013.61V414.673H1013.88V414.949V415.501V417.986C1010.3 418.538 1007.26 420.747 1006.16 424.06H1005.61V408.876V406.943H1007.26V405.839H1005.61V394.795V392.863H1007.26V392.035H1005.61V390.102H1005.33V387.617V387.065V386.513H1005.61V386.237H1005.33C1005.33 385.685 1004.78 385.133 1004.23 384.856V383.752H1003.95V384.856C1003.4 384.856 1002.85 385.409 1002.85 386.237H1002.58V386.513H1002.85V386.789V387.341V388.998L1001.47 386.513L996.232 376.022V374.089L995.404 372.157V369.12H995.68V372.157L994.853 374.089V375.746L988.233 389.274V387.341V386.789V386.513H988.509V386.237H988.233C988.233 385.685 987.681 385.133 987.13 384.856V383.752H986.854V384.856C986.302 384.856 985.751 385.409 985.751 386.237H985.475V386.513H985.751V386.789V387.341V389.826H985.475V391.758H984.096V392.863H985.475V394.795V405.839H984.096V406.943H985.475V408.876V424.06H984.923C983.544 420.747 980.786 418.538 977.201 417.986V415.501V414.949V414.673H977.476V414.397H977.201C977.201 413.845 976.649 413.293 976.097 413.017V411.36H975.821V413.017C975.27 413.017 974.718 413.569 974.718 414.397H974.442V414.673H974.718V414.949V415.501V417.986C971.133 418.538 968.099 420.747 966.996 424.06H965.341L963.41 421.575V418.814V418.262V417.986H963.686V417.71H963.41C963.41 417.158 962.858 416.606 962.307 416.33V415.225H962.031V416.33C961.479 416.33 960.928 416.882 960.928 417.71H960.652V417.986H960.928V418.262V418.814V421.575L958.997 424.06H955.136L952.929 425.993V437.588H951.826V438.692H952.929V439.797V452.22H949.895H946.861H943.827H942.724V455.809H943.827V467.957H942.724V472.098H941.897V473.478H941.345V474.859H940.518V476.515H943.552H946.585H949.619H952.653H970.857H974.167H977.752H981.338H985.199H1005.33H1009.47H1013.06H1016.37H1019.68H1037.88H1040.91H1043.95H1046.98H1050.01V474.859H1049.46ZM1029.05 419.09L1029.33 421.851H1029.05V419.09ZM1029.6 421.575L1029.33 418.814V421.575H1029.6ZM1028.23 419.09L1028.5 421.851H1028.23V419.09ZM962.031 419.09L962.307 421.851H962.031V419.09ZM962.858 421.575L962.583 418.814V421.575H962.858ZM961.203 419.09L961.479 421.851H961.203V419.09ZM976.097 415.778V418.262C976.097 418.262 976.097 418.262 975.821 418.262L976.097 415.778ZM1015.26 415.778V418.262C1015.26 418.262 1015.26 418.262 1014.99 418.262L1015.26 415.778ZM1015.81 418.262L1015.54 415.778V418.262H1015.81ZM1014.44 415.778L1014.71 418.262C1014.71 418.262 1014.71 418.262 1014.44 418.262V415.778ZM987.13 387.341V389.826H986.854L987.13 387.341ZM1004.23 387.341V389.826H1003.95L1004.23 387.341ZM1005.06 389.826L1004.78 387.341V389.826H1005.06ZM1003.4 387.341L1003.68 389.826H1003.4V387.341ZM987.681 389.826L987.406 387.341V389.826H987.681ZM986.302 387.341L986.578 389.826H986.302V387.341ZM976.649 418.262L976.373 415.778V418.262H976.649ZM975.27 415.778L975.546 418.262C975.546 418.262 975.546 418.262 975.27 418.262V415.778ZM946.861 456.085H949.895V468.233H946.861V456.085ZM1043.95 467.957H1040.91V455.809H1043.95V467.957Z"/>
</mask>
<path d="M1049.46 474.859V473.478H1048.91V472.098H1048.08V467.957H1046.98V455.809H1048.08V452.22H1046.98H1043.95H1040.91H1037.88V438.968H1038.98V437.864H1037.88V426.269L1035.67 424.336H1031.81L1029.88 421.851V419.09V418.538V418.262H1030.16V417.986H1029.88C1029.88 417.434 1029.33 416.882 1028.78 416.606V415.501V416.606C1028.23 416.606 1027.67 417.158 1027.67 417.986H1027.4V418.262H1027.67V418.538V419.09V421.851L1025.74 424.336H1023.81C1022.43 421.023 1019.68 418.814 1016.09 418.262V415.778V415.225V414.949H1016.37V414.673H1016.09C1016.09 414.121 1015.54 413.569 1014.99 413.293V411.36V413.017C1014.44 413.017 1013.88 413.569 1013.88 414.397H1013.61V414.673H1013.88V414.949V415.501V417.986C1010.3 418.538 1007.26 420.747 1006.16 424.06H1005.61V408.876V406.943H1007.26V405.839H1005.61V394.795V392.863H1007.26V392.035H1005.61V390.102H1005.33V387.617V387.065V386.513H1005.61V386.237H1005.33C1005.33 385.685 1004.78 385.133 1004.23 384.856V383.752H1003.95V384.856C1003.4 384.856 1002.85 385.409 1002.85 386.237H1002.58V386.513H1002.85V386.789V387.341V388.998L1001.47 386.513L996.232 376.022V374.089L995.404 372.157V369.12H995.68V372.157L994.853 374.089V375.746L988.233 389.274V387.341V386.789V386.513H988.509V386.237H988.233C988.233 385.685 987.681 385.133 987.13 384.856V383.752H986.854V384.856C986.302 384.856 985.751 385.409 985.751 386.237H985.475V386.513H985.751V386.789V387.341V389.826H985.475V391.758H984.096V392.863H985.475V394.795V405.839H984.096V406.943H985.475V408.876V424.06H984.923C983.544 420.747 980.786 418.538 977.201 417.986V415.501V414.949V414.673H977.476V414.397H977.201C977.201 413.845 976.649 413.293 976.097 413.017V411.36H975.821V413.017C975.27 413.017 974.718 413.569 974.718 414.397H974.442V414.673H974.718V414.949V415.501V417.986C971.133 418.538 968.099 420.747 966.996 424.06H965.341L963.41 421.575V418.814V418.262V417.986H963.686V417.71H963.41C963.41 417.158 962.858 416.606 962.307 416.33V415.225H962.031V416.33C961.479 416.33 960.928 416.882 960.928 417.71H960.652V417.986H960.928V418.262V418.814V421.575L958.997 424.06H955.136L952.929 425.993V437.588H951.826V438.692H952.929V439.797V452.22H949.895H946.861H943.827H942.724V455.809H943.827V467.957H942.724V472.098H941.897V473.478H941.345V474.859H940.518V476.515H943.552H946.585H949.619H952.653H970.857H974.167H977.752H981.338H985.199H1005.33H1009.47H1013.06H1016.37H1019.68H1037.88H1040.91H1043.95H1046.98H1050.01V474.859H1049.46ZM1029.05 419.09L1029.33 421.851H1029.05V419.09ZM1029.6 421.575L1029.33 418.814V421.575H1029.6ZM1028.23 419.09L1028.5 421.851H1028.23V419.09ZM962.031 419.09L962.307 421.851H962.031V419.09ZM962.858 421.575L962.583 418.814V421.575H962.858ZM961.203 419.09L961.479 421.851H961.203V419.09ZM976.097 415.778V418.262C976.097 418.262 976.097 418.262 975.821 418.262L976.097 415.778ZM1015.26 415.778V418.262C1015.26 418.262 1015.26 418.262 1014.99 418.262L1015.26 415.778ZM1015.81 418.262L1015.54 415.778V418.262H1015.81ZM1014.44 415.778L1014.71 418.262C1014.71 418.262 1014.71 418.262 1014.44 418.262V415.778ZM987.13 387.341V389.826H986.854L987.13 387.341ZM1004.23 387.341V389.826H1003.95L1004.23 387.341ZM1005.06 389.826L1004.78 387.341V389.826H1005.06ZM1003.4 387.341L1003.68 389.826H1003.4V387.341ZM987.681 389.826L987.406 387.341V389.826H987.681ZM986.302 387.341L986.578 389.826H986.302V387.341ZM976.649 418.262L976.373 415.778V418.262H976.649ZM975.27 415.778L975.546 418.262C975.546 418.262 975.546 418.262 975.27 418.262V415.778ZM946.861 456.085H949.895V468.233H946.861V456.085ZM1043.95 467.957H1040.91V455.809H1043.95V467.957Z" fill="white" stroke="#333333" stroke-width="4" mask="url(#path-30-inside-11_882_3801)"/>
<mask id="path-31-inside-12_882_3801" fill="white">
<path d="M816.954 230.251H815.575H812.265H810.886H807.577H806.198H802.888H801.785H798.199H797.096H793.51H792.407H788.821H787.718H784.133H783.029H779.72H778.341H775.031H773.652H770.342H768.963H765.653H764.274H760.964H759.585H757.379V245.988V250.681V253.994V258.688V262.001V266.694V270.007V274.7V278.013V282.707V286.02V290.713V294.026V298.995V302.032V307.002V310.039V315.008V318.321V323.014V326.88V331.573V334.886V339.579V342.892V347.586V350.899V355.868V358.905V363.874V366.911V371.881V375.194V379.887V383.2V387.893V391.206V395.9V399.213V403.906V408.323V413.017V416.33V421.023V424.336V429.029V432.342V437.036V440.349V445.042V448.355V453.048V456.361V461.055V464.368V469.061V475.411H759.585H760.964H764.274H765.653H768.963H770.342H773.652H775.031H778.341H779.72H783.029H784.133H787.718H788.821H792.407H793.51H797.096H798.199H801.785H802.888H806.198H807.577H810.886H812.265H815.575H816.954H819.161V469.061V464.368V461.055V456.361V453.048V448.355V446.146V445.042V441.453V440.349V437.036V432.342V429.029V424.336V421.023V416.33V413.017V408.323V403.906V399.213V395.9V391.206V387.893V383.2V379.887V375.194V371.881V366.911V363.874V358.905V355.868V350.899V347.586V342.892V339.579V334.886V331.573V326.88V323.014V318.321V315.008V310.039V307.002V302.032V298.995V294.026V290.713V286.02V282.707V278.013V274.7V270.007V266.694V262.001V258.688V253.994V250.681V245.988V230.251H816.954Z"/>
</mask>
<path d="M816.954 230.251H815.575H812.265H810.886H807.577H806.198H802.888H801.785H798.199H797.096H793.51H792.407H788.821H787.718H784.133H783.029H779.72H778.341H775.031H773.652H770.342H768.963H765.653H764.274H760.964H759.585H757.379V245.988V250.681V253.994V258.688V262.001V266.694V270.007V274.7V278.013V282.707V286.02V290.713V294.026V298.995V302.032V307.002V310.039V315.008V318.321V323.014V326.88V331.573V334.886V339.579V342.892V347.586V350.899V355.868V358.905V363.874V366.911V371.881V375.194V379.887V383.2V387.893V391.206V395.9V399.213V403.906V408.323V413.017V416.33V421.023V424.336V429.029V432.342V437.036V440.349V445.042V448.355V453.048V456.361V461.055V464.368V469.061V475.411H759.585H760.964H764.274H765.653H768.963H770.342H773.652H775.031H778.341H779.72H783.029H784.133H787.718H788.821H792.407H793.51H797.096H798.199H801.785H802.888H806.198H807.577H810.886H812.265H815.575H816.954H819.161V469.061V464.368V461.055V456.361V453.048V448.355V446.146V445.042V441.453V440.349V437.036V432.342V429.029V424.336V421.023V416.33V413.017V408.323V403.906V399.213V395.9V391.206V387.893V383.2V379.887V375.194V371.881V366.911V363.874V358.905V355.868V350.899V347.586V342.892V339.579V334.886V331.573V326.88V323.014V318.321V315.008V310.039V307.002V302.032V298.995V294.026V290.713V286.02V282.707V278.013V274.7V270.007V266.694V262.001V258.688V253.994V250.681V245.988V230.251H816.954Z" fill="white" stroke="#333333" stroke-width="4" mask="url(#path-31-inside-12_882_3801)"/>
<mask id="path-32-inside-13_882_3801" fill="white">
<path d="M678.496 454.153V228.043H671.325V208.717H670.774V185.802H665.809V175.311H661.396V163.164L641.262 138.04H639.607H637.676H636.849H633.539H632.436H629.126H628.023H624.713H623.61H620.3H619.473H615.336H614.232H612.577H610.923L609.268 139.973L594.098 158.746L590.512 163.164V175.311H586.099V185.802H580.583V208.717H578.653H578.377V230.527H575.619V454.153H569.551V456.085V456.637V476.515H573.412H574.515H574.791H576.446H578.101H578.377H579.756H583.617H584.72H584.996H586.375H586.651H588.306H589.961H593.822H594.925H595.201H596.58H596.856H598.235H598.511H600.166H604.027H605.13H605.406H606.785H607.061H608.44H608.716H610.095H613.956H615.336H615.611H616.99H617.266H618.645H618.921H620.3H624.162H625.541H627.195H627.471H628.85H629.126H630.505H634.367H635.47H635.746H637.4H639.055H639.331H640.71H644.572H645.675H645.951H647.33H647.606H648.985H649.26H650.915H654.777H655.88H656.156H657.535H657.811H659.19H659.465H661.12H664.706H666.085H666.361H667.74H668.016H669.395H669.67H671.05H674.911H676.29H676.566H677.945H678.221H679.6H679.875H681.255H685.668V456.637V456.085V454.153H678.496Z"/>
</mask>
<path d="M678.496 454.153V228.043H671.325V208.717H670.774V185.802H665.809V175.311H661.396V163.164L641.262 138.04H639.607H637.676H636.849H633.539H632.436H629.126H628.023H624.713H623.61H620.3H619.473H615.336H614.232H612.577H610.923L609.268 139.973L594.098 158.746L590.512 163.164V175.311H586.099V185.802H580.583V208.717H578.653H578.377V230.527H575.619V454.153H569.551V456.085V456.637V476.515H573.412H574.515H574.791H576.446H578.101H578.377H579.756H583.617H584.72H584.996H586.375H586.651H588.306H589.961H593.822H594.925H595.201H596.58H596.856H598.235H598.511H600.166H604.027H605.13H605.406H606.785H607.061H608.44H608.716H610.095H613.956H615.336H615.611H616.99H617.266H618.645H618.921H620.3H624.162H625.541H627.195H627.471H628.85H629.126H630.505H634.367H635.47H635.746H637.4H639.055H639.331H640.71H644.572H645.675H645.951H647.33H647.606H648.985H649.26H650.915H654.777H655.88H656.156H657.535H657.811H659.19H659.465H661.12H664.706H666.085H666.361H667.74H668.016H669.395H669.67H671.05H674.911H676.29H676.566H677.945H678.221H679.6H679.875H681.255H685.668V456.637V456.085V454.153H678.496Z" fill="white" stroke="#333333" stroke-width="4" mask="url(#path-32-inside-13_882_3801)"/>
<mask id="path-33-inside-14_882_3801" fill="white">
<path d="M768.963 259.516H767.584H763.998H762.895H759.309H757.93H754.62H753.241H749.656H748.553H744.967H743.588H740.278H738.899H735.314H734.21H730.625H729.246H725.936H724.557H721.247H719.868H716.283H715.179H711.594H710.215H707.732V273.596V277.737V280.774V284.915V287.952V292.093V295.13V299.271V302.308V306.726V309.486V313.904V316.665V321.082V323.843V328.26V331.021V335.438V338.199V342.616V346.205V350.346V353.383V357.525V360.561V364.703V367.739V371.881V374.918V379.059V382.096V386.237V389.274V393.415V396.452V400.593V403.63V407.771V410.808V414.949V418.814V423.232V425.993V430.41V433.171V437.588V440.349V444.766V447.527V451.944V454.705V459.122V461.883V466.3V469.061V473.478V479H710.215H711.594H715.179H716.283H719.868H721.247H724.557H725.936H729.246H730.625H734.21H735.314H738.899H740.278H743.588H744.967H748.553H749.656H753.241H754.62H757.93H759.309H762.895H763.998H767.584H768.963H771.169V473.478V469.061V466.3V461.883V459.122V454.705V452.772V451.944V448.631V447.527V444.766V440.349V437.588V433.171V430.41V425.993V423.232V418.814V414.949V410.808V407.771V403.63V400.593V396.452V393.415V389.274V386.237V382.096V379.059V374.918V371.881V367.739V364.703V360.561V357.525V353.383V350.346V346.205V342.616V338.199V335.438V331.021V328.26V323.843V321.082V316.665V313.904V309.486V306.726V302.308V299.271V295.13V292.093V287.952V284.915V280.774V277.737V273.596V259.516H768.963Z"/>
</mask>
<path d="M768.963 259.516H767.584H763.998H762.895H759.309H757.93H754.62H753.241H749.656H748.553H744.967H743.588H740.278H738.899H735.314H734.21H730.625H729.246H725.936H724.557H721.247H719.868H716.283H715.179H711.594H710.215H707.732V273.596V277.737V280.774V284.915V287.952V292.093V295.13V299.271V302.308V306.726V309.486V313.904V316.665V321.082V323.843V328.26V331.021V335.438V338.199V342.616V346.205V350.346V353.383V357.525V360.561V364.703V367.739V371.881V374.918V379.059V382.096V386.237V389.274V393.415V396.452V400.593V403.63V407.771V410.808V414.949V418.814V423.232V425.993V430.41V433.171V437.588V440.349V444.766V447.527V451.944V454.705V459.122V461.883V466.3V469.061V473.478V479H710.215H711.594H715.179H716.283H719.868H721.247H724.557H725.936H729.246H730.625H734.21H735.314H738.899H740.278H743.588H744.967H748.553H749.656H753.241H754.62H757.93H759.309H762.895H763.998H767.584H768.963H771.169V473.478V469.061V466.3V461.883V459.122V454.705V452.772V451.944V448.631V447.527V444.766V440.349V437.588V433.171V430.41V425.993V423.232V418.814V414.949V410.808V407.771V403.63V400.593V396.452V393.415V389.274V386.237V382.096V379.059V374.918V371.881V367.739V364.703V360.561V357.525V353.383V350.346V346.205V342.616V338.199V335.438V331.021V328.26V323.843V321.082V316.665V313.904V309.486V306.726V302.308V299.271V295.13V292.093V287.952V284.915V280.774V277.737V273.596V259.516H768.963Z" fill="white" stroke="#333333" stroke-width="4" mask="url(#path-33-inside-14_882_3801)"/>
<mask id="path-34-inside-15_882_3801" fill="white">
<path d="M612.302 464.368V421.851H610.096V418.814V417.158V413.569V411.912V408.047V406.391V402.802V401.145V397.28V395.624V392.035V390.378V386.513V384.857V381.267V379.611V375.746V374.089V370.5V368.844V364.979V363.322V359.733V358.077V354.488V352.555V348.966V347.31V343.72V342.064V338.199V336.542V332.953V331.297V327.432V325.775V322.186V320.53V316.665V315.008V311.419V309.763V305.897V304.241V300.652V298.995V298.719V295.13V293.474V289.885V288.228V284.639V282.707V279.118V277.461V273.872V272.216V268.627H607.889H606.51H605.407H603.476H602.097H598.787H597.408H594.374V262.001H586.1V259.516H568.172V262.001H560.174V268.627H557.967H556.588H553.554H552.175H548.865H547.486H545.832V272.216V273.872V277.461V279.118V282.707V284.639V288.228V289.885V293.474V295.13V298.995V300.652V304.241V305.897V309.763V311.419V315.008V316.665V320.53V322.186V325.775V327.432V331.297V332.953V336.542V338.199V342.064V343.72V347.31V348.966V352.555V354.488V358.077V359.733V363.322V364.979H545.28V464.368H541.694V475.963H615.612V464.368H612.302Z"/>
</mask>
<path d="M612.302 464.368V421.851H610.096V418.814V417.158V413.569V411.912V408.047V406.391V402.802V401.145V397.28V395.624V392.035V390.378V386.513V384.857V381.267V379.611V375.746V374.089V370.5V368.844V364.979V363.322V359.733V358.077V354.488V352.555V348.966V347.31V343.72V342.064V338.199V336.542V332.953V331.297V327.432V325.775V322.186V320.53V316.665V315.008V311.419V309.763V305.897V304.241V300.652V298.995V298.719V295.13V293.474V289.885V288.228V284.639V282.707V279.118V277.461V273.872V272.216V268.627H607.889H606.51H605.407H603.476H602.097H598.787H597.408H594.374V262.001H586.1V259.516H568.172V262.001H560.174V268.627H557.967H556.588H553.554H552.175H548.865H547.486H545.832V272.216V273.872V277.461V279.118V282.707V284.639V288.228V289.885V293.474V295.13V298.995V300.652V304.241V305.897V309.763V311.419V315.008V316.665V320.53V322.186V325.775V327.432V331.297V332.953V336.542V338.199V342.064V343.72V347.31V348.966V352.555V354.488V358.077V359.733V363.322V364.979H545.28V464.368H541.694V475.963H615.612V464.368H612.302Z" fill="white" stroke="#333333" stroke-width="4" mask="url(#path-34-inside-15_882_3801)"/>
<path d="M778.168 431.342V431.962V432.342V433.999V448.079V449.735V450.392V450.735V451.392V452.772V476.344H775.031H772.824H765.653H763.171H760.965H758.482H756.276H753.793H751.587H749.105H747.174H745.243H731.453H729.522H726.764H724.833H723.178H720.696H718.49H716.007H713.801H711.318H709.112H706.63H699.734H697.252H695.494V452.772V451.392V450.735V450.392V449.735V448.079V433.999V432.342V431.962V431.342V430.962V430.305H697.252H698.252V429.305V421.195H704.802V427.925V428.925H705.802H712.422H713.422V427.925V425.336H720.248V427.925V428.925H721.248H722.73V429.305V430.305H723.73H726.488H727.488V429.305V428.925H737.072V429.305V430.305H738.072H740.555H741.555V429.305V428.925H751.139V429.305V430.305H752.139H754.621H755.621V429.305V425.888H762.171V427.925V428.925H763.171H765.205V429.305V430.305H766.205H778.168V430.962V431.342Z" fill="white" stroke="#333333" stroke-width="2"/>
<path d="M626.196 448.079V449.079H627.196H631.988V473.859H631.057H628.023H626.92H623.886H622.507H619.473H618.094H615.06H613.681H610.647H608.992H606.234H603.476H602.373H597.96H596.029H592.995H591.892H588.858H587.203H584.169H582.79H580.032H578.377H575.343H574.688V454.325H578.653H579.653V453.325V452.22V449.183V447.803V444.766V443.662V440.625V439.244V436.208V435.103V432.066V430.686V427.649V426.269V423.232V422.127V419.091V417.71V414.569H580.584H581.411H584.169H585.169V413.569V411.532H593.374V413.569V414.569H594.374H595.202H596.202V413.569V408.495H604.407V413.569V414.569H605.407H609.544H609.82H610.82V413.569V411.532H619.025V413.569V414.569H620.025H624.162H625.265H626.196V417.71V419.091V422.127V423.232V426.269V427.649V430.686V432.066V435.103V436.208V439.244V440.625V443.662V444.766V447.803V448.079Z" fill="white" stroke="#333333" stroke-width="2"/>
<path d="M407.202 219.76V220.76H408.202H417.304H422.268H426.233V236.325V455.257V461.711H424.475H423.475V462.711V464.092V466.405H422.268H421.268V467.405V470.822H420.062H419.062V471.822V473.859H418.407H417.855H413.994H402.961H396.342H385.309H379.517H368.209H365.451H365.348H364.451H364.348H361.038H350.005H346.696H346.144H345.765V473.754V472.754H344.765H342.007H330.974H327.665H326.458V470.994V469.994H325.458H324.528V466.3V465.3H323.528H322.321V462.987V461.883V460.883H321.321H319.287V454.429V200.158V184.318H322.976H328.216H344.213H345.213V183.318V179.072H381.275V183.318V184.318H382.275H397.997H403.237H407.202V200.158V202.091V203.195V205.68V206.508V208.993V210.097V212.582V213.686V216.171V217.275V219.76Z" fill="white" stroke="#333333" stroke-width="2"/>
<mask id="path-38-inside-16_882_3801" fill="white">
<path d="M467.776 402.802V402.526L468.052 394.243H459.502H457.847H452.055H451.228V390.654H434.955H418.406V394.243H413.166H411.511H401.857L402.133 401.145V402.802L402.409 407.219H402.133V408.876H402.409L402.961 419.367H402.685V421.023H402.961L403.236 426.269V427.373V431.79V433.447H403.512V438.692V439.52L403.788 444.766V445.594L404.34 456.085H404.064V457.742H404.34V458.846H406.546V460.779V462.159V464.368V465.196V465.748V467.957V469.613V471.546V473.202V475.135H411.511H413.166H413.442H414.545H415.096H416.751H418.958H420.337H420.888H421.992H422.543H423.922H426.405H426.956H428.06H428.611H430.266H432.197H433.852H436.058H437.437H439.644H441.299H442.402H442.953H444.057H444.608H447.091H448.47H449.021H450.124H450.676H452.055H454.262H455.917H456.468H457.571H457.847H459.502H463.363V473.202V471.546V469.613V467.957V465.748V465.196V464.368V462.159V460.779V458.846H465.846V457.742V456.085L466.673 433.447H466.949V431.79H466.673L467.225 421.023V419.367L467.501 408.876H467.776V407.219V402.802Z"/>
</mask>
<path d="M467.776 402.802V402.526L468.052 394.243H459.502H457.847H452.055H451.228V390.654H434.955H418.406V394.243H413.166H411.511H401.857L402.133 401.145V402.802L402.409 407.219H402.133V408.876H402.409L402.961 419.367H402.685V421.023H402.961L403.236 426.269V427.373V431.79V433.447H403.512V438.692V439.52L403.788 444.766V445.594L404.34 456.085H404.064V457.742H404.34V458.846H406.546V460.779V462.159V464.368V465.196V465.748V467.957V469.613V471.546V473.202V475.135H411.511H413.166H413.442H414.545H415.096H416.751H418.958H420.337H420.888H421.992H422.543H423.922H426.405H426.956H428.06H428.611H430.266H432.197H433.852H436.058H437.437H439.644H441.299H442.402H442.953H444.057H444.608H447.091H448.47H449.021H450.124H450.676H452.055H454.262H455.917H456.468H457.571H457.847H459.502H463.363V473.202V471.546V469.613V467.957V465.748V465.196V464.368V462.159V460.779V458.846H465.846V457.742V456.085L466.673 433.447H466.949V431.79H466.673L467.225 421.023V419.367L467.501 408.876H467.776V407.219V402.802Z" fill="white" stroke="#333333" stroke-width="4" mask="url(#path-38-inside-16_882_3801)"/>
<mask id="path-39-inside-17_882_3801" fill="white">
<path d="M270.571 422.956H269.468H267.813H266.434H264.779H263.676H262.021H260.642H258.987H257.884H256.229H255.126H253.195H252.092H250.437H249.334H247.679H246.3H244.645H243.542H241.887H240.508H238.853H237.75H236.095H234.991H233.061H231.958H230.303H229.199H227.545H226.165H224.511H223.407H221.752H220.373H218.719H217.615H215.96H214.857H212.926H211.823H210.168H209.065H207.41H206.031H204.376H203.273H201.618H200.239H198.584H197.481H195.826H194.723H192.792H191.689H190.034H188.931H187.276H185.897H184.242H183.139H181.484H180.105H178.45H177.347H175.692H174.589H172.658H171.555H169.9H168.797H167.142H165.763H164.108H163.005H161.35H159.971H158.316H157.213H155.558H154.454H152.524H151.42H149.766H148.662H147.007H145.628H143.974H142.87H141.215H139.836H138.182H137.078H135.699V423.232V425.44V427.649V429.858V433.447V435.655V439.244V441.453V445.042V447.251V450.84V453.048V456.361V456.914V458.846V463.263V465.196V465.748V467.128V472.374H139.836H176.519H184.242H220.649H228.648H265.055H271.399V467.128V465.748V465.196V463.263V458.846V456.914V456.361V453.048V450.84V447.251V445.042V441.453V439.244V435.655V433.447V429.858V427.649V425.44V423.232V422.956H270.571Z"/>
</mask>
<path d="M270.571 422.956H269.468H267.813H266.434H264.779H263.676H262.021H260.642H258.987H257.884H256.229H255.126H253.195H252.092H250.437H249.334H247.679H246.3H244.645H243.542H241.887H240.508H238.853H237.75H236.095H234.991H233.061H231.958H230.303H229.199H227.545H226.165H224.511H223.407H221.752H220.373H218.719H217.615H215.96H214.857H212.926H211.823H210.168H209.065H207.41H206.031H204.376H203.273H201.618H200.239H198.584H197.481H195.826H194.723H192.792H191.689H190.034H188.931H187.276H185.897H184.242H183.139H181.484H180.105H178.45H177.347H175.692H174.589H172.658H171.555H169.9H168.797H167.142H165.763H164.108H163.005H161.35H159.971H158.316H157.213H155.558H154.454H152.524H151.42H149.766H148.662H147.007H145.628H143.974H142.87H141.215H139.836H138.182H137.078H135.699V423.232V425.44V427.649V429.858V433.447V435.655V439.244V441.453V445.042V447.251V450.84V453.048V456.361V456.914V458.846V463.263V465.196V465.748V467.128V472.374H139.836H176.519H184.242H220.649H228.648H265.055H271.399V467.128V465.748V465.196V463.263V458.846V456.914V456.361V453.048V450.84V447.251V445.042V441.453V439.244V435.655V433.447V429.858V427.649V425.44V423.232V422.956H270.571Z" fill="white" stroke="#333333" stroke-width="4" mask="url(#path-39-inside-17_882_3801)"/>
<path d="M334.387 374.365V375.365H335.387H338.8V471.374H306.702H301.186H296.773H296.67V375.365H299.531H300.531V374.365V370.396H309.185H334.387V374.365Z" fill="white" stroke="#333333" stroke-width="2"/>
<path d="M266.434 444.938C280.438 444.938 291.917 455.569 293.214 469.442H239.656C240.963 455.815 252.444 444.938 266.434 444.938Z" fill="white" stroke="#333333" stroke-width="2"/>
<path d="M117.496 445.766C131.499 445.766 142.979 456.397 144.276 470.27H90.7176C92.0241 456.643 103.506 445.766 117.496 445.766Z" fill="white" stroke="#333333" stroke-width="2"/>
<path d="M140.388 455.981C148.57 455.981 155.112 462.157 156.114 469.994H124.662C125.664 462.157 132.206 455.981 140.388 455.981Z" fill="white" stroke="#333333" stroke-width="2"/>
<path d="M43.0267 455.981C51.2084 455.981 57.7502 462.157 58.7522 469.994H27.3011C28.3031 462.157 34.845 455.981 43.0267 455.981Z" fill="white" stroke="#333333" stroke-width="2"/>
<path d="M35.9755 466.731L36.683 467.439L37.3904 466.731C38.5898 465.53 40.269 464.816 41.9234 464.816C44.9322 464.816 47.5011 466.932 48.005 469.718H38.8895H34.4765H28.9602H24.2714H15.2346C15.9376 466.906 18.5369 464.816 21.5133 464.816C23.2295 464.816 24.6121 465.295 25.7705 466.455L26.4779 467.163L27.1854 466.455C28.0889 465.55 29.7595 464.816 31.4425 464.816C33.3528 464.816 34.7611 465.515 35.9755 466.731Z" fill="white" stroke="#333333" stroke-width="2"/>
<path d="M93.3443 465.351L93.9903 465.997L94.6923 465.412C96.2254 464.133 98.213 463.159 100.395 463.159C104.468 463.159 107.691 466.071 108.162 469.994H96.534H91.0178H84.1225H78.3305H67.038C67.7261 466.05 70.972 463.159 75.0207 463.159C77.2722 463.159 79.2127 463.905 80.657 465.351L81.3644 466.059L82.0719 465.351C83.5161 463.905 85.4566 463.159 87.7081 463.159C89.9595 463.159 91.9001 463.905 93.3443 465.351Z" fill="white" stroke="#333333" stroke-width="2"/>
<path d="M244.489 464.798L245.135 465.445L245.837 464.86C247.37 463.581 249.358 462.607 251.54 462.607C255.612 462.607 258.835 465.518 259.306 469.442H247.679H242.162H235.267H229.475H218.183C218.871 465.498 222.117 462.607 226.165 462.607C228.417 462.607 230.357 463.353 231.801 464.798L232.509 465.507L233.216 464.798C234.661 463.353 236.601 462.607 238.853 462.607C241.104 462.607 243.045 463.353 244.489 464.798Z" fill="white" stroke="#333333" stroke-width="2"/>
<path d="M298.153 455.981C306.334 455.981 312.876 462.157 313.878 469.994H282.427C283.429 462.157 289.971 455.981 298.153 455.981Z" fill="white" stroke="#333333" stroke-width="2"/>
<path d="M1 479.38V471.718H1511V479.38H1Z" fill="white" stroke="#333333" stroke-width="2"/>
<path d="M824.677 445.766C838.655 445.766 849.885 456.631 851.18 470.27H798.153C799.194 456.406 810.664 445.766 824.677 445.766Z" fill="white" stroke="#333333" stroke-width="2"/>
<path d="M410.684 445.766C424.662 445.766 435.892 456.631 437.187 470.27H384.16C385.201 456.406 396.671 445.766 410.684 445.766Z" fill="white" stroke="#333333" stroke-width="2"/>
<path d="M573.412 445.766C587.39 445.766 598.621 456.631 599.915 470.27H546.888C547.929 456.406 559.399 445.766 573.412 445.766Z" fill="white" stroke="#333333" stroke-width="2"/>
<path d="M656.156 445.766C670.134 445.766 681.365 456.631 682.659 470.27H629.633C630.673 456.406 642.144 445.766 656.156 445.766Z" fill="white" stroke="#333333" stroke-width="2"/>
<path d="M316.632 455.981C324.814 455.981 331.356 462.157 332.358 469.994H300.907C301.909 462.157 308.45 455.981 316.632 455.981Z" fill="white" stroke="#333333" stroke-width="2"/>
<path d="M356.193 465.627L356.839 466.273L357.541 465.688C359.074 464.409 361.062 463.435 363.244 463.435C367.079 463.435 370.501 466.362 371.006 470.27H359.383H353.866H346.971H341.179H329.887C330.575 466.327 333.821 463.435 337.869 463.435C340.121 463.435 342.061 464.181 343.506 465.627L344.213 466.335L344.921 465.627C346.365 464.181 348.305 463.435 350.557 463.435C352.808 463.435 354.749 464.181 356.193 465.627Z" fill="white" stroke="#333333" stroke-width="2"/>
<path d="M440.04 465.627L440.686 466.273L441.388 465.688C442.921 464.409 444.908 463.435 447.091 463.435C451.163 463.435 454.386 466.347 454.857 470.27H443.229H437.713H430.818H425.026H413.733C414.421 466.327 417.667 463.435 421.716 463.435C423.967 463.435 425.908 464.181 427.352 465.627L428.06 466.335L428.767 465.627C430.211 464.181 432.152 463.435 434.403 463.435C436.655 463.435 438.595 464.181 440.04 465.627Z" fill="white" stroke="#333333" stroke-width="2"/>
<path d="M532.317 455.705C540.498 455.705 547.04 461.881 548.042 469.718H516.591C517.593 461.881 524.135 455.705 532.317 455.705Z" fill="white" stroke="#333333" stroke-width="2"/>
<path d="M775.582 456.809C783.764 456.809 790.306 462.985 791.308 470.822H759.857C760.859 462.985 767.401 456.809 775.582 456.809Z" fill="white" stroke="#333333" stroke-width="2"/>
<path d="M798.319 466.455L798.965 467.102L799.667 466.516C801.2 465.237 803.188 464.263 805.37 464.263C809.442 464.263 812.665 467.175 813.137 471.098H801.509H795.992H789.097H783.305H772.013C772.701 467.155 775.947 464.263 779.995 464.263C782.247 464.263 784.187 465.009 785.632 466.455L786.339 467.163L787.047 466.455C788.491 465.009 790.431 464.263 792.683 464.263C794.934 464.263 796.875 465.009 798.319 466.455Z" fill="white" stroke="#333333" stroke-width="2"/>
<path d="M1457.11 445.49C1471.09 445.49 1482.32 456.355 1483.62 469.994H1430.59C1431.63 456.13 1443.1 445.49 1457.11 445.49Z" fill="white" stroke="#333333" stroke-width="2"/>
<path d="M1204.75 454.324C1214.33 454.324 1222.21 461.623 1223.24 470.822H1186.25C1187.28 461.623 1195.16 454.324 1204.75 454.324Z" fill="white" stroke="#333333" stroke-width="2"/>
<path d="M1437.26 456.533C1445.44 456.533 1451.98 462.709 1452.98 470.546H1421.53C1422.53 462.709 1429.07 456.533 1437.26 456.533Z" fill="white" stroke="#333333" stroke-width="2"/>
<path d="M1483.71 466.179L1484.36 466.825L1485.06 466.24C1486.59 464.961 1488.58 463.987 1490.76 463.987C1494.6 463.987 1498.02 466.914 1498.52 470.822H1486.9H1481.38H1474.49H1468.7H1457.41C1458.09 466.879 1461.34 463.987 1465.39 463.987C1467.64 463.987 1469.58 464.733 1471.02 466.179L1471.73 466.887L1472.44 466.179C1473.88 464.733 1475.82 463.987 1478.08 463.987C1480.33 463.987 1482.27 464.733 1483.71 466.179Z" fill="white" stroke="#333333" stroke-width="2"/>
<path d="M1239.62 466.179L1240.26 466.825L1240.97 466.24C1242.5 464.961 1244.49 463.987 1246.67 463.987C1250.74 463.987 1253.96 466.899 1254.44 470.822H1242.81H1237.29H1230.4H1224.6H1213.31C1214 466.879 1217.25 463.987 1221.29 463.987C1223.55 463.987 1225.49 464.733 1226.93 466.179L1227.64 466.887L1228.35 466.179C1229.79 464.733 1231.73 463.987 1233.98 463.987C1236.23 463.987 1238.17 464.733 1239.62 466.179Z" fill="white" stroke="#333333" stroke-width="2"/>
<path d="M1088.08 456.257C1096.26 456.257 1102.8 462.433 1103.8 470.27H1072.35C1073.35 462.433 1079.9 456.257 1088.08 456.257Z" fill="white" stroke="#333333" stroke-width="2"/>
<path d="M846.191 456.533C854.372 456.533 860.914 462.709 861.916 470.546H830.465C831.467 462.709 838.009 456.533 846.191 456.533Z" fill="white" stroke="#333333" stroke-width="2"/>
<path d="M1413.1 466.179L1413.75 466.825L1414.45 466.24C1415.98 464.961 1417.97 463.987 1420.15 463.987C1424.23 463.987 1427.45 466.899 1427.92 470.822H1416.29H1410.78H1403.88H1398.09H1386.8C1387.48 466.879 1390.73 463.987 1394.78 463.987C1397.03 463.987 1398.97 464.733 1400.42 466.179L1401.12 466.887L1401.83 466.179C1403.27 464.733 1405.22 463.987 1407.47 463.987C1409.72 463.987 1411.66 464.733 1413.1 466.179Z" fill="white" stroke="#333333" stroke-width="2"/>
<path d="M1176.18 466.179L1176.83 466.825L1177.53 466.24C1179.06 464.961 1181.05 463.987 1183.23 463.987C1187.07 463.987 1190.49 466.914 1190.99 470.822H1179.37H1173.85H1166.96H1161.17H1149.87C1150.56 466.879 1153.81 463.987 1157.86 463.987C1160.11 463.987 1162.05 464.733 1163.49 466.179L1164.2 466.887L1164.91 466.179C1166.35 464.733 1168.29 463.987 1170.54 463.987C1172.8 463.987 1174.74 464.733 1176.18 466.179Z" fill="white" stroke="#333333" stroke-width="2"/>
<path d="M879.564 457.637C886.701 457.637 892.622 462.793 893.384 469.718H865.784C866.779 462.977 872.49 457.637 879.564 457.637Z" fill="white" stroke="#333333" stroke-width="2"/>
<path d="M1027.68 458.19C1034.81 458.19 1040.73 463.345 1041.49 470.27H1013.9C1014.89 463.53 1020.6 458.19 1027.68 458.19Z" fill="white" stroke="#333333" stroke-width="2"/>
<path d="M912.781 466.179L913.427 466.825L914.129 466.24C915.662 464.961 917.65 463.987 919.832 463.987C923.967 463.987 927.362 466.95 927.651 470.822H915.971H910.454H903.559H897.767H886.475C887.163 466.879 890.409 463.987 894.457 463.987C896.709 463.987 898.649 464.733 900.094 466.179L900.801 466.887L901.508 466.179C902.953 464.733 904.893 463.987 907.145 463.987C909.396 463.987 911.337 464.733 912.781 466.179Z" fill="white" stroke="#333333" stroke-width="2"/>
<path d="M1060.89 465.627L1061.54 466.273L1062.24 465.688C1063.77 464.409 1065.76 463.435 1067.94 463.435C1071.78 463.435 1075.2 466.362 1075.71 470.27H1064.08H1058.57H1051.67H1045.88H1034.59C1035.27 466.327 1038.52 463.435 1042.57 463.435C1044.82 463.435 1046.76 464.181 1048.2 465.627L1048.91 466.335L1049.62 465.627C1051.06 464.181 1053 463.435 1055.26 463.435C1057.51 463.435 1059.45 464.181 1060.89 465.627Z" fill="white" stroke="#333333" stroke-width="2"/>
</g>
<defs>
<clipPath id="clip0_882_3801">
<rect width="1512" height="479" fill="white"/>
</clipPath>
</defs>
</svg>
