<svg width="570" height="3" viewBox="0 0 570 3" fill="none" xmlns="http://www.w3.org/2000/svg">
<path d="M0.889219 2.424V0.551999H7.68122V2.424H0.889219ZM10.5689 2.424V0.551999H17.3609V2.424H10.5689ZM20.2486 2.424V0.551999H27.0406V2.424H20.2486ZM29.9283 2.424V0.551999H36.7203V2.424H29.9283ZM39.608 2.424V0.551999H46.4V2.424H39.608ZM49.2877 2.424V0.551999H56.0797V2.424H49.2877ZM58.9673 2.424V0.551999H65.7593V2.424H58.9673ZM68.647 2.424V0.551999H75.439V2.424H68.647ZM78.3267 2.424V0.551999H85.1187V2.424H78.3267ZM88.0064 2.424V0.551999H94.7984V2.424H88.0064ZM97.6861 2.424V0.551999H104.478V2.424H97.6861ZM107.366 2.424V0.551999H114.158V2.424H107.366ZM117.045 2.424V0.551999H123.837V2.424H117.045ZM126.725 2.424V0.551999H133.517V2.424H126.725ZM136.405 2.424V0.551999H143.197V2.424H136.405ZM146.085 2.424V0.551999H152.877V2.424H146.085ZM155.764 2.424V0.551999H162.556V2.424H155.764ZM165.444 2.424V0.551999H172.236V2.424H165.444ZM175.124 2.424V0.551999H181.916V2.424H175.124ZM184.803 2.424V0.551999H191.595V2.424H184.803ZM194.483 2.424V0.551999H201.275V2.424H194.483ZM204.163 2.424V0.551999H210.955V2.424H204.163ZM213.842 2.424V0.551999H220.634V2.424H213.842ZM223.522 2.424V0.551999H230.314V2.424H223.522ZM233.202 2.424V0.551999H239.994V2.424H233.202ZM242.881 2.424V0.551999H249.673V2.424H242.881ZM252.561 2.424V0.551999H259.353V2.424H252.561ZM262.241 2.424V0.551999H269.033V2.424H262.241ZM271.92 2.424V0.551999H278.712V2.424H271.92ZM281.6 2.424V0.551999H288.392V2.424H281.6ZM291.28 2.424V0.551999H298.072V2.424H291.28ZM300.96 2.424V0.551999H307.752V2.424H300.96ZM310.639 2.424V0.551999H317.431V2.424H310.639ZM320.319 2.424V0.551999H327.111V2.424H320.319ZM329.999 2.424V0.551999H336.791V2.424H329.999ZM339.678 2.424V0.551999H346.47V2.424H339.678ZM349.358 2.424V0.551999H356.15V2.424H349.358ZM359.038 2.424V0.551999H365.83V2.424H359.038ZM368.717 2.424V0.551999H375.509V2.424H368.717ZM378.397 2.424V0.551999H385.189V2.424H378.397ZM388.077 2.424V0.551999H394.869V2.424H388.077ZM397.756 2.424V0.551999H404.548V2.424H397.756ZM407.436 2.424V0.551999H414.228V2.424H407.436ZM417.116 2.424V0.551999H423.908V2.424H417.116ZM426.795 2.424V0.551999H433.587V2.424H426.795ZM436.475 2.424V0.551999H443.267V2.424H436.475ZM446.155 2.424V0.551999H452.947V2.424H446.155ZM455.835 2.424V0.551999H462.627V2.424H455.835ZM465.514 2.424V0.551999H472.306V2.424H465.514ZM475.194 2.424V0.551999H481.986V2.424H475.194ZM484.874 2.424V0.551999H491.666V2.424H484.874ZM494.553 2.424V0.551999H501.345V2.424H494.553ZM504.233 2.424V0.551999H511.025V2.424H504.233ZM513.913 2.424V0.551999H520.705V2.424H513.913ZM523.592 2.424V0.551999H530.384V2.424H523.592ZM533.272 2.424V0.551999H540.064V2.424H533.272ZM542.952 2.424V0.551999H549.744V2.424H542.952ZM552.631 2.424V0.551999H559.423V2.424H552.631ZM562.311 2.424V0.551999H569.103V2.424H562.311Z" fill="black"/>
</svg>
