<svg width="250" height="225" viewBox="0 0 250 225" fill="none" xmlns="http://www.w3.org/2000/svg">
<g clip-path="url(#clip0_828_3801)">
<path d="M127.878 130.972L73.382 131.93C72.5218 131.947 71.6668 131.794 70.8657 131.48C70.0647 131.166 69.3334 130.698 68.7138 130.101C68.0942 129.504 67.5984 128.791 67.2548 128.002C66.9112 127.213 66.7265 126.364 66.7114 125.504C66.6963 124.644 66.851 123.789 67.1666 122.989C67.4823 122.188 67.9527 121.458 68.5509 120.84C69.1492 120.221 69.8635 119.727 70.653 119.385C71.4425 119.043 72.2917 118.861 73.152 118.847L127.648 117.889C128.461 117.875 129.246 118.184 129.83 118.748C130.415 119.313 130.751 120.086 130.766 120.899L130.888 127.855C130.901 128.632 130.619 129.385 130.099 129.962C129.578 130.538 128.857 130.896 128.083 130.961C128.015 130.967 127.947 130.971 127.878 130.972Z" fill="#277AFF"/>
<path d="M117.354 132.75L72.6443 134.791C72.2423 134.809 71.8407 134.748 71.4624 134.611C71.084 134.474 70.7363 134.264 70.4391 133.993C70.1419 133.722 69.9011 133.395 69.7303 133.03C69.5595 132.666 69.4622 132.272 69.4438 131.87L68.9707 121.505C68.9337 120.693 69.2206 119.9 69.7684 119.299C70.3161 118.699 71.0799 118.341 71.8916 118.304L116.601 116.263C117.003 116.245 117.405 116.306 117.783 116.443C118.161 116.579 118.509 116.789 118.806 117.061C119.104 117.332 119.344 117.659 119.515 118.023C119.686 118.388 119.783 118.782 119.802 119.184L120.275 129.549C120.31 130.341 120.038 131.115 119.515 131.71C118.992 132.305 118.259 132.675 117.469 132.742C117.431 132.745 117.393 132.748 117.354 132.75Z" fill="#2F2E41"/>
<path d="M41.7465 221.677V163.694C41.7474 162.882 42.0705 162.103 42.6448 161.529C43.2192 160.954 43.998 160.631 44.8103 160.63H51.7673C52.5796 160.631 53.3584 160.954 53.9327 161.529C54.5071 162.103 54.8302 162.882 54.8311 163.694V221.677C54.8302 222.489 54.5071 223.268 53.9327 223.843C53.3584 224.417 52.5796 224.74 51.7673 224.741H44.8103C43.998 224.74 43.2192 224.417 42.6448 223.843C42.0705 223.268 41.7474 222.489 41.7465 221.677Z" fill="#277AFF"/>
<path d="M60.0032 221.677V163.694C60.0041 162.882 60.3272 162.103 60.9015 161.529C61.4759 160.954 62.2547 160.631 63.067 160.63H70.024C70.8363 160.631 71.6151 160.954 72.1894 161.529C72.7638 162.103 73.0869 162.882 73.0878 163.694V221.677C73.0869 222.489 72.7638 223.268 72.1894 223.843C71.6151 224.417 70.8363 224.74 70.024 224.741H63.067C62.2547 224.74 61.4759 224.417 60.9016 223.843C60.3272 223.268 60.0041 222.489 60.0032 221.677Z" fill="#277AFF"/>
<path d="M61.8201 100.119C75.0965 100.119 85.8591 89.3559 85.8591 76.0795C85.8591 62.8031 75.0965 52.0405 61.8201 52.0405C48.5437 52.0405 37.7811 62.8031 37.7811 76.0795C37.7811 89.3559 48.5437 100.119 61.8201 100.119Z" fill="#277AFF"/>
<path d="M74.8323 84.2873C75.6055 84.0332 76.3154 83.6165 76.9142 83.0652C77.3109 82.6715 77.6168 82.1959 77.8103 81.6717C78.0039 81.1474 78.0805 80.5871 78.0348 80.0301C78.0096 79.6333 77.8931 79.2476 77.6942 78.9033C77.4953 78.559 77.2194 78.2653 76.8882 78.0452C76.0286 77.4938 74.8788 77.4921 73.7082 78.008L73.7525 68.6236L72.8098 68.6191L72.7577 79.6515L73.4841 79.1946C74.3263 78.6657 75.5292 78.2934 76.3791 78.8387C76.5892 78.9828 76.7632 79.1734 76.8875 79.3957C77.0119 79.618 77.0834 79.8659 77.0963 80.1203C77.1281 80.5352 77.0701 80.9521 76.9264 81.3426C76.7826 81.7331 76.5563 82.088 76.2631 82.3832C75.2221 83.3776 73.7034 83.6885 71.9716 83.9664L72.121 84.8971C73.0411 84.7752 73.9485 84.5711 74.8323 84.2873Z" fill="#2F2E41"/>
<path d="M83.4703 68.1494L78.4367 68.8141L78.5601 69.7486L83.5937 69.0839L83.4703 68.1494Z" fill="#2F2E41"/>
<path d="M67.5822 70.2471L62.5486 70.9119L62.672 71.8464L67.7056 71.1816L67.5822 70.2471Z" fill="#2F2E41"/>
<path d="M10.8198 74.1814L45.3342 116.366C45.8786 117.031 46.2868 117.796 46.5353 118.619C46.7838 119.442 46.8678 120.305 46.7825 121.16C46.6972 122.015 46.4442 122.845 46.038 123.603C45.6319 124.36 45.0805 125.03 44.4154 125.574C43.7503 126.118 42.9845 126.526 42.1617 126.774C41.339 127.022 40.4754 127.106 39.6203 127.02C38.7652 126.934 37.9354 126.681 37.1783 126.275C36.4211 125.868 35.7514 125.317 35.2076 124.651L0.69299 82.467C0.438181 82.1557 0.247195 81.7972 0.130952 81.412C0.0147095 81.0268 -0.0245233 80.6225 0.0155 80.2221C0.0555232 79.8218 0.174012 79.4332 0.364207 79.0787C0.554402 78.7241 0.812575 78.4105 1.12398 78.1558L6.50834 73.7502C7.13727 73.2357 7.94483 72.9921 8.75337 73.073C9.56191 73.1538 10.3052 73.5526 10.8198 74.1814H10.8198Z" fill="#277AFF"/>
<path d="M22.3307 83.5964L50.6721 118.236C50.9269 118.547 51.1179 118.906 51.2341 119.291C51.3503 119.676 51.3896 120.08 51.3495 120.481C51.3095 120.881 51.191 121.27 51.0008 121.624C50.8106 121.979 50.5525 122.292 50.2411 122.547L41.0443 130.072C40.7329 130.327 40.3744 130.518 39.9892 130.634C39.604 130.75 39.1997 130.789 38.7993 130.749C38.399 130.709 38.0104 130.591 37.6559 130.4C37.3013 130.21 36.9877 129.952 36.733 129.641L8.39148 95.0014C7.87783 94.3722 7.63474 93.5649 7.71554 92.7566C7.79634 91.9484 8.19444 91.2052 8.82248 90.6901L18.0194 83.1653C18.6483 82.6508 19.4558 82.4071 20.2643 82.488C21.0728 82.5689 21.8161 82.9676 22.3307 83.5964L22.3307 83.5964Z" fill="#2F2E41"/>
<path d="M218.824 41.4854C218.477 40.6625 217.897 39.9593 217.155 39.4628C216.413 38.9663 215.541 38.6983 214.648 38.6919H131.307C130.109 38.6925 128.961 39.1687 128.114 40.0158C127.267 40.8629 126.79 42.0116 126.79 43.2096V148.644C126.79 149.842 127.267 150.99 128.114 151.837C128.961 152.684 130.109 153.161 131.307 153.161H214.651C215.849 153.16 216.997 152.683 217.844 151.836C218.691 150.989 219.167 149.841 219.169 148.644V43.2096C219.171 42.6178 219.055 42.0316 218.827 41.4854H218.824ZM218.163 148.644C218.162 149.575 217.791 150.469 217.132 151.127C216.473 151.786 215.58 152.157 214.648 152.158H131.307C130.376 152.158 129.482 151.788 128.823 151.129C128.164 150.47 127.793 149.576 127.793 148.644V43.2102C127.794 42.2785 128.165 41.3854 128.824 40.7265C129.483 40.0677 130.376 39.697 131.307 39.6958H214.651C215.353 39.6984 216.038 39.9101 216.619 40.3039C217.2 40.6977 217.651 41.2556 217.913 41.9066C217.965 42.0363 218.009 42.1686 218.046 42.3031C218.125 42.5989 218.166 42.9039 218.166 43.2102L218.163 148.644Z" fill="#3F3D56"/>
<path d="M201.432 63.5845H176.328C176.064 63.5849 175.803 63.5333 175.559 63.4325C175.315 63.3318 175.093 63.1839 174.906 62.9974C174.719 62.8109 174.571 62.5893 174.47 62.3454C174.369 62.1016 174.317 61.8402 174.317 61.5762C174.317 61.3122 174.369 61.0508 174.47 60.8069C174.571 60.563 174.719 60.3415 174.906 60.1549C175.093 59.9684 175.315 59.8205 175.559 59.7198C175.803 59.619 176.064 59.5674 176.328 59.5678H201.432C201.696 59.5674 201.957 59.619 202.201 59.7198C202.445 59.8205 202.667 59.9684 202.854 60.1549C203.04 60.3415 203.189 60.563 203.29 60.8069C203.391 61.0508 203.443 61.3122 203.443 61.5762C203.443 61.8402 203.391 62.1016 203.29 62.3454C203.189 62.5893 203.04 62.8109 202.854 62.9974C202.667 63.1839 202.445 63.3318 202.201 63.4325C201.957 63.5333 201.696 63.5849 201.432 63.5845Z" fill="#3F3D56"/>
<path d="M201.432 74.1279H176.328C176.064 74.1283 175.803 74.0767 175.559 73.9759C175.315 73.8752 175.093 73.7273 174.906 73.5408C174.719 73.3543 174.571 73.1327 174.47 72.8888C174.369 72.645 174.317 72.3836 174.317 72.1196C174.317 71.8556 174.369 71.5941 174.47 71.3503C174.571 71.1064 174.719 70.8849 174.906 70.6983C175.093 70.5118 175.315 70.3639 175.559 70.2632C175.803 70.1624 176.064 70.1108 176.328 70.1112H201.432C201.696 70.1108 201.957 70.1624 202.201 70.2632C202.445 70.3639 202.667 70.5118 202.854 70.6983C203.04 70.8849 203.189 71.1064 203.29 71.3503C203.391 71.5941 203.443 71.8556 203.443 72.1196C203.443 72.3836 203.391 72.645 203.29 72.8888C203.189 73.1327 203.04 73.3543 202.854 73.5408C202.667 73.7273 202.445 73.8752 202.201 73.9759C201.957 74.0767 201.696 74.1283 201.432 74.1279Z" fill="#3F3D56"/>
<path d="M163.448 80.1313H145.102C144.503 80.1307 143.929 79.8925 143.505 79.4689C143.082 79.0453 142.843 78.4709 142.843 77.8719V56.2228C142.843 55.6237 143.082 55.0494 143.505 54.6258C143.929 54.2022 144.503 53.9639 145.102 53.9633H163.448C164.047 53.9639 164.621 54.2022 165.045 54.6258C165.468 55.0494 165.706 55.6237 165.707 56.2228V77.8719C165.706 78.4709 165.468 79.0453 165.045 79.4689C164.621 79.8925 164.047 80.1307 163.448 80.1313Z" fill="#277AFF"/>
<path d="M201.257 95.717H144.524C143.991 95.717 143.48 95.5054 143.104 95.1287C142.727 94.7521 142.515 94.2413 142.515 93.7086C142.515 93.176 142.727 92.6651 143.104 92.2885C143.48 91.9118 143.991 91.7003 144.524 91.7003H201.257C201.79 91.7003 202.301 91.9118 202.677 92.2885C203.054 92.6651 203.266 93.176 203.266 93.7086C203.266 94.2413 203.054 94.7521 202.677 95.1287C202.301 95.5054 201.79 95.717 201.257 95.717Z" fill="#CCCCCC"/>
<path d="M201.257 106.26H144.524C143.992 106.26 143.482 106.048 143.106 105.671C142.73 105.294 142.518 104.784 142.518 104.252C142.518 103.72 142.73 103.21 143.106 102.833C143.482 102.456 143.992 102.244 144.524 102.244H201.257C201.521 102.243 201.783 102.295 202.027 102.396C202.271 102.496 202.493 102.644 202.679 102.831C202.866 103.017 203.015 103.239 203.116 103.483C203.217 103.727 203.269 103.988 203.269 104.252C203.269 104.516 203.217 104.777 203.116 105.021C203.015 105.265 202.866 105.487 202.679 105.673C202.493 105.86 202.271 106.008 202.027 106.108C201.783 106.209 201.521 106.261 201.257 106.26Z" fill="#CCCCCC"/>
<path d="M201.257 116.804H144.524C143.992 116.803 143.482 116.591 143.106 116.214C142.73 115.838 142.518 115.328 142.518 114.795C142.518 114.263 142.73 113.753 143.106 113.376C143.482 113 143.992 112.788 144.524 112.787H201.257C201.521 112.787 201.783 112.838 202.027 112.939C202.271 113.04 202.493 113.188 202.679 113.374C202.866 113.561 203.015 113.782 203.116 114.026C203.217 114.27 203.269 114.531 203.269 114.795C203.269 115.059 203.217 115.321 203.116 115.565C203.015 115.809 202.866 116.03 202.679 116.217C202.493 116.403 202.271 116.551 202.027 116.652C201.783 116.753 201.521 116.804 201.257 116.804Z" fill="#CCCCCC"/>
<path d="M201.257 127.347H144.524C143.992 127.346 143.482 127.134 143.106 126.758C142.73 126.381 142.518 125.871 142.518 125.339C142.518 124.807 142.73 124.296 143.106 123.92C143.482 123.543 143.992 123.331 144.524 123.33H201.257C201.521 123.33 201.783 123.382 202.027 123.482C202.271 123.583 202.493 123.731 202.679 123.918C202.866 124.104 203.015 124.326 203.116 124.57C203.217 124.813 203.269 125.075 203.269 125.339C203.269 125.603 203.217 125.864 203.116 126.108C203.015 126.352 202.866 126.574 202.679 126.76C202.493 126.947 202.271 127.094 202.027 127.195C201.783 127.296 201.521 127.348 201.257 127.347Z" fill="#CCCCCC"/>
<path d="M201.257 137.891H144.524C143.992 137.89 143.482 137.678 143.106 137.301C142.73 136.925 142.518 136.414 142.518 135.882C142.518 135.35 142.73 134.84 143.106 134.463C143.482 134.087 143.992 133.875 144.524 133.874H201.257C201.521 133.873 201.783 133.925 202.027 134.026C202.271 134.127 202.493 134.274 202.679 134.461C202.866 134.647 203.015 134.869 203.116 135.113C203.217 135.357 203.269 135.618 203.269 135.882C203.269 136.146 203.217 136.408 203.116 136.651C203.015 136.895 202.866 137.117 202.679 137.303C202.493 137.49 202.271 137.638 202.027 137.739C201.783 137.839 201.521 137.891 201.257 137.891Z" fill="#CCCCCC"/>
<path d="M221.249 57.5022C237.128 57.5022 250 44.6299 250 28.7511C250 12.8723 237.128 0 221.249 0C205.37 0 192.498 12.8723 192.498 28.7511C192.498 44.6299 205.37 57.5022 221.249 57.5022Z" fill="#277AFF"/>
<path d="M220.692 48.541C222.561 48.541 224.075 47.0264 224.075 45.158C224.075 43.2896 222.561 41.775 220.692 41.775C218.824 41.775 217.309 43.2896 217.309 45.158C217.309 47.0264 218.824 48.541 220.692 48.541Z" fill="white"/>
<path d="M220.33 9.85726C217.78 9.88256 215.34 10.9021 213.53 12.6989C211.72 14.4957 210.682 16.9279 210.638 19.478C210.638 19.5268 210.637 19.87 210.638 20.3189C210.638 20.9771 210.899 21.6083 211.364 22.0737C211.83 22.5391 212.461 22.8006 213.119 22.8007C213.778 22.8006 214.409 22.5388 214.875 22.0729C215.341 21.6071 215.602 20.9754 215.602 20.3167V20.3151C215.602 20.0097 215.602 19.7984 215.602 19.7854C215.601 18.9683 215.814 18.1653 216.218 17.4553C216.623 16.7453 217.205 16.1527 217.908 15.736C218.61 15.3192 219.41 15.0925 220.227 15.0783C221.043 15.0641 221.85 15.2628 222.567 15.6548C223.284 16.0469 223.886 16.6188 224.315 17.3143C224.744 18.0098 224.984 18.8049 225.012 19.6215C225.041 20.4381 224.856 21.248 224.476 21.9715C224.097 22.695 223.535 23.3072 222.847 23.7479L222.848 23.7489C222.848 23.7489 219.316 26.0229 218.239 29.1423L218.24 29.1425C218.051 29.7816 217.955 30.4446 217.955 31.1111C217.955 31.3851 217.971 33.7823 218.002 35.728C218.013 36.3994 218.288 37.0395 218.766 37.5104C219.245 37.9812 219.889 38.245 220.561 38.2449C220.897 38.2449 221.23 38.1787 221.54 38.05C221.851 37.9214 222.133 37.7329 222.37 37.4953C222.608 37.2577 222.797 36.9755 222.925 36.6651C223.054 36.3546 223.12 36.0218 223.12 35.6858L223.12 35.6701C223.109 33.8882 223.103 31.8133 223.103 31.6627C223.103 29.7473 224.951 27.8388 226.469 26.5943C228.226 25.1714 229.461 23.2055 229.98 21.005C230.091 20.5514 230.153 20.087 230.163 19.6199C230.163 18.3378 229.911 17.0683 229.42 15.8838C228.93 14.6993 228.21 13.6231 227.304 12.7165C226.397 11.8099 225.321 11.0908 224.137 10.6002C222.952 10.1095 221.682 9.85699 220.4 9.85699C220.377 9.85699 220.353 9.85709 220.33 9.85726Z" fill="white"/>
<path d="M55.7936 65.4435C60.0976 62.614 65.5068 63.8869 70.2905 64.2566C74.6129 64.5906 79.7361 64.2615 82.7763 60.73C85.9391 57.056 85.6748 51.6011 83.0562 47.715C80.4787 43.89 76.2002 41.4747 71.674 40.8379C69.1661 40.4705 66.6092 40.6291 64.166 41.3038C61.7229 41.9785 59.4469 43.1545 57.483 44.7568L59.0214 45.394C58.1249 36.8237 51.8236 29.0761 43.3693 26.9745C34.8153 24.8482 25.2493 28.4772 20.6856 36.1041C16.1866 43.6231 16.7196 54.115 23.1955 60.3635C26.3055 63.3642 30.5359 64.8929 34.8292 64.0772C38.7887 63.3249 42.3068 60.4384 43.0478 56.3624C43.7347 52.5838 42.2342 48.2919 38.5588 46.6418C37.5531 46.1728 36.454 45.9383 35.3445 45.956C34.2349 45.9737 33.1439 46.2432 32.1537 46.7441C31.2569 47.2487 30.4991 47.9677 29.9482 48.8368C29.3972 49.7059 29.0703 50.698 28.9966 51.7244C28.9281 52.718 29.1305 53.7117 29.5823 54.5993C30.0925 55.6408 31.6474 54.7284 31.1385 53.6897C30.8098 52.926 30.7164 52.0816 30.8702 51.2645C31.024 50.4474 31.418 49.6948 32.0019 49.1029C33.3379 47.7072 35.4468 47.4754 37.2221 48.046C40.4705 49.0901 41.9047 52.8166 41.2926 55.9779C40.607 59.5189 37.5841 61.7942 34.1421 62.3768C30.3989 63.0103 26.7487 61.4298 24.1503 58.7715C18.7087 53.2043 18.2378 44.2377 21.9086 37.5933C25.6325 30.8527 33.5759 27.2333 41.1422 28.3639C48.6241 29.4819 54.7858 35.3667 56.7058 42.6229C56.948 43.532 57.1196 44.4585 57.2191 45.394C57.2252 45.5694 57.2817 45.7393 57.3817 45.8835C57.4818 46.0278 57.6212 46.1401 57.7833 46.2073C57.9455 46.2745 58.1235 46.2936 58.2962 46.2624C58.469 46.2311 58.629 46.1509 58.7574 46.0312C65.1506 40.7216 75.7841 41.291 81.0262 47.9707C83.5971 51.2465 84.3547 56.3334 81.3526 59.624C78.494 62.7572 73.7469 62.7604 69.8427 62.4172C64.8482 61.9782 59.3578 60.9462 54.884 63.8873C53.9188 64.5218 54.8207 66.0831 55.7936 65.4435V65.4435Z" fill="#2F2E41"/>
<path d="M75.1779 183.914H39.1321C38.4154 183.913 37.7282 183.628 37.2214 183.121C36.7146 182.614 36.4295 181.927 36.4287 181.211V169.195C36.4295 168.478 36.7146 167.791 37.2214 167.285C37.7282 166.778 38.4154 166.493 39.1321 166.492H75.1779C75.8947 166.493 76.5818 166.778 77.0887 167.285C77.5955 167.791 77.8806 168.478 77.8813 169.195V181.211C77.8806 181.927 77.5955 182.614 77.0887 183.121C76.5818 183.628 75.8947 183.913 75.1779 183.914Z" fill="#2F2E41"/>
<path d="M76.4096 124.676C75.281 118.904 70.8979 114.334 65.209 112.454C67.2634 111.793 68.5695 110.815 68.5695 109.72C68.5695 107.729 64.266 106.115 58.9573 106.115C53.6486 106.115 49.3451 107.729 49.3451 109.72C49.3451 110.83 50.6868 111.823 52.7933 112.484C44.0715 115.085 37.7409 122.675 37.7409 131.613C37.7409 131.613 35.0561 148.824 32.9482 162.582C31.5996 171.384 38.9682 179.251 48.5579 179.251H82.2838C84.493 179.251 86.2903 177.585 86.2903 175.537C86.2903 175.537 80.0757 143.424 76.4096 124.676Z" fill="#2F2E41"/>
</g>
<defs>
<clipPath id="clip0_828_3801">
<rect width="250" height="224.741" fill="white"/>
</clipPath>
</defs>
</svg>
