<svg width="201" height="201" viewBox="0 0 201 201" fill="none" xmlns="http://www.w3.org/2000/svg">
<g clip-path="url(#clip0_869_2821)">
<path d="M198.217 48.52H92.3537C91.616 48.5192 90.9087 48.2258 90.3871 47.7041C89.8654 47.1825 89.572 46.4752 89.5712 45.7375V2.78258C89.572 2.04485 89.8654 1.33759 90.3871 0.815943C90.9087 0.294295 91.616 0.000855184 92.3537 0H198.217C198.955 0.000843774 199.662 0.294279 200.184 0.81593C200.706 1.33758 200.999 2.04485 201 2.78258V45.7375C200.999 46.4752 200.706 47.1825 200.184 47.7041C199.662 48.2258 198.955 48.5192 198.217 48.52Z" fill="#E4E4E4"/>
<path d="M188.137 69.1258H102.434C101.548 69.1258 100.699 68.774 100.073 68.1478C99.4467 67.5216 99.095 66.6723 99.095 65.7867C99.095 64.9011 99.4467 64.0518 100.073 63.4256C100.699 62.7994 101.548 62.4476 102.434 62.4476H188.137C192.443 62.3875 192.487 69.1864 188.137 69.1258Z" fill="#E4E4E4"/>
<path d="M161.138 126.148H129.433C128.547 126.148 127.698 125.796 127.072 125.17C126.446 124.544 126.094 123.694 126.094 122.809C126.094 121.923 126.446 121.074 127.072 120.448C127.698 119.821 128.547 119.47 129.433 119.47H161.138C165.444 119.409 165.487 126.208 161.138 126.148Z" fill="#3F3D56"/>
<path d="M188.137 84.4299H102.434C101.548 84.4299 100.699 84.0781 100.073 83.4519C99.4467 82.8257 99.095 81.9764 99.095 81.0908C99.095 80.2052 99.4467 79.3559 100.073 78.7297C100.699 78.1035 101.548 77.7517 102.434 77.7517H188.137C192.443 77.6916 192.487 84.4906 188.137 84.4299Z" fill="#E4E4E4"/>
<path d="M188.137 99.7341H102.434C101.995 99.7346 101.561 99.6486 101.155 99.481C100.749 99.3134 100.381 99.0675 100.07 98.7574C99.7599 98.4473 99.5136 98.079 99.3456 97.6737C99.1776 97.2683 99.0911 96.8338 99.0911 96.395C99.0911 95.9562 99.1776 95.5216 99.3456 95.1163C99.5136 94.7109 99.7599 94.3426 100.07 94.0325C100.381 93.7224 100.749 93.4765 101.155 93.309C101.561 93.1414 101.995 93.0554 102.434 93.0559H188.137C192.443 92.9957 192.486 99.7947 188.137 99.7341Z" fill="#E4E4E4"/>
<path d="M80.1244 138.527C79.389 138.527 78.6839 138.82 78.1638 139.34C77.6438 139.86 77.3513 140.565 77.3505 141.301V198.173C77.3513 198.908 77.6438 199.613 78.1638 200.134C78.6839 200.654 79.389 200.946 80.1244 200.947H86.9481C87.6835 200.946 88.3886 200.654 88.9087 200.134C89.4287 199.613 89.7212 198.908 89.722 198.173V141.301C89.7212 140.565 89.4287 139.86 88.9087 139.34C88.3886 138.82 87.6835 138.527 86.9481 138.527H80.1244Z" fill="#277AFF"/>
<path d="M66.6281 138.527C65.8926 138.527 65.1875 138.82 64.6675 139.34C64.1475 139.86 63.8549 140.565 63.8541 141.301V198.173C63.8549 198.908 64.1475 199.613 64.6675 200.134C65.1875 200.654 65.8926 200.946 66.6281 200.947H73.4519C74.1873 200.946 74.8924 200.654 75.4124 200.134C75.9325 199.613 76.225 198.908 76.2258 198.173V141.301C76.225 140.565 75.9325 139.86 75.4124 139.34C74.8924 138.82 74.1873 138.527 73.4519 138.527H66.6281Z" fill="#277AFF"/>
<path d="M76.5843 78.9429C89.6063 78.9429 100.163 68.3864 100.163 55.3644C100.163 42.3423 89.6063 31.7858 76.5843 31.7858C63.5622 31.7858 53.0057 42.3423 53.0057 55.3644C53.0057 68.3864 63.5622 78.9429 76.5843 78.9429Z" fill="#277AFF"/>
<path d="M93.5024 65.2622C95.0308 65.2198 96.933 65.1667 98.3984 64.0962C98.8348 63.7644 99.1933 63.3412 99.4489 62.8562C99.7044 62.3712 99.8509 61.8362 99.8779 61.2887C99.9044 60.8996 99.8405 60.5096 99.6913 60.1492C99.5421 59.7888 99.3116 59.4679 99.0178 59.2114C98.2524 58.5646 97.1348 58.4129 95.9303 58.7669L97.1782 49.6472L96.2621 49.5217L94.7951 60.243L95.5601 59.892C96.447 59.4852 97.6644 59.2782 98.4209 59.9175C98.6067 60.0846 98.7514 60.2924 98.8439 60.5245C98.9363 60.7567 98.9739 61.0071 98.9539 61.2562C98.9315 61.6637 98.8215 62.0616 98.6315 62.4228C98.4416 62.784 98.176 63.1001 97.853 63.3495C96.7126 64.1825 95.1963 64.2899 93.4767 64.338L93.5024 65.2622Z" fill="#2F2E41"/>
<path d="M106.689 50.4337H101.709V51.3584H106.689V50.4337Z" fill="#2F2E41"/>
<path d="M90.9696 50.4337H85.9896V51.3584H90.9696V50.4337Z" fill="#2F2E41"/>
<path d="M97.1989 158.976H68.6038C66.6569 158.976 64.7327 158.559 62.9604 157.753C61.1882 156.948 59.609 155.772 58.3292 154.304C57.0494 152.837 56.0987 151.113 55.5409 149.248C54.9831 147.383 54.8312 145.42 55.0954 143.491L61.9257 93.6288C62.0262 92.9138 62.3809 92.2589 62.925 91.7843C63.4692 91.3097 64.1661 91.0471 64.8881 91.0447H71.0479C71.0401 90.9599 71.0363 90.8783 71.0363 90.7983V88.4868C71.0372 87.6941 71.3525 86.9341 71.9131 86.3736C72.4736 85.813 73.2336 85.4977 74.0263 85.4968H79.5742C80.3669 85.4977 81.1269 85.813 81.6874 86.3736C82.248 86.9341 82.5633 87.6941 82.5642 88.4868V90.7983C82.5642 90.8783 82.5604 90.9599 82.5526 91.0447H88.7124C89.4344 91.0471 90.1313 91.3097 90.6754 91.7843C91.2195 92.2589 91.5744 92.9138 91.6748 93.6288L100.161 155.58C100.219 156.003 100.186 156.434 100.063 156.843C99.941 157.252 99.7325 157.63 99.4519 157.952C99.1712 158.273 98.825 158.531 98.4364 158.708C98.0477 158.885 97.6258 158.976 97.1989 158.976H97.1989Z" fill="#2F2E41"/>
<path d="M75.3969 79.6786L59.0882 73.3485C56.4214 72.3134 53.7397 71.3098 51.087 70.2391C49.9507 69.8432 48.904 69.2263 48.0072 68.424C47.2265 67.5974 46.6943 66.5676 46.4718 65.4526C45.9061 63.0618 46.0084 60.4479 46.0487 58.008C46.08 55.339 46.2997 52.6754 46.706 50.0373C47.4901 45.1081 49.0228 40.2693 51.6299 35.9917C56.2036 28.4874 64.0836 22.8415 73.1478 23.2921C77.3442 23.5007 81.5647 25.0065 84.6825 27.8756C85.0078 28.2643 85.3727 28.6179 85.7713 28.9308C86.0484 29.0347 86.35 29.055 86.6385 28.989C87.019 28.9646 87.3997 28.9459 87.7808 28.933C89.1032 28.8772 90.4279 28.9328 91.7409 29.0991C94.1028 29.4228 96.4466 30.24 98.2737 31.8117C99.8318 33.152 101.1 35.0441 101.23 37.1469C101.293 38.1121 101.133 39.079 100.764 39.9728C100.394 40.8666 99.8234 41.6635 99.0967 42.302C97.151 43.9419 94.375 43.3655 92.041 43.2418L83.4909 42.7889L79.1589 42.5593C78.2669 42.5121 78.2695 43.8992 79.1589 43.9463L90.673 44.5563C92.5233 44.6543 94.4303 44.8946 96.2821 44.7836C97.705 44.7192 99.0637 44.1726 100.135 43.2338C101.113 42.3351 101.842 41.1984 102.25 39.9343C102.658 38.6702 102.731 37.3219 102.463 36.021C101.87 33.1834 99.7579 30.8362 97.2822 29.4397C93.9137 27.5397 89.8906 27.3576 86.1214 27.6385L86.6117 27.8416C82.3481 23.2655 75.8171 21.3334 69.6859 22.0095C63.2123 22.7234 57.4546 26.3349 53.3178 31.2733C48.7054 36.7793 46.192 43.6449 45.2148 50.7047C44.7063 54.5164 44.5389 58.3658 44.7146 62.2072C44.7831 63.8842 44.9233 65.6114 45.5709 67.1777C46.2256 68.7291 47.4092 69.998 48.9113 70.7589C50.5881 71.6556 52.4446 72.2504 54.2132 72.9368L60.2216 75.269L72.024 79.85L75.0282 81.0161C75.8608 81.3392 76.2215 79.9987 75.3969 79.6786V79.6786Z" fill="#2F2E41"/>
<path d="M49.7543 32.5455C48.337 32.5455 46.9515 32.1253 45.773 31.3379C44.5946 30.5504 43.6761 29.4313 43.1337 28.1218C42.5914 26.8124 42.4495 25.3716 42.726 23.9815C43.0025 22.5914 43.685 21.3146 44.6871 20.3124C45.6893 19.3102 46.9662 18.6277 48.3563 18.3512C49.7463 18.0747 51.1872 18.2166 52.4966 18.759C53.806 19.3014 54.9252 20.2199 55.7126 21.3983C56.5 22.5768 56.9203 23.9622 56.9203 25.3795C56.9182 27.2794 56.1625 29.1009 54.8191 30.4443C53.4756 31.7877 51.6542 32.5434 49.7543 32.5455ZM49.7543 19.6005C48.6113 19.6005 47.494 19.9394 46.5436 20.5744C45.5933 21.2094 44.8525 22.112 44.4151 23.168C43.9777 24.224 43.8633 25.3859 44.0863 26.507C44.3093 27.628 44.8597 28.6577 45.6679 29.4659C46.4761 30.2742 47.5058 30.8245 48.6269 31.0475C49.7479 31.2705 50.9099 31.1561 51.9658 30.7187C53.0218 30.2813 53.9244 29.5406 54.5594 28.5902C55.1944 27.6398 55.5333 26.5225 55.5333 25.3795C55.5316 23.8474 54.9222 22.3784 53.8388 21.295C52.7554 20.2116 51.2865 19.6022 49.7543 19.6005Z" fill="#2F2E41"/>
<path d="M132.009 118.468C132.223 117.764 132.15 117.005 131.805 116.355C131.459 115.706 130.871 115.22 130.168 115.004L79.0444 99.37C77.8744 99.0121 76.6247 99.0093 75.4531 99.3618C74.2815 99.7142 73.2408 100.406 72.4625 101.35C71.6842 102.294 71.2034 103.448 71.0807 104.665C70.9581 105.882 71.1992 107.109 71.7735 108.189V108.189C72.4294 109.438 73.4977 110.421 74.7968 110.971C75.0023 111.059 75.2124 111.135 75.4262 111.201L126.55 126.835C126.898 126.941 127.264 126.978 127.627 126.943C127.989 126.909 128.341 126.803 128.663 126.632C128.985 126.461 129.27 126.228 129.501 125.947C129.733 125.666 129.907 125.342 130.014 124.993L132.009 118.468Z" fill="#277AFF"/>
<path d="M89.3502 120.466C88.959 120.361 88.582 120.209 88.2275 120.013L73.9966 115.41C67.2214 112.585 69.4761 105.105 71.3281 97.9586L71.4151 97.6234L85.9378 95.1154L96.8764 100.005C98.0399 100.526 98.9606 101.472 99.4503 102.649C99.9401 103.826 99.962 105.146 99.5115 106.339L95.32 117.408C94.881 118.567 94.0271 119.521 92.9241 120.086C91.821 120.652 90.5474 120.787 89.3502 120.466Z" fill="#2F2E41"/>
</g>
<defs>
<clipPath id="clip0_869_2821">
<rect width="201" height="200.991" fill="white"/>
</clipPath>
</defs>
</svg>
