<svg width="279" height="225" viewBox="0 0 279 225" fill="none" xmlns="http://www.w3.org/2000/svg">
<path d="M158.979 199.052C157.05 196.35 154.438 194.373 151.153 193.633C148.29 192.988 145.345 193.098 142.434 193.12L105.626 193.404C102.474 193.428 99.4514 196.159 99.5979 199.432C99.7432 202.678 102.247 205.487 105.626 205.461C116.408 205.378 127.191 205.295 137.973 205.211C140.515 205.192 143.058 205.146 145.6 205.154C146.171 205.156 146.739 205.186 147.31 205.193C147.448 205.194 147.548 205.193 147.618 205.19C147.636 205.195 147.651 205.2 147.674 205.207C147.971 205.288 148.276 205.345 148.576 205.422C148.471 205.425 148.77 205.612 148.92 205.675C148.94 205.716 148.984 205.788 149.058 205.899C149.16 206.091 149.464 206.675 149.476 206.657C149.932 207.809 150.308 208.992 150.602 210.196C151.302 212.851 151.456 213.406 151.557 215.897C151.684 219.044 154.238 222.075 157.585 221.925C160.742 221.784 163.75 219.272 163.614 215.897C163.383 210.21 162.385 203.821 158.979 199.052Z" fill="#E6E6E6"/>
<path d="M107.79 212.656C107.099 208.466 106.42 204.274 105.716 200.087C105.001 195.839 103.54 191.949 100.234 189.161C99.3511 188.416 98.4353 187.721 97.5157 187.028C97.1922 186.784 96.8694 186.54 96.5498 186.291C96.5307 186.276 96.5185 186.267 96.502 186.254C96.4668 186.224 96.4247 186.188 96.368 186.14C94.9903 184.974 93.659 183.756 92.3909 182.461C91.2648 181.311 90.1879 180.113 89.1602 178.865C88.9034 178.553 88.6499 178.239 88.3997 177.922C88.3566 177.867 88.1248 177.567 87.9721 177.372C87.8301 177.176 87.5705 176.823 87.5269 176.761C87.2346 176.348 86.9475 175.931 86.6656 175.51C84.7455 172.633 83.0829 169.592 81.697 166.424C81.5596 166.109 81.4254 165.793 81.2945 165.475C81.2594 165.378 81.2139 165.254 81.1536 165.088C80.8743 164.32 80.5956 163.553 80.3403 162.775C79.7977 161.125 79.3313 159.45 78.941 157.751C78.748 156.912 78.5743 156.068 78.4198 155.221C78.3401 154.785 78.2656 154.348 78.1963 153.91C78.1848 153.838 78.1171 153.366 78.0772 153.099C78.0478 152.831 77.993 152.356 77.9856 152.283C77.9415 151.841 77.9023 151.4 77.8681 150.958C77.791 149.963 77.7389 148.967 77.7117 147.969C77.6653 146.195 77.6971 144.421 77.807 142.648C77.8695 141.651 77.9586 140.658 78.0682 139.666C78.0749 139.605 78.08 139.556 78.0848 139.512C78.0914 139.468 78.0991 139.418 78.1083 139.355C78.1895 138.807 78.2748 138.26 78.3703 137.714C78.7319 135.642 79.2022 133.59 79.7792 131.567C80.0524 130.611 80.3491 129.662 80.6694 128.721C80.8122 128.303 80.9595 127.887 81.1113 127.472C81.1014 127.499 81.5567 126.336 81.5628 126.297C83.3694 122.028 86.3243 118.137 86.3284 113.288C86.3311 110.005 83.5537 106.86 80.3 107.012C78.6778 107.073 77.1426 107.762 76.018 108.932C74.8935 110.103 74.2673 111.665 74.2716 113.288C74.2716 113.362 74.2712 113.425 74.2711 113.486C74.2407 113.588 74.2153 113.673 74.1925 113.749C73.8402 114.514 73.4086 115.242 73.0219 115.988C71.963 118.032 71.0591 120.142 70.2005 122.284C68.7949 125.771 67.719 129.382 66.9869 133.07C65.3956 141.15 65.2721 149.451 66.6223 157.576C68.9596 171.822 76.6677 185.46 87.3836 194.627C88.3136 195.423 89.2662 196.191 90.2278 196.945C90.6257 197.256 91.027 197.562 91.4303 197.866C91.6209 198.01 92.4105 198.633 92.0631 198.331C92.81 198.968 93.1245 199.289 93.3163 199.759C93.3441 199.867 93.382 200.014 93.4333 200.215C93.5686 200.744 93.697 201.273 93.8037 201.81C94.7364 206.501 95.3847 211.271 96.1638 215.993C96.6994 219.237 100.693 221.348 103.58 220.376C106.939 219.244 108.364 216.132 107.79 212.656Z" fill="#E6E6E6"/>
<path d="M159.589 224.824C157.057 224.83 154.626 223.833 152.83 222.049C151.033 220.266 150.017 217.842 150.004 215.31V208.434C142.804 209.24 118.15 209.053 111.083 207.917V215.035C111.064 217.565 110.046 219.985 108.251 221.767C106.455 223.549 104.028 224.549 101.498 224.549C98.9685 224.549 96.5413 223.549 94.7458 221.767C92.9503 219.985 91.932 217.565 91.9131 215.035V201.06C82.3414 195.743 74.3621 187.967 68.7985 178.537C63.235 169.106 60.2888 158.361 60.2641 147.412C60.2641 128.637 68.7728 111.123 83.6085 99.3606C93.2546 91.6867 104.974 87.0717 117.263 86.1082C118.931 85.9774 120.609 85.9112 122.251 85.9112C128.035 85.9112 154.133 86.8047 160.681 88.6886L175.612 73.8732C175.831 73.6524 176.112 73.502 176.417 73.4412C176.722 73.3803 177.039 73.4118 177.326 73.5315C177.616 73.6467 177.864 73.8468 178.037 74.1054C178.211 74.3641 178.303 74.6693 178.3 74.9809V77.3365L181.207 74.4571C181.426 74.2361 181.706 74.0855 182.011 74.0245C182.317 73.9636 182.633 73.9951 182.92 74.1149C183.21 74.2301 183.458 74.4301 183.632 74.6889C183.806 74.9477 183.898 75.253 183.895 75.5648V101.888C191.387 108.642 197.097 117.14 200.52 126.629C203.942 136.118 204.971 146.304 203.515 156.286C202.059 166.267 198.163 175.735 192.173 183.851C186.183 191.967 178.283 198.48 169.174 202.813V215.31C169.162 217.842 168.146 220.266 166.349 222.049C164.552 223.833 162.121 224.83 159.589 224.824ZM150.758 207.579V215.31C150.777 217.64 151.716 219.868 153.37 221.509C155.024 223.15 157.259 224.07 159.589 224.07C161.919 224.07 164.155 223.15 165.809 221.509C167.463 219.868 168.402 217.64 168.421 215.31V202.337L168.636 202.235C178.857 197.385 187.534 189.797 193.703 180.314C201.564 168.212 204.834 153.696 202.919 139.393C201.005 125.09 194.034 111.945 183.267 102.337L183.141 102.224V75.5648C183.144 75.4028 183.097 75.2439 183.007 75.1095C182.916 74.975 182.787 74.8715 182.636 74.8129C182.486 74.7487 182.32 74.7314 182.16 74.7632C182 74.795 181.853 74.8745 181.739 74.9912L177.546 79.1434V74.9809C177.549 74.8189 177.502 74.66 177.412 74.5255C177.321 74.3911 177.192 74.2876 177.041 74.229C176.89 74.1649 176.724 74.1477 176.564 74.1798C176.403 74.2118 176.256 74.2915 176.142 74.4085L160.892 89.5411L160.675 89.4732C154.588 87.568 128.079 86.6647 122.251 86.6647C120.629 86.6647 118.97 86.7302 117.322 86.8595C105.183 87.8112 93.6055 92.3702 84.0767 99.951C69.4223 111.57 61.0175 128.869 61.0175 147.412C61.0426 158.265 63.973 168.912 69.5044 178.25C75.0358 187.587 82.9663 195.273 92.4722 200.509L92.6666 200.616V215.035C92.686 217.365 93.6251 219.592 95.2792 221.233C96.9334 222.873 99.1686 223.794 101.498 223.794C103.828 223.794 106.063 222.873 107.717 221.233C109.371 219.592 110.31 217.365 110.33 215.035V207.015L110.776 207.099C117.127 208.294 143.869 208.483 150.332 207.635L150.758 207.579Z" fill="#3F3D56"/>
<path d="M108.51 44.8804L66.786 57.4194C65.4589 57.8199 64.3451 58.7307 63.6891 59.9519C63.0332 61.173 62.8888 62.6047 63.2877 63.9322C63.6866 65.2598 64.5962 66.3747 65.8167 67.032C67.0371 67.6893 68.4685 67.8353 69.7965 67.4379L106.31 56.4624L107.075 56.2326C107.229 52.291 108.299 48.4394 110.198 44.9821C109.96 44.8749 109.705 44.8086 109.444 44.7862C109.13 44.7557 108.812 44.7877 108.51 44.8804Z" fill="#277AFF"/>
<path d="M69.075 70.1111C68.5211 70.1098 67.9817 69.9344 67.5329 69.6098C67.0841 69.2852 66.7487 68.8278 66.574 68.3021L63.9649 60.4291C63.8559 60.1003 63.8128 59.7533 63.838 59.4078C63.8631 59.0624 63.9561 58.7252 64.1115 58.4157C64.267 58.1062 64.4819 57.8303 64.744 57.6039C65.0061 57.3774 65.3102 57.2048 65.639 57.0959L99.5981 45.8416C99.9269 45.7326 100.274 45.6895 100.619 45.7146C100.965 45.7397 101.302 45.8326 101.611 45.988C101.921 46.1435 102.197 46.3583 102.423 46.6203C102.65 46.8824 102.822 47.1864 102.931 47.5152L105.54 55.3883C105.757 56.0358 105.714 56.7424 105.419 57.3584C105.124 57.9745 104.601 58.4515 103.961 58.6885C103.929 58.7003 103.897 58.7114 103.866 58.7218L69.9072 69.9757C69.6388 70.0652 69.3578 70.1109 69.075 70.1111Z" fill="#2F2E41"/>
<path d="M132.672 30.8983C125.819 30.901 119.235 33.5705 114.314 38.3418C109.394 43.1131 106.523 49.6118 106.31 56.4624C106.302 56.7299 106.298 57.0012 106.298 57.2725C106.298 62.4888 107.845 67.588 110.743 71.9252C113.641 76.2624 117.76 79.6428 122.58 81.639C127.399 83.6352 132.702 84.1575 137.818 83.1399C142.934 82.1222 147.633 79.6103 151.322 75.9218C155.01 72.2333 157.522 67.5339 158.54 62.4178C159.558 57.3017 159.035 51.9988 157.039 47.1795C155.043 42.3603 151.662 38.2412 147.325 35.3432C142.988 32.4451 137.889 30.8983 132.672 30.8983ZM132.672 82.8931C125.88 82.886 119.367 80.1844 114.564 75.3812C109.761 70.5779 107.059 64.0653 107.052 57.2725C107.052 56.9221 107.059 56.5755 107.075 56.2326C107.279 51.2139 108.953 46.3659 111.891 42.2914C114.828 38.2169 118.898 35.0956 123.595 33.3158C128.292 31.5359 133.408 31.176 138.308 32.2807C143.208 33.3854 147.675 35.9061 151.154 39.5293C154.632 43.1524 156.969 47.7182 157.874 52.6589C158.779 57.5996 158.211 62.6973 156.242 67.318C154.273 71.9387 150.989 75.8786 146.798 78.6478C142.607 81.4169 137.695 82.8933 132.672 82.8931Z" fill="#3F3D56"/>
<path d="M154.902 57.2725C154.902 63.1682 152.56 68.8224 148.391 72.9912C144.222 77.1601 138.568 79.5021 132.672 79.5021C126.777 79.5021 121.123 77.1601 116.954 72.9912C112.785 68.8224 110.443 63.1682 110.443 57.2725C110.443 56.5679 110.477 55.8747 110.541 55.1889C111.076 49.499 113.783 44.234 118.098 40.4871C122.414 36.7402 128.007 34.7993 133.715 35.0674C139.424 35.3355 144.81 37.7921 148.756 41.927C152.701 46.0619 154.902 51.5574 154.902 57.2725Z" fill="#E6E6E6"/>
<path d="M139.292 58.7494C138.754 58.041 138.045 57.4799 137.232 57.118C136.228 56.6953 135.193 56.355 134.134 56.1007V50.0497C135.761 50.295 137.287 50.9906 138.539 52.0579L139.767 49.4393C139.061 48.81 138.25 48.3089 137.371 47.9586C136.397 47.5642 135.374 47.3018 134.33 47.1787V44.1118H131.486V47.2088C130.387 47.3322 129.328 47.688 128.377 48.2525C127.519 48.7606 126.796 49.469 126.271 50.3172C125.77 51.145 125.51 52.0964 125.521 53.0639C125.472 54.1124 125.776 55.1471 126.384 56.0027C126.944 56.7435 127.683 57.3296 128.532 57.7058C129.551 58.1409 130.604 58.49 131.682 58.7494V64.548C129.762 64.4032 127.933 63.6733 126.441 62.4569L125.212 65.0792C126.047 65.769 126.996 66.3071 128.016 66.6692C129.133 67.0692 130.301 67.3127 131.486 67.3926V70.4332H134.33V67.3361C135.91 67.1634 137.392 66.484 138.554 65.3995C139.066 64.9088 139.47 64.3172 139.741 63.6621C140.012 63.0071 140.144 62.3028 140.129 61.5941C140.176 60.579 139.882 59.5774 139.292 58.7494ZM131.682 55.4602C130.989 55.25 130.344 54.9043 129.786 54.4429C129.565 54.2462 129.39 54.0029 129.275 53.7306C129.159 53.4583 129.104 53.1637 129.116 52.868C129.095 52.1969 129.342 51.5451 129.801 51.0557C130.311 50.5422 130.968 50.201 131.682 50.0799V55.4602ZM135.92 63.4779C135.44 63.9709 134.814 64.297 134.134 64.4086V59.4201C134.784 59.5943 135.391 59.8981 135.92 60.313C136.121 60.4843 136.28 60.6986 136.387 60.94C136.493 61.1813 136.543 61.4435 136.534 61.7071C136.561 62.3537 136.341 62.9863 135.92 63.4779Z" fill="#277AFF"/>
<path d="M70.2859 102.02C69.7035 102.019 69.1376 101.826 68.6761 101.47C68.2146 101.115 67.8832 100.617 67.7333 100.055L66.3128 94.678C66.135 94.0022 66.2325 93.2835 66.5839 92.6795C66.9353 92.0755 67.5119 91.6355 68.1873 91.4561L113.001 79.6142C113.677 79.4378 114.396 79.5363 115 79.8883C115.603 80.2403 116.043 80.8171 116.223 81.4926L117.426 86.0477L117.201 86.0652C105.707 86.9588 94.7105 91.1259 85.5112 98.0734L85.4458 98.105L70.955 101.933C70.7367 101.991 70.5118 102.02 70.2859 102.02Z" fill="#2F2E41"/>
<path d="M62.8639 128.577C57.607 127.8 52.5794 125.9 48.1237 123.004C45.9162 121.57 43.8727 119.899 42.0298 118.02C40.2108 116.164 38.4706 114.056 37.5696 111.585C36.7027 109.299 36.7474 106.767 37.6944 104.513C38.6285 102.273 40.4128 100.494 42.656 99.5676C44.9128 98.6677 47.6393 98.5714 49.8356 99.557C50.8822 100.016 51.7879 100.745 52.4596 101.669C52.7719 102.095 53.0031 102.575 53.1417 103.085C53.2703 103.547 53.282 104.034 53.1757 104.501C53.0469 104.968 52.8198 105.402 52.5096 105.774C52.1994 106.146 51.8132 106.447 51.377 106.658C50.4171 107.15 49.3769 107.467 48.3055 107.594C47.2279 107.741 45.6799 107.875 44.8136 107.01C44.6353 106.839 44.495 106.632 44.4019 106.403C44.3368 106.228 44.3145 106.04 44.337 105.854C44.3243 105.936 44.3893 105.676 44.3856 105.686C44.3719 105.725 44.3125 105.818 44.3969 105.674C44.4232 105.627 44.4525 105.581 44.4847 105.538C44.4561 105.575 44.3932 105.636 44.5055 105.53C44.5983 105.429 44.7176 105.355 44.8499 105.318C44.9021 105.303 44.955 105.291 45.0073 105.276C45.1402 105.24 44.8748 105.278 45.0108 105.274C45.0633 105.272 45.1164 105.273 45.1687 105.271C45.302 105.265 45.0371 105.235 45.1649 105.267C45.2145 105.279 45.2637 105.292 45.3126 105.307C45.4189 105.34 45.2373 105.229 45.3094 105.312C45.3938 105.41 45.2207 105.217 45.3167 105.312C45.3644 105.359 45.4094 105.408 45.4514 105.46C45.6178 105.625 45.8422 105.717 46.0759 105.717C46.3097 105.717 46.5341 105.625 46.7004 105.46C46.8611 105.292 46.9508 105.069 46.9508 104.836C46.9508 104.603 46.8611 104.38 46.7004 104.211C45.8296 103.132 44.1093 103.399 43.2284 104.311C42.1048 105.475 42.5497 107.319 43.6426 108.334C44.8798 109.484 46.6321 109.564 48.2236 109.371C49.5686 109.242 50.8793 108.872 52.0927 108.277C53.2985 107.685 54.2415 106.666 54.7392 105.418C54.9639 104.752 55.0446 104.046 54.976 103.347C54.9074 102.647 54.691 101.971 54.3412 101.361C52.9361 98.7194 50.0265 97.365 47.1507 97.1304C45.67 97.0145 44.1811 97.1933 42.77 97.6565C41.3589 98.1197 40.0537 98.8582 38.9299 99.8292C36.7639 101.779 35.43 104.487 35.2043 107.393C34.9533 110.406 36.1222 113.331 37.8264 115.763C39.6105 118.233 41.7395 120.435 44.1484 122.301C48.8579 126.061 54.382 128.666 60.2789 129.908C60.9802 130.053 61.6854 130.177 62.3943 130.28C62.6199 130.335 62.8578 130.302 63.0597 130.187C63.2615 130.072 63.4121 129.885 63.4807 129.664C63.5413 129.438 63.5105 129.197 63.3951 128.994C63.2797 128.791 63.0888 128.641 62.8639 128.577L62.8639 128.577Z" fill="#3F3D56"/>
<path d="M147.03 90.1928C139.328 90.0841 131.65 90.2796 123.996 90.7792C121.38 90.95 119.117 91.8747 119.117 93.4287C119.117 94.728 121.362 96.2502 123.996 96.0782C131.646 95.5787 139.324 95.3832 147.03 95.4918C153.312 95.5805 153.308 90.2814 147.03 90.1928Z" fill="#CCCCCC"/>
<path d="M135.646 95.2294C134.813 95.2294 115.26 95.1983 115.26 92.4974C115.26 89.7966 134.813 89.7656 135.646 89.7656C136.478 89.7656 156.031 89.7967 156.031 92.4974C156.031 95.1983 136.478 95.2294 135.646 95.2294ZM116.025 92.4974C116.56 93.3162 123.747 94.4758 135.646 94.4758C147.544 94.4758 154.732 93.3162 155.267 92.4974C154.732 91.6787 147.544 90.5191 135.646 90.5191C123.747 90.5191 116.56 91.6787 116.025 92.4974V92.4974Z" fill="#3F3D56"/>
<path d="M197.683 166.233C202.012 166.112 207.399 165.962 211.549 162.93C212.785 161.991 213.8 160.792 214.524 159.419C215.248 158.045 215.662 156.53 215.739 154.979C215.823 152.585 214.958 150.495 213.303 149.096C211.135 147.265 207.97 146.835 204.559 147.837L208.093 122.01L205.499 121.655L201.344 152.018L203.511 151.024C206.022 149.872 209.47 149.286 211.613 151.096C212.139 151.569 212.549 152.158 212.81 152.815C213.072 153.473 213.179 154.182 213.122 154.887C213.058 156.041 212.747 157.168 212.209 158.191C211.671 159.214 210.919 160.109 210.004 160.816C206.774 163.175 202.48 163.479 197.61 163.615L197.683 166.233Z" fill="#3F3D56"/>
<path d="M190.51 124.238H176.407V126.856H190.51V124.238Z" fill="#3F3D56"/>
<path d="M76.6679 114.064C76.0401 114.062 75.4336 113.836 74.9569 113.428C74.4803 113.019 74.1647 112.454 74.0666 111.834L73.2058 106.34C73.0983 105.649 73.2692 104.944 73.6812 104.379C74.0932 103.814 74.7125 103.435 75.4032 103.326L121.193 96.1514C121.884 96.0439 122.589 96.2149 123.154 96.6268C123.719 97.0388 124.098 97.658 124.207 98.3487L125.068 103.843C125.175 104.534 125.004 105.239 124.592 105.804C124.18 106.369 123.561 106.748 122.87 106.857L77.0805 114.031C76.944 114.053 76.8061 114.064 76.6679 114.064Z" fill="#2F2E41"/>
<path d="M57.7178 49.6794C68.3302 49.6794 76.9332 41.0763 76.9332 30.4639C76.9332 19.8515 68.3302 11.2485 57.7178 11.2485C47.1053 11.2485 38.5023 19.8515 38.5023 30.4639C38.5023 41.0763 47.1053 49.6794 57.7178 49.6794Z" fill="#277AFF"/>
<path d="M68.5972 35.4358C69.2114 35.221 69.7724 34.8772 70.2426 34.4275C70.5536 34.1069 70.7909 33.7222 70.9376 33.3002C71.0844 32.8783 71.1371 32.4294 71.0921 31.9849C71.066 31.6681 70.9669 31.3617 70.8027 31.0895C70.6385 30.8173 70.4136 30.5868 70.1456 30.416C69.4502 29.9883 68.5313 30.0045 67.6035 30.4345L67.4964 22.9338L66.743 22.9445L66.8689 31.7624L67.4424 31.3863C68.1075 30.9508 69.0632 30.6349 69.7508 31.0579C69.9208 31.1698 70.0628 31.3195 70.1656 31.4953C70.2683 31.671 70.3292 31.8681 70.3434 32.0712C70.3751 32.4023 70.3351 32.7364 70.2261 33.0507C70.1171 33.3649 69.9417 33.652 69.7119 33.8924C68.895 34.7029 67.686 34.9745 66.3061 35.2228L66.4396 35.9644C67.1732 35.853 67.8953 35.6761 68.5972 35.4358Z" fill="#2F2E41"/>
<path d="M75.2556 22.4073L71.2429 23.015L71.3557 23.76L75.3685 23.1523L75.2556 22.4073Z" fill="#2F2E41"/>
<path d="M62.5897 24.325L58.577 24.9327L58.6898 25.6777L62.7025 25.07L62.5897 24.325Z" fill="#2F2E41"/>
<path d="M70.4162 113.728C69.7251 113.726 69.0509 113.514 68.4832 113.12C67.9155 112.726 67.4813 112.169 67.2383 111.522L53.9898 76.0413C52.3705 71.6899 52.5434 66.8738 54.4706 62.6497C56.3978 58.4255 59.9219 55.1384 64.2697 53.5094L75.0423 49.4869C75.4589 49.3303 75.9023 49.2576 76.3471 49.273C76.7918 49.2885 77.2291 49.3917 77.6338 49.5768C78.0375 49.7572 78.4012 50.0162 78.7037 50.3388C79.0061 50.6613 79.2413 51.0409 79.3954 51.4554L103.937 97.7925C104.096 98.2103 104.172 98.6555 104.158 99.1025C104.145 99.5495 104.043 99.9894 103.859 100.397C103.675 100.805 103.412 101.172 103.086 101.477C102.759 101.783 102.375 102.021 101.957 102.177L71.6012 113.512C71.2223 113.654 70.8209 113.727 70.4162 113.728Z" fill="#2F2E41"/>
<path d="M71.7739 50.7072L96.1245 83.2701L79.6475 51.049C79.5114 50.673 79.3026 50.3275 79.033 50.0323C78.7634 49.7371 78.4382 49.4978 78.0761 49.3283C77.714 49.1587 77.3221 49.0622 76.9227 49.0441C76.5233 49.0261 76.1242 49.0869 75.7483 49.2231L71.7739 50.7072Z" fill="#E6E6E6"/>
<path d="M110.33 75.4367L66.8521 72.6361C66.1667 72.592 65.4968 72.4133 64.8806 72.1103C64.2643 71.8072 63.7138 71.3858 63.2604 70.87C62.807 70.3542 62.4597 69.7541 62.2382 69.1041C62.0167 68.454 61.9254 67.7667 61.9696 67.0814C62.0137 66.3961 62.1924 65.7262 62.4955 65.1099C62.7985 64.4937 63.2199 63.9431 63.7357 63.4897C64.2516 63.0364 64.8516 62.689 65.5017 62.4675C66.1517 62.2461 66.839 62.1548 67.5243 62.1989L111.002 64.9993C111.323 65.02 111.637 65.1036 111.926 65.2455C112.214 65.3874 112.472 65.5848 112.684 65.8264C112.897 66.0679 113.059 66.3489 113.163 66.6534C113.267 66.9578 113.31 67.2797 113.289 67.6006L112.931 73.1502C112.89 73.7984 112.592 74.4034 112.104 74.8322C111.616 75.261 110.978 75.4785 110.33 75.4367Z" fill="#277AFF"/>
<path d="M98.712 77.2322C98.6546 77.2322 98.5971 77.2303 98.5394 77.2266H98.5393L62.8377 74.927C62.492 74.9048 62.1541 74.8147 61.8433 74.6619C61.5325 74.5091 61.2548 74.2965 61.0262 74.0364C60.7975 73.7763 60.6223 73.4736 60.5106 73.1458C60.3989 72.8179 60.3529 72.4713 60.3752 72.1257L60.9857 62.6467C61.008 62.3011 61.0981 61.9632 61.2509 61.6524C61.4038 61.3416 61.6164 61.0639 61.8765 60.8353C62.1367 60.6066 62.4394 60.4315 62.7672 60.3198C63.0951 60.2081 63.4417 60.1621 63.7874 60.1844L99.489 62.4839C100.187 62.5296 100.838 62.8502 101.299 63.3754C101.761 63.9006 101.995 64.5874 101.951 65.2852L101.341 74.7644C101.307 75.2723 101.128 75.7597 100.824 76.1681C100.52 76.5765 100.105 76.8885 99.628 77.0668C99.3351 77.1763 99.0248 77.2324 98.712 77.2322Z" fill="#2F2E41"/>
<path d="M57.4975 17.6859C60.0253 15.5118 63.4967 17.4567 66.3956 17.1163C69.1691 16.7905 71.3591 14.3027 71.9186 11.6597C72.5713 8.57617 70.9708 5.48693 68.6118 3.56441C66.0281 1.45878 62.6014 0.854302 59.3543 1.24386C55.6327 1.69034 52.229 3.42513 49.175 5.52346C46.2271 7.48612 43.5162 9.78328 41.0964 12.3691C38.9295 14.7623 37.0936 17.6148 36.5073 20.8351C35.9746 23.7617 36.3814 27.0048 38.1115 29.484C39.0289 30.7548 40.2583 31.7676 41.6811 32.4249C43.1646 33.1533 44.7471 33.6741 46.1844 34.4978C48.3575 35.7431 50.4696 38.3254 49.7888 41.0125C49.6429 41.5996 49.3549 42.1417 48.9502 42.5912C48.4639 43.131 47.5867 42.4177 48.0743 41.8765C48.9306 40.9258 48.8969 39.658 48.4405 38.5231C47.8979 37.2442 46.9369 36.1875 45.7152 35.5261C44.2107 34.666 42.5497 34.135 41.0077 33.3515C39.5318 32.6358 38.2507 31.5741 37.2734 30.2568C35.4279 27.6921 34.8758 24.3543 35.2944 21.2666C35.7473 17.9252 37.4641 14.8889 39.6162 12.3444C41.9583 9.57533 44.8352 7.23138 47.7743 5.12566C50.9279 2.8662 54.4121 0.955984 58.2675 0.26509C61.6095 -0.333807 65.232 0.0349122 68.1545 1.85618C70.8825 3.55622 72.9743 6.48062 73.1824 9.74835C73.257 11.2352 72.9342 12.715 72.2471 14.0356C71.5599 15.3562 70.5333 16.4699 69.2729 17.262C67.9795 18.036 66.4758 18.3843 64.9739 18.2579C63.3682 18.1552 61.761 17.6635 60.1451 17.8C59.4139 17.8444 58.7171 18.1259 58.1602 18.6019C57.6079 19.077 56.9497 18.1571 57.4975 17.686V17.6859Z" fill="#2F2E41"/>
</svg>
