<svg width="600" height="278" viewBox="0 0 600 278" fill="none" xmlns="http://www.w3.org/2000/svg">
<g clip-path="url(#clip0_826_3675)">
<path d="M53.8516 264.195L53.044 263.892C52.8665 263.825 35.2031 257.058 26.9287 241.713C18.6541 226.367 22.7058 207.891 22.7477 207.707L22.9384 206.865L23.7456 207.168C23.9231 207.235 41.5862 214.002 49.8609 229.347C58.1355 244.693 54.0838 263.169 54.0419 263.353L53.8516 264.195ZM28.2537 240.999C35.2494 253.973 49.2076 260.623 52.7441 262.142C53.4165 258.351 55.5253 243.023 48.5359 230.061C41.5472 217.101 27.5835 210.44 24.0455 208.918C23.3727 212.711 21.2647 228.038 28.2537 240.999Z" fill="#3F3D56"/>
<path d="M33.2522 236.33C48.1223 245.276 53.8492 263.046 53.8492 263.046C53.8492 263.046 35.467 266.311 20.597 257.365C5.72692 248.419 0 230.649 0 230.649C0 230.649 18.3822 227.384 33.2522 236.33Z" fill="#D0CDE1"/>
<path d="M509.144 3.41765H343.326V0H268.138V3.41765H101.636C100.163 3.41765 98.7047 3.70778 97.3438 4.27145C95.983 4.83512 94.7465 5.66131 93.705 6.70285C92.6635 7.74438 91.8373 8.98086 91.2736 10.3417C90.7099 11.7025 90.4198 13.161 90.4198 14.634V241.69C90.4198 244.665 91.6015 247.518 93.705 249.621C95.8085 251.725 98.6614 252.906 101.636 252.906H509.144C510.617 252.906 512.076 252.616 513.436 252.052C514.797 251.489 516.034 250.663 517.075 249.621C518.117 248.579 518.943 247.343 519.507 245.982C520.07 244.621 520.36 243.163 520.36 241.69V14.634C520.36 13.161 520.07 11.7025 519.507 10.3417C518.943 8.98085 518.117 7.74437 517.075 6.70284C516.034 5.6613 514.797 4.83511 513.436 4.27144C512.076 3.70777 510.617 3.41765 509.144 3.41765Z" fill="#3F3D56"/>
<path d="M505.323 23.24H105.457V248.805H505.323V23.24Z" fill="#277AFF"/>
<path d="M305.048 17.0883C307.313 17.0883 309.15 15.2521 309.15 12.9871C309.15 10.7221 307.313 8.88589 305.048 8.88589C302.783 8.88589 300.947 10.7221 300.947 12.9871C300.947 15.2521 302.783 17.0883 305.048 17.0883Z" fill="#277AFF"/>
<path d="M482.367 51.948H463.413V32.9934H482.367V51.948ZM464.237 51.1239H481.543V33.8175H464.237V51.1239Z" fill="#3F3D56"/>
<path d="M531.588 244.704H492.564V241.892C492.564 241.819 492.549 241.747 492.521 241.679C492.493 241.611 492.452 241.55 492.4 241.498C492.348 241.446 492.287 241.405 492.219 241.377C492.152 241.349 492.079 241.335 492.006 241.335H478.626C478.553 241.335 478.481 241.349 478.413 241.377C478.345 241.405 478.284 241.446 478.232 241.498C478.18 241.55 478.139 241.611 478.111 241.679C478.083 241.747 478.069 241.819 478.069 241.892V244.704H469.706V241.892C469.706 241.819 469.692 241.747 469.664 241.679C469.636 241.611 469.595 241.55 469.543 241.498C469.491 241.446 469.43 241.405 469.362 241.377C469.295 241.349 469.222 241.335 469.149 241.335H455.769C455.696 241.335 455.624 241.349 455.556 241.377C455.488 241.405 455.427 241.446 455.375 241.498C455.323 241.55 455.282 241.611 455.254 241.679C455.226 241.747 455.212 241.819 455.212 241.892V244.704H446.849V241.892C446.849 241.819 446.835 241.747 446.807 241.679C446.779 241.611 446.738 241.55 446.686 241.498C446.634 241.446 446.573 241.405 446.505 241.377C446.438 241.349 446.365 241.335 446.292 241.335H432.912C432.839 241.335 432.766 241.349 432.699 241.377C432.631 241.405 432.57 241.446 432.518 241.498C432.466 241.55 432.425 241.611 432.397 241.679C432.369 241.747 432.355 241.819 432.355 241.892V244.704H423.992V241.892C423.992 241.819 423.978 241.747 423.95 241.679C423.922 241.611 423.881 241.55 423.829 241.498C423.777 241.446 423.716 241.405 423.648 241.377C423.581 241.349 423.508 241.335 423.435 241.335H410.055C409.982 241.335 409.909 241.349 409.842 241.377C409.774 241.405 409.713 241.446 409.661 241.498C409.609 241.55 409.568 241.611 409.54 241.679C409.512 241.747 409.498 241.819 409.498 241.892V244.704H401.135V241.892C401.135 241.819 401.121 241.747 401.093 241.679C401.065 241.611 401.024 241.55 400.972 241.498C400.92 241.446 400.859 241.405 400.791 241.377C400.723 241.349 400.651 241.335 400.578 241.335H387.198C387.125 241.335 387.052 241.349 386.985 241.377C386.917 241.405 386.856 241.446 386.804 241.498C386.752 241.55 386.711 241.611 386.683 241.679C386.655 241.747 386.641 241.819 386.641 241.892V244.704H378.278V241.892C378.278 241.819 378.264 241.747 378.236 241.679C378.208 241.611 378.167 241.55 378.115 241.498C378.063 241.446 378.002 241.405 377.934 241.377C377.866 241.349 377.794 241.335 377.721 241.335H364.341C364.268 241.335 364.195 241.349 364.128 241.377C364.06 241.405 363.999 241.446 363.947 241.498C363.895 241.55 363.854 241.611 363.826 241.679C363.798 241.747 363.784 241.819 363.784 241.892V244.704H355.421V241.892C355.421 241.819 355.407 241.747 355.379 241.679C355.351 241.611 355.31 241.55 355.258 241.498C355.206 241.446 355.145 241.405 355.077 241.377C355.009 241.349 354.937 241.335 354.864 241.335H250.056C249.982 241.335 249.91 241.349 249.842 241.377C249.775 241.405 249.713 241.446 249.661 241.498C249.61 241.55 249.569 241.611 249.541 241.679C249.513 241.747 249.498 241.819 249.498 241.892V244.704H241.136V241.892C241.136 241.819 241.121 241.747 241.093 241.679C241.065 241.611 241.024 241.55 240.973 241.498C240.921 241.446 240.859 241.405 240.792 241.377C240.724 241.349 240.652 241.335 240.578 241.335H227.199C227.125 241.335 227.053 241.349 226.985 241.377C226.918 241.405 226.856 241.446 226.804 241.498C226.753 241.55 226.712 241.611 226.684 241.679C226.656 241.747 226.641 241.819 226.641 241.892V244.704H218.279V241.892C218.279 241.819 218.264 241.747 218.236 241.679C218.208 241.611 218.167 241.55 218.115 241.498C218.064 241.446 218.002 241.405 217.935 241.377C217.867 241.349 217.794 241.335 217.721 241.335H204.342C204.268 241.335 204.196 241.349 204.128 241.377C204.061 241.405 203.999 241.446 203.947 241.498C203.896 241.55 203.854 241.611 203.826 241.679C203.798 241.747 203.784 241.819 203.784 241.892V244.704H195.422V241.892C195.422 241.819 195.407 241.747 195.379 241.679C195.351 241.611 195.31 241.55 195.258 241.498C195.207 241.446 195.145 241.405 195.078 241.377C195.01 241.349 194.937 241.335 194.864 241.335H181.484C181.411 241.335 181.339 241.349 181.271 241.377C181.203 241.405 181.142 241.446 181.09 241.498C181.038 241.55 180.997 241.611 180.969 241.679C180.941 241.747 180.927 241.819 180.927 241.892V244.704H172.565V241.892C172.565 241.819 172.55 241.747 172.522 241.679C172.494 241.611 172.453 241.55 172.401 241.498C172.35 241.446 172.288 241.405 172.22 241.377C172.153 241.349 172.08 241.335 172.007 241.335H158.627C158.554 241.335 158.482 241.349 158.414 241.377C158.346 241.405 158.285 241.446 158.233 241.498C158.181 241.55 158.14 241.611 158.112 241.679C158.084 241.747 158.07 241.819 158.07 241.892V244.704H149.708V241.892C149.708 241.819 149.693 241.747 149.665 241.679C149.637 241.611 149.596 241.55 149.544 241.498C149.493 241.446 149.431 241.405 149.363 241.377C149.296 241.349 149.223 241.335 149.15 241.335H135.77C135.697 241.335 135.625 241.349 135.557 241.377C135.489 241.405 135.428 241.446 135.376 241.498C135.324 241.55 135.283 241.611 135.255 241.679C135.227 241.747 135.213 241.819 135.213 241.892V244.704H126.851V241.892C126.851 241.819 126.836 241.747 126.808 241.679C126.78 241.611 126.739 241.55 126.687 241.498C126.635 241.446 126.574 241.405 126.506 241.377C126.439 241.349 126.366 241.335 126.293 241.335H112.913C112.84 241.335 112.768 241.349 112.7 241.377C112.632 241.405 112.571 241.446 112.519 241.498C112.467 241.55 112.426 241.611 112.398 241.679C112.37 241.747 112.356 241.819 112.356 241.892V244.704H86.7113C83.1628 244.704 79.7596 246.114 77.2504 248.623C74.7412 251.132 73.3315 254.535 73.3315 258.084V264.134C73.3316 267.682 74.7412 271.085 77.2504 273.595C79.7596 276.104 83.1628 277.513 86.7113 277.513H531.588C535.136 277.513 538.539 276.104 541.049 273.595C543.558 271.085 544.967 267.682 544.968 264.134V258.084C544.967 254.535 543.558 251.132 541.049 248.623C538.539 246.114 535.136 244.704 531.588 244.704Z" fill="#3F3D56"/>
<path d="M600 263.787H18.2991V265.562H600V263.787Z" fill="#3F3D56"/>
<path d="M480.604 148.929H351.861V75.6343H480.604V148.929ZM353.135 147.654H479.33V76.909H353.135V147.654Z" fill="#3F3D56"/>
<path d="M244.787 163.588H130.064V92.2053H244.787V163.588ZM131.339 162.313H243.512V93.48H131.339V162.313Z" fill="#3F3D56"/>
<path d="M183.661 136.182L183.551 134.757C183.223 131.797 184.209 128.563 186.95 125.275C189.416 122.37 190.787 120.232 190.787 117.766C190.787 114.971 189.033 113.107 185.58 113.052C183.605 113.044 181.674 113.637 180.044 114.751L178.728 111.298C180.537 109.983 183.661 109.106 186.566 109.106C192.87 109.106 195.72 112.997 195.72 117.163C195.72 120.89 193.637 123.576 191.006 126.7C188.594 129.55 187.717 131.962 187.882 134.757L187.936 136.182L183.661 136.182ZM182.455 143.856C182.426 143.409 182.49 142.96 182.642 142.539C182.795 142.118 183.033 141.732 183.342 141.408C183.651 141.083 184.024 140.826 184.438 140.653C184.851 140.48 185.296 140.395 185.744 140.403C187.662 140.403 188.978 141.827 188.978 143.856C188.996 144.295 188.925 144.734 188.769 145.146C188.614 145.557 188.376 145.933 188.072 146.25C187.767 146.568 187.401 146.82 186.997 146.993C186.592 147.165 186.157 147.254 185.717 147.254C185.277 147.254 184.841 147.165 184.437 146.993C184.032 146.82 183.666 146.568 183.362 146.25C183.057 145.933 182.82 145.557 182.664 145.146C182.508 144.734 182.437 144.295 182.455 143.856Z" fill="#D0CDE1"/>
<path d="M412.468 120.249L412.359 118.823C412.03 115.864 413.016 112.63 415.757 109.341C418.224 106.436 419.594 104.299 419.594 101.832C419.594 99.0368 417.84 97.1734 414.387 97.1186C412.412 97.1106 410.481 97.7032 408.851 98.8178L407.535 95.3646C409.344 94.0489 412.468 93.1719 415.373 93.1719C421.677 93.1719 424.527 97.0638 424.527 101.229C424.527 104.957 422.444 107.642 419.813 110.766C417.401 113.616 416.524 116.028 416.689 118.823L416.743 120.248L412.468 120.249ZM411.263 127.922C411.233 127.475 411.297 127.027 411.449 126.605C411.602 126.184 411.84 125.799 412.149 125.474C412.458 125.15 412.831 124.893 413.245 124.72C413.658 124.547 414.103 124.461 414.551 124.469C416.47 124.469 417.785 125.894 417.785 127.922C417.803 128.362 417.732 128.8 417.577 129.212C417.421 129.623 417.184 129.999 416.879 130.317C416.574 130.634 416.209 130.887 415.804 131.059C415.399 131.232 414.964 131.321 414.524 131.321C414.084 131.321 413.648 131.232 413.244 131.059C412.839 130.887 412.473 130.634 412.169 130.317C411.864 129.999 411.627 129.623 411.471 129.212C411.315 128.8 411.244 128.362 411.263 127.922Z" fill="#D0CDE1"/>
<path d="M307.642 221.249C338.017 221.249 362.64 196.625 362.64 166.251C362.64 135.876 338.017 111.253 307.642 111.253C277.268 111.253 252.644 135.876 252.644 166.251C252.644 196.625 277.268 221.249 307.642 221.249Z" fill="#2F2E41"/>
<path d="M286.401 241.566L269.959 238.589L275.292 204.259L291.733 207.236L286.401 241.566Z" fill="#2F2E41"/>
<path d="M324.615 213.188L308.174 210.212L302.842 239.669L319.283 242.645L324.615 213.188Z" fill="#2F2E41"/>
<path d="M330.272 244.249C330.842 241.423 325.194 237.898 317.657 236.376C310.119 234.855 303.546 235.912 302.975 238.739C302.405 241.566 308.053 245.091 315.59 246.612C323.128 248.134 329.701 247.076 330.272 244.249Z" fill="#2F2E41"/>
<path d="M296.028 243.362C296.407 240.503 290.534 237.367 282.911 236.357C275.287 235.347 268.801 236.846 268.422 239.705C268.043 242.563 273.916 245.699 281.539 246.709C289.162 247.719 295.649 246.22 296.028 243.362Z" fill="#2F2E41"/>
<path d="M311.493 171.595C321.874 171.595 330.29 163.179 330.29 152.798C330.29 142.417 321.874 134.001 311.493 134.001C301.112 134.001 292.696 142.417 292.696 152.798C292.696 163.179 301.112 171.595 311.493 171.595Z" fill="white"/>
<path d="M319.218 152.326C322.679 152.326 325.484 149.521 325.484 146.06C325.484 142.6 322.679 139.795 319.218 139.795C315.758 139.795 312.953 142.6 312.953 146.06C312.953 149.521 315.758 152.326 319.218 152.326Z" fill="#3F3D56"/>
<path d="M264.257 106.419C263.43 86.0578 280.978 68.8118 303.452 67.8989C325.926 66.986 344.815 82.7519 345.642 103.113C346.469 123.474 330.847 128.1 308.373 129.013C285.899 129.926 265.084 126.78 264.257 106.419Z" fill="white"/>
<path d="M360.354 164.646C375.158 161.253 386.295 154.735 385.229 150.087C384.164 145.44 371.3 144.423 356.497 147.817C341.693 151.21 330.556 157.728 331.622 162.375C332.687 167.022 345.551 168.039 360.354 164.646Z" fill="#2F2E41"/>
<path d="M252.395 182.599C267.199 179.206 278.336 172.688 277.27 168.041C276.205 163.393 263.341 162.377 248.538 165.77C233.734 169.163 222.597 175.681 223.663 180.328C224.728 184.976 237.592 185.992 252.395 182.599Z" fill="#2F2E41"/>
<path d="M292.537 187.925C292.244 189.544 292.273 191.205 292.622 192.814C292.97 194.422 293.633 195.946 294.57 197.298C295.508 198.65 296.703 199.805 298.087 200.695C299.471 201.586 301.016 202.195 302.636 202.488C304.255 202.781 305.916 202.752 307.524 202.403C309.133 202.055 310.656 201.392 312.009 200.455C313.361 199.517 314.515 198.322 315.406 196.938C316.296 195.554 316.906 194.009 317.199 192.389C318.432 185.579 313.166 183.169 306.356 181.937C299.546 180.704 293.77 181.115 292.537 187.925Z" fill="white"/>
<path d="M188.923 8.36343H98.4921V94.3843H188.923V8.36343Z" fill="#D0CDE1"/>
<path d="M178.647 18.6397H108.768V72.0762H178.647V18.6397Z" fill="white"/>
<path d="M146.708 78.3804H108.699V80.3809H146.708V78.3804Z" fill="#F2F2F2"/>
<path d="M146.708 84.3819H108.699V86.3823H146.708V84.3819Z" fill="#F2F2F2"/>
<path d="M121.202 53.3743C125.622 53.3743 129.204 49.7917 129.204 45.3724C129.204 40.953 125.622 37.3705 121.202 37.3705C116.783 37.3705 113.2 40.953 113.2 45.3724C113.2 49.7917 116.783 53.3743 121.202 53.3743Z" fill="#3F3D56"/>
<path d="M143.708 53.3743C148.127 53.3743 151.71 49.7917 151.71 45.3724C151.71 40.953 148.127 37.3705 143.708 37.3705C139.288 37.3705 135.706 40.953 135.706 45.3724C135.706 49.7917 139.288 53.3743 143.708 53.3743Z" fill="#277AFF"/>
<path d="M166.213 53.3743C170.632 53.3743 174.215 49.7917 174.215 45.3724C174.215 40.953 170.632 37.3705 166.213 37.3705C161.794 37.3705 158.211 40.953 158.211 45.3724C158.211 49.7917 161.794 53.3743 166.213 53.3743Z" fill="#E6E6E6"/>
<path d="M143.708 17.3656C145.917 17.3656 147.709 15.5743 147.709 13.3646C147.709 11.1549 145.917 9.36365 143.708 9.36365C141.498 9.36365 139.707 11.1549 139.707 13.3646C139.707 15.5743 141.498 17.3656 143.708 17.3656Z" fill="#3F3D56"/>
<path d="M231.936 174.925H141.505V260.946H231.936V174.925Z" fill="#D0CDE1"/>
<path d="M221.66 185.201H151.781V238.638H221.66V185.201Z" fill="white"/>
<path d="M191.656 193.983H167.158V218.481H191.656V193.983Z" fill="#277AFF"/>
<path d="M176.536 200.109V229.856H206.283V200.109H176.536ZM204.993 228.566H177.826V201.399H204.993V228.566Z" fill="#3F3D56"/>
<path d="M189.721 243.942H151.712V245.942H189.721V243.942Z" fill="#F2F2F2"/>
<path d="M186.72 183.927C188.93 183.927 190.721 182.136 190.721 179.926C190.721 177.717 188.93 175.925 186.72 175.925C184.511 175.925 182.719 177.717 182.719 179.926C182.719 182.136 184.511 183.927 186.72 183.927Z" fill="#3F3D56"/>
<path d="M467.381 149.173H376.95V235.193H467.381V149.173Z" fill="#D0CDE1"/>
<path d="M457.104 159.449H387.226V212.885H457.104V159.449Z" fill="white"/>
<path d="M429.682 201.282H414.649V205.737H429.682V201.282Z" fill="#3F3D56"/>
<path d="M447.856 166.598H396.475V168.507H447.856V166.598Z" fill="#3F3D56"/>
<path d="M447.856 172.643H396.475V174.553H447.856V172.643Z" fill="#3F3D56"/>
<path d="M447.856 178.689H396.475V180.599H447.856V178.689Z" fill="#3F3D56"/>
<path d="M447.856 184.735H396.475V186.644H447.856V184.735Z" fill="#3F3D56"/>
<path d="M447.856 190.781H396.475V192.69H447.856V190.781Z" fill="#3F3D56"/>
<path d="M425.166 218.189H387.157V220.19H425.166V218.189Z" fill="#F2F2F2"/>
<path d="M440.169 223.19H387.157V225.191H440.169V223.19Z" fill="#F2F2F2"/>
<path d="M422.165 158.175C424.375 158.175 426.166 156.383 426.166 154.174C426.166 151.964 424.375 150.173 422.165 150.173C419.955 150.173 418.164 151.964 418.164 154.174C418.164 156.383 419.955 158.175 422.165 158.175Z" fill="#3F3D56"/>
</g>
<defs>
<clipPath id="clip0_826_3675">
<rect width="600" height="277.513" fill="white"/>
</clipPath>
</defs>
</svg>
