<svg width="962" height="316" viewBox="0 0 962 316" fill="none" xmlns="http://www.w3.org/2000/svg">
<path d="M189.258 227.982C189.258 227.982 197.154 208.545 173.465 193.968L189.258 227.982Z" fill="#E6E6E6"/>
<path d="M198.969 227.629C198.969 227.629 201.378 213.775 220.021 213.894L198.969 227.629Z" fill="#E6E6E6"/>
<path d="M20.8644 227.982C20.8644 227.982 31.2969 202.303 0.000362141 183.044L20.8644 227.982Z" fill="#E6E6E6"/>
<path d="M33.6945 227.515C33.6945 227.515 36.8767 209.213 61.5078 209.37Z" fill="#E6E6E6"/>
<path d="M72.2164 216.256L78.2715 218.506L89.8306 196.221L80.8937 192.901L72.2164 216.256Z" fill="#FFB7B7"/>
<path d="M68.4918 221.552L88.016 228.806L88.1077 228.559C88.8565 226.543 88.774 224.313 87.8784 222.358C86.9829 220.404 85.3475 218.885 83.3322 218.136L83.3317 218.136L71.407 213.705L68.4918 221.552Z" fill="#2F2E41"/>
<path d="M131.806 222.544L138.265 222.544L141.338 197.629L131.805 197.629L131.806 222.544Z" fill="#FFB7B7"/>
<path d="M130.685 228.806L151.514 228.805V228.541C151.514 226.391 150.659 224.33 149.139 222.809C147.619 221.289 145.557 220.435 143.407 220.435H143.406L130.685 220.435L130.685 228.806Z" fill="#2F2E41"/>
<path d="M102.232 49.7459L104.339 45.5308L122.254 54.4879L121.727 58.1761L125.151 62.6546C125.151 62.6546 130.947 65.8159 129.893 76.3536L128.84 86.3645L127.522 99.2732L136.743 131.15L141.485 173.301L144.91 207.285L128.313 206.495L113.033 151.171L86.1618 210.71L67.7208 205.968L93.0113 146.956L96.1727 122.193C96.1727 122.193 94.0651 109.021 104.076 100.063L102.495 95.3215V89.4781L97.2264 61.6008L102.232 49.7459Z" fill="#2F2E41"/>
<path opacity="0.2" d="M101.74 109.99L113.331 151.087L112.735 151.255L101.144 110.159L101.74 109.99Z" fill="black"/>
<path d="M102.759 99.2732H128.576V101.908H102.759V99.2732Z" fill="#3F3D56"/>
<path d="M128.576 103.488C127.994 103.488 127.522 102.309 127.522 100.854C127.522 99.399 127.994 98.2195 128.576 98.2195C129.158 98.2195 129.63 99.399 129.63 100.854C129.63 102.309 129.158 103.488 128.576 103.488Z" fill="#3F3D56"/>
<path d="M110.197 42.9317C103.391 39.2112 100.89 30.6778 104.611 23.8718C108.331 17.0659 116.864 14.5646 123.67 18.2851C130.476 22.0056 132.978 30.5389 129.257 37.3449C125.537 44.1509 117.003 46.6521 110.197 42.9317Z" fill="#FFB7B7"/>
<path d="M95.4426 25.5947C88.5807 25.5947 83.0179 20.0321 83.0179 13.1701C83.0179 6.30819 88.5807 0.745483 95.4426 0.745483C102.305 0.745483 107.867 6.30819 107.867 13.1701C107.867 20.0321 102.305 25.5947 95.4426 25.5947Z" fill="#2F2E41"/>
<path d="M79.6755 11.8392C79.1854 13.4855 79.042 15.2154 79.2543 16.9199C79.4666 18.6243 80.0299 20.2662 80.9088 21.742C81.7876 23.2177 82.9629 24.4952 84.3604 25.4938C85.7579 26.4924 87.3472 27.1904 89.0281 27.5438C90.709 27.8972 92.4449 27.8982 94.1261 27.5468C95.8074 27.1955 97.3976 26.4993 98.7963 25.5024C100.195 24.5054 101.372 23.2293 102.252 21.7546C103.133 20.2799 103.698 18.6387 103.913 16.9345C103.022 19.9235 101.041 22.4684 98.3611 24.064C95.6815 25.6596 92.4998 26.1891 89.4478 25.5475C86.3958 24.9059 83.6967 23.1401 81.8863 20.6006C80.076 18.0611 79.2868 14.9336 79.6755 11.8392V11.8392Z" fill="#2F2E41"/>
<path d="M128.76 26.7092C129.124 29.9208 128.42 33.163 126.755 35.9334C125.09 38.7038 122.557 40.8477 119.55 42.0329C116.543 43.2182 113.229 43.3785 110.122 42.4892C107.014 41.5998 104.287 39.7104 102.362 37.1138C100.437 34.5171 99.4228 31.3581 99.4756 28.1263C99.5284 24.8945 100.646 21.7703 102.654 19.2379C104.663 16.7054 107.45 14.9061 110.585 14.1188C113.72 13.3314 117.027 13.6 119.994 14.8828C122.448 12.904 125.49 13.5173 127.963 15.6057C130.759 17.967 131.589 19.5891 133.758 23.4722C131.626 23.7718 130.893 26.4096 128.76 26.7092Z" fill="#2F2E41"/>
<path d="M77.135 68.9451C77.2922 73.1073 77.6037 81.2998 77.6037 81.718C77.6037 82.1586 83.8147 95.0184 86.4978 100.553V100.556C86.6887 100.946 86.8599 101.3 87.0115 101.611C87.219 102.041 87.5452 102.402 87.9516 102.651C88.358 102.901 88.8275 103.029 89.3044 103.02L101.03 102.81C101.675 102.799 102.29 102.539 102.748 102.085C103.205 101.631 103.47 101.018 103.486 100.373L104.794 48.7853C104.798 48.6152 104.769 48.4459 104.707 48.2875C104.644 48.1291 104.551 47.9847 104.433 47.8628C104.314 47.7409 104.172 47.644 104.015 47.5779C103.858 47.5117 103.69 47.4775 103.52 47.4774H88.3979C87.7591 47.4777 87.1334 47.6579 86.5924 47.9975C86.0513 48.337 85.6168 48.8221 85.3387 49.3971L78.0809 64.4124C77.4004 65.8235 77.0757 67.3796 77.135 68.9451V68.9451Z" fill="#277AFF"/>
<path d="M103.69 96.8332C106.699 95.0098 109.403 92.7249 111.702 90.0621C117.045 84.0529 120.295 76.4726 120.963 68.4595C121.559 61.6034 120.199 56.5073 116.919 53.3123C112.751 49.251 107.078 49.8411 106.838 49.8684L106.584 49.8972L102.74 53.1495L103.828 54.435L107.267 51.5248C108.32 51.4721 112.618 51.4608 115.758 54.5317C118.648 57.3585 119.834 61.9954 119.285 68.3137C118.649 75.9431 115.563 83.1624 110.488 88.8938C108.298 91.4266 105.731 93.6071 102.878 95.3584L103.69 96.8332Z" fill="#277AFF"/>
<path d="M81.8699 77.2341L102.358 81.4421L102.245 81.9919L81.7569 77.7839L81.8699 77.2341Z" fill="#3F3D56"/>
<path d="M95.3742 47.4659L95.9351 47.4888L94.6043 80.0899L94.0434 80.067L95.3742 47.4659Z" fill="#3F3D56"/>
<path d="M77.1353 68.9451C77.2924 73.1073 77.6039 81.2997 77.6039 81.7179C77.6039 82.1586 83.8149 95.0184 86.498 100.553L81.4967 71.5131C81.3032 70.3958 80.8165 69.35 80.0861 68.4826C79.3558 67.6151 78.4081 66.9573 77.3401 66.5763C77.1721 67.3541 77.1032 68.15 77.1353 68.9451Z" fill="#3F3D56"/>
<path d="M107.863 129.805C107.42 129.234 107.108 128.573 106.948 127.869C106.788 127.165 106.785 126.434 106.938 125.728C107.091 125.022 107.397 124.358 107.835 123.784C108.272 123.209 108.83 122.737 109.47 122.401L108.453 111.157L115.136 108.873L116.348 124.772C116.841 125.884 116.909 127.138 116.539 128.296C116.169 129.454 115.387 130.437 114.341 131.057C113.295 131.678 112.058 131.893 110.864 131.662C109.67 131.431 108.602 130.77 107.863 129.805V129.805Z" fill="#FFB7B7"/>
<path d="M106.99 117.924L118.831 117.495L118.33 60.3915C118.339 58.7755 117.839 57.1978 116.902 55.8813C115.965 54.5648 114.638 53.5761 113.108 53.0549C111.679 52.58 110.134 52.5787 108.704 53.0511C107.082 53.6002 105.689 54.6738 104.745 56.1024C103.801 57.5311 103.359 59.2335 103.49 60.941L106.99 117.924Z" fill="#CBCBCB"/>
<path d="M3.113 230H239.026C239.191 230 239.348 229.935 239.464 229.819C239.58 229.702 239.646 229.545 239.646 229.381C239.646 229.217 239.58 229.059 239.464 228.943C239.348 228.827 239.191 228.762 239.026 228.762H3.113C2.94878 228.762 2.79126 228.827 2.67514 228.943C2.55901 229.059 2.49381 229.217 2.49381 229.381C2.49381 229.545 2.55901 229.702 2.67514 229.819C2.79126 229.935 2.94878 230 3.113 230Z" fill="#CBCBCB"/>
<path d="M346.636 228.456H863.464V197.263C863.464 190.748 855.623 184.336 841.951 179.67L841.81 179.621C832.579 176.36 773.569 153.156 741.651 153.858C724.79 154.227 710.355 157.089 698.747 162.363C662.615 178.784 615.152 184.85 590.076 180.085C567.976 175.884 507.308 168.937 484.891 169.25C453.497 169.683 453.405 174.934 421.179 191.882C408.87 198.349 404.267 199.161 346.636 204.32V228.456Z" fill="#F2F2F2"/>
<path d="M263.315 182.607C262.19 165.872 269.286 148.966 283.99 142.755C281.017 159.997 284.679 179.156 294.122 195.767C297.8 202.236 302.523 209.143 301.518 215.903C300.893 220.109 298.035 223.448 294.543 225.623C291.05 227.797 286.935 228.958 282.87 230.097L282.168 230.835C272.507 215.854 264.441 199.342 263.315 182.607Z" fill="#F2F2F2"/>
<path d="M284.206 143.061C276.914 154.301 273.674 167.697 275.023 181.031C275.246 184.077 275.928 187.072 277.044 189.914C278.265 192.761 280.138 195.281 282.511 197.27C284.708 199.185 287.145 200.921 288.904 203.272C289.773 204.419 290.401 205.73 290.752 207.126C291.102 208.522 291.168 209.974 290.945 211.396C290.432 214.765 288.69 217.578 286.881 220.256C284.873 223.23 282.734 226.281 282.369 230.107C282.325 230.57 281.585 230.373 281.629 229.911C282.263 223.254 287.87 219.207 289.755 213.145C290.267 211.68 290.442 210.118 290.266 208.576C290.09 207.034 289.568 205.553 288.738 204.241C287.099 201.755 284.587 199.963 282.349 198.04C280.005 196.123 278.098 193.726 276.758 191.009C275.505 188.215 274.711 185.237 274.407 182.189C273.647 175.618 273.958 168.967 275.329 162.496C276.796 155.373 279.608 148.597 283.615 142.532C283.861 142.162 284.45 142.694 284.206 143.061V143.061Z" fill="white"/>
<path d="M274.366 176.552C271.947 176.077 269.736 174.86 268.041 173.069C266.345 171.278 265.249 169.003 264.906 166.559C264.852 166.084 265.592 166.083 265.645 166.559C265.961 168.834 266.982 170.953 268.563 172.618C270.145 174.282 272.208 175.409 274.462 175.838C274.509 175.844 274.555 175.859 274.596 175.883C274.638 175.906 274.674 175.938 274.703 175.975C274.733 176.013 274.754 176.056 274.766 176.102C274.779 176.148 274.782 176.196 274.775 176.244C274.769 176.291 274.753 176.337 274.729 176.378C274.705 176.419 274.673 176.455 274.635 176.483C274.597 176.512 274.554 176.533 274.507 176.544C274.461 176.556 274.413 176.559 274.366 176.552V176.552Z" fill="white"/>
<path d="M281.288 196.427C283.093 195.081 284.592 193.367 285.688 191.398C286.783 189.43 287.45 187.251 287.644 185.006C287.69 184.543 288.43 184.74 288.384 185.202C288.178 187.538 287.479 189.803 286.334 191.849C285.19 193.895 283.625 195.674 281.743 197.07C281.383 197.334 280.93 196.69 281.288 196.427V196.427Z" fill="white"/>
<path d="M277.658 155.922C278.501 156.285 279.424 156.426 280.337 156.332C281.25 156.238 282.125 155.912 282.877 155.384C283.232 155.116 283.686 155.76 283.332 156.027C282.499 156.606 281.533 156.965 280.525 157.071C279.516 157.177 278.497 157.027 277.562 156.635C277.465 156.607 277.38 156.546 277.322 156.464C277.263 156.381 277.234 156.281 277.24 156.18C277.247 156.134 277.264 156.09 277.289 156.05C277.315 156.011 277.349 155.978 277.389 155.954C277.429 155.929 277.473 155.913 277.52 155.908C277.566 155.902 277.613 155.907 277.658 155.922H277.658Z" fill="white"/>
<path d="M337.636 170.021C337.419 170.196 337.203 170.37 336.987 170.551C334.097 172.912 331.433 175.538 329.031 178.395C328.841 178.613 328.653 178.836 328.47 179.059C322.723 186.101 318.516 194.273 316.122 203.045C315.14 206.622 314.45 210.274 314.061 213.963C313.514 219.109 313.344 224.788 311.136 229.086C310.912 229.536 310.657 229.97 310.372 230.384L283.261 231.762C283.193 231.734 283.127 231.712 283.059 231.684L281.986 231.789C281.992 231.593 282.004 231.391 282.01 231.196C282.013 231.082 282.023 230.969 282.026 230.855C282.03 230.779 282.035 230.704 282.034 230.634C282.035 230.609 282.037 230.584 282.039 230.565C282.039 230.496 282.045 230.432 282.046 230.369C282.105 229.24 282.17 228.11 282.247 226.979C282.246 226.973 282.246 226.973 282.251 226.966C282.717 218.466 284.259 210.058 286.839 201.946C286.919 201.709 286.997 201.466 287.089 201.229C288.292 197.713 289.815 194.315 291.639 191.078C292.635 189.326 293.731 187.633 294.923 186.007C298.008 181.821 301.824 178.228 306.187 175.402C310.64 172.432 315.652 170.405 320.915 169.444C326.179 168.482 331.583 168.608 336.796 169.812C337.078 169.879 337.353 169.947 337.636 170.021Z" fill="#F2F2F2"/>
<path d="M337.641 170.371C324.933 173.569 313.79 181.22 306.232 191.937C304.573 194.219 303.332 196.778 302.567 199.495C301.9 202.319 302.009 205.271 302.882 208.038C303.647 210.729 304.734 213.436 304.845 216.174C304.906 217.513 304.65 218.848 304.097 220.07C303.544 221.291 302.71 222.364 301.663 223.201C299.143 225.296 295.878 226.255 292.637 227.076C289.038 227.989 285.277 228.877 282.608 231.388C282.284 231.692 281.751 231.106 282.074 230.802C286.719 226.433 294.154 226.923 299.538 223.732C302.051 222.243 304.014 219.924 304.104 216.765C304.182 214.003 303.063 211.211 302.265 208.49C301.377 205.787 301.163 202.908 301.642 200.104C302.254 197.344 303.387 194.728 304.978 192.393C308.428 187.151 312.798 182.577 317.876 178.893C323.753 174.593 330.394 171.452 337.444 169.637C337.888 169.521 338.082 170.256 337.641 170.371H337.641Z" fill="white"/>
<path d="M308.401 188.345C304.634 184.778 303.691 179.285 306.177 175.514C306.422 175.142 307.075 175.587 306.83 175.959C304.501 179.491 305.402 184.559 308.923 187.893C309.294 188.244 308.77 188.694 308.401 188.345Z" fill="white"/>
<path d="M302.318 206.7C304.605 206.873 306.903 206.579 309.072 205.837C311.242 205.094 313.238 203.917 314.94 202.378C315.265 202.075 315.798 202.662 315.473 202.964C313.699 204.562 311.618 205.782 309.358 206.55C307.098 207.318 304.706 207.619 302.326 207.433C301.846 207.405 301.841 206.671 302.318 206.7Z" fill="white"/>
<path d="M323.966 175.604C324.536 176.4 325.274 177.06 326.128 177.537C326.982 178.014 327.93 178.297 328.905 178.365C329.384 178.388 329.389 179.121 328.913 179.098C327.836 179.018 326.789 178.705 325.844 178.179C324.9 177.654 324.081 176.929 323.444 176.056C323.376 175.987 323.338 175.894 323.337 175.797C323.336 175.701 323.372 175.607 323.439 175.537C323.519 175.479 323.618 175.453 323.716 175.466C323.814 175.478 323.904 175.528 323.966 175.604V175.604Z" fill="white"/>
<path d="M942.081 182.607C943.206 165.872 936.11 148.966 921.407 142.755C924.379 159.997 920.717 179.156 911.274 195.767C907.596 202.236 902.873 209.143 903.878 215.903C904.503 220.109 907.361 223.448 910.854 225.623C914.346 227.797 918.461 228.958 922.526 230.097L923.228 230.835C932.89 215.854 940.955 199.342 942.081 182.607Z" fill="#F2F2F2"/>
<path d="M921.191 143.061C928.483 154.301 931.722 167.697 930.374 181.031C930.15 184.077 929.469 187.072 928.352 189.914C927.131 192.761 925.259 195.281 922.885 197.27C920.688 199.185 918.251 200.921 916.492 203.272C915.624 204.419 914.996 205.73 914.645 207.126C914.295 208.522 914.229 209.974 914.452 211.396C914.964 214.765 916.706 217.578 918.515 220.256C920.524 223.23 922.663 226.281 923.027 230.107C923.072 230.57 923.812 230.373 923.768 229.911C923.134 223.254 917.527 219.207 915.642 213.145C915.13 211.68 914.955 210.118 915.131 208.576C915.307 207.034 915.829 205.553 916.658 204.241C918.297 201.755 920.809 199.963 923.048 198.04C925.392 196.123 927.298 193.726 928.639 191.009C929.892 188.215 930.685 185.237 930.99 182.189C931.75 175.618 931.438 168.967 930.067 162.496C928.601 155.373 925.789 148.597 921.782 142.532C921.536 142.162 920.947 142.694 921.191 143.061V143.061Z" fill="white"/>
<path d="M931.03 176.552C933.449 176.077 935.66 174.86 937.356 173.069C939.051 171.278 940.147 169.003 940.491 166.559C940.544 166.084 939.805 166.083 939.752 166.559C939.435 168.834 938.415 170.953 936.833 172.618C935.252 174.282 933.189 175.409 930.935 175.838C930.887 175.844 930.841 175.859 930.8 175.883C930.759 175.906 930.722 175.938 930.693 175.975C930.664 176.013 930.642 176.056 930.63 176.102C930.618 176.148 930.615 176.196 930.621 176.244C930.627 176.291 930.643 176.337 930.667 176.378C930.691 176.419 930.723 176.455 930.761 176.483C930.799 176.512 930.843 176.533 930.889 176.544C930.935 176.556 930.983 176.559 931.03 176.552V176.552Z" fill="white"/>
<path d="M924.109 196.427C922.304 195.081 920.804 193.367 919.709 191.398C918.613 189.43 917.947 187.251 917.752 185.006C917.707 184.543 916.966 184.74 917.012 185.202C917.219 187.538 917.918 189.803 919.062 191.849C920.207 193.895 921.772 195.674 923.653 197.07C924.013 197.334 924.467 196.69 924.109 196.427V196.427Z" fill="white"/>
<path d="M927.739 155.922C926.895 156.285 925.973 156.426 925.059 156.332C924.146 156.238 923.272 155.912 922.52 155.384C922.164 155.116 921.711 155.76 922.064 156.027C922.897 156.606 923.863 156.965 924.871 157.071C925.88 157.177 926.899 157.027 927.834 156.635C927.931 156.607 928.016 156.546 928.074 156.464C928.133 156.381 928.162 156.281 928.156 156.18C928.15 156.134 928.133 156.09 928.107 156.05C928.081 156.011 928.047 155.978 928.008 155.954C927.968 155.929 927.923 155.913 927.876 155.908C927.83 155.902 927.783 155.907 927.738 155.922H927.739Z" fill="white"/>
<path d="M867.761 170.021C867.977 170.196 868.194 170.37 868.409 170.551C871.3 172.912 873.963 175.538 876.366 178.395C876.555 178.613 876.744 178.836 876.926 179.059C882.673 186.101 886.88 194.273 889.275 203.045C890.257 206.622 890.946 210.274 891.336 213.963C891.883 219.108 892.053 224.788 894.261 229.086C894.484 229.536 894.74 229.97 895.025 230.384L922.135 231.762C922.203 231.734 922.27 231.712 922.338 231.684L923.41 231.789C923.404 231.593 923.393 231.391 923.386 231.196C923.383 231.082 923.374 230.969 923.37 230.855C923.366 230.779 923.362 230.704 923.362 230.634C923.361 230.609 923.36 230.584 923.357 230.565C923.358 230.496 923.351 230.432 923.35 230.369C923.292 229.24 923.227 228.11 923.149 226.979C923.15 226.973 923.15 226.973 923.145 226.966C922.679 218.466 921.138 210.058 918.558 201.946C918.478 201.709 918.4 201.466 918.307 201.229C917.104 197.713 915.581 194.315 913.758 191.078C912.761 189.326 911.665 187.633 910.473 186.007C907.388 181.821 903.572 178.228 899.209 175.402C894.756 172.432 889.744 170.405 884.481 169.444C879.218 168.482 873.813 168.608 868.6 169.812C868.319 169.879 868.043 169.947 867.761 170.021Z" fill="#F2F2F2"/>
<path d="M867.756 170.371C880.464 173.569 891.607 181.22 899.164 191.937C900.824 194.219 902.065 196.778 902.83 199.495C903.496 202.319 903.388 205.271 902.515 208.038C901.75 210.729 900.663 213.436 900.551 216.174C900.49 217.513 900.747 218.848 901.3 220.07C901.853 221.291 902.687 222.364 903.734 223.201C906.254 225.296 909.518 226.255 912.76 227.076C916.359 227.989 920.12 228.877 922.789 231.388C923.112 231.692 923.645 231.106 923.322 230.802C918.678 226.433 911.242 226.923 905.858 223.732C903.346 222.243 901.382 219.924 901.293 216.765C901.215 214.003 902.334 211.211 903.131 208.49C904.02 205.787 904.234 202.908 903.755 200.104C903.142 197.344 902.01 194.728 900.419 192.393C896.968 187.151 892.598 182.577 887.521 178.893C881.643 174.593 875.003 171.452 867.953 169.637C867.509 169.521 867.315 170.256 867.756 170.371V170.371Z" fill="white"/>
<path d="M896.996 188.345C900.763 184.778 901.706 179.285 899.22 175.514C898.975 175.142 898.322 175.587 898.567 175.959C900.895 179.491 899.995 184.559 896.473 187.893C896.103 188.244 896.627 188.694 896.996 188.345Z" fill="white"/>
<path d="M903.078 206.7C900.792 206.873 898.494 206.579 896.324 205.837C894.154 205.094 892.158 203.917 890.457 202.378C890.132 202.075 889.599 202.662 889.923 202.964C891.698 204.562 893.778 205.782 896.038 206.55C898.298 207.318 900.691 207.619 903.07 207.433C903.55 207.405 903.555 206.671 903.078 206.7V206.7Z" fill="white"/>
<path d="M881.43 175.604C880.86 176.4 880.122 177.06 879.268 177.537C878.415 178.014 877.466 178.297 876.491 178.365C876.012 178.388 876.007 179.121 876.483 179.098C877.56 179.018 878.608 178.705 879.552 178.179C880.496 177.654 881.315 176.929 881.952 176.056C882.02 175.987 882.058 175.894 882.059 175.797C882.06 175.701 882.024 175.607 881.958 175.537C881.878 175.479 881.779 175.453 881.68 175.466C881.582 175.478 881.493 175.528 881.43 175.604V175.604Z" fill="white"/>
<path d="M349.046 102H344.742V228.295H349.046V102Z" fill="#3F3D56"/>
<path d="M477.891 102H473.587V228.29H477.891V102Z" fill="#3F3D56"/>
<path d="M607.002 102H602.698V228.29H607.002V102Z" fill="#3F3D56"/>
<path d="M736.112 102H731.809V228.29H736.112V102Z" fill="#3F3D56"/>
<path d="M865.223 102H860.919V228.29H865.223V102Z" fill="#3F3D56"/>
<path d="M476.005 115.363C483.276 115.363 489.171 109.461 489.171 102.181C489.171 94.9015 483.276 89 476.005 89C468.734 89 462.839 94.9015 462.839 102.181C462.839 109.461 468.734 115.363 476.005 115.363Z" fill="#277AFF"/>
<path d="M475.635 95.58C476.511 95.58 477.261 95.736 477.885 96.048C478.521 96.36 479.001 96.78 479.325 97.308C479.661 97.836 479.829 98.418 479.829 99.054C479.829 99.702 479.697 100.32 479.433 100.908C479.169 101.496 478.701 102.174 478.029 102.942C477.357 103.698 476.379 104.658 475.095 105.822H480.081L479.793 108H471.873V105.984C473.349 104.532 474.423 103.44 475.095 102.708C475.767 101.964 476.235 101.346 476.499 100.854C476.775 100.362 476.913 99.858 476.913 99.342C476.913 98.85 476.769 98.466 476.481 98.19C476.205 97.902 475.827 97.758 475.347 97.758C474.915 97.758 474.531 97.86 474.195 98.064C473.859 98.256 473.505 98.574 473.133 99.018L471.459 97.686C471.963 97.026 472.563 96.51 473.259 96.138C473.967 95.766 474.759 95.58 475.635 95.58Z" fill="white"/>
<path d="M349.201 95.832V108H346.411V98.604L343.801 100.206L342.559 98.316L346.663 95.832H349.201Z" fill="white"/>
<path d="M734.226 115.363C741.497 115.363 747.392 109.461 747.392 102.181C747.392 94.9015 741.497 89 734.226 89C726.955 89 721.061 94.9015 721.061 102.181C721.061 109.461 726.955 115.363 734.226 115.363Z" fill="#277AFF"/>
<path d="M738.203 103.248V105.372H736.835V108H734.063L734.045 105.372H728.915V103.482L732.371 95.526L734.783 96.426L731.849 103.248H734.081L734.387 100.368H736.835V103.248H738.203Z" fill="white"/>
<path d="M605.115 115.363C612.387 115.363 618.281 109.461 618.281 102.181C618.281 94.9015 612.387 89 605.115 89C597.844 89 591.95 94.9015 591.95 102.181C591.95 109.461 597.844 115.363 605.115 115.363Z" fill="#277AFF"/>
<path d="M604.626 95.58C605.478 95.58 606.204 95.718 606.804 95.994C607.416 96.27 607.878 96.642 608.19 97.11C608.514 97.578 608.676 98.1 608.676 98.676C608.676 99.408 608.466 100.02 608.046 100.512C607.638 101.004 607.056 101.358 606.3 101.574C607.116 101.658 607.782 101.952 608.298 102.456C608.814 102.948 609.072 103.65 609.072 104.562C609.072 105.246 608.892 105.876 608.532 106.452C608.172 107.016 607.638 107.466 606.93 107.802C606.234 108.138 605.4 108.306 604.428 108.306C602.652 108.306 601.26 107.694 600.252 106.47L601.782 104.976C602.19 105.384 602.586 105.684 602.97 105.876C603.366 106.056 603.798 106.146 604.266 106.146C604.83 106.146 605.286 105.99 605.634 105.678C605.982 105.366 606.156 104.934 606.156 104.382C606.156 103.758 605.988 103.314 605.652 103.05C605.328 102.774 604.836 102.636 604.176 102.636H603.168L603.474 100.674H604.176C604.716 100.674 605.142 100.536 605.454 100.26C605.766 99.984 605.922 99.594 605.922 99.09C605.922 98.646 605.778 98.304 605.49 98.064C605.202 97.812 604.806 97.686 604.302 97.686C603.45 97.686 602.658 98.04 601.926 98.748L600.522 97.218C601.674 96.126 603.042 95.58 604.626 95.58Z" fill="white"/>
<path d="M346.894 115.363C354.165 115.363 360.06 109.461 360.06 102.181C360.06 94.9015 354.165 89 346.894 89C339.623 89 333.729 94.9015 333.729 102.181C333.729 109.461 339.623 115.363 346.894 115.363Z" fill="#277AFF"/>
<path d="M349.201 95.832V108H346.411V98.604L343.801 100.206L342.559 98.316L346.663 95.832H349.201Z" fill="white"/>
<path d="M347.556 22.4449C341.642 22.4449 336.847 17.6443 336.847 11.7225C336.847 5.80061 341.642 1 347.556 1C353.47 1 358.265 5.80061 358.265 11.7225C358.265 17.6443 353.47 22.4449 347.556 22.4449Z" fill="#FF6884"/>
<path d="M306.181 59.6683C306.181 59.7414 306.24 59.8007 306.314 59.8007H398V59.5358H306.314C306.241 59.5358 306.181 59.5951 306.181 59.6683V59.6683Z" fill="#E6E6E6"/>
<path d="M319.996 59.6582C319.996 65.6671 319.366 70.0653 325.902 70.5383C332.92 71.0463 331.808 65.6671 331.808 59.6582C331.808 53.6492 332.753 47.6742 325.902 48.778C322.682 49.2969 319.996 53.6492 319.996 59.6582Z" fill="#3F3D56"/>
<path d="M329.918 67.2269C329.396 67.2269 328.973 63.8383 328.973 59.6581C328.973 55.478 329.396 52.0894 329.918 52.0894C330.44 52.0894 330.863 55.478 330.863 59.6581C330.863 63.8383 330.44 67.2269 329.918 67.2269Z" fill="#E6E6E6"/>
<path d="M367.298 49.9817C367.298 55.2845 366.742 59.1658 372.51 59.5832C378.703 60.0315 377.721 55.2845 377.721 49.9817C377.721 44.6789 378.555 39.4061 372.51 40.3802C369.668 40.838 367.298 44.6789 367.298 49.9817Z" fill="#3F3D56"/>
<path d="M376.054 56.661C375.593 56.661 375.22 53.6706 375.22 49.9817C375.22 46.2928 375.593 43.3024 376.054 43.3024C376.514 43.3024 376.888 46.2928 376.888 49.9817C376.888 53.6706 376.514 56.661 376.054 56.661Z" fill="#E6E6E6"/>
<path d="M358.344 59.5793C358.344 65.5882 357.714 69.9864 364.249 70.4594C371.267 70.9674 370.155 65.5882 370.155 59.5793C370.155 53.5704 371.1 47.5954 364.249 48.6992C361.029 49.218 358.344 53.5704 358.344 59.5793Z" fill="#3F3D56"/>
<path d="M368.265 67.1481C367.743 67.1481 367.32 63.7594 367.32 59.5793C367.32 55.3992 367.743 52.0105 368.265 52.0105C368.787 52.0105 369.21 55.3992 369.21 59.5793C369.21 63.7594 368.787 67.1481 368.265 67.1481Z" fill="#E6E6E6"/>
<path d="M377.005 37.2671V40.9969L378.029 42.7072L377.714 48.6992L377.459 48.8568L377.635 42.786C375.841 42.1172 375.254 43.3492 375.43 45.782L375.745 49.8818L370.706 53.0354L370.076 46.5704L367.714 45.4667L365.115 56.4256H321.579C319.785 56.4256 318.351 54.9304 318.423 53.1349L318.973 39.5535L320.455 38.0692L321.829 22.1645C322.171 18.1982 325.53 15.1794 329.505 15.2651L356.739 15.8528C358.217 15.8847 359.676 16.1826 361.048 16.7321L367.635 19.3701L371.886 23.6269L372.517 33.8769L374.124 33.737C375.281 33.6363 376.335 34.4015 376.6 35.5331L377.005 37.2671H377.005Z" fill="#E6E6E6"/>
<path d="M362.911 52.0105C362.041 52.0105 361.336 51.3046 361.336 50.4337C361.336 49.5628 362.041 48.8569 362.911 48.8569C363.78 48.8569 364.485 49.5628 364.485 50.4337C364.485 51.3046 363.78 52.0105 362.911 52.0105Z" fill="#3F3D56"/>
<path d="M359.288 52.0105C358.419 52.0105 357.714 51.3046 357.714 50.4337C357.714 49.5628 358.419 48.8569 359.288 48.8569C360.158 48.8569 360.863 49.5628 360.863 50.4337C360.863 51.3046 360.158 52.0105 359.288 52.0105Z" fill="#3F3D56"/>
<path d="M324.012 52.0105C323.142 52.0105 322.437 51.3046 322.437 50.4337C322.437 49.5628 323.142 48.8569 324.012 48.8569C324.882 48.8569 325.587 49.5628 325.587 50.4337C325.587 51.3046 324.882 52.0105 324.012 52.0105Z" fill="#3F3D56"/>
<path d="M320.39 52.0105C319.52 52.0105 318.815 51.3046 318.815 50.4337C318.815 49.5628 319.52 48.8569 320.39 48.8569C321.26 48.8569 321.965 49.5628 321.965 50.4337C321.965 51.3046 321.26 52.0105 320.39 52.0105Z" fill="#3F3D56"/>
<path d="M322.848 35.6227H359.871C360.154 35.6227 360.417 35.5099 360.613 35.3048C360.808 35.0996 360.908 34.8308 360.895 34.5478L360.354 23.096C360.328 22.5546 359.884 22.125 359.343 22.118L324.384 21.6675C323.868 21.6625 323.421 22.0458 323.354 22.5634L321.831 34.4657C321.793 34.7581 321.883 35.0528 322.078 35.2743C322.272 35.4957 322.553 35.6227 322.848 35.6227H322.848Z" fill="white"/>
<path d="M365.04 35.0595H367.443C367.728 35.0595 368.002 34.9394 368.195 34.7299C368.389 34.5203 368.487 34.2369 368.465 33.9524L367.773 25.1662C367.735 24.6837 367.375 24.2989 366.896 24.2305L364.414 23.8754C364.103 23.8312 363.794 23.9293 363.565 24.1452C363.337 24.3613 363.221 24.6648 363.247 24.9781L364.019 34.1195C364.064 34.6553 364.503 35.0596 365.04 35.0596V35.0595Z" fill="white"/>
<path d="M370.564 34.8363C370.589 34.8363 370.614 34.8354 370.639 34.8337L370.921 34.8135C371.2 34.7935 371.452 34.6648 371.632 34.4509C371.812 34.2368 371.896 33.9658 371.868 33.6874L371.092 25.9178C371.046 25.4579 370.696 25.0835 370.241 25.0074C369.93 24.9552 369.618 25.047 369.385 25.2583C369.152 25.4693 369.029 25.7706 369.049 26.0849L369.543 33.8748C369.561 34.15 369.684 34.4015 369.892 34.5829C370.08 34.7478 370.317 34.8363 370.564 34.8363L370.564 34.8363Z" fill="white"/>
<path d="M374.471 50.6882L374.879 41.7611C374.879 41.7611 375.824 40.4997 376.454 40.815C377.084 41.1304 378.02 42.8841 378.02 42.8841C378.02 42.8841 376.194 42.7643 376.245 44.7068C376.297 46.6493 375.932 49.7918 375.932 49.7918L374.471 50.6882V50.6882Z" fill="#CCCCCC"/>
<path d="M370.667 53.0205L370.47 46.3606L368.466 43.9916C368.466 43.9916 365.789 43.4124 365.846 46.45C365.903 49.4875 365.036 56.5044 365.036 56.5044L366.994 55.2733C366.994 55.2733 367.477 47.753 368.895 46.9646C370.312 46.1762 369.84 46.8069 369.84 46.8069L370.667 53.0205H370.667Z" fill="#CCCCCC"/>
<path d="M372.754 35.9476L374.306 35.0595H374.136C373.894 35.0595 373.698 34.863 373.698 34.6206V30.7679C373.698 30.5255 373.894 30.329 374.136 30.329H375.779C376.022 30.329 376.218 30.5255 376.218 30.7679V34.6206C376.218 34.863 376.022 35.0595 375.779 35.0595H374.941L372.91 36.2214L372.754 35.9476V35.9476Z" fill="#3F3D56"/>
<path d="M370.657 41.7204L371.868 41.3718C372.16 41.2875 372.466 41.4567 372.55 41.7496C372.634 42.0426 372.465 42.3483 372.172 42.4326L370.962 42.7812C370.669 42.8654 370.364 42.6962 370.28 42.4033C370.195 42.1104 370.364 41.8046 370.657 41.7204Z" fill="#3F3D56"/>
<path d="M337.556 52.9566C330.946 52.9566 325.587 47.5912 325.587 40.9727C325.587 34.3542 330.946 28.9888 337.556 28.9888C344.166 28.9888 349.524 34.3542 349.524 40.9727C349.524 47.5912 344.166 52.9566 337.556 52.9566Z" fill="#3F3D56"/>
<path d="M337.556 48.0684C333.642 48.0684 330.469 44.8916 330.469 40.9727C330.469 37.0538 333.642 33.877 337.556 33.877C341.47 33.877 344.643 37.0538 344.643 40.9727C344.643 44.8916 341.47 48.0684 337.556 48.0684Z" fill="#E6E6E6"/>
<path d="M295 70.5484C295 70.6216 295.059 70.6809 295.132 70.6809H386.819V70.416H295.132C295.059 70.416 295 70.4753 295 70.5484V70.5484Z" fill="#E6E6E6"/>
<path d="M317.481 254.598C319.017 254.598 320.205 254.922 321.045 255.57C321.885 256.206 322.305 257.16 322.305 258.432C322.305 259.788 321.867 260.796 320.991 261.456C320.115 262.116 318.951 262.446 317.499 262.446H315.933V267H314.223V254.598H317.481ZM317.427 261.096C318.423 261.096 319.179 260.904 319.695 260.52C320.223 260.136 320.487 259.446 320.487 258.45C320.487 257.562 320.223 256.92 319.695 256.524C319.179 256.128 318.435 255.93 317.463 255.93H315.933V261.096H317.427ZM329.997 264.786C329.997 265.17 330.063 265.458 330.195 265.65C330.327 265.83 330.525 265.968 330.789 266.064L330.411 267.216C329.919 267.156 329.523 267.018 329.223 266.802C328.923 266.586 328.701 266.25 328.557 265.794C327.921 266.742 326.979 267.216 325.731 267.216C324.795 267.216 324.057 266.952 323.517 266.424C322.977 265.896 322.707 265.206 322.707 264.354C322.707 263.346 323.067 262.572 323.787 262.032C324.519 261.492 325.551 261.222 326.883 261.222H328.341V260.52C328.341 259.848 328.179 259.368 327.855 259.08C327.531 258.792 327.033 258.648 326.361 258.648C325.665 258.648 324.813 258.816 323.805 259.152L323.391 257.946C324.567 257.514 325.659 257.298 326.667 257.298C327.783 257.298 328.617 257.574 329.169 258.126C329.721 258.666 329.997 259.44 329.997 260.448V264.786ZM326.109 265.974C327.057 265.974 327.801 265.482 328.341 264.498V262.32H327.099C325.347 262.32 324.471 262.968 324.471 264.264C324.471 264.828 324.609 265.254 324.885 265.542C325.161 265.83 325.569 265.974 326.109 265.974ZM336.933 267.054C336.561 268.158 336.039 269.028 335.367 269.664C334.707 270.312 333.759 270.702 332.523 270.834L332.343 269.538C332.967 269.43 333.465 269.274 333.837 269.07C334.209 268.866 334.503 268.602 334.719 268.278C334.947 267.966 335.157 267.54 335.349 267H334.791L331.605 257.514H333.369L335.907 265.794L338.391 257.514H340.101L336.933 267.054ZM351.516 257.298C352.296 257.298 352.92 257.562 353.388 258.09C353.856 258.606 354.09 259.308 354.09 260.196V267H352.434V260.43C352.434 259.206 351.99 258.594 351.102 258.594C350.634 258.594 350.238 258.732 349.914 259.008C349.59 259.272 349.242 259.692 348.87 260.268V267H347.214V260.43C347.214 259.206 346.77 258.594 345.882 258.594C345.402 258.594 345 258.732 344.676 259.008C344.352 259.284 344.01 259.704 343.65 260.268V267H341.994V257.514H343.416L343.56 258.9C344.268 257.832 345.18 257.298 346.296 257.298C346.884 257.298 347.382 257.448 347.79 257.748C348.21 258.048 348.51 258.468 348.69 259.008C349.062 258.456 349.47 258.036 349.914 257.748C350.37 257.448 350.904 257.298 351.516 257.298ZM364.592 261.978C364.592 262.254 364.58 262.536 364.556 262.824H358.508C358.58 263.868 358.844 264.636 359.3 265.128C359.756 265.62 360.344 265.866 361.064 265.866C361.52 265.866 361.94 265.8 362.324 265.668C362.708 265.536 363.11 265.326 363.53 265.038L364.25 266.028C363.242 266.82 362.138 267.216 360.938 267.216C359.618 267.216 358.586 266.784 357.842 265.92C357.11 265.056 356.744 263.868 356.744 262.356C356.744 261.372 356.9 260.502 357.212 259.746C357.536 258.978 357.992 258.378 358.58 257.946C359.18 257.514 359.882 257.298 360.686 257.298C361.946 257.298 362.912 257.712 363.584 258.54C364.256 259.368 364.592 260.514 364.592 261.978ZM362.954 261.492C362.954 260.556 362.768 259.842 362.396 259.35C362.024 258.858 361.466 258.612 360.722 258.612C359.366 258.612 358.628 259.608 358.508 261.6H362.954V261.492ZM371.7 257.298C372.564 257.298 373.236 257.556 373.716 258.072C374.208 258.588 374.454 259.296 374.454 260.196V267H372.798V260.43C372.798 259.758 372.672 259.284 372.42 259.008C372.168 258.732 371.796 258.594 371.304 258.594C370.8 258.594 370.356 258.738 369.972 259.026C369.588 259.314 369.228 259.728 368.892 260.268V267H367.236V257.514H368.658L368.802 258.918C369.138 258.414 369.552 258.018 370.044 257.73C370.548 257.442 371.1 257.298 371.7 257.298ZM382.571 266.568C381.947 267 381.239 267.216 380.447 267.216C379.643 267.216 379.013 266.988 378.557 266.532C378.113 266.064 377.891 265.392 377.891 264.516V258.792H376.235V257.514H377.891V255.372L379.547 255.174V257.514H381.797L381.617 258.792H379.547V264.444C379.547 264.936 379.631 265.296 379.799 265.524C379.979 265.74 380.273 265.848 380.681 265.848C381.053 265.848 381.473 265.722 381.941 265.47L382.571 266.568Z" fill="#333333"/>
<path d="M863.337 115.363C870.608 115.363 876.502 109.461 876.502 102.181C876.502 94.9015 870.608 89 863.337 89C856.065 89 850.171 94.9015 850.171 102.181C850.171 109.461 856.065 115.363 863.337 115.363Z" fill="#277AFF"/>
<path d="M866.347 97.866H861.937V100.422C862.501 100.158 863.101 100.026 863.737 100.026C864.409 100.026 865.009 100.182 865.537 100.494C866.065 100.806 866.479 101.262 866.779 101.862C867.079 102.462 867.229 103.17 867.229 103.986C867.229 104.838 867.031 105.594 866.635 106.254C866.251 106.902 865.693 107.406 864.961 107.766C864.241 108.126 863.407 108.306 862.459 108.306C860.815 108.306 859.465 107.694 858.409 106.47L859.993 104.994C860.653 105.774 861.439 106.164 862.351 106.164C862.975 106.164 863.455 105.978 863.791 105.606C864.139 105.234 864.313 104.7 864.313 104.004C864.313 102.648 863.743 101.97 862.603 101.97C862.363 101.97 862.129 102.006 861.901 102.078C861.673 102.138 861.421 102.246 861.145 102.402H859.219V95.832H866.671L866.347 97.866Z" fill="white"/>
<path d="M955.69 228.517H256.735L252.347 230.714C252.347 231.297 252.578 231.856 252.989 232.268C253.401 232.68 253.959 232.911 254.541 232.911H955.69C956.272 232.911 956.83 232.68 957.242 232.268C957.653 231.856 957.885 231.297 957.885 230.714C957.885 230.132 957.653 229.573 957.242 229.161C956.83 228.749 956.272 228.517 955.69 228.517Z" fill="#3F3D56"/>
<path d="M254.5 238C250.358 238 247 234.642 247 230.5C247 226.358 250.358 223 254.5 223C258.642 223 262 226.358 262 230.5C262 234.642 258.642 238 254.5 238Z" fill="#3F3D56"/>
<path d="M954.5 237C958.642 237 962 233.642 962 229.5C962 225.358 958.642 222 954.5 222C950.358 222 947 225.358 947 229.5C947 233.642 950.358 237 954.5 237Z" fill="#3F3D56"/>
<path d="M469.154 34.8285C469.154 35.169 469.165 35.5066 469.187 35.8415C469.31 37.7724 469.798 39.6626 470.625 41.4123C470.631 41.4272 470.638 41.4411 470.645 41.455C470.683 41.5361 470.723 41.6173 470.763 41.6973C471.009 42.1922 471.282 42.6732 471.58 43.1383C472.942 45.2734 474.809 47.0401 477.017 48.2822C479.224 49.5243 481.703 50.2036 484.235 50.2601L484.082 59.0385L482.092 57.9903L481.736 58.666L484.068 59.8935L483.783 76.1972L483.779 76.415L485.319 76.7576L485.315 76.5388L484.831 50.2612C486.869 50.2319 488.881 49.7981 490.75 48.9849C492.619 48.1717 494.308 46.9953 495.718 45.524C495.816 45.4237 495.912 45.3201 496.006 45.2177L496.016 45.2059C497.192 43.9242 498.142 42.4532 498.828 40.8551C498.813 40.8722 498.797 40.8882 498.782 40.9053C500.332 37.2814 500.437 33.202 499.076 29.5032C497.715 25.8043 494.991 22.766 491.462 21.0108C491.408 20.9841 491.354 20.9585 491.3 20.9318C487.81 19.2504 483.815 18.9419 480.107 20.0674C476.399 21.1929 473.25 23.6703 471.283 27.0086C471.189 27.1666 471.098 27.3278 471.011 27.49C469.789 29.7428 469.151 32.2657 469.154 34.8285V34.8285Z" fill="#E5E5E5"/>
<path d="M471.232 41.4634C460.058 41.4634 451 32.4054 451 21.2317C451 10.058 460.058 1 471.232 1C482.405 1 491.463 10.058 491.463 21.2317C491.463 32.4054 482.405 41.4634 471.232 41.4634Z" fill="#E5E5E5"/>
<path opacity="0.2" d="M486.17 7.71851C488.057 12.1329 488.313 17.0746 486.892 21.6604C485.471 26.2461 482.466 30.1773 478.414 32.7513C474.361 35.3253 469.525 36.3745 464.77 35.7113C460.016 35.0481 455.651 32.7158 452.458 29.1312C453.611 31.8282 455.336 34.2423 457.515 36.2063C459.693 38.1703 462.272 39.6371 465.074 40.5053C467.876 41.3734 470.833 41.6221 473.74 41.234C476.647 40.846 479.435 39.8305 481.911 38.2579C484.387 36.6854 486.491 34.5933 488.078 32.1267C489.666 29.6601 490.697 26.878 491.102 23.973C491.508 21.0681 491.276 18.1098 490.425 15.3031C489.573 12.4964 488.121 9.90843 486.17 7.71851V7.71851Z" fill="black"/>
<path d="M470.137 77.5935L472.204 77.014L472.199 76.7917L471.58 43.1384L471.549 41.4604L471.549 41.4115L471.44 35.5316L471.283 27.0096V27.0084L471.177 21.2319H471.12L471.011 27.4901L470.869 35.6356L470.768 41.4152V41.4579L470.763 41.6963V41.6976L470.567 52.9638L470.547 54.0833L470.141 77.3694L470.137 77.5935Z" fill="#3F3D56"/>
<path d="M467.958 51.5902L471.303 53.351L470.837 54.2362L467.492 52.4755L467.958 51.5902Z" fill="#3F3D56"/>
<path d="M436.268 254.598C437.804 254.598 438.992 254.922 439.832 255.57C440.672 256.206 441.092 257.16 441.092 258.432C441.092 259.788 440.654 260.796 439.778 261.456C438.902 262.116 437.738 262.446 436.286 262.446H434.72V267H433.01V254.598H436.268ZM436.214 261.096C437.21 261.096 437.966 260.904 438.482 260.52C439.01 260.136 439.274 259.446 439.274 258.45C439.274 257.562 439.01 256.92 438.482 256.524C437.966 256.128 437.222 255.93 436.25 255.93H434.72V261.096H436.214ZM447.149 257.298C447.485 257.298 447.797 257.334 448.085 257.406L447.779 259.026C447.491 258.954 447.215 258.918 446.951 258.918C446.363 258.918 445.889 259.134 445.529 259.566C445.169 259.998 444.887 260.67 444.683 261.582V267H443.027V257.514H444.449L444.611 259.44C444.863 258.732 445.205 258.198 445.637 257.838C446.069 257.478 446.573 257.298 447.149 257.298ZM456.59 261.978C456.59 262.254 456.578 262.536 456.554 262.824H450.506C450.578 263.868 450.842 264.636 451.298 265.128C451.754 265.62 452.342 265.866 453.062 265.866C453.518 265.866 453.938 265.8 454.322 265.668C454.706 265.536 455.108 265.326 455.528 265.038L456.248 266.028C455.24 266.82 454.136 267.216 452.936 267.216C451.616 267.216 450.584 266.784 449.84 265.92C449.108 265.056 448.742 263.868 448.742 262.356C448.742 261.372 448.898 260.502 449.21 259.746C449.534 258.978 449.99 258.378 450.578 257.946C451.178 257.514 451.88 257.298 452.684 257.298C453.944 257.298 454.91 257.712 455.582 258.54C456.254 259.368 456.59 260.514 456.59 261.978ZM454.952 261.492C454.952 260.556 454.766 259.842 454.394 259.35C454.022 258.858 453.464 258.612 452.72 258.612C451.364 258.612 450.626 259.608 450.506 261.6H454.952V261.492ZM466.578 253.698V267H465.12L464.958 265.686C464.646 266.166 464.256 266.544 463.788 266.82C463.32 267.084 462.798 267.216 462.222 267.216C461.094 267.216 460.212 266.772 459.576 265.884C458.952 264.996 458.64 263.802 458.64 262.302C458.64 261.33 458.79 260.466 459.09 259.71C459.39 258.954 459.822 258.366 460.386 257.946C460.95 257.514 461.61 257.298 462.366 257.298C463.338 257.298 464.19 257.688 464.922 258.468V253.5L466.578 253.698ZM462.582 265.902C463.086 265.902 463.518 265.788 463.878 265.56C464.238 265.32 464.586 264.966 464.922 264.498V259.854C464.61 259.446 464.274 259.14 463.914 258.936C463.566 258.72 463.17 258.612 462.726 258.612C461.994 258.612 461.424 258.918 461.016 259.53C460.62 260.142 460.422 261.054 460.422 262.266C460.422 263.49 460.608 264.402 460.98 265.002C461.352 265.602 461.886 265.902 462.582 265.902ZM471.648 257.514V267H469.992V257.514H471.648ZM470.802 252.96C471.15 252.96 471.432 253.068 471.648 253.284C471.864 253.5 471.972 253.77 471.972 254.094C471.972 254.418 471.864 254.688 471.648 254.904C471.432 255.108 471.15 255.21 470.802 255.21C470.466 255.21 470.19 255.108 469.974 254.904C469.758 254.688 469.65 254.418 469.65 254.094C469.65 253.77 469.758 253.5 469.974 253.284C470.19 253.068 470.466 252.96 470.802 252.96ZM476.728 253.5V267H475.072V253.698L476.728 253.5ZM482.182 257.514L478.69 261.708L482.578 267H480.598L476.836 261.816L480.328 257.514H482.182ZM489.071 266.568C488.447 267 487.739 267.216 486.947 267.216C486.143 267.216 485.513 266.988 485.057 266.532C484.613 266.064 484.391 265.392 484.391 264.516V258.792H482.735V257.514H484.391V255.372L486.047 255.174V257.514H488.297L488.117 258.792H486.047V264.444C486.047 264.936 486.131 265.296 486.299 265.524C486.479 265.74 486.773 265.848 487.181 265.848C487.553 265.848 487.973 265.722 488.441 265.47L489.071 266.568ZM494.087 257.298C495.419 257.298 496.451 257.742 497.183 258.63C497.927 259.518 498.299 260.724 498.299 262.248C498.299 263.232 498.131 264.102 497.795 264.858C497.459 265.602 496.973 266.184 496.337 266.604C495.701 267.012 494.945 267.216 494.069 267.216C492.737 267.216 491.699 266.772 490.955 265.884C490.211 264.996 489.839 263.79 489.839 262.266C489.839 261.282 490.007 260.418 490.343 259.674C490.679 258.918 491.165 258.336 491.801 257.928C492.437 257.508 493.199 257.298 494.087 257.298ZM494.087 258.63C492.443 258.63 491.621 259.842 491.621 262.266C491.621 264.678 492.437 265.884 494.069 265.884C495.701 265.884 496.517 264.672 496.517 262.248C496.517 259.836 495.707 258.63 494.087 258.63ZM505.157 257.298C505.493 257.298 505.805 257.334 506.093 257.406L505.787 259.026C505.499 258.954 505.223 258.918 504.959 258.918C504.371 258.918 503.897 259.134 503.537 259.566C503.177 259.998 502.895 260.67 502.691 261.582V267H501.035V257.514H502.457L502.619 259.44C502.871 258.732 503.213 258.198 503.645 257.838C504.077 257.478 504.581 257.298 505.157 257.298ZM512.613 254.598L512.397 255.75H510.219V261.636H508.833V255.75H506.547V254.598H512.613ZM520.533 261.636H519.183L519.021 257.838C519.009 257.562 519.003 257.232 519.003 256.848C519.003 256.512 519.021 256.158 519.057 255.786H519.039L517.419 260.898H516.213L514.431 255.822H514.413C514.449 256.218 514.467 256.638 514.467 257.082L514.449 257.838L514.305 261.636H513.009L513.297 254.598H515.187L516.825 259.512L518.319 254.598H520.263L520.533 261.636ZM463.672 276.598L461.152 289H458.956L456.67 278.614L454.366 289H452.224L449.704 276.598H451.378L453.376 287.506L455.77 276.598H457.588L460.036 287.506L462.106 276.598H463.672ZM467.491 279.514V289H465.835V279.514H467.491ZM466.645 274.96C466.993 274.96 467.275 275.068 467.491 275.284C467.707 275.5 467.815 275.77 467.815 276.094C467.815 276.418 467.707 276.688 467.491 276.904C467.275 277.108 466.993 277.21 466.645 277.21C466.309 277.21 466.033 277.108 465.817 276.904C465.601 276.688 465.493 276.418 465.493 276.094C465.493 275.77 465.601 275.5 465.817 275.284C466.033 275.068 466.309 274.96 466.645 274.96ZM476.477 279.514V280.774L471.527 287.614H476.531L476.333 289H469.655V287.758L474.587 280.918H470.069V279.514H476.477ZM484.899 286.786C484.899 287.17 484.965 287.458 485.097 287.65C485.229 287.83 485.427 287.968 485.691 288.064L485.313 289.216C484.821 289.156 484.425 289.018 484.125 288.802C483.825 288.586 483.603 288.25 483.459 287.794C482.823 288.742 481.881 289.216 480.633 289.216C479.697 289.216 478.959 288.952 478.419 288.424C477.879 287.896 477.609 287.206 477.609 286.354C477.609 285.346 477.969 284.572 478.689 284.032C479.421 283.492 480.453 283.222 481.785 283.222H483.243V282.52C483.243 281.848 483.081 281.368 482.757 281.08C482.433 280.792 481.935 280.648 481.263 280.648C480.567 280.648 479.715 280.816 478.707 281.152L478.293 279.946C479.469 279.514 480.561 279.298 481.569 279.298C482.685 279.298 483.519 279.574 484.071 280.126C484.623 280.666 484.899 281.44 484.899 282.448V286.786ZM481.011 287.974C481.959 287.974 482.703 287.482 483.243 286.498V284.32H482.001C480.249 284.32 479.373 284.968 479.373 286.264C479.373 286.828 479.511 287.254 479.787 287.542C480.063 287.83 480.471 287.974 481.011 287.974ZM492.422 279.298C492.758 279.298 493.07 279.334 493.358 279.406L493.052 281.026C492.764 280.954 492.488 280.918 492.224 280.918C491.636 280.918 491.162 281.134 490.802 281.566C490.442 281.998 490.16 282.67 489.956 283.582V289H488.3V279.514H489.722L489.884 281.44C490.136 280.732 490.478 280.198 490.91 279.838C491.342 279.478 491.846 279.298 492.422 279.298ZM502.042 275.698V289H500.584L500.422 287.686C500.11 288.166 499.72 288.544 499.252 288.82C498.784 289.084 498.262 289.216 497.686 289.216C496.558 289.216 495.676 288.772 495.04 287.884C494.416 286.996 494.104 285.802 494.104 284.302C494.104 283.33 494.254 282.466 494.554 281.71C494.854 280.954 495.286 280.366 495.85 279.946C496.414 279.514 497.074 279.298 497.83 279.298C498.802 279.298 499.654 279.688 500.386 280.468V275.5L502.042 275.698ZM498.046 287.902C498.55 287.902 498.982 287.788 499.342 287.56C499.702 287.32 500.05 286.966 500.386 286.498V281.854C500.074 281.446 499.738 281.14 499.378 280.936C499.03 280.72 498.634 280.612 498.19 280.612C497.458 280.612 496.888 280.918 496.48 281.53C496.084 282.142 495.886 283.054 495.886 284.266C495.886 285.49 496.072 286.402 496.444 287.002C496.816 287.602 497.35 287.902 498.046 287.902Z" fill="#333333"/>
<path d="M580.135 37.1477C574.731 39.8486 571.442 43.4158 571.442 47.3284C571.442 55.7569 586.693 62.5895 605.507 62.5895C613.686 62.5895 621.19 61.2969 627.062 59.1442C620.825 62.2617 611.772 64.2246 601.691 64.2246C582.878 64.2246 567.626 57.392 567.626 48.9635C567.626 44.1995 572.501 39.9464 580.135 37.1477Z" fill="#F1F1F1"/>
<path d="M568.115 42.9372C562.018 45.9849 558.305 50.01 558.305 54.4249C558.305 63.9355 575.515 71.6453 596.744 71.6453C605.973 71.6453 614.441 70.1867 621.067 67.7577C614.029 71.2754 603.813 73.4903 592.438 73.4903C571.21 73.4903 554 65.7805 554 56.2699C554 50.8943 559.501 46.0952 568.115 42.9372Z" fill="#F1F1F1"/>
<path d="M584.735 39.6978C580.928 41.6007 578.61 44.1139 578.61 46.8704C578.61 52.8085 589.356 57.6222 602.61 57.6222C607.774 57.689 612.911 56.868 617.797 55.1949C613.403 57.3913 607.024 58.7742 599.922 58.7742C586.668 58.7742 575.922 53.9604 575.922 48.0223C575.922 44.666 579.357 41.6695 584.735 39.6978Z" fill="#F1F1F1"/>
<path d="M638.228 38.6077C638.228 38.6077 637.391 50.836 613.41 50.836C589.428 50.836 582.268 38.6077 582.268 38.6077H638.228Z" fill="#3F3D56"/>
<path d="M604.188 6.52387C607.651 3.89373 611.996 2.70507 616.315 3.20683C612.455 4.13732 609.047 6.39741 606.687 9.59044C604.328 12.7835 603.169 16.7054 603.413 20.668C603.657 24.6306 605.289 28.3807 608.022 31.26C610.756 34.1393 614.416 35.964 618.36 36.4137C614.587 37.3245 610.616 36.9085 607.113 35.2356C603.611 33.5627 600.791 30.735 599.128 27.2278C597.465 23.7206 597.061 19.7478 597.982 15.9773C598.904 12.2068 601.095 8.86863 604.188 6.52387V6.52387Z" fill="#3F3D56"/>
<path d="M612.047 1H613.682V39.9214H612.047V1Z" fill="#3F3D56"/>
<path d="M586.442 254.382C587.186 254.382 587.81 254.478 588.314 254.67C588.83 254.862 589.352 255.174 589.88 255.606L588.944 256.704C588.188 256.092 587.39 255.786 586.55 255.786C585.518 255.786 584.684 256.182 584.048 256.974C583.424 257.766 583.112 259.038 583.112 260.79C583.112 262.494 583.424 263.754 584.048 264.57C584.672 265.374 585.5 265.776 586.532 265.776C587.06 265.776 587.522 265.686 587.918 265.506C588.314 265.326 588.734 265.074 589.178 264.75L590.024 265.83C589.64 266.226 589.148 266.556 588.548 266.82C587.948 267.084 587.258 267.216 586.478 267.216C585.47 267.216 584.57 266.97 583.778 266.478C582.998 265.974 582.386 265.242 581.942 264.282C581.51 263.31 581.294 262.146 581.294 260.79C581.294 259.434 581.522 258.276 581.978 257.316C582.434 256.344 583.052 255.612 583.832 255.12C584.612 254.628 585.482 254.382 586.442 254.382ZM590.384 262.068V260.664H595.478V262.068H590.384ZM604.793 254.598L604.613 256.056H601.175V267H599.465V256.056H595.937V254.598H604.793ZM612.855 261.978C612.855 262.254 612.843 262.536 612.819 262.824H606.771C606.843 263.868 607.107 264.636 607.563 265.128C608.019 265.62 608.607 265.866 609.327 265.866C609.783 265.866 610.203 265.8 610.587 265.668C610.971 265.536 611.373 265.326 611.793 265.038L612.513 266.028C611.505 266.82 610.401 267.216 609.201 267.216C607.881 267.216 606.849 266.784 606.105 265.92C605.373 265.056 605.007 263.868 605.007 262.356C605.007 261.372 605.163 260.502 605.475 259.746C605.799 258.978 606.255 258.378 606.843 257.946C607.443 257.514 608.145 257.298 608.949 257.298C610.209 257.298 611.175 257.712 611.847 258.54C612.519 259.368 612.855 260.514 612.855 261.978ZM611.217 261.492C611.217 260.556 611.031 259.842 610.659 259.35C610.287 258.858 609.729 258.612 608.985 258.612C607.629 258.612 606.891 259.608 606.771 261.6H611.217V261.492ZM618.074 257.298C618.722 257.298 619.304 257.388 619.82 257.568C620.336 257.748 620.828 258.018 621.296 258.378L620.594 259.422C620.162 259.146 619.748 258.942 619.352 258.81C618.968 258.678 618.56 258.612 618.128 258.612C617.588 258.612 617.162 258.726 616.85 258.954C616.538 259.17 616.382 259.47 616.382 259.854C616.382 260.238 616.526 260.538 616.814 260.754C617.114 260.97 617.648 261.18 618.416 261.384C619.472 261.648 620.258 262.008 620.774 262.464C621.302 262.92 621.566 263.544 621.566 264.336C621.566 265.272 621.2 265.986 620.468 266.478C619.748 266.97 618.866 267.216 617.822 267.216C616.382 267.216 615.188 266.802 614.24 265.974L615.122 264.966C615.926 265.578 616.814 265.884 617.786 265.884C618.41 265.884 618.902 265.758 619.262 265.506C619.634 265.242 619.82 264.888 619.82 264.444C619.82 264.12 619.754 263.862 619.622 263.67C619.49 263.466 619.262 263.292 618.938 263.148C618.614 262.992 618.14 262.83 617.516 262.662C616.508 262.398 615.776 262.044 615.32 261.6C614.876 261.156 614.654 260.592 614.654 259.908C614.654 259.416 614.798 258.972 615.086 258.576C615.386 258.168 615.794 257.856 616.31 257.64C616.838 257.412 617.426 257.298 618.074 257.298ZM628.69 266.568C628.066 267 627.358 267.216 626.566 267.216C625.762 267.216 625.132 266.988 624.676 266.532C624.232 266.064 624.01 265.392 624.01 264.516V258.792H622.354V257.514H624.01V255.372L625.666 255.174V257.514H627.916L627.736 258.792H625.666V264.444C625.666 264.936 625.75 265.296 625.918 265.524C626.098 265.74 626.392 265.848 626.8 265.848C627.172 265.848 627.592 265.722 628.06 265.47L628.69 266.568Z" fill="#333333"/>
<path d="M825.357 11.1282L821.5 8.04321C824.497 7.7126 825.728 9.34684 826.232 10.6404C828.573 9.66828 831.121 10.9422 831.121 10.9422L823.403 13.744C823.793 12.7041 824.471 11.7967 825.357 11.1282V11.1282Z" fill="#3F3D56"/>
<path d="M844.077 20.895L840.22 17.8099C843.216 17.4793 844.448 19.1136 844.951 20.4071C847.292 19.435 849.841 20.709 849.841 20.709L842.123 23.5107C842.513 22.4708 843.19 21.5634 844.077 20.895V20.895Z" fill="#3F3D56"/>
<path d="M825.357 36.359L821.5 33.2739C824.497 32.9433 825.728 34.5775 826.232 35.8711C828.573 34.899 831.121 36.1729 831.121 36.1729L823.403 38.9747C823.793 37.9348 824.471 37.0274 825.357 36.359V36.359Z" fill="#3F3D56"/>
<path d="M883.183 40.9297C876.765 40.9297 871.562 35.7266 871.562 29.3083C871.562 22.89 876.765 17.687 883.183 17.687C889.602 17.687 894.805 22.89 894.805 29.3083C894.805 35.7266 889.602 40.9297 883.183 40.9297Z" fill="#FF6583"/>
<path d="M846.741 65.1191H903.752C903.824 65.12 903.895 65.1144 903.965 65.1022L877.001 18.3999C876.837 18.109 876.598 17.867 876.309 17.6985C876.02 17.5301 875.692 17.4414 875.358 17.4414C875.024 17.4414 874.696 17.5301 874.407 17.6985C874.118 17.867 873.88 18.109 873.715 18.3999L855.62 49.7397L854.753 51.2391L846.741 65.1191Z" fill="#277AFF"/>
<path d="M815 65.1197H864.309L854.754 51.2408L854.067 50.2406L841.616 32.154C841.396 31.8773 841.12 31.65 840.806 31.487C840.492 31.3239 840.148 31.2287 839.795 31.2077C839.442 31.1866 839.088 31.2401 838.757 31.3646C838.426 31.4892 838.125 31.682 837.874 31.9306C837.809 32.0012 837.749 32.0758 837.694 32.154L815 65.1197Z" fill="#277AFF"/>
<path d="M718.931 254.598L714.971 267H713.135L709.139 254.598H710.975L714.089 265.146L717.203 254.598H718.931ZM719.656 262.068V260.664H724.75V262.068H719.656ZM734.065 254.598L733.885 256.056H730.447V267H728.737V256.056H725.209V254.598H734.065ZM742.128 261.978C742.128 262.254 742.116 262.536 742.092 262.824H736.044C736.116 263.868 736.38 264.636 736.836 265.128C737.292 265.62 737.88 265.866 738.6 265.866C739.056 265.866 739.476 265.8 739.86 265.668C740.244 265.536 740.646 265.326 741.066 265.038L741.786 266.028C740.778 266.82 739.674 267.216 738.474 267.216C737.154 267.216 736.122 266.784 735.378 265.92C734.646 265.056 734.28 263.868 734.28 262.356C734.28 261.372 734.436 260.502 734.748 259.746C735.072 258.978 735.528 258.378 736.116 257.946C736.716 257.514 737.418 257.298 738.222 257.298C739.482 257.298 740.448 257.712 741.12 258.54C741.792 259.368 742.128 260.514 742.128 261.978ZM740.49 261.492C740.49 260.556 740.304 259.842 739.932 259.35C739.56 258.858 739.002 258.612 738.258 258.612C736.902 258.612 736.164 259.608 736.044 261.6H740.49V261.492ZM747.347 257.298C747.995 257.298 748.577 257.388 749.093 257.568C749.609 257.748 750.101 258.018 750.569 258.378L749.867 259.422C749.435 259.146 749.021 258.942 748.625 258.81C748.241 258.678 747.833 258.612 747.401 258.612C746.861 258.612 746.435 258.726 746.123 258.954C745.811 259.17 745.655 259.47 745.655 259.854C745.655 260.238 745.799 260.538 746.087 260.754C746.387 260.97 746.921 261.18 747.688 261.384C748.745 261.648 749.531 262.008 750.047 262.464C750.575 262.92 750.839 263.544 750.839 264.336C750.839 265.272 750.473 265.986 749.741 266.478C749.021 266.97 748.139 267.216 747.095 267.216C745.655 267.216 744.461 266.802 743.513 265.974L744.395 264.966C745.199 265.578 746.087 265.884 747.059 265.884C747.683 265.884 748.175 265.758 748.535 265.506C748.907 265.242 749.093 264.888 749.093 264.444C749.093 264.12 749.027 263.862 748.895 263.67C748.763 263.466 748.535 263.292 748.211 263.148C747.887 262.992 747.413 262.83 746.789 262.662C745.781 262.398 745.049 262.044 744.593 261.6C744.149 261.156 743.927 260.592 743.927 259.908C743.927 259.416 744.071 258.972 744.359 258.576C744.659 258.168 745.067 257.856 745.583 257.64C746.111 257.412 746.699 257.298 747.347 257.298ZM757.963 266.568C757.339 267 756.631 267.216 755.839 267.216C755.035 267.216 754.405 266.988 753.949 266.532C753.505 266.064 753.283 265.392 753.283 264.516V258.792H751.627V257.514H753.283V255.372L754.939 255.174V257.514H757.189L757.009 258.792H754.939V264.444C754.939 264.936 755.023 265.296 755.191 265.524C755.371 265.74 755.665 265.848 756.073 265.848C756.445 265.848 756.865 265.722 757.333 265.47L757.963 266.568Z" fill="#333333"/>
<path d="M813.974 254.598L809.978 262.23V267H808.25V262.248L804.254 254.598H806.144L809.168 260.736L812.192 254.598H813.974ZM818.28 257.298C819.612 257.298 820.644 257.742 821.376 258.63C822.12 259.518 822.492 260.724 822.492 262.248C822.492 263.232 822.324 264.102 821.988 264.858C821.652 265.602 821.166 266.184 820.53 266.604C819.894 267.012 819.138 267.216 818.262 267.216C816.93 267.216 815.892 266.772 815.148 265.884C814.404 264.996 814.032 263.79 814.032 262.266C814.032 261.282 814.2 260.418 814.536 259.674C814.872 258.918 815.358 258.336 815.994 257.928C816.63 257.508 817.392 257.298 818.28 257.298ZM818.28 258.63C816.636 258.63 815.814 259.842 815.814 262.266C815.814 264.678 816.63 265.884 818.262 265.884C819.894 265.884 820.71 264.672 820.71 262.248C820.71 259.836 819.9 258.63 818.28 258.63ZM832.284 267H830.862L830.736 265.524C830.376 266.112 829.962 266.544 829.494 266.82C829.026 267.084 828.456 267.216 827.784 267.216C826.956 267.216 826.308 266.964 825.84 266.46C825.372 265.956 825.138 265.242 825.138 264.318V257.514H826.794V264.138C826.794 264.786 826.908 265.248 827.136 265.524C827.364 265.788 827.736 265.92 828.252 265.92C829.176 265.92 829.968 265.374 830.628 264.282V257.514H832.284V267ZM839.826 257.298C840.162 257.298 840.474 257.334 840.762 257.406L840.456 259.026C840.168 258.954 839.892 258.918 839.628 258.918C839.04 258.918 838.566 259.134 838.206 259.566C837.846 259.998 837.564 260.67 837.36 261.582V267H835.704V257.514H837.126L837.288 259.44C837.54 258.732 837.882 258.198 838.314 257.838C838.746 257.478 839.25 257.298 839.826 257.298ZM851.767 257.298C852.979 257.298 853.867 257.73 854.431 258.594C854.995 259.458 855.277 260.676 855.277 262.248C855.277 263.736 854.953 264.936 854.305 265.848C853.657 266.76 852.739 267.216 851.551 267.216C850.495 267.216 849.667 266.856 849.067 266.136V270.636L847.411 270.834V257.514H848.833L848.959 258.792C849.307 258.312 849.727 257.946 850.219 257.694C850.711 257.43 851.227 257.298 851.767 257.298ZM851.155 265.866C852.715 265.866 853.495 264.66 853.495 262.248C853.495 259.824 852.781 258.612 851.353 258.612C850.885 258.612 850.459 258.75 850.075 259.026C849.691 259.302 849.355 259.656 849.067 260.088V264.714C849.307 265.086 849.607 265.374 849.967 265.578C850.327 265.77 850.723 265.866 851.155 265.866ZM862.221 257.298C862.557 257.298 862.869 257.334 863.157 257.406L862.851 259.026C862.563 258.954 862.287 258.918 862.023 258.918C861.435 258.918 860.961 259.134 860.601 259.566C860.241 259.998 859.959 260.67 859.755 261.582V267H858.099V257.514H859.521L859.683 259.44C859.935 258.732 860.277 258.198 860.709 257.838C861.141 257.478 861.645 257.298 862.221 257.298ZM871.661 261.978C871.661 262.254 871.649 262.536 871.625 262.824H865.577C865.649 263.868 865.913 264.636 866.369 265.128C866.825 265.62 867.413 265.866 868.133 265.866C868.589 265.866 869.009 265.8 869.393 265.668C869.777 265.536 870.179 265.326 870.599 265.038L871.319 266.028C870.311 266.82 869.207 267.216 868.007 267.216C866.687 267.216 865.655 266.784 864.911 265.92C864.179 265.056 863.813 263.868 863.813 262.356C863.813 261.372 863.969 260.502 864.281 259.746C864.605 258.978 865.061 258.378 865.649 257.946C866.249 257.514 866.951 257.298 867.755 257.298C869.015 257.298 869.981 257.712 870.653 258.54C871.325 259.368 871.661 260.514 871.661 261.978ZM870.023 261.492C870.023 260.556 869.837 259.842 869.465 259.35C869.093 258.858 868.535 258.612 867.791 258.612C866.435 258.612 865.697 259.608 865.577 261.6H870.023V261.492ZM881.65 253.698V267H880.192L880.03 265.686C879.718 266.166 879.328 266.544 878.86 266.82C878.392 267.084 877.87 267.216 877.294 267.216C876.166 267.216 875.284 266.772 874.648 265.884C874.024 264.996 873.712 263.802 873.712 262.302C873.712 261.33 873.862 260.466 874.162 259.71C874.462 258.954 874.894 258.366 875.458 257.946C876.022 257.514 876.682 257.298 877.438 257.298C878.41 257.298 879.262 257.688 879.994 258.468V253.5L881.65 253.698ZM877.654 265.902C878.158 265.902 878.59 265.788 878.95 265.56C879.31 265.32 879.658 264.966 879.994 264.498V259.854C879.682 259.446 879.346 259.14 878.986 258.936C878.638 258.72 878.242 258.612 877.798 258.612C877.066 258.612 876.496 258.918 876.088 259.53C875.692 260.142 875.494 261.054 875.494 262.266C875.494 263.49 875.68 264.402 876.052 265.002C876.424 265.602 876.958 265.902 877.654 265.902ZM886.72 257.514V267H885.064V257.514H886.72ZM885.874 252.96C886.222 252.96 886.504 253.068 886.72 253.284C886.936 253.5 887.044 253.77 887.044 254.094C887.044 254.418 886.936 254.688 886.72 254.904C886.504 255.108 886.222 255.21 885.874 255.21C885.538 255.21 885.262 255.108 885.046 254.904C884.83 254.688 884.722 254.418 884.722 254.094C884.722 253.77 884.83 253.5 885.046 253.284C885.262 253.068 885.538 252.96 885.874 252.96ZM893.6 257.298C894.164 257.298 894.68 257.382 895.148 257.55C895.616 257.706 896.066 257.964 896.498 258.324L895.706 259.368C895.37 259.128 895.04 258.954 894.716 258.846C894.404 258.726 894.056 258.666 893.672 258.666C892.904 258.666 892.304 258.972 891.872 259.584C891.452 260.196 891.242 261.102 891.242 262.302C891.242 263.502 891.452 264.39 891.872 264.966C892.292 265.53 892.892 265.812 893.672 265.812C894.044 265.812 894.386 265.758 894.698 265.65C895.01 265.53 895.358 265.344 895.742 265.092L896.498 266.172C895.634 266.868 894.668 267.216 893.6 267.216C892.316 267.216 891.302 266.784 890.558 265.92C889.826 265.056 889.46 263.862 889.46 262.338C889.46 261.33 889.628 260.448 889.964 259.692C890.3 258.936 890.774 258.348 891.386 257.928C892.01 257.508 892.748 257.298 893.6 257.298ZM903.527 266.568C902.903 267 902.195 267.216 901.403 267.216C900.599 267.216 899.969 266.988 899.513 266.532C899.069 266.064 898.847 265.392 898.847 264.516V258.792H897.191V257.514H898.847V255.372L900.503 255.174V257.514H902.753L902.573 258.792H900.503V264.444C900.503 264.936 900.587 265.296 900.755 265.524C900.935 265.74 901.229 265.848 901.637 265.848C902.009 265.848 902.429 265.722 902.897 265.47L903.527 266.568ZM912.144 261.978C912.144 262.254 912.132 262.536 912.108 262.824H906.06C906.132 263.868 906.396 264.636 906.852 265.128C907.308 265.62 907.896 265.866 908.616 265.866C909.072 265.866 909.492 265.8 909.876 265.668C910.26 265.536 910.662 265.326 911.082 265.038L911.802 266.028C910.794 266.82 909.69 267.216 908.49 267.216C907.17 267.216 906.138 266.784 905.394 265.92C904.662 265.056 904.296 263.868 904.296 262.356C904.296 261.372 904.452 260.502 904.764 259.746C905.088 258.978 905.544 258.378 906.132 257.946C906.732 257.514 907.434 257.298 908.238 257.298C909.498 257.298 910.464 257.712 911.136 258.54C911.808 259.368 912.144 260.514 912.144 261.978ZM910.506 261.492C910.506 260.556 910.32 259.842 909.948 259.35C909.576 258.858 909.018 258.612 908.274 258.612C906.918 258.612 906.18 259.608 906.06 261.6H910.506V261.492ZM922.132 253.698V267H920.674L920.512 265.686C920.2 266.166 919.81 266.544 919.342 266.82C918.874 267.084 918.352 267.216 917.776 267.216C916.648 267.216 915.766 266.772 915.13 265.884C914.506 264.996 914.194 263.802 914.194 262.302C914.194 261.33 914.344 260.466 914.644 259.71C914.944 258.954 915.376 258.366 915.94 257.946C916.504 257.514 917.164 257.298 917.92 257.298C918.892 257.298 919.744 257.688 920.476 258.468V253.5L922.132 253.698ZM918.136 265.902C918.64 265.902 919.072 265.788 919.432 265.56C919.792 265.32 920.14 264.966 920.476 264.498V259.854C920.164 259.446 919.828 259.14 919.468 258.936C919.12 258.72 918.724 258.612 918.28 258.612C917.548 258.612 916.978 258.918 916.57 259.53C916.174 260.142 915.976 261.054 915.976 262.266C915.976 263.49 916.162 264.402 916.534 265.002C916.906 265.602 917.44 265.902 918.136 265.902ZM830.956 288.568C830.332 289 829.624 289.216 828.832 289.216C828.028 289.216 827.398 288.988 826.942 288.532C826.498 288.064 826.276 287.392 826.276 286.516V280.792H824.62V279.514H826.276V277.372L827.932 277.174V279.514H830.182L830.002 280.792H827.932V286.444C827.932 286.936 828.016 287.296 828.184 287.524C828.364 287.74 828.658 287.848 829.066 287.848C829.438 287.848 829.858 287.722 830.326 287.47L830.956 288.568ZM839.572 283.978C839.572 284.254 839.56 284.536 839.536 284.824H833.488C833.56 285.868 833.824 286.636 834.28 287.128C834.736 287.62 835.324 287.866 836.044 287.866C836.5 287.866 836.92 287.8 837.304 287.668C837.688 287.536 838.09 287.326 838.51 287.038L839.23 288.028C838.222 288.82 837.118 289.216 835.918 289.216C834.598 289.216 833.566 288.784 832.822 287.92C832.09 287.056 831.724 285.868 831.724 284.356C831.724 283.372 831.88 282.502 832.192 281.746C832.516 280.978 832.972 280.378 833.56 279.946C834.16 279.514 834.862 279.298 835.666 279.298C836.926 279.298 837.892 279.712 838.564 280.54C839.236 281.368 839.572 282.514 839.572 283.978ZM837.934 283.492C837.934 282.556 837.748 281.842 837.376 281.35C837.004 280.858 836.446 280.612 835.702 280.612C834.346 280.612 833.608 281.608 833.488 283.6H837.934V283.492ZM844.791 279.298C845.439 279.298 846.021 279.388 846.537 279.568C847.053 279.748 847.545 280.018 848.013 280.378L847.311 281.422C846.879 281.146 846.465 280.942 846.069 280.81C845.685 280.678 845.277 280.612 844.845 280.612C844.305 280.612 843.879 280.726 843.567 280.954C843.255 281.17 843.099 281.47 843.099 281.854C843.099 282.238 843.243 282.538 843.531 282.754C843.831 282.97 844.365 283.18 845.133 283.384C846.189 283.648 846.975 284.008 847.491 284.464C848.019 284.92 848.283 285.544 848.283 286.336C848.283 287.272 847.917 287.986 847.185 288.478C846.465 288.97 845.583 289.216 844.539 289.216C843.099 289.216 841.905 288.802 840.957 287.974L841.839 286.966C842.643 287.578 843.531 287.884 844.503 287.884C845.127 287.884 845.619 287.758 845.979 287.506C846.351 287.242 846.537 286.888 846.537 286.444C846.537 286.12 846.471 285.862 846.339 285.67C846.207 285.466 845.979 285.292 845.655 285.148C845.331 284.992 844.857 284.83 844.233 284.662C843.225 284.398 842.493 284.044 842.037 283.6C841.593 283.156 841.371 282.592 841.371 281.908C841.371 281.416 841.515 280.972 841.803 280.576C842.103 280.168 842.511 279.856 843.027 279.64C843.555 279.412 844.143 279.298 844.791 279.298ZM855.407 288.568C854.783 289 854.075 289.216 853.283 289.216C852.479 289.216 851.849 288.988 851.393 288.532C850.949 288.064 850.727 287.392 850.727 286.516V280.792H849.071V279.514H850.727V277.372L852.383 277.174V279.514H854.633L854.453 280.792H852.383V286.444C852.383 286.936 852.467 287.296 852.635 287.524C852.815 287.74 853.109 287.848 853.517 287.848C853.889 287.848 854.309 287.722 854.777 287.47L855.407 288.568ZM864.461 279.298C865.109 279.298 865.691 279.388 866.207 279.568C866.723 279.748 867.215 280.018 867.683 280.378L866.981 281.422C866.549 281.146 866.135 280.942 865.739 280.81C865.355 280.678 864.947 280.612 864.515 280.612C863.975 280.612 863.549 280.726 863.237 280.954C862.925 281.17 862.769 281.47 862.769 281.854C862.769 282.238 862.913 282.538 863.201 282.754C863.501 282.97 864.035 283.18 864.803 283.384C865.859 283.648 866.645 284.008 867.161 284.464C867.689 284.92 867.953 285.544 867.953 286.336C867.953 287.272 867.587 287.986 866.855 288.478C866.135 288.97 865.253 289.216 864.209 289.216C862.769 289.216 861.575 288.802 860.627 287.974L861.509 286.966C862.313 287.578 863.201 287.884 864.173 287.884C864.797 287.884 865.289 287.758 865.649 287.506C866.021 287.242 866.207 286.888 866.207 286.444C866.207 286.12 866.141 285.862 866.009 285.67C865.877 285.466 865.649 285.292 865.325 285.148C865.001 284.992 864.527 284.83 863.903 284.662C862.895 284.398 862.163 284.044 861.707 283.6C861.263 283.156 861.041 282.592 861.041 281.908C861.041 281.416 861.185 280.972 861.473 280.576C861.773 280.168 862.181 279.856 862.697 279.64C863.225 279.412 863.813 279.298 864.461 279.298ZM873.745 279.298C874.309 279.298 874.825 279.382 875.293 279.55C875.761 279.706 876.211 279.964 876.643 280.324L875.851 281.368C875.515 281.128 875.185 280.954 874.861 280.846C874.549 280.726 874.201 280.666 873.817 280.666C873.049 280.666 872.449 280.972 872.017 281.584C871.597 282.196 871.387 283.102 871.387 284.302C871.387 285.502 871.597 286.39 872.017 286.966C872.437 287.53 873.037 287.812 873.817 287.812C874.189 287.812 874.531 287.758 874.843 287.65C875.155 287.53 875.503 287.344 875.887 287.092L876.643 288.172C875.779 288.868 874.813 289.216 873.745 289.216C872.461 289.216 871.447 288.784 870.703 287.92C869.971 287.056 869.605 285.862 869.605 284.338C869.605 283.33 869.773 282.448 870.109 281.692C870.445 280.936 870.919 280.348 871.531 279.928C872.155 279.508 872.893 279.298 873.745 279.298ZM882.097 279.298C883.429 279.298 884.461 279.742 885.193 280.63C885.937 281.518 886.309 282.724 886.309 284.248C886.309 285.232 886.141 286.102 885.805 286.858C885.469 287.602 884.983 288.184 884.347 288.604C883.711 289.012 882.955 289.216 882.079 289.216C880.747 289.216 879.709 288.772 878.965 287.884C878.221 286.996 877.849 285.79 877.849 284.266C877.849 283.282 878.017 282.418 878.353 281.674C878.689 280.918 879.175 280.336 879.811 279.928C880.447 279.508 881.209 279.298 882.097 279.298ZM882.097 280.63C880.453 280.63 879.631 281.842 879.631 284.266C879.631 286.678 880.447 287.884 882.079 287.884C883.711 287.884 884.527 286.672 884.527 284.248C884.527 281.836 883.717 280.63 882.097 280.63ZM893.167 279.298C893.503 279.298 893.815 279.334 894.103 279.406L893.797 281.026C893.509 280.954 893.233 280.918 892.969 280.918C892.381 280.918 891.907 281.134 891.547 281.566C891.187 281.998 890.905 282.67 890.701 283.582V289H889.045V279.514H890.467L890.629 281.44C890.881 280.732 891.223 280.198 891.655 279.838C892.087 279.478 892.591 279.298 893.167 279.298ZM902.607 283.978C902.607 284.254 902.595 284.536 902.571 284.824H896.523C896.595 285.868 896.859 286.636 897.315 287.128C897.771 287.62 898.359 287.866 899.079 287.866C899.535 287.866 899.955 287.8 900.339 287.668C900.723 287.536 901.125 287.326 901.545 287.038L902.265 288.028C901.257 288.82 900.153 289.216 898.953 289.216C897.633 289.216 896.601 288.784 895.857 287.92C895.125 287.056 894.759 285.868 894.759 284.356C894.759 283.372 894.915 282.502 895.227 281.746C895.551 280.978 896.007 280.378 896.595 279.946C897.195 279.514 897.897 279.298 898.701 279.298C899.961 279.298 900.927 279.712 901.599 280.54C902.271 281.368 902.607 282.514 902.607 283.978ZM900.969 283.492C900.969 282.556 900.783 281.842 900.411 281.35C900.039 280.858 899.481 280.612 898.737 280.612C897.381 280.612 896.643 281.608 896.523 283.6H900.969V283.492Z" fill="#333333"/>
<path d="M736.773 50.3154C736.712 49.7486 736.442 49.2249 736.015 48.8468C735.589 48.4688 735.037 48.2636 734.467 48.2715C733.947 48.268 733.442 48.439 733.032 48.7571C732.621 49.0753 732.33 49.522 732.204 50.0257V50.0257L729.941 61.0134C729.867 61.3346 729.828 61.6632 729.826 61.993C729.826 64.4708 731.899 66.1926 734.467 66.1926C737.034 66.1926 739.109 64.4708 739.109 61.993C739.107 61.5961 739.053 61.201 738.948 60.8182L736.773 50.3154Z" fill="#3F3D56"/>
<path d="M753.888 55.2298C753.658 55.0281 753.41 54.8471 753.148 54.689L744.504 48.6482C743.662 48.1198 742.764 48.1347 742.111 48.7725C741.826 49.0436 741.645 49.406 741.6 49.7967C741.554 50.1874 741.647 50.5816 741.862 50.9109L748.389 59.4891C748.538 59.6971 748.704 59.8922 748.886 60.0722C750.018 61.3366 752.526 61.4062 753.905 60.0722C755.265 58.7158 755.249 56.299 753.888 55.2298Z" fill="#3F3D56"/>
<path d="M760.384 46.2812H751.629C751.348 46.2705 751.075 46.3711 750.868 46.5611C750.661 46.7511 750.538 47.0151 750.525 47.2956C750.521 47.5543 750.603 47.807 750.759 48.0134C750.915 48.2198 751.135 48.3681 751.385 48.4344L759.644 50.9893C760.844 51.269 762.46 50.1998 762.46 48.8646C762.46 47.1663 761.515 46.2812 760.384 46.2812Z" fill="#3F3D56"/>
<path d="M718.726 47.2906C718.717 47.1464 718.679 47.0054 718.615 46.8759C718.55 46.7465 718.461 46.6311 718.351 46.5367C718.242 46.4422 718.115 46.3705 717.977 46.3258C717.84 46.281 717.695 46.2642 717.551 46.2761H708.796C707.694 46.2761 706.764 47.4671 706.764 48.8024C706.764 50.1376 708.333 51.2689 709.536 50.9892L717.919 48.4344C718.17 48.3759 718.392 48.2271 718.54 48.0162C718.689 47.8053 718.755 47.547 718.726 47.2906V47.2906Z" fill="#3F3D56"/>
<path d="M724.734 48.6581L716.088 54.6729C715.819 54.824 715.569 55.0054 715.342 55.2137C714.706 55.8049 714.331 56.6245 714.3 57.4921C714.269 58.3597 714.583 59.2042 715.174 59.84C715.228 59.8978 715.284 59.9537 715.342 60.0076C716.02 60.6482 716.918 61.005 717.851 61.005C718.784 61.005 719.681 60.6482 720.36 60.0076C720.544 59.8307 720.711 59.6358 720.857 59.4257L727.389 50.896C727.607 50.571 727.703 50.1785 727.657 49.7894C727.611 49.4004 727.428 49.0405 727.14 48.775C726.818 48.4743 726.399 48.2975 725.959 48.2761C725.518 48.2547 725.084 48.3901 724.734 48.6581V48.6581Z" fill="#3F3D56"/>
<path d="M738.184 36.9036C738.285 36.7561 738.34 36.5827 738.345 36.4043C738.345 35.3513 736.27 34.6196 733.702 34.6196C731.135 34.6196 729.062 35.3513 729.062 36.4043C729.065 36.5505 729.105 36.6935 729.177 36.8207L731.44 41.4903C731.699 41.9309 732.634 42.2389 733.702 42.2358C734.907 42.2358 735.908 41.8549 736.009 41.3672L738.184 36.9036Z" fill="#3F3D56"/>
<path d="M753.141 37.2206C751.762 36.6537 749.254 36.6833 748.122 37.2206C747.951 37.2918 747.785 37.3746 747.625 37.4684L741.098 41.1141C740.654 41.4028 740.759 41.7851 741.347 42.0228C742.119 42.2905 742.956 42.309 743.74 42.0757L752.384 39.5084C752.634 39.4448 752.881 39.3681 753.124 39.2786C754.485 38.8242 754.501 37.7971 753.141 37.2206Z" fill="#3F3D56"/>
<path d="M761.696 41.9838C761.696 41.4163 760.079 40.9619 758.88 41.0808L750.621 42.1666C750.128 42.2358 749.761 42.3964 749.761 42.6505C749.761 42.9047 750.299 43.0817 750.865 43.0817H759.619C760.751 43.0817 761.696 42.7055 761.696 41.9838Z" fill="#3F3D56"/>
<path d="M717.155 42.1665L708.772 41.0808C707.569 40.9619 706 41.4427 706 42.0101C706 42.5776 706.93 43.0838 708.033 43.0838H716.787C717.397 43.0838 717.962 42.9168 717.962 42.6526C717.962 42.3884 717.701 42.2357 717.155 42.1665Z" fill="#3F3D56"/>
<path d="M726.376 42.0218C726.987 41.7803 727.06 41.4152 726.624 41.1204L720.093 37.4954C719.934 37.3997 719.768 37.317 719.595 37.2481C717.971 36.6829 716.203 36.6829 714.578 37.2481C714.52 37.271 714.464 37.2947 714.41 37.3193C713.179 37.8819 713.254 38.7622 714.578 39.2854C714.821 39.3789 715.07 39.4557 715.324 39.5153L723.97 42.0714C724.758 42.3054 725.599 42.288 726.376 42.0218Z" fill="#3F3D56"/>
<path d="M751.508 36.1477C751.508 49.6514 743.982 49.9012 734.699 49.9012C725.415 49.9012 710.173 47.2298 717.889 36.1477C726.027 24.4593 739.988 2.17996 734.699 1C734.699 1 751.508 22.644 751.508 36.1477Z" fill="#F9A825"/>
<path opacity="0.5" d="M740.618 44.4571C740.618 49.8023 737.639 49.9012 733.965 49.9012C730.29 49.9012 724.257 48.8437 727.311 44.4571C730.532 39.8304 736.059 31.0115 733.965 30.5444C733.965 30.5444 740.618 39.1119 740.618 44.4571Z" fill="#FF6584"/>
</svg>
