<svg width="304" height="304" viewBox="0 0 304 304" fill="none" xmlns="http://www.w3.org/2000/svg">
<g filter="url(#filter0_d_720_1555)">
<path d="M2 50C2 22.3858 24.3858 0 52 0H252C279.614 0 302 22.3858 302 50V250C302 277.614 279.614 300 252 300H52C24.3858 300 2 277.614 2 250V50Z" fill="#E5E5E5"/>
</g>
<g clip-path="url(#clip0_720_1555)">
<path fill-rule="evenodd" clip-rule="evenodd" d="M227.482 76.0913H230.542V112.077H227.482V76.0913Z" fill="black"/>
<path d="M265.251 103.985H262.031V87.0533H256.237V84.293H271.043V87.0533H265.251V103.985Z" fill="black"/>
<path d="M61.9323 64.2657C74.6919 71.4897 77.6619 87.6896 68.7843 104.07C60.9843 118.482 43.9443 124.638 31.2519 117.294C18.5595 109.962 16.0767 89.5014 21.5319 77.7294C29.4519 60.6294 47.8323 56.2857 61.9311 64.2657" fill="#007FA3"/>
<path d="M61.6335 76.4091C63.9783 79.1811 65.0138 82.8415 64.475 86.4415C63.8606 90.4855 61.427 94.0252 57.875 96.0532C54.5282 97.8532 50.765 98.7651 46.9622 98.6571C46.9322 99.2811 46.8075 101.417 46.7463 101.753C46.6815 102.137 46.5158 102.497 46.2662 102.797C45.7706 103.349 45.1167 103.733 44.3931 103.901C43.8903 104.045 43.3695 104.129 42.8463 104.141C42.7791 104.141 42.713 104.141 42.647 104.129C42.1958 104.081 41.7747 103.877 41.4579 103.553C41.1639 103.217 40.9887 102.797 40.9611 102.353L40.9286 101.933C40.847 101.573 40.3898 83.1772 40.4786 83.5012C40.5458 81.3052 44.1014 80.9211 46.0322 81.3051C47.963 81.6891 47.4723 84.0531 47.4243 86.9331C47.4243 86.9331 47.3318 90.7374 47.153 94.7454C49.337 94.6494 51.4719 94.0615 53.4051 93.0415C56.9295 91.5895 59.1903 88.0731 59.0583 84.2571C59.0583 80.1171 55.0275 75.4733 47.5899 75.4733C40.1523 75.4733 36.9627 77.3571 33.3615 80.3331C32.5515 81.0051 31.9214 81.6771 31.3322 82.1331C30.743 82.5771 29.1722 82.6371 28.751 81.6051C28.2446 80.3451 29.1926 78.9414 29.7494 78.2694C31.2762 76.4698 33.1128 74.9577 35.1722 73.8051C38.453 71.9331 42.1418 70.8654 45.9218 70.7214C50.1434 70.6254 56.8046 70.961 61.6034 76.385L61.6335 76.4091ZM45.509 106.865C45.1382 106.565 44.7062 106.361 44.2442 106.265C44.0954 106.229 43.943 106.217 43.7918 106.217C42.911 106.241 42.0974 106.709 41.615 107.441C41.1746 108.065 40.9922 108.833 41.1062 109.577C41.165 110.009 41.3427 110.429 41.6175 110.765C41.9643 111.137 42.4143 111.413 42.9111 111.533C43.2303 111.617 43.559 111.665 43.8902 111.665C44.5634 111.677 45.221 111.461 45.7502 111.041C46.3262 110.585 46.6563 109.877 46.6431 109.145C46.6299 108.257 46.2122 107.417 45.509 106.865Z" fill="white"/>
<path d="M143.591 102.665C143.383 102.725 143.172 102.749 142.959 102.773C141.868 102.773 141.537 101.861 141.537 100.445V89.9335C141.537 85.9735 139.171 83.9575 134.504 83.9575C130.326 83.9575 127.051 85.9375 127.051 88.4575C127.045 88.5295 127.043 88.5894 127.043 88.6614C127.043 89.8614 128.034 90.8575 129.239 90.8575H129.399C130.65 90.8575 131.689 89.8374 131.718 88.5894C131.711 87.7014 131.334 86.8611 130.68 86.2731C131.65 85.4091 132.919 84.9771 134.21 85.0491C136.634 85.0491 137.669 86.4771 137.669 89.8491V92.4173C133.139 93.5933 126.377 94.4813 126.377 99.6413C126.377 101.837 127.767 104.297 131.681 104.297C134.087 104.201 136.337 103.073 137.861 101.213C138.052 103.457 138.953 104.297 140.981 104.297C141.985 104.285 142.973 104.034 143.861 103.565C144.109 103.445 144.234 103.158 144.148 102.906C144.057 102.63 143.809 102.629 143.597 102.665H143.591ZM137.676 99.6893C137.182 100.433 135.497 102.317 133.561 102.317C131.086 102.317 130.543 100.493 130.543 98.9452C130.543 96.4132 132.483 94.9133 137.675 93.6413L137.676 99.6893Z" fill="black"/>
<path d="M157.457 83.9576C155.537 83.9576 153.688 85.0377 152.1 87.6297V84.7135C152.1 84.4255 151.862 84.1732 151.57 84.1732C151.559 84.1732 151.547 84.1735 151.535 84.1855L146.375 84.3174C146.129 84.3294 145.934 84.5332 145.934 84.7732V84.7973C145.918 85.0253 146.084 85.2417 146.314 85.2777C148.013 85.5177 148.234 86.3215 148.234 87.1615V101.61C148.234 102.63 147.974 102.965 146.342 103.073C146.099 103.085 145.905 103.278 145.905 103.53C145.905 103.77 146.109 103.973 146.356 103.973H154.432C154.676 103.973 154.876 103.782 154.877 103.53C154.877 103.29 154.686 103.098 154.446 103.086C152.582 102.99 152.098 102.69 152.098 101.61V89.7297C152.794 87.9897 154.216 86.6333 155.99 86.0213C155.908 86.3093 155.865 86.6093 155.859 86.8973C155.859 88.2293 156.951 89.3213 158.277 89.3213C159.603 89.3213 160.695 88.2293 160.695 86.8973C160.695 86.8853 160.696 86.8615 160.696 86.8375C160.696 85.2535 159.387 83.9336 157.797 83.9336C157.682 83.9336 157.568 83.9456 157.455 83.9576" fill="black"/>
<path d="M218.585 103.073C216.953 102.977 216.693 102.641 216.693 101.609V89.8134C216.693 86.0934 214.714 83.9575 211.062 83.9575C209.681 83.9757 208.326 84.3409 207.122 85.0204C205.919 85.6999 204.906 86.6714 204.177 87.8452V84.7134C204.177 84.4254 203.938 84.1854 203.646 84.1854H203.609L198.449 84.3173C198.204 84.3293 198.008 84.5331 198.008 84.7731V84.7972C197.991 85.0252 198.156 85.2416 198.387 85.2776C200.086 85.5176 200.307 86.3214 200.307 87.1614V101.609C200.307 102.629 200.046 102.977 198.417 103.073C198.186 103.097 198.01 103.29 198.01 103.53C198.01 103.77 198.204 103.973 198.446 103.973H205.864C206.105 103.973 206.299 103.77 206.299 103.53C206.299 103.29 206.123 103.097 205.893 103.073C204.333 102.977 204.173 102.629 204.173 101.609V90.3653C205.364 87.9413 207.453 86.1296 209.477 86.1296C211.964 86.1296 212.824 87.4736 212.824 90.9536V101.609C212.824 102.617 212.614 102.953 211.299 103.073C211.071 103.097 210.898 103.289 210.898 103.517C210.898 103.769 211.093 103.973 211.337 103.973H218.552C218.794 103.973 218.988 103.77 218.988 103.53C218.988 103.29 218.811 103.097 218.581 103.073" fill="black"/>
<path d="M187.558 83.9576C187.399 83.9576 187.241 83.9453 187.083 83.9453C181.498 83.9453 176.902 88.5416 176.902 94.1336C176.902 99.7136 181.498 104.31 187.083 104.31C192.667 104.31 197.263 99.7136 197.263 94.1336C197.267 94.0256 197.268 93.9176 197.268 93.8096C197.268 88.4576 192.909 84.0296 187.558 83.9576ZM187.558 103.23C183.358 103.23 182.223 99.1496 182.223 94.1336C182.223 89.1056 183.36 85.0252 187.558 85.0252C191.755 85.0252 192.893 89.1056 192.893 94.1336C192.893 99.1496 191.755 103.23 187.558 103.23Z" fill="black"/>
<path d="M84.1885 77.2855C87.1777 77.5735 87.8185 78.6056 87.8185 80.0816V100.253C87.8185 101.717 87.1777 102.761 84.1885 103.049C83.9533 103.061 83.7637 103.253 83.7637 103.493C83.7637 103.505 83.7649 103.518 83.7661 103.53V103.553C83.7661 103.805 83.9701 104.01 84.2209 104.01H96.0037C96.2533 104.01 96.4561 103.805 96.4561 103.553V103.53C96.4573 103.518 96.4585 103.505 96.4585 103.493C96.4585 103.253 96.2689 103.061 96.0337 103.049C92.8237 102.809 92.1445 101.789 92.1445 100.253V92.9336H95.7949C100.994 92.9336 107.046 91.4214 107.046 84.6174C107.046 77.8974 100.566 76.3135 95.1289 76.3135H84.2209C83.9701 76.3255 83.7661 76.5296 83.7661 76.7816V76.7934C83.7649 76.8054 83.7649 76.8297 83.7649 76.8297C83.7649 77.0697 83.9533 77.2732 84.1885 77.2732V77.2855ZM92.1445 77.5973H95.1901C101.284 77.5973 102.169 80.9697 102.169 84.6057C102.169 88.2897 101.284 91.6252 95.1901 91.6252H92.1445V77.5973Z" fill="black"/>
<path d="M115.997 83.9575C110.867 83.9575 106.696 88.6251 106.696 94.3251C106.696 100.109 110.608 104.297 115.997 104.297C119.292 104.465 122.395 102.677 123.903 99.7491C124.101 99.3651 124.045 98.9811 123.811 98.8491C123.595 98.7291 123.327 98.8016 123.191 99.0056C121.744 100.95 120.071 102.306 117.551 102.306C111.857 102.306 110.736 96.4492 110.977 92.8972H123.373C123.994 92.8972 124.107 92.5371 124.107 91.9251C124.107 89.1651 122.691 83.9575 115.997 83.9575ZM111.048 91.6011C111.478 87.3891 113.178 85.0854 115.761 85.0854C119.221 85.0854 119.823 88.0014 119.823 90.3894C119.823 90.8094 119.803 91.1811 119.773 91.6011H111.048Z" fill="black"/>
<path d="M169.711 91.8413C166.204 90.8213 164.758 89.8256 164.758 88.2296C164.777 86.4896 166.215 85.0731 167.956 85.0731H168.191C170.477 85.0731 171.96 86.2976 173.887 90.0056C174.018 90.2576 174.136 90.4251 174.402 90.4251C174.718 90.4251 174.882 90.1971 174.882 89.8011V84.5452C174.882 84.1612 174.811 83.9692 174.549 83.9692C174.359 83.9812 174.186 84.0775 174.069 84.2335L173.229 85.0854C171.892 84.3894 170.41 84.0052 168.899 83.9692C164.808 83.9692 162.035 86.5131 162.035 90.1251C162.035 93.5211 164.357 94.7211 168.179 95.8491C171.937 96.9651 173.298 97.9613 173.298 99.9653C173.161 101.849 171.505 103.302 169.614 103.182C166.768 103.182 164.871 101.753 162.969 97.6251C162.849 97.3731 162.703 97.1335 162.435 97.1335C162.118 97.1335 161.955 97.3615 161.955 97.7575V103.758C161.955 104.118 162.101 104.309 162.315 104.309C162.514 104.297 162.7 104.201 162.825 104.045L163.997 102.893C165.552 103.841 167.344 104.333 169.165 104.309C173.356 104.309 175.801 101.646 175.801 97.8296C175.801 94.7336 174.173 93.1496 169.702 91.8536" fill="black"/>
<path d="M254.513 90.245C254.622 92.045 253.872 93.8095 252.493 94.9735C250.823 96.1735 248.79 96.749 246.74 96.617H244.692V103.985H241.474V84.293H247.142C249.104 84.137 251.057 84.677 252.673 85.793C253.945 86.909 254.627 88.553 254.512 90.245H254.513ZM244.691 93.9053H246.402C247.674 94.0013 248.947 93.701 250.04 93.041C250.847 92.393 251.281 91.3853 251.197 90.3533C251.269 89.3933 250.885 88.4569 250.16 87.8209C249.208 87.1849 248.069 86.8853 246.928 86.9813H244.69L244.691 93.9053Z" fill="black"/>
<path d="M285.202 103.985H274.056V84.293H285.197V87.017H277.277V92.3689H284.7V95.0689H277.277V101.249H285.197L285.202 103.985Z" fill="black"/>
</g>
<path d="M154.655 186.383V195.983H163.999V200.847H154.655V210.383H149.279V200.847H139.999V195.983H149.279V186.383H154.655Z" fill="#333333"/>
<g filter="url(#filter1_d_720_1555)">
<path d="M250 36C250 27.1634 257.163 20 266 20C274.837 20 282 27.1634 282 36C282 44.8366 274.837 52 266 52C257.163 52 250 44.8366 250 36Z" fill="#007FA3"/>
<path d="M266 31V47M266 25L266 28" stroke="white" stroke-width="3"/>
</g>
<defs>
<filter id="filter0_d_720_1555" x="0" y="0" width="304" height="304" filterUnits="userSpaceOnUse" color-interpolation-filters="sRGB">
<feFlood flood-opacity="0" result="BackgroundImageFix"/>
<feColorMatrix in="SourceAlpha" type="matrix" values="0 0 0 0 0 0 0 0 0 0 0 0 0 0 0 0 0 0 127 0" result="hardAlpha"/>
<feOffset dy="2"/>
<feGaussianBlur stdDeviation="1"/>
<feComposite in2="hardAlpha" operator="out"/>
<feColorMatrix type="matrix" values="0 0 0 0 0 0 0 0 0 0 0 0 0 0 0 0 0 0 0.25 0"/>
<feBlend mode="normal" in2="BackgroundImageFix" result="effect1_dropShadow_720_1555"/>
<feBlend mode="normal" in="SourceGraphic" in2="effect1_dropShadow_720_1555" result="shape"/>
</filter>
<filter id="filter1_d_720_1555" x="246" y="20" width="40" height="40" filterUnits="userSpaceOnUse" color-interpolation-filters="sRGB">
<feFlood flood-opacity="0" result="BackgroundImageFix"/>
<feColorMatrix in="SourceAlpha" type="matrix" values="0 0 0 0 0 0 0 0 0 0 0 0 0 0 0 0 0 0 127 0" result="hardAlpha"/>
<feOffset dy="4"/>
<feGaussianBlur stdDeviation="2"/>
<feComposite in2="hardAlpha" operator="out"/>
<feColorMatrix type="matrix" values="0 0 0 0 0 0 0 0 0 0 0 0 0 0 0 0 0 0 0.25 0"/>
<feBlend mode="normal" in2="BackgroundImageFix" result="effect1_dropShadow_720_1555"/>
<feBlend mode="normal" in="SourceGraphic" in2="effect1_dropShadow_720_1555" result="shape"/>
</filter>
<clipPath id="clip0_720_1555">
<rect width="266.4" height="60" fill="white" transform="translate(18.8018 60.4014)"/>
</clipPath>
</defs>
</svg>
