<svg width="318" height="30" viewBox="0 0 318 30" fill="none" xmlns="http://www.w3.org/2000/svg">
<mask id="path-1-outside-1_1038_726" maskUnits="userSpaceOnUse" x="0" y="0" width="318" height="30" fill="black">
<rect fill="white" width="318" height="30"/>
<path fill-rule="evenodd" clip-rule="evenodd" d="M70.373 11H166.627C168.314 5.77747 173.216 2 179 2C184.784 2 189.686 5.77747 191.373 11H290.627C292.314 5.77747 297.216 2 303 2C310.18 2 316 7.8203 316 15C316 22.1797 310.18 28 303 28C297.216 28 292.314 24.2225 290.627 19H191.373C189.686 24.2225 184.784 28 179 28C173.216 28 168.314 24.2225 166.627 19H70.373C68.6859 24.2225 63.7841 28 58 28C52.2159 28 47.3141 24.2225 45.627 19H5.99999C3.79085 19 2 17.2091 2 15C2 12.7909 3.79086 11 6 11H45.627C47.3141 5.77747 52.2159 2 58 2C63.7841 2 68.6859 5.77747 70.373 11Z"/>
</mask>
<path fill-rule="evenodd" clip-rule="evenodd" d="M70.373 11H166.627C168.314 5.77747 173.216 2 179 2C184.784 2 189.686 5.77747 191.373 11H290.627C292.314 5.77747 297.216 2 303 2C310.18 2 316 7.8203 316 15C316 22.1797 310.18 28 303 28C297.216 28 292.314 24.2225 290.627 19H191.373C189.686 24.2225 184.784 28 179 28C173.216 28 168.314 24.2225 166.627 19H70.373C68.6859 24.2225 63.7841 28 58 28C52.2159 28 47.3141 24.2225 45.627 19H5.99999C3.79085 19 2 17.2091 2 15C2 12.7909 3.79086 11 6 11H45.627C47.3141 5.77747 52.2159 2 58 2C63.7841 2 68.6859 5.77747 70.373 11Z" fill="white"/>
<path d="M166.627 11V13H168.083L168.53 11.6148L166.627 11ZM70.373 11L68.4698 11.6148L68.9173 13H70.373V11ZM191.373 11L189.47 11.6148L189.917 13H191.373V11ZM290.627 11V13H292.083L292.53 11.6148L290.627 11ZM290.627 19L292.53 18.3852L292.083 17H290.627V19ZM191.373 19V17H189.917L189.47 18.3852L191.373 19ZM166.627 19L168.53 18.3852L168.083 17H166.627V19ZM70.373 19V17H68.9173L68.4698 18.3852L70.373 19ZM45.627 19L47.5302 18.3852L47.0827 17H45.627V19ZM45.627 11V13H47.0827L47.5302 11.6148L45.627 11ZM166.627 9H70.373V13H166.627V9ZM179 0C172.323 0 166.67 4.36122 164.724 10.3852L168.53 11.6148C169.958 7.19372 174.109 4 179 4V0ZM193.276 10.3852C191.33 4.36122 185.677 0 179 0V4C183.891 4 188.042 7.19372 189.47 11.6148L193.276 10.3852ZM290.627 9H191.373V13H290.627V9ZM292.53 11.6148C293.958 7.19373 298.109 4 303 4V0C296.323 0 290.67 4.36122 288.724 10.3852L292.53 11.6148ZM303 4C309.075 4 314 8.92487 314 15H318C318 6.71573 311.284 0 303 0V4ZM314 15C314 21.0751 309.075 26 303 26V30C311.284 30 318 23.2843 318 15H314ZM303 26C298.109 26 293.958 22.8063 292.53 18.3852L288.724 19.6148C290.67 25.6388 296.323 30 303 30V26ZM191.373 21H290.627V17H191.373V21ZM179 30C185.677 30 191.33 25.6388 193.276 19.6148L189.47 18.3852C188.042 22.8063 183.891 26 179 26V30ZM164.724 19.6148C166.67 25.6388 172.323 30 179 30V26C174.109 26 169.958 22.8063 168.53 18.3852L164.724 19.6148ZM70.373 21H166.627V17H70.373V21ZM58 30C64.677 30 70.3301 25.6388 72.2762 19.6148L68.4698 18.3852C67.0416 22.8063 62.8912 26 58 26V30ZM43.7238 19.6148C45.6699 25.6388 51.323 30 58 30V26C53.1088 26 48.9584 22.8063 47.5302 18.3852L43.7238 19.6148ZM5.99999 21H45.627V17H5.99999V21ZM0 15C0 18.3137 2.68628 21 5.99999 21V17C4.89543 17 4 16.1046 4 15H0ZM6 9C2.68629 9 0 11.6863 0 15H4C4 13.8954 4.89543 13 6 13V9ZM45.627 9H6V13H45.627V9ZM58 0C51.323 0 45.6699 4.36122 43.7238 10.3852L47.5302 11.6148C48.9584 7.19372 53.1088 4 58 4V0ZM72.2762 10.3852C70.3301 4.36122 64.677 0 58 0V4C62.8912 4 67.0416 7.19373 68.4698 11.6148L72.2762 10.3852Z" fill="#C4C4C4" mask="url(#path-1-outside-1_1038_726)"/>
</svg>
