<svg width="64" height="64" viewBox="0 0 64 64" fill="none" xmlns="http://www.w3.org/2000/svg">
<path d="M41.3334 29.3333C43.5425 29.3333 45.3334 27.5424 45.3334 25.3333C45.3334 23.1241 43.5425 21.3333 41.3334 21.3333C39.1242 21.3333 37.3334 23.1241 37.3334 25.3333C37.3334 27.5424 39.1242 29.3333 41.3334 29.3333Z" fill="#333333"/>
<path d="M22.6667 29.3333C24.8758 29.3333 26.6667 27.5424 26.6667 25.3333C26.6667 23.1241 24.8758 21.3333 22.6667 21.3333C20.4576 21.3333 18.6667 23.1241 18.6667 25.3333C18.6667 27.5424 20.4576 29.3333 22.6667 29.3333Z" fill="#333333"/>
<path d="M32 37.3333C25.7867 37.3333 20.48 41.1999 18.3467 46.6666H22.8C24.64 43.4933 28.0534 41.3333 32 41.3333C35.9467 41.3333 39.3334 43.4933 41.2 46.6666H45.6534C43.52 41.1999 38.2134 37.3333 32 37.3333ZM31.9734 5.33325C17.2534 5.33325 5.33337 17.2799 5.33337 31.9999C5.33337 46.7199 17.2534 58.6666 31.9734 58.6666C46.72 58.6666 58.6667 46.7199 58.6667 31.9999C58.6667 17.2799 46.72 5.33325 31.9734 5.33325ZM32 53.3333C20.2134 53.3333 10.6667 43.7866 10.6667 31.9999C10.6667 20.2133 20.2134 10.6666 32 10.6666C43.7867 10.6666 53.3334 20.2133 53.3334 31.9999C53.3334 43.7866 43.7867 53.3333 32 53.3333Z" fill="#333333"/>
</svg>
