<svg width="276" height="200" viewBox="0 0 276 200" fill="none" xmlns="http://www.w3.org/2000/svg">
<g clip-path="url(#clip0_826_3563)">
<path d="M275.14 200H137.966C137.871 200 137.779 199.962 137.711 199.894C137.644 199.827 137.606 199.735 137.606 199.64C137.606 199.544 137.644 199.453 137.711 199.385C137.779 199.318 137.871 199.28 137.966 199.28H275.14C275.235 199.28 275.327 199.318 275.394 199.385C275.462 199.453 275.5 199.544 275.5 199.64C275.5 199.735 275.462 199.827 275.394 199.894C275.327 199.962 275.235 200 275.14 200Z" fill="#CCCCCC"/>
<path d="M256.736 49.436H256.432C256.05 49.4355 255.684 49.2837 255.414 49.0137C255.144 48.7437 254.992 48.3777 254.992 47.9958V36.5598C254.992 36.178 255.144 35.8119 255.414 35.5419C255.684 35.2719 256.05 35.1201 256.432 35.1196H256.736C257.118 35.1201 257.484 35.2719 257.754 35.5419C258.024 35.8119 258.176 36.178 258.176 36.5598V47.9958C258.176 48.3777 258.024 48.7437 257.754 49.0137C257.484 49.2837 257.118 49.4355 256.736 49.436V49.436Z" fill="#E6E6E6"/>
<path d="M156.674 35.4795H156.37C155.989 35.4791 155.622 35.3272 155.352 35.0572C155.082 34.7872 154.931 34.4212 154.93 34.0393V27.4196C154.931 27.0378 155.082 26.6718 155.352 26.4018C155.622 26.1318 155.989 25.9799 156.37 25.9795H156.674C157.056 25.9799 157.422 26.1318 157.692 26.4018C157.962 26.6718 158.114 27.0378 158.115 27.4196V34.0393C158.114 34.4212 157.962 34.7872 157.692 35.0572C157.422 35.3272 157.056 35.4791 156.674 35.4795Z" fill="#E6E6E6"/>
<path d="M156.674 51.5978H156.37C155.989 51.5974 155.622 51.4455 155.352 51.1755C155.082 50.9055 154.931 50.5395 154.93 50.1577V43.5378C154.931 43.156 155.082 42.7899 155.352 42.5199C155.622 42.25 155.989 42.0981 156.37 42.0977H156.674C157.056 42.0981 157.422 42.25 157.692 42.5199C157.962 42.7899 158.114 43.156 158.115 43.5378V50.1577C158.114 50.5395 157.962 50.9055 157.692 51.1755C157.422 51.4455 157.056 51.5974 156.674 51.5978Z" fill="#E6E6E6"/>
<path d="M242.842 199.632H170.264C166.947 199.628 163.768 198.309 161.422 195.964C159.077 193.619 157.758 190.439 157.754 187.123V12.8692C157.758 9.55265 159.077 6.37304 161.422 4.0279C163.768 1.68276 166.947 0.363615 170.264 0.359863H242.842C246.158 0.363601 249.338 1.68274 251.683 4.02788C254.028 6.37302 255.348 9.55264 255.351 12.8692V187.123C255.348 190.439 254.028 193.619 251.683 195.964C249.338 198.309 246.158 199.628 242.842 199.632V199.632Z" fill="#F2F2F2"/>
<path d="M242.842 199.992H170.264C166.852 199.988 163.581 198.631 161.168 196.218C158.756 193.806 157.399 190.535 157.395 187.123V51.8042C157.168 51.9054 156.923 51.9579 156.675 51.958H156.37C155.893 51.9575 155.436 51.7677 155.098 51.4302C154.761 51.0927 154.571 50.6351 154.57 50.1579V43.538C154.571 43.0607 154.761 42.6032 155.098 42.2657C155.436 41.9282 155.893 41.7383 156.37 41.7378H156.675C156.923 41.738 157.168 41.7904 157.395 41.8916V35.6859C157.168 35.7872 156.923 35.8396 156.675 35.8398H156.37C155.893 35.8392 155.436 35.6494 155.098 35.3119C154.761 34.9744 154.571 34.5168 154.57 34.0396V27.4199C154.571 26.9426 154.761 26.485 155.098 26.1476C155.436 25.8101 155.893 25.6202 156.37 25.6197H156.675C156.923 25.6199 157.168 25.6723 157.395 25.7735V12.8694C157.399 9.45737 158.756 6.18625 161.168 3.77361C163.581 1.36098 166.852 0.003866 170.264 0H242.842C246.254 0.00384404 249.525 1.36095 251.938 3.77358C254.351 6.18622 255.708 9.45735 255.712 12.8694V34.9135C255.938 34.8122 256.184 34.7598 256.432 34.7596H256.736C257.213 34.7602 257.671 34.95 258.008 35.2875C258.346 35.625 258.535 36.0826 258.536 36.5598V47.9959C258.535 48.4732 258.346 48.9307 258.008 49.2682C257.671 49.6057 257.213 49.7955 256.736 49.7961H256.432C256.184 49.7959 255.938 49.7435 255.712 49.6422V187.123C255.708 190.535 254.351 193.806 251.938 196.218C249.525 198.631 246.254 199.988 242.842 199.992V199.992ZM158.115 50.1412V187.123C158.118 190.344 159.4 193.432 161.677 195.71C163.955 197.987 167.043 199.268 170.264 199.272H242.842C246.063 199.268 249.151 197.987 251.429 195.71C253.707 193.432 254.988 190.344 254.992 187.123V47.9787L255.623 48.7015C255.723 48.8181 255.847 48.9118 255.987 48.9763C256.126 49.0409 256.278 49.0749 256.432 49.076H256.736C257.022 49.0757 257.297 48.9618 257.499 48.7593C257.702 48.5568 257.816 48.2822 257.816 47.9959V36.5598C257.816 36.2735 257.702 35.9989 257.499 35.7964C257.297 35.5939 257.022 35.48 256.736 35.4797H256.432C256.278 35.4808 256.126 35.5148 255.987 35.5793C255.847 35.6439 255.723 35.7376 255.623 35.8542L254.992 36.577V12.8694C254.988 9.64825 253.707 6.56014 251.429 4.28249C249.151 2.00485 246.063 0.723682 242.842 0.720072H170.264C167.043 0.723704 163.955 2.00488 161.677 4.28252C159.4 6.56017 158.118 9.64828 158.115 12.8694V27.4366L157.484 26.7144C157.383 26.5979 157.259 26.5042 157.12 26.4395C156.98 26.3749 156.828 26.3409 156.675 26.3398H156.37C156.084 26.3401 155.81 26.454 155.607 26.6565C155.405 26.859 155.291 27.1335 155.29 27.4199V34.0396C155.291 34.3259 155.405 34.6005 155.607 34.803C155.81 35.0055 156.084 35.1194 156.37 35.1197H156.675C156.828 35.1185 156.98 35.0845 157.12 35.0199C157.259 34.9553 157.383 34.8616 157.484 34.7451L158.115 34.0229V43.5547L157.484 42.8325C157.383 42.716 157.259 42.6223 157.12 42.5576C156.98 42.493 156.828 42.459 156.675 42.4579H156.37C156.084 42.4582 155.81 42.5721 155.607 42.7746C155.405 42.9771 155.291 43.2516 155.29 43.538V50.1579C155.291 50.4442 155.405 50.7188 155.607 50.9213C155.81 51.1238 156.084 51.2377 156.37 51.238H156.675C156.828 51.2368 156.98 51.2028 157.12 51.1382C157.259 51.0736 157.383 50.9799 157.484 50.8634L158.115 50.1412Z" fill="#CCCCCC"/>
<path d="M195.26 49.4358H175.413C172.371 49.4323 169.455 48.2225 167.304 46.0716C165.153 43.9207 163.943 41.0044 163.94 37.9626V14.9564C163.943 11.9146 165.153 8.99838 167.304 6.84752C169.455 4.69666 172.371 3.48681 175.413 3.4834H195.26C198.302 3.48681 201.218 4.69666 203.369 6.84752C205.52 8.99838 206.73 11.9146 206.733 14.9564V37.9626C206.73 41.0044 205.52 43.9207 203.369 46.0716C201.218 48.2225 198.302 49.4323 195.26 49.4358V49.4358Z" fill="white"/>
<path d="M195.26 49.796H175.413C172.276 49.7924 169.268 48.5446 167.05 46.3262C164.831 44.1078 163.584 41.1001 163.58 37.9628V14.9566C163.584 11.8193 164.831 8.8116 167.05 6.59324C169.268 4.37489 172.276 3.12707 175.413 3.12354H195.26C198.397 3.12707 201.405 4.37489 203.623 6.59324C205.842 8.8116 207.09 11.8193 207.093 14.9566V37.9628C207.09 41.1001 205.842 44.1078 203.623 46.3262C201.405 48.5446 198.397 49.7924 195.26 49.796V49.796ZM175.413 3.8436C172.467 3.84693 169.642 5.01882 167.559 7.10218C165.475 9.18554 164.304 12.0102 164.3 14.9566V37.9628C164.303 40.9092 165.475 43.7339 167.559 45.8173C169.642 47.9007 172.467 49.0726 175.413 49.0759H195.26C198.206 49.0726 201.031 47.9007 203.115 45.8173C205.198 43.7339 206.37 40.9092 206.373 37.9628V14.9566C206.37 12.0102 205.198 9.18554 203.115 7.10219C201.031 5.01883 198.206 3.84694 195.26 3.84361L175.413 3.8436Z" fill="#CCCCCC"/>
<path d="M206.553 108.07C211.91 108.07 216.253 103.727 216.253 98.3692C216.253 93.0119 211.91 88.6689 206.553 88.6689C201.196 88.6689 196.853 93.0119 196.853 98.3692C196.853 103.727 201.196 108.07 206.553 108.07Z" fill="#277AFF"/>
<path d="M176.056 21.6183C179.399 21.6183 182.109 18.9087 182.109 15.5662C182.109 12.2238 179.399 9.51416 176.056 9.51416C172.714 9.51416 170.004 12.2238 170.004 15.5662C170.004 18.9087 172.714 21.6183 176.056 21.6183Z" fill="#2F2E41"/>
<path d="M176.056 43.4054C179.399 43.4054 182.109 40.6958 182.109 37.3534C182.109 34.0109 179.399 31.3013 176.056 31.3013C172.714 31.3013 170.004 34.0109 170.004 37.3534C170.004 40.6958 172.714 43.4054 176.056 43.4054Z" fill="#2F2E41"/>
<path d="M194.617 32.4035C197.959 32.4035 200.669 29.6939 200.669 26.3514C200.669 23.0089 197.959 20.2993 194.617 20.2993C191.274 20.2993 188.564 23.0089 188.564 26.3514C188.564 29.6939 191.274 32.4035 194.617 32.4035Z" fill="#2F2E41"/>
<path d="M176.057 17.6842C177.227 17.6842 178.175 16.7359 178.175 15.566C178.175 14.3961 177.227 13.4478 176.057 13.4478C174.887 13.4478 173.938 14.3961 173.938 15.566C173.938 16.7359 174.887 17.6842 176.057 17.6842Z" fill="#B3B3B3"/>
<path d="M176.056 18.0445C175.566 18.0445 175.087 17.8992 174.68 17.6269C174.272 17.3546 173.954 16.9675 173.767 16.5147C173.579 16.0618 173.53 15.5635 173.626 15.0828C173.721 14.602 173.957 14.1604 174.304 13.8138C174.651 13.4672 175.092 13.2312 175.573 13.1355C176.054 13.0399 176.552 13.089 177.005 13.2765C177.458 13.4641 177.845 13.7817 178.117 14.1893C178.389 14.5968 178.535 15.076 178.535 15.5661C178.534 16.2232 178.273 16.8532 177.808 17.3178C177.343 17.7824 176.714 18.0438 176.056 18.0445V18.0445ZM176.056 13.808C175.709 13.808 175.369 13.9111 175.08 14.1043C174.79 14.2975 174.565 14.5721 174.432 14.8934C174.299 15.2147 174.264 15.5682 174.332 15.9093C174.4 16.2503 174.567 16.5636 174.813 16.8095C175.059 17.0554 175.372 17.2229 175.713 17.2907C176.055 17.3585 176.408 17.3237 176.729 17.1906C177.051 17.0575 177.325 16.8321 177.518 16.543C177.712 16.2538 177.815 15.9139 177.815 15.5661C177.814 15.1 177.629 14.6531 177.299 14.3235C176.97 13.9939 176.523 13.8085 176.056 13.808V13.808Z" fill="#E6E6E6"/>
<path d="M194.616 28.4699C195.786 28.4699 196.735 27.5215 196.735 26.3516C196.735 25.1818 195.786 24.2334 194.616 24.2334C193.446 24.2334 192.498 25.1818 192.498 26.3516C192.498 27.5215 193.446 28.4699 194.616 28.4699Z" fill="#B3B3B3"/>
<path d="M194.617 28.8297C194.126 28.8297 193.647 28.6843 193.24 28.412C192.832 28.1397 192.514 27.7527 192.327 27.2998C192.139 26.847 192.09 26.3487 192.186 25.8679C192.281 25.3872 192.517 24.9456 192.864 24.599C193.211 24.2524 193.652 24.0163 194.133 23.9207C194.614 23.825 195.112 23.8741 195.565 24.0617C196.018 24.2492 196.405 24.5669 196.677 24.9744C196.949 25.382 197.095 25.8611 197.095 26.3513C197.094 27.0084 196.833 27.6383 196.368 28.103C195.904 28.5676 195.274 28.829 194.617 28.8297V28.8297ZM194.617 24.5931C194.269 24.5931 193.929 24.6962 193.64 24.8894C193.351 25.0826 193.125 25.3573 192.992 25.6785C192.859 25.9998 192.824 26.3534 192.892 26.6944C192.96 27.0355 193.127 27.3488 193.373 27.5947C193.619 27.8406 193.932 28.008 194.274 28.0759C194.615 28.1437 194.968 28.1089 195.289 27.9758C195.611 27.8427 195.885 27.6173 196.078 27.3281C196.272 27.039 196.375 26.699 196.375 26.3513C196.374 25.8851 196.189 25.4382 195.859 25.1086C195.53 24.779 195.083 24.5936 194.617 24.5931V24.5931Z" fill="#E6E6E6"/>
<path d="M176.057 39.4718C177.227 39.4718 178.175 38.5235 178.175 37.3536C178.175 36.1837 177.227 35.2354 176.057 35.2354C174.887 35.2354 173.938 36.1837 173.938 37.3536C173.938 38.5235 174.887 39.4718 176.057 39.4718Z" fill="#B3B3B3"/>
<path d="M176.056 39.8321C175.566 39.8321 175.087 39.6868 174.68 39.4145C174.272 39.1422 173.954 38.7551 173.767 38.3022C173.579 37.8494 173.53 37.3511 173.626 36.8703C173.721 36.3896 173.957 35.948 174.304 35.6014C174.651 35.2548 175.092 35.0188 175.573 34.9231C176.054 34.8275 176.552 34.8765 177.005 35.0641C177.458 35.2517 177.845 35.5693 178.117 35.9769C178.389 36.3844 178.535 36.8636 178.535 37.3537C178.534 38.0108 178.273 38.6408 177.808 39.1054C177.344 39.57 176.714 39.8314 176.056 39.8321ZM176.056 35.5956C175.709 35.5956 175.369 35.6987 175.08 35.8919C174.79 36.0851 174.565 36.3597 174.432 36.681C174.299 37.0023 174.264 37.3558 174.332 37.6969C174.4 38.0379 174.567 38.3512 174.813 38.5971C175.059 38.843 175.372 39.0105 175.714 39.0783C176.055 39.1461 176.408 39.1113 176.729 38.9782C177.051 38.8451 177.325 38.6197 177.518 38.3306C177.712 38.0414 177.815 37.7015 177.815 37.3537C177.814 36.8876 177.629 36.4407 177.299 36.1111C176.97 35.7814 176.523 35.5961 176.056 35.5956V35.5956Z" fill="#E6E6E6"/>
<path d="M113.001 65.1881L86.9515 105.737C86.8654 105.871 86.7538 105.986 86.623 106.077C86.4922 106.168 86.3448 106.232 86.1891 106.266C86.0335 106.3 85.8727 106.303 85.7159 106.275C85.5592 106.247 85.4095 106.188 85.2754 106.102L85.2747 106.102L16.4412 61.881C16.3919 61.8499 16.3454 61.8147 16.3022 61.7757C16.0818 61.5847 15.9377 61.3207 15.8961 61.0321C15.8546 60.7435 15.9185 60.4496 16.0761 60.2043L42.1256 19.6558C42.2116 19.5218 42.3232 19.406 42.454 19.3151C42.5848 19.2242 42.7322 19.1599 42.8879 19.126C43.0435 19.0921 43.2043 19.0891 43.3611 19.1173C43.5178 19.1455 43.6675 19.2043 43.8016 19.2904L43.8023 19.2908L112.636 63.5114C112.77 63.5974 112.886 63.7091 112.977 63.8399C113.067 63.9706 113.132 64.1181 113.166 64.2737C113.2 64.4293 113.203 64.5901 113.174 64.7469C113.146 64.9037 113.087 65.0534 113.001 65.1874L113.001 65.1881Z" fill="#E6E6E6"/>
<path d="M50.3975 55.5802C56.2766 55.5802 61.0426 50.8142 61.0426 44.9351C61.0426 39.056 56.2766 34.29 50.3975 34.29C44.5184 34.29 39.7524 39.056 39.7524 44.9351C39.7524 50.8142 44.5184 55.5802 50.3975 55.5802Z" fill="#277AFF"/>
<path d="M60.7527 90.5774L16.8165 62.3516C16.761 62.317 16.7088 62.2773 16.6606 62.2331L60.5637 39.589C60.8346 39.4463 61.1384 39.3781 61.4442 39.3913C61.7501 39.4044 62.0469 39.4986 62.3045 39.664C62.562 39.8295 62.7711 40.0603 62.9102 40.333C63.0493 40.6057 63.1136 40.9104 63.0964 41.2161L61.5247 74.3298L61.4503 75.9148L60.7527 90.5774Z" fill="#3F3D56"/>
<path opacity="0.2" d="M60.7524 90.5773L45.7515 80.9402L59.9869 74.9748L61.0119 74.5449L61.5243 74.3296L61.4501 75.9148L60.7524 90.5773Z" fill="black"/>
<path d="M85.2155 106.294L47.2144 81.8807L61.4498 75.9151L62.4748 75.4851L81.0256 67.7103C82.2416 67.2009 83.7916 68.1163 84.0185 69.3896C84.0332 69.4759 84.0423 69.5631 84.0459 69.6507L85.2155 106.294Z" fill="#3F3D56"/>
<path d="M122.082 63.4113C122.282 62.5367 122.207 61.6218 121.869 60.7911C121.53 59.9603 120.944 59.254 120.19 58.768L44.5178 10.154C44.0364 9.84443 43.4987 9.63279 42.9354 9.53115C42.3721 9.42951 41.7944 9.43986 41.2351 9.56162C40.6759 9.68338 40.1461 9.91415 39.6761 10.2407C39.206 10.5673 38.805 10.9834 38.4958 11.465L1.19005 69.535C0.566991 70.5079 0.355118 71.6881 0.600881 72.817C0.846643 73.9458 1.52999 74.9312 2.5011 75.557L78.1735 124.171C79.1464 124.794 80.3266 125.006 81.4555 124.76C82.5843 124.514 83.5697 123.831 84.1955 122.86L121.501 64.79C121.774 64.3677 121.97 63.9011 122.082 63.4113ZM83.7641 122.583C83.2121 123.44 82.3426 124.043 81.3465 124.26C80.3504 124.477 79.309 124.29 78.4506 123.74L2.77822 75.1257C1.92119 74.5736 1.31811 73.7042 1.10125 72.7081C0.884388 71.712 1.07146 70.6705 1.62143 69.8121L38.9272 11.7421C39.4792 10.8851 40.3486 10.282 41.3448 10.0652C42.3409 9.8483 43.3823 10.0354 44.2407 10.5853L119.913 59.1993C120.77 59.7514 121.373 60.6208 121.59 61.6169C121.807 62.613 121.62 63.6545 121.07 64.5129L83.7641 122.583Z" fill="#3F3D56"/>
<path d="M119.592 81.8317C119.288 80.988 118.73 80.2586 117.997 79.7426C117.263 79.2266 116.388 78.9491 115.491 78.9478H25.5484C24.976 78.9475 24.4092 79.0601 23.8804 79.279C23.3516 79.498 22.8711 79.819 22.4664 80.2237C22.0616 80.6284 21.7406 81.1089 21.5217 81.6377C21.3028 82.1665 21.1902 82.7333 21.1904 83.3057V152.326C21.1921 153.482 21.6517 154.589 22.4687 155.406C23.2856 156.223 24.3931 156.683 25.5484 156.684H115.491C116.646 156.683 117.754 156.223 118.57 155.406C119.387 154.589 119.847 153.482 119.849 152.326V83.3057C119.85 82.8032 119.763 82.3044 119.592 81.8317V81.8317Z" fill="white"/>
<path d="M119.592 81.8317C119.288 80.988 118.73 80.2586 117.997 79.7426C117.263 79.2266 116.388 78.9491 115.491 78.9478H25.5484C24.976 78.9475 24.4092 79.0601 23.8804 79.279C23.3516 79.498 22.8711 79.819 22.4664 80.2237C22.0616 80.6284 21.7406 81.1089 21.5217 81.6377C21.3028 82.1665 21.1902 82.7333 21.1904 83.3057V152.326C21.1921 153.482 21.6517 154.589 22.4687 155.406C23.2856 156.223 24.3931 156.683 25.5484 156.684H115.491C116.646 156.683 117.754 156.223 118.57 155.406C119.387 154.589 119.847 153.482 119.849 152.326V83.3057C119.85 82.8032 119.763 82.3044 119.592 81.8317V81.8317ZM119.336 152.326C119.335 153.346 118.929 154.323 118.208 155.044C117.488 155.765 116.51 156.17 115.491 156.172H25.5484C24.5289 156.17 23.5516 155.765 22.8308 155.044C22.1099 154.323 21.7044 153.346 21.7031 152.326V83.3057C21.7044 82.2863 22.1099 81.3089 22.8308 80.5881C23.5516 79.8672 24.5289 79.4617 25.5484 79.4604H115.491C116.51 79.4617 117.488 79.8672 118.208 80.5881C118.929 81.3089 119.335 82.2863 119.336 83.3057V152.326Z" fill="#3F3D56"/>
<path d="M112.912 88.2353V136.43C112.912 136.59 112.88 136.747 112.819 136.894C112.758 137.042 112.669 137.175 112.557 137.288C112.444 137.401 112.31 137.49 112.163 137.551C112.016 137.612 111.858 137.644 111.699 137.644H29.8843C29.826 137.644 29.7678 137.64 29.7104 137.63C29.4218 137.589 29.1578 137.444 28.9669 137.224C28.776 137.004 28.6709 136.722 28.6709 136.43V88.2353C28.6708 88.076 28.7022 87.9183 28.7631 87.7711C28.824 87.6239 28.9133 87.4902 29.0259 87.3775C29.1385 87.2649 29.2722 87.1755 29.4193 87.1145C29.5664 87.0534 29.7242 87.022 29.8834 87.022H111.698C111.857 87.0219 112.015 87.0532 112.162 87.1141C112.31 87.1751 112.443 87.2644 112.556 87.377C112.669 87.4896 112.758 87.6232 112.819 87.7704C112.88 87.9175 112.912 88.0753 112.912 88.2345V88.2353Z" fill="#E6E6E6"/>
<path d="M49.294 115.678C55.1731 115.678 59.9391 110.912 59.9391 105.033C59.9391 99.1537 55.1731 94.3877 49.294 94.3877C43.4149 94.3877 38.6489 99.1537 38.6489 105.033C38.6489 110.912 43.4149 115.678 49.294 115.678Z" fill="#277AFF"/>
<path d="M82.6759 137.837H30.4544C30.389 137.838 30.3237 137.833 30.2593 137.822L54.9577 95.0404C55.1084 94.7739 55.3272 94.5523 55.5916 94.3981C55.856 94.2439 56.1567 94.1626 56.4628 94.1626C56.7689 94.1626 57.0695 94.2439 57.334 94.3981C57.5984 94.5523 57.8172 94.7739 57.9679 95.0404L74.5436 123.75L75.3377 125.124L82.6759 137.837Z" fill="#3F3D56"/>
<path opacity="0.2" d="M82.6759 137.837H64.8462L73.5987 125.124L74.2287 124.208L74.5438 123.75L75.3376 125.124L82.6759 137.837Z" fill="black"/>
<path d="M111.752 137.837H66.585L75.3375 125.124L75.9674 124.208L87.3727 107.64C88.1204 106.554 89.9193 106.486 90.7984 107.435C90.8574 107.5 90.9123 107.568 90.9626 107.64L111.752 137.837Z" fill="#3F3D56"/>
<path d="M119.592 81.8317C119.288 80.988 118.73 80.2586 117.997 79.7426C117.263 79.2266 116.388 78.9491 115.491 78.9478H25.5484C24.976 78.9475 24.4092 79.0601 23.8804 79.279C23.3516 79.498 22.8711 79.819 22.4664 80.2237C22.0616 80.6284 21.7406 81.1089 21.5217 81.6377C21.3028 82.1665 21.1902 82.7333 21.1904 83.3057V152.326C21.1921 153.482 21.6517 154.589 22.4687 155.406C23.2856 156.223 24.3931 156.683 25.5484 156.684H115.491C116.646 156.683 117.754 156.223 118.57 155.406C119.387 154.589 119.847 153.482 119.849 152.326V83.3057C119.85 82.8032 119.763 82.3044 119.592 81.8317V81.8317ZM119.336 152.326C119.335 153.346 118.929 154.323 118.208 155.044C117.488 155.765 116.51 156.17 115.491 156.172H25.5484C24.5289 156.17 23.5516 155.765 22.8308 155.044C22.1099 154.323 21.7044 153.346 21.7031 152.326V83.3057C21.7044 82.2863 22.1099 81.3089 22.8308 80.5881C23.5516 79.8672 24.5289 79.4617 25.5484 79.4604H115.491C116.51 79.4617 117.488 79.8672 118.208 80.5881C118.929 81.3089 119.335 82.2863 119.336 83.3057V152.326Z" fill="#3F3D56"/>
</g>
<defs>
<clipPath id="clip0_826_3563">
<rect width="274.999" height="200" fill="white" transform="translate(0.500488)"/>
</clipPath>
</defs>
</svg>
