<svg width="254" height="200" viewBox="0 0 254 200" fill="none" xmlns="http://www.w3.org/2000/svg">
<g clip-path="url(#clip0_826_3596)">
<path d="M46.4321 23.5892C45.9556 23.6418 45.4964 23.7982 45.0869 24.0475C44.6773 24.2967 44.3274 24.6327 44.0618 25.0318C43.7962 25.4309 43.6213 25.8834 43.5495 26.3574C43.4777 26.8314 43.5107 27.3154 43.6461 27.7753L34.1646 34.5507L39.8163 36.7256L47.9537 29.9582C48.7112 29.6794 49.3401 29.1325 49.7213 28.421C50.1024 27.7095 50.2094 26.8829 50.0218 26.0979C49.8342 25.3128 49.3652 24.6238 48.7036 24.1614C48.042 23.6991 47.2338 23.4955 46.4321 23.5892L46.4321 23.5892Z" fill="#FFB8B8"/>
<path d="M45.5507 33.7948L33.7897 45.6285C32.1779 47.2398 30.0526 48.2355 27.7829 48.4427L13.2502 49.7686C12.7174 49.8195 12.1799 49.763 11.6693 49.6025C11.1587 49.4421 10.6855 49.1809 10.2776 48.8345C9.71321 48.3621 9.29354 47.7401 9.06679 47.04C8.84003 46.3398 8.81537 45.5899 8.99565 44.8764C9.17592 44.1629 9.55382 43.5147 10.0859 43.0063C10.618 42.4978 11.2828 42.1498 12.0038 42.0022L26.8505 38.841L40.3674 28.8772C40.5553 28.7715 40.7676 28.7167 40.9832 28.7183C41.1989 28.7199 41.4103 28.7779 41.5966 28.8864L45.2725 31.8976C45.4937 32.0188 45.6713 32.2062 45.7806 32.4335C45.8898 32.6608 45.9252 32.9166 45.8816 33.165C45.8387 33.404 45.7232 33.6239 45.5507 33.7948Z" fill="#2F2E41"/>
<path d="M186.557 40.1543C186.644 39.3464 186.481 38.5312 186.089 37.8195C185.697 37.1077 185.096 36.5339 184.366 36.176L111.173 0.402419C110.707 0.174703 110.202 0.0408929 109.685 0.00863177C109.167 -0.0236294 108.649 0.0462879 108.159 0.214393C107.669 0.382498 107.216 0.645499 106.828 0.988378C106.439 1.33126 106.122 1.7473 105.895 2.21275L105.893 2.21549L78.441 58.383C77.9829 59.3238 77.9164 60.4079 78.2563 61.3976C78.5962 62.3873 79.3146 63.2019 80.2541 63.6627L153.447 99.4363C154.388 99.8945 155.472 99.961 156.462 99.6211C157.452 99.2812 158.266 98.5628 158.727 97.6233L186.179 41.4557C186.38 41.0471 186.508 40.6067 186.557 40.1543Z" fill="#F2F2F2"/>
<path d="M143.678 164.818H48.7056C47.51 164.817 46.3637 164.341 45.5182 163.496C44.6727 162.65 44.1971 161.504 44.1958 160.308V31.38C44.1971 30.1843 44.6727 29.038 45.5182 28.1925C46.3637 27.347 47.51 26.8715 48.7056 26.8701H143.678C144.873 26.8715 146.02 27.347 146.865 28.1925C147.711 29.038 148.186 30.1843 148.187 31.38V160.308C148.186 161.504 147.711 162.65 146.865 163.496C146.02 164.341 144.873 164.817 143.678 164.818Z" fill="white"/>
<path d="M73.8954 65.3156C77.3174 65.3156 80.0915 62.5415 80.0915 59.1195C80.0915 55.6974 77.3174 52.9233 73.8954 52.9233C70.4733 52.9233 67.6992 55.6974 67.6992 59.1195C67.6992 62.5415 70.4733 65.3156 73.8954 65.3156Z" fill="#E6E6E6"/>
<path d="M64.4517 76.0539C65.3272 76.5516 66.2435 76.9739 67.1907 77.3162L67.358 77.3742C69.2658 78.044 71.2735 78.385 73.2954 78.3826C73.7022 78.3826 74.0941 78.3684 74.4603 78.3407C75.3512 78.2861 76.2368 78.164 77.1093 77.9754C77.5881 77.8708 78.0654 77.7457 78.5273 77.6039C78.639 77.571 78.7424 77.5386 78.8556 77.5031C80.7378 76.8929 82.5065 75.9764 84.0904 74.7906C83.9632 74.5501 83.824 74.3162 83.6733 74.0898C82.8589 72.8454 81.747 71.8238 80.4383 71.1173C79.1296 70.4109 77.6654 70.042 76.1782 70.044H72.9171C71.197 70.0443 69.5132 70.539 68.0663 71.4691C66.6194 72.3993 65.4704 73.7257 64.756 75.2904C64.6417 75.5396 64.5402 75.7945 64.4517 76.0539Z" fill="#E6E6E6"/>
<path d="M75.998 77.8212C75.7899 77.8366 75.5896 77.9068 75.4175 78.0248C76.2918 77.9704 77.1608 77.8498 78.0169 77.6641L75.998 77.8212Z" fill="#2F2E41"/>
<path d="M74.2712 42.3052C70.2805 42.3056 66.4016 43.6233 63.2365 46.0539C60.0714 48.4844 57.7972 51.8918 56.7668 55.7471C55.7364 59.6025 56.0075 63.6901 57.538 67.3756C59.0686 71.0611 61.7729 74.1383 65.2313 76.1296C66.1493 76.6612 67.113 77.1097 68.1109 77.4699L68.2805 77.5286C70.2054 78.2044 72.2311 78.5485 74.2712 78.5461C74.6658 78.5461 75.0604 78.533 75.4484 78.5037C76.3467 78.4485 77.2396 78.3253 78.1193 78.1352C78.6118 78.0275 79.0944 77.9004 79.551 77.7601C79.6618 77.7275 79.7661 77.6949 79.8803 77.659C83.9817 76.3231 87.4722 73.568 89.7242 69.889C91.9763 66.2099 92.8421 61.8482 92.1662 57.5879C91.4903 53.3277 89.3169 49.4482 86.0368 46.6468C82.7566 43.8455 78.5848 42.306 74.2712 42.3052L74.2712 42.3052ZM84.785 74.0001C83.2217 75.2064 81.4621 76.1342 79.5836 76.7426C79.4825 76.7753 79.378 76.8079 79.2737 76.8405C78.84 76.9742 78.3834 77.0916 77.9139 77.1927C77.0816 77.3743 76.2367 77.4921 75.3865 77.5449C75.018 77.571 74.6429 77.584 74.2712 77.584C72.3401 77.5852 70.4227 77.2599 68.6001 76.622L68.4404 76.5665C67.4478 76.2098 66.4913 75.76 65.5835 75.223C62.4221 73.3617 59.941 70.5355 58.5048 67.1597C57.0686 63.7839 56.7531 60.0364 57.6046 56.4679C58.4561 52.8995 60.4298 49.6983 63.2355 47.3346C66.0413 44.971 69.5312 43.5697 73.1924 43.3365C76.8536 43.1033 80.4931 44.0506 83.576 46.0392C86.6589 48.0277 89.0228 50.9527 90.3201 54.3843C91.6174 57.8159 91.7799 61.5731 90.7836 65.1039C89.7873 68.6347 87.6848 71.7528 84.785 74V74.0001Z" fill="#CCCCCC"/>
<path d="M143.678 164.818H48.7056C47.51 164.817 46.3637 164.341 45.5182 163.496C44.6727 162.65 44.1971 161.504 44.1958 160.308V31.38C44.1971 30.1843 44.6727 29.038 45.5182 28.1925C46.3637 27.347 47.51 26.8715 48.7056 26.8701H143.678C144.873 26.8715 146.02 27.347 146.865 28.1925C147.711 29.038 148.186 30.1843 148.187 31.38V160.308C148.186 161.504 147.711 162.65 146.865 163.496C146.02 164.341 144.873 164.817 143.678 164.818ZM48.7056 27.4007C47.6506 27.4019 46.6392 27.8215 45.8932 28.5675C45.1472 29.3135 44.7276 30.325 44.7264 31.38V160.308C44.7276 161.363 45.1472 162.375 45.8932 163.121C46.6392 163.867 47.6506 164.286 48.7056 164.288H143.678C144.733 164.286 145.744 163.867 146.49 163.121C147.236 162.375 147.656 161.363 147.657 160.308V31.38C147.656 30.325 147.236 29.3135 146.49 28.5675C145.744 27.8215 144.733 27.4019 143.678 27.4007L48.7056 27.4007Z" fill="#CCCCCC"/>
<path d="M125.292 60.3556H98.4185C97.8546 60.3556 97.3139 60.1316 96.9152 59.7329C96.5165 59.3342 96.2925 58.7934 96.2925 58.2295C96.2925 57.6657 96.5165 57.1249 96.9152 56.7262C97.3139 56.3275 97.8546 56.1035 98.4185 56.1035H125.292C125.856 56.1035 126.397 56.3275 126.796 56.7262C127.194 57.1249 127.418 57.6657 127.418 58.2295C127.418 58.7934 127.194 59.3342 126.796 59.7329C126.397 60.1316 125.856 60.3556 125.292 60.3556Z" fill="#E6E6E6"/>
<path d="M134.062 67.5309H98.4185C97.8546 67.5309 97.3139 67.3069 96.9152 66.9082C96.5165 66.5094 96.2925 65.9687 96.2925 65.4048C96.2925 64.841 96.5165 64.3002 96.9152 63.9015C97.3139 63.5028 97.8546 63.2788 98.4185 63.2788H134.062C134.626 63.2788 135.167 63.5028 135.565 63.9015C135.964 64.3002 136.188 64.841 136.188 65.4048C136.188 65.9687 135.964 66.5094 135.565 66.9082C135.167 67.3069 134.626 67.5309 134.062 67.5309Z" fill="#E6E6E6"/>
<path d="M125.253 95.0514H58.3213C57.7575 95.0514 57.2167 94.8274 56.818 94.4287C56.4193 94.03 56.1953 93.4892 56.1953 92.9253C56.1953 92.3615 56.4193 91.8207 56.818 91.422C57.2167 91.0233 57.7575 90.7993 58.3213 90.7993H125.253C125.817 90.7993 126.358 91.0233 126.756 91.422C127.155 91.8207 127.379 92.3615 127.379 92.9253C127.379 93.4892 127.155 94.03 126.756 94.4287C126.358 94.8274 125.817 95.0514 125.253 95.0514Z" fill="#E6E6E6"/>
<path d="M134.023 102.227H58.3213C57.7575 102.227 57.2167 102.003 56.818 101.604C56.4193 101.205 56.1953 100.664 56.1953 100.101C56.1953 99.5368 56.4193 98.996 56.818 98.5973C57.2167 98.1986 57.7575 97.9746 58.3213 97.9746H134.023C134.587 97.9746 135.128 98.1986 135.526 98.5973C135.925 98.996 136.149 99.5368 136.149 100.101C136.149 100.664 135.925 101.205 135.526 101.604C135.128 102.003 134.587 102.227 134.023 102.227Z" fill="#E6E6E6"/>
<path d="M125.253 118.718H58.3213C57.7575 118.718 57.2167 118.494 56.818 118.096C56.4193 117.697 56.1953 117.156 56.1953 116.592C56.1953 116.028 56.4193 115.488 56.818 115.089C57.2167 114.69 57.7575 114.466 58.3213 114.466H125.253C125.817 114.466 126.358 114.69 126.756 115.089C127.155 115.488 127.379 116.028 127.379 116.592C127.379 117.156 127.155 117.697 126.756 118.096C126.358 118.494 125.817 118.718 125.253 118.718Z" fill="#E6E6E6"/>
<path d="M134.023 125.894H58.3213C57.7575 125.894 57.2167 125.67 56.818 125.271C56.4193 124.872 56.1953 124.331 56.1953 123.768C56.1953 123.204 56.4193 122.663 56.818 122.264C57.2167 121.866 57.7575 121.642 58.3213 121.642H134.023C134.587 121.642 135.128 121.866 135.526 122.264C135.925 122.663 136.149 123.204 136.149 123.768C136.149 124.331 135.925 124.872 135.526 125.271C135.128 125.67 134.587 125.894 134.023 125.894Z" fill="#E6E6E6"/>
<path d="M125.253 142.385H58.3213C57.7575 142.385 57.2167 142.161 56.818 141.763C56.4193 141.364 56.1953 140.823 56.1953 140.259C56.1953 139.695 56.4193 139.155 56.818 138.756C57.2167 138.357 57.7575 138.133 58.3213 138.133H125.253C125.817 138.133 126.358 138.357 126.756 138.756C127.155 139.155 127.379 139.695 127.379 140.259C127.379 140.823 127.155 141.364 126.756 141.763C126.358 142.161 125.817 142.385 125.253 142.385Z" fill="#E6E6E6"/>
<path d="M134.023 149.561H58.3213C57.7575 149.561 57.2167 149.337 56.818 148.938C56.4193 148.539 56.1953 147.998 56.1953 147.435C56.1953 146.871 56.4193 146.33 56.818 145.931C57.2167 145.533 57.7575 145.309 58.3213 145.309H134.023C134.586 145.309 135.126 145.534 135.525 145.932C135.923 146.331 136.146 146.871 136.146 147.435C136.146 147.998 135.923 148.538 135.525 148.937C135.126 149.336 134.586 149.56 134.023 149.561Z" fill="#E6E6E6"/>
<path d="M183.296 77.0048C183.383 76.197 183.22 75.3818 182.828 74.6701C182.436 73.9583 181.834 73.3845 181.105 73.0266L107.912 37.253C107.446 37.0253 106.941 36.8915 106.423 36.8592C105.906 36.827 105.388 36.8969 104.898 37.065C104.407 37.2331 103.955 37.4961 103.567 37.839C103.178 38.1818 102.861 38.5979 102.633 39.0633L102.632 39.0661L75.1798 95.2336C74.7216 96.1744 74.6552 97.2585 74.9951 98.2482C75.3349 99.2379 76.0534 100.052 76.9929 100.513L150.186 136.287C151.127 136.745 152.211 136.812 153.201 136.472C154.19 136.132 155.005 135.413 155.466 134.474L182.918 78.3063C183.119 77.8977 183.246 77.4573 183.296 77.0048Z" fill="white"/>
<path d="M183.296 77.0048C183.383 76.197 183.22 75.3818 182.828 74.6701C182.436 73.9583 181.834 73.3845 181.105 73.0266L107.912 37.253C107.446 37.0253 106.941 36.8915 106.423 36.8592C105.906 36.827 105.388 36.8969 104.898 37.065C104.407 37.2331 103.955 37.4961 103.567 37.839C103.178 38.1818 102.861 38.5979 102.633 39.0633L102.632 39.0661L75.1798 95.2336C74.7216 96.1744 74.6552 97.2585 74.9951 98.2482C75.3349 99.2379 76.0534 100.052 76.9929 100.513L150.186 136.287C151.127 136.745 152.211 136.812 153.201 136.472C154.19 136.132 155.005 135.413 155.466 134.474L182.918 78.3063C183.119 77.8977 183.246 77.4573 183.296 77.0048ZM155.049 134.27C154.642 135.099 153.923 135.733 153.05 136.033C152.177 136.333 151.22 136.274 150.39 135.87L77.1968 100.096C76.3677 99.6896 75.7337 98.9709 75.4338 98.0976C75.1339 97.2242 75.1926 96.2676 75.597 95.4375L103.049 39.27C103.456 38.4409 104.174 37.8069 105.048 37.507C105.921 37.2071 106.878 37.2658 107.708 37.6702L180.901 73.4438C181.73 73.8503 182.364 74.569 182.664 75.4424C182.964 76.3157 182.905 77.2723 182.501 78.1024L155.049 134.27Z" fill="#3F3D56"/>
<path d="M175.313 79.5589L156.144 118.779C156.016 119.041 155.789 119.241 155.514 119.336C155.238 119.431 154.936 119.412 154.675 119.284H154.675L88.0953 86.7432C88.0478 86.7204 88.0022 86.6936 87.9592 86.663C87.7409 86.5144 87.5834 86.2921 87.5157 86.0368C87.448 85.7815 87.4746 85.5104 87.5905 85.2731L106.76 46.0531C106.823 45.9234 106.911 45.8075 107.019 45.712C107.127 45.6164 107.253 45.5431 107.39 45.4962C107.526 45.4493 107.67 45.4297 107.814 45.4386C107.958 45.4475 108.099 45.4846 108.229 45.548L174.808 78.0889C175.07 78.2168 175.27 78.4434 175.365 78.7189C175.46 78.9945 175.441 79.2964 175.313 79.5582V79.5583L175.313 79.5589Z" fill="#E6E6E6"/>
<path d="M116.861 77.5669C122.186 77.5669 126.503 73.25 126.503 67.9248C126.503 62.5996 122.186 58.2827 116.861 58.2827C111.536 58.2827 107.219 62.5996 107.219 67.9248C107.219 73.25 111.536 77.5669 116.861 77.5669Z" fill="#277AFF"/>
<path d="M130.979 107.897L88.4822 87.1268C88.4287 87.1015 88.3776 87.0713 88.3296 87.0366L125.444 62.0458C125.673 61.8889 125.939 61.7955 126.216 61.7752C126.492 61.7549 126.769 61.8083 127.018 61.9301C127.267 62.0519 127.48 62.2375 127.634 62.4682C127.787 62.6989 127.877 62.9663 127.894 63.2431L129.964 93.199L130.064 94.6328L130.979 107.897Z" fill="#3F3D56"/>
<path opacity="0.2" d="M130.979 107.897L116.469 100.806L128.649 93.9411L129.525 93.4467L129.964 93.1992L130.064 94.6328L130.979 107.897Z" fill="black"/>
<path d="M154.641 119.463L117.885 101.498L130.064 94.633L130.941 94.1383L146.812 85.1919C147.852 84.6057 149.343 85.2661 149.681 86.3878C149.704 86.4639 149.721 86.5414 149.733 86.6198L154.641 119.463Z" fill="#3F3D56"/>
<path d="M41.231 122.886L45.2288 122.886L47.131 107.464L41.23 107.465L41.231 122.886Z" fill="#FFB8B8"/>
<path d="M40.2109 121.58L48.0845 121.58H48.0849C48.7438 121.58 49.3963 121.71 50.0051 121.962C50.6138 122.214 51.167 122.584 51.6329 123.05C52.0989 123.516 52.4685 124.069 52.7206 124.678C52.9728 125.286 53.1026 125.939 53.1026 126.598V126.761L40.2112 126.761L40.2109 121.58Z" fill="#2F2E41"/>
<path d="M10.1543 120.34L14.2966 121.15L19.3931 105.559L13.2798 104.363L10.1543 120.34Z" fill="#FFB8B8"/>
<path d="M9.36244 118.781L17.5199 120.376L17.5203 120.377C18.203 120.51 18.8527 120.777 19.4323 121.161C20.0119 121.546 20.5101 122.041 20.8984 122.618C21.2866 123.195 21.5574 123.843 21.6953 124.525C21.8331 125.207 21.8353 125.91 21.7018 126.592L21.6687 126.761L8.3125 124.148L9.36244 118.781Z" fill="#2F2E41"/>
<path d="M47.0474 69.6897C46.912 69.2298 46.6775 68.8051 46.3602 68.4457C46.043 68.0862 45.6508 67.8007 45.2113 67.6092C44.7718 67.4177 44.2957 67.3249 43.8164 67.3374C43.3372 67.3498 42.8665 67.4672 42.4375 67.6812L34.1039 59.5352L32.9541 65.4808L41.0441 72.3049C41.4514 73.0017 42.1002 73.525 42.8675 73.7754C43.6348 74.0259 44.4673 73.9861 45.2073 73.6638C45.9473 73.3414 46.5433 72.7588 46.8825 72.0264C47.2216 71.2939 47.2803 70.4625 47.0474 69.6897Z" fill="#FFB8B8"/>
<path d="M16.1288 27.761C20.5524 27.761 24.1385 24.175 24.1385 19.7514C24.1385 15.3277 20.5524 11.7417 16.1288 11.7417C11.7052 11.7417 8.11914 15.3277 8.11914 19.7514C8.11914 24.175 11.7052 27.761 16.1288 27.761Z" fill="#FFB8B8"/>
<path d="M14.4469 27.8836C14.8725 28.0698 15.744 24.6788 15.3536 24.0005C14.773 22.9919 14.8073 22.9991 14.4219 22.3318C14.0365 21.6645 13.9503 20.7511 14.4494 20.1639C14.9485 19.5768 16.1034 19.6547 16.3312 20.3909C16.1847 18.9925 17.5678 17.8685 18.9378 17.5527C20.3079 17.2368 21.753 17.4329 23.1305 17.1518C24.7293 16.8256 26.3927 15.4855 25.7548 13.7274C25.6454 13.4347 25.4815 13.1654 25.2718 12.9336C24.5349 12.105 23.5039 11.7511 22.496 11.409C20.3991 10.6973 18.2448 9.97664 16.0317 10.0552C14.2083 10.1506 12.4522 10.7754 10.9784 11.8532C9.50456 12.9311 8.37689 14.4152 7.73338 16.1239C7.58087 16.5514 7.46272 16.9904 7.38006 17.4366C6.62047 21.5209 8.99226 25.5496 12.8445 27.1049L14.4469 27.8836Z" fill="#2F2E41"/>
<path d="M12.4801 71.8837C12.2759 71.7602 12.1121 71.5797 12.0091 71.3643C11.9061 71.149 11.8683 70.9082 11.9004 70.6716L8.28606 52.7676L4.6224 39.0269H4.62247C4.22026 37.5213 4.34174 35.9236 4.96697 34.4961C5.59219 33.0686 6.68404 31.896 8.06338 31.1706L10.4854 28.8789L15.7692 31.1553L18.28 33.7082C20.0808 34.585 21.6782 35.8289 22.9696 37.36C24.261 38.8911 25.2177 40.6754 25.7783 42.5983L29.8053 56.3781L39.1051 70.214C39.2604 70.4446 39.333 70.7209 39.3112 70.9981C39.2893 71.2752 39.1742 71.5367 38.9847 71.7401C37.6909 73.1318 12.4801 71.8837 12.4801 71.8837Z" fill="#2F2E41"/>
<path d="M36.8455 70.6119L23.1322 61.1091C21.2631 59.8049 19.91 57.8872 19.3079 55.689L15.4533 41.6143C15.3098 41.0987 15.2711 40.5596 15.3395 40.0288C15.4079 39.498 15.582 38.9862 15.8515 38.5239C16.2175 37.8854 16.7563 37.3631 17.4058 37.0171C18.0553 36.671 18.7892 36.5152 19.5233 36.5675C20.2574 36.6198 20.9619 36.8782 21.5557 37.3128C22.1496 37.7475 22.6088 38.3409 22.8806 39.0248L28.5972 53.0868L40.7775 64.6463C40.9146 64.8128 41.0058 65.0122 41.042 65.2247C41.0783 65.4373 41.0583 65.6556 40.9842 65.8581L38.6644 70.0052C38.5839 70.2442 38.4306 70.452 38.226 70.5994C38.0213 70.7468 37.7757 70.8265 37.5235 70.8272C37.2807 70.8269 37.044 70.7517 36.8455 70.6119Z" fill="#2F2E41"/>
<path d="M8.35633 117.954C8.24421 117.793 8.17242 117.607 8.14702 117.413C8.12162 117.219 8.14336 117.021 8.21039 116.837L14.5545 93.7747L15.0234 71.1767L36.3793 69.7121L36.483 69.7051L42.9153 81.3633C44.9291 85.0082 46.1619 89.0326 46.5352 93.1801L48.655 116.409C48.687 116.725 48.5939 117.04 48.3957 117.288C48.1974 117.536 47.9099 117.696 47.5949 117.734L41.1556 118.347C40.8453 118.385 40.5326 118.3 40.2841 118.11C40.0356 117.921 39.871 117.641 39.8254 117.332L37.2106 93.7272L27.8024 77.8308L24.6443 94.5664L18.1016 117.678C18.016 117.908 17.8623 118.108 17.6609 118.249C17.4594 118.39 17.2198 118.467 16.9738 118.469L9.34268 118.472C9.1484 118.473 8.95685 118.426 8.78487 118.336C8.61289 118.245 8.46574 118.114 8.35633 117.954Z" fill="#2F2E41"/>
<path d="M171.878 193.804H10.9531C8.09993 193.8 5.36451 192.666 3.347 190.648C1.32948 188.631 0.194629 185.895 0.191406 183.042V94.6655C0.194629 91.8123 1.32948 89.0769 3.347 87.0594C5.36451 85.0419 8.09993 83.907 10.9531 83.9038H30.6838C33.3609 83.9015 35.9424 84.8994 37.9219 86.7017L59.3187 101.98C60.7136 103.255 62.5354 103.961 64.4252 103.96H172.877C174.304 103.96 175.716 104.243 177.032 104.794C178.348 105.345 179.541 106.152 180.542 107.168C181.544 108.184 182.333 109.389 182.864 110.712C183.396 112.036 183.659 113.452 183.638 114.879L182.639 183.199C182.586 186.022 181.43 188.712 179.419 190.694C177.408 192.676 174.702 193.792 171.878 193.804Z" fill="white"/>
<path d="M170.449 188.586H11.9054C10.529 188.584 9.20941 188.037 8.23615 187.064C7.26288 186.09 6.71542 184.771 6.71387 183.394V93.5729C6.71543 92.1965 7.26289 90.8769 8.23615 89.9036C9.20941 88.9304 10.529 88.3829 11.9054 88.3813C13.1228 88.3827 14.29 88.8669 15.1508 89.7278C16.0117 90.5886 16.4959 91.7558 16.4972 92.9732V177.198C16.4987 178.488 17.0118 179.725 17.9239 180.637C18.836 181.549 20.0727 182.062 21.3627 182.064H169.913C170.651 182.055 171.371 182.295 171.957 182.743C172.543 183.192 172.962 183.824 173.147 184.538C173.354 185.216 173.328 185.943 173.074 186.604C172.819 187.265 172.35 187.822 171.742 188.185C171.357 188.437 170.909 188.575 170.449 188.586Z" fill="#F2F2F2"/>
<path d="M92.6198 145.45L92.2024 145.033C92.1159 144.952 92.0652 144.84 92.0613 144.721C92.0574 144.603 92.1007 144.488 92.1817 144.401C92.1884 144.394 92.1953 144.387 92.2024 144.381L95.8647 140.715C95.9048 140.672 95.9529 140.638 96.0064 140.614C96.0598 140.589 96.1175 140.576 96.1761 140.574C96.2348 140.572 96.2932 140.582 96.3481 140.602C96.403 140.623 96.4533 140.654 96.4962 140.694C96.5033 140.701 96.5102 140.708 96.5169 140.715L100.179 144.377C100.222 144.419 100.256 144.468 100.28 144.523C100.304 144.577 100.316 144.636 100.318 144.696C100.319 144.755 100.308 144.814 100.286 144.87C100.264 144.925 100.232 144.976 100.19 145.018L100.179 145.03L99.7617 145.447C99.7204 145.49 99.671 145.524 99.6164 145.548C99.5618 145.572 99.5031 145.584 99.4436 145.585C99.384 145.586 99.3249 145.576 99.2695 145.554C99.2141 145.532 99.1636 145.5 99.1208 145.458L99.1095 145.447L96.9441 143.164V148.581C96.9445 148.64 96.9333 148.699 96.9111 148.753C96.8889 148.808 96.8561 148.858 96.8146 148.9C96.7731 148.942 96.7238 148.976 96.6693 148.999C96.6149 149.022 96.5564 149.034 96.4973 149.034L96.4941 149.034H95.8908C95.7705 149.034 95.6552 148.987 95.5702 148.902C95.4852 148.817 95.4375 148.701 95.4375 148.581V143.171L93.2721 145.454C93.1881 145.54 93.0735 145.589 92.9532 145.59C92.833 145.592 92.7171 145.546 92.6311 145.462L92.6198 145.45Z" fill="#277AFF"/>
<path d="M96.1839 137.386C97.6538 137.386 99.0907 137.821 100.313 138.638C101.535 139.455 102.488 140.615 103.05 141.974C103.613 143.332 103.76 144.826 103.473 146.268C103.186 147.709 102.479 149.034 101.439 150.073C100.4 151.112 99.0755 151.82 97.6338 152.107C96.1921 152.394 94.6978 152.247 93.3397 151.684C91.9817 151.122 90.821 150.169 90.0043 148.947C89.1877 147.725 88.7518 146.288 88.7518 144.818C88.7535 142.847 89.5371 140.958 90.9305 139.564C92.3239 138.171 94.2133 137.387 96.1839 137.386ZM96.1839 136.407C94.5205 136.407 92.8944 136.9 91.5113 137.825C90.1282 138.749 89.0502 140.062 88.4136 141.599C87.7771 143.136 87.6105 144.827 87.935 146.458C88.2596 148.09 89.0606 149.589 90.2368 150.765C91.413 151.941 92.9116 152.742 94.5431 153.066C96.1745 153.391 97.8656 153.224 99.4024 152.588C100.939 151.951 102.253 150.873 103.177 149.49C104.101 148.107 104.594 146.481 104.594 144.818C104.594 142.587 103.708 140.448 102.131 138.871C100.554 137.293 98.4145 136.407 96.1839 136.407Z" fill="#3F3D56"/>
<path d="M171.878 193.804H10.9531C8.09993 193.8 5.36451 192.666 3.347 190.648C1.32948 188.631 0.194629 185.895 0.191406 183.042V94.6655C0.194629 91.8123 1.32948 89.0769 3.347 87.0594C5.36451 85.0419 8.09993 83.907 10.9531 83.9038H30.6838C33.3609 83.9015 35.9424 84.8994 37.9219 86.7017L59.3187 101.98C60.7136 103.255 62.5354 103.961 64.4252 103.96H172.877C174.304 103.96 175.716 104.243 177.032 104.794C178.348 105.345 179.541 106.152 180.542 107.168C181.544 108.184 182.333 109.389 182.864 110.712C183.396 112.036 183.659 113.452 183.638 114.879L182.639 183.199C182.586 186.022 181.43 188.712 179.419 190.694C177.408 192.676 174.702 193.792 171.878 193.804ZM10.9531 84.556C8.27285 84.5591 5.70324 85.6252 3.808 87.5204C1.91276 89.4156 0.846677 91.9853 0.843631 94.6655V183.042C0.846677 185.722 1.91276 188.292 3.808 190.187C5.70324 192.082 8.27285 193.148 10.9531 193.151H171.878C174.53 193.141 177.073 192.092 178.962 190.23C180.851 188.369 181.937 185.842 181.987 183.19L182.986 114.869C183.005 113.529 182.758 112.199 182.259 110.955C181.76 109.712 181.019 108.58 180.078 107.625C179.137 106.671 178.016 105.913 176.78 105.396C175.544 104.878 174.217 104.612 172.877 104.612H64.4252C62.3795 104.614 60.407 103.852 58.8936 102.476L37.4969 87.1968C35.6357 85.496 33.2051 84.5539 30.6838 84.556H10.9531Z" fill="#3F3D56"/>
<path d="M185.516 195.524H181.518L180.269 180.103L185.517 180.103L185.516 195.524Z" fill="#FFB8B8"/>
<path d="M186.536 199.4L173.645 199.399V199.236C173.645 198.577 173.774 197.925 174.026 197.316C174.279 196.707 174.648 196.154 175.114 195.688C175.58 195.222 176.133 194.853 176.742 194.601C177.351 194.349 178.003 194.219 178.662 194.219H178.663L186.536 194.219L186.536 199.4Z" fill="#2F2E41"/>
<path d="M230.193 195.524H226.195L224.293 180.103L230.194 180.103L230.193 195.524Z" fill="#FFB8B8"/>
<path d="M231.213 199.4L218.322 199.399V199.236C218.322 198.577 218.452 197.925 218.704 197.316C218.956 196.707 219.325 196.154 219.791 195.688C220.257 195.222 220.811 194.853 221.419 194.601C222.028 194.349 222.681 194.219 223.34 194.219H223.34L231.213 194.219L231.213 199.4Z" fill="#2F2E41"/>
<path d="M217.047 147.851C217.599 147.204 217.91 146.387 217.928 145.536C217.945 144.686 217.668 143.856 217.143 143.187C217.036 143.059 216.919 142.94 216.793 142.832L219.805 131.714L214.786 133.379L212.695 143.681C212.349 144.316 212.195 145.039 212.254 145.761C212.313 146.482 212.582 147.171 213.027 147.741C213.26 148.049 213.559 148.301 213.903 148.477C214.246 148.654 214.625 148.751 215.011 148.762C215.397 148.773 215.78 148.696 216.133 148.539C216.485 148.381 216.798 148.146 217.047 147.851Z" fill="#FFB8B8"/>
<path d="M216.854 141.012C216.791 141.012 216.729 141.008 216.666 140.998L214.051 140.604C213.848 140.569 213.654 140.49 213.485 140.372C213.315 140.255 213.173 140.101 213.069 139.923C212.842 139.544 212.761 139.095 212.839 138.66L216.102 120.436L213.889 108.729C213.463 106.475 214.563 104.2 216.45 103.435C217.009 103.206 217.619 103.126 218.218 103.203C218.818 103.28 219.388 103.511 219.872 103.873C220.394 104.269 220.826 104.77 221.142 105.343C221.458 105.917 221.65 106.55 221.705 107.203L223.271 122.131L223.252 122.196L218.212 139.887C218.139 140.197 217.967 140.475 217.722 140.678C217.477 140.881 217.172 140.998 216.854 141.012Z" fill="#277AFF"/>
<path d="M216.082 96.9832C220.506 96.9832 224.092 93.3971 224.092 88.9735C224.092 84.5499 220.506 80.9639 216.082 80.9639C211.659 80.9639 208.073 84.5499 208.073 88.9735C208.073 93.3971 211.659 96.9832 216.082 96.9832Z" fill="#FFB8B8"/>
<path d="M211.981 126.206C211.782 126.206 211.584 126.169 211.398 126.097L198.738 121.228C198.395 121.097 198.107 120.854 197.92 120.539C197.733 120.224 197.658 119.854 197.707 119.491L198.216 115.677C197.914 114.326 197.942 112.921 198.297 111.582C198.651 110.243 199.322 109.009 200.254 107.984L200.562 107.645L204.308 100.815C204.561 100.352 204.904 99.9444 205.316 99.6148C205.728 99.2852 206.202 99.0405 206.709 98.8948C207.216 98.749 207.747 98.7051 208.272 98.7656C208.796 98.8261 209.303 98.9898 209.764 99.2473L216.378 102.943C217.249 103.429 217.906 104.223 218.221 105.169C219.111 107.847 219.045 110.751 218.034 113.386L213.505 125.161C213.385 125.468 213.176 125.732 212.904 125.918C212.633 126.105 212.311 126.205 211.981 126.206Z" fill="#277AFF"/>
<path d="M178.803 191.738L178.786 191.735C178.57 191.693 178.365 191.608 178.182 191.485C178 191.362 177.845 191.204 177.725 191.019C177.606 190.835 177.525 190.628 177.487 190.411C177.45 190.194 177.456 189.973 177.507 189.759L187.208 147.351C188.797 140.628 190.991 134.063 193.764 127.737L197.891 118.326L213.292 125.357L215.491 129.379C217.206 133.858 218.087 138.613 218.092 143.409L233.741 189.271C233.818 189.495 233.845 189.733 233.82 189.968C233.795 190.203 233.719 190.43 233.598 190.634C233.477 190.837 233.313 191.011 233.117 191.144C232.922 191.278 232.7 191.367 232.466 191.406L223.9 191.309C223.819 191.323 223.737 191.33 223.655 191.33C223.33 191.33 223.013 191.233 222.744 191.05C222.475 190.868 222.268 190.609 222.148 190.307L204.259 143.939C204.234 143.877 204.19 143.825 204.134 143.789C204.078 143.753 204.012 143.734 203.945 143.737C203.88 143.738 203.817 143.759 203.764 143.797C203.712 143.836 203.672 143.889 203.651 143.951L186.678 190.55C186.547 190.913 186.293 191.217 185.959 191.409C185.625 191.6 185.234 191.667 184.855 191.597L178.803 191.738Z" fill="#2F2E41"/>
<path d="M190.515 139.587C190.967 139.427 191.378 139.169 191.719 138.832C192.061 138.496 192.324 138.088 192.491 137.639C192.658 137.189 192.724 136.709 192.685 136.231C192.646 135.753 192.503 135.29 192.265 134.873L199.936 126.1L193.936 125.282L187.571 133.738C186.898 134.184 186.412 134.86 186.204 135.641C185.997 136.421 186.082 137.25 186.445 137.971C186.808 138.692 187.423 139.254 188.173 139.552C188.923 139.85 189.757 139.863 190.515 139.587Z" fill="#FFB8B8"/>
<path d="M194.132 133.407C193.865 133.407 193.602 133.342 193.366 133.216L190.666 131.777C190.468 131.671 190.294 131.525 190.155 131.349C190.016 131.173 189.914 130.97 189.857 130.753C189.8 130.536 189.788 130.31 189.822 130.088C189.857 129.866 189.937 129.654 190.057 129.464L200.028 113.753L201.757 101.896C201.846 101.284 202.059 100.695 202.382 100.167C202.706 99.6392 203.133 99.1822 203.638 98.824C204.143 98.4657 204.716 98.2137 205.321 98.0832C205.926 97.9527 206.552 97.9465 207.16 98.0648C207.768 98.1831 208.345 98.4235 208.857 98.7715C209.37 99.1195 209.806 99.5678 210.14 100.089C210.474 100.611 210.698 101.195 210.8 101.806C210.902 102.416 210.879 103.042 210.732 103.643L207.162 118.257L195.401 132.803C195.249 132.992 195.055 133.145 194.835 133.25C194.615 133.354 194.375 133.408 194.132 133.407Z" fill="#277AFF"/>
<path d="M208.873 82.3648C209.799 79.3267 215.152 77.9712 219.601 79.2317C224.05 80.4923 227.246 83.7974 227.99 87.0287C229.638 94.1843 221.044 99.9919 222.601 107.148C223.632 111.883 229.592 116.36 236.305 117.441C228.907 118.989 219.877 117.628 213.017 113.932C208.747 111.632 205.165 108.16 205.219 104.659C205.252 102.539 206.601 100.664 208.25 99.0448C209.899 97.4252 211.873 95.9854 213.387 94.2949C214.9 92.6043 215.949 90.5801 215.507 88.4341C215.066 86.288 212.822 84.05 209.802 83.4256L208.873 82.3648Z" fill="#2F2E41"/>
<path d="M253.482 200H129.233C129.147 200 129.064 199.966 129.003 199.904C128.942 199.843 128.907 199.76 128.907 199.674C128.907 199.587 128.942 199.504 129.003 199.443C129.064 199.382 129.147 199.348 129.233 199.348H253.482C253.569 199.348 253.652 199.382 253.713 199.443C253.774 199.504 253.808 199.587 253.808 199.674C253.808 199.76 253.774 199.843 253.713 199.904C253.652 199.966 253.569 200 253.482 200Z" fill="#CCCCCC"/>
</g>
<defs>
<clipPath id="clip0_826_3596">
<rect width="253.617" height="200" fill="white" transform="translate(0.191406)"/>
</clipPath>
</defs>
</svg>
