<svg width="300" height="200" viewBox="0 0 300 200" fill="none" xmlns="http://www.w3.org/2000/svg">
<g clip-path="url(#clip0_869_2733)">
<g opacity="0.1">
<path opacity="0.1" d="M220.569 197.05C223.771 197.05 226.367 193.149 226.367 188.338C226.367 183.527 223.771 179.627 220.569 179.627C217.367 179.627 214.771 183.527 214.771 188.338C214.771 193.149 217.367 197.05 220.569 197.05Z" fill="#3F3D56"/>
<path opacity="0.1" d="M225.157 151.07C225.97 149.452 226.391 147.614 226.378 145.746C226.378 140.925 223.782 137.035 220.58 137.035C217.378 137.035 214.785 140.934 214.785 145.746C214.768 147.613 215.186 149.451 215.995 151.07C215.201 152.697 214.785 154.53 214.785 156.393C214.785 158.257 215.201 160.09 215.995 161.716C215.201 163.343 214.785 165.176 214.785 167.041C214.785 168.905 215.201 170.738 215.995 172.365C215.186 173.985 214.768 175.823 214.785 177.69C214.785 182.511 217.38 186.401 220.58 186.401C223.779 186.401 226.378 182.502 226.378 177.69C226.394 175.823 225.977 173.985 225.168 172.365C225.961 170.738 226.378 168.905 226.378 167.041C226.378 165.176 225.961 163.343 225.168 161.716C225.961 160.09 226.378 158.257 226.378 156.393C226.378 154.53 225.961 152.697 225.168 151.07H225.157Z" fill="#3F3D56"/>
<path opacity="0.1" d="M220.569 143.811C223.771 143.811 226.367 139.911 226.367 135.1C226.367 130.289 223.771 126.389 220.569 126.389C217.367 126.389 214.771 130.289 214.771 135.1C214.771 139.911 217.367 143.811 220.569 143.811Z" fill="#3F3D56"/>
<path opacity="0.1" d="M220.569 133.162C223.771 133.162 226.367 129.262 226.367 124.451C226.367 119.64 223.771 115.74 220.569 115.74C217.367 115.74 214.771 119.64 214.771 124.451C214.771 129.262 217.367 133.162 220.569 133.162Z" fill="#3F3D56"/>
<path opacity="0.1" d="M242.27 51.5842C243.061 50.4261 243.782 49.2068 244.428 47.9351L229.205 45.0635L245.68 45.2051C247.259 41.2573 248.12 36.9813 248.21 32.6386C248.3 28.2958 247.618 23.9775 246.205 19.9478L224.1 33.1038L244.488 15.91C242.577 12.1244 240.008 8.83085 236.941 6.23432C233.874 3.63779 230.374 1.79388 226.659 0.817374C222.944 -0.159132 219.094 -0.247335 215.348 0.558258C211.602 1.36385 208.041 3.046 204.886 5.49998C201.731 7.95397 199.05 11.1273 197.009 14.8223C194.968 18.5174 193.612 22.6552 193.024 26.9781C192.437 31.301 192.63 35.7165 193.593 39.9497C194.556 44.1829 196.268 48.1432 198.622 51.5842C197.388 53.3857 196.327 55.3345 195.457 57.3968L215.228 69.1907L194.147 61.0549C192.663 66.0768 192.295 71.4442 193.074 76.671C193.853 81.8978 195.755 86.8189 198.609 90.9888C195.387 95.6908 193.383 101.339 192.826 107.287C192.268 113.235 193.18 119.243 195.457 124.624C197.733 130.005 201.283 134.542 205.7 137.716C210.116 140.891 215.222 142.574 220.433 142.574C225.644 142.574 230.749 140.891 235.166 137.716C239.583 134.542 243.133 130.005 245.409 124.624C247.686 119.243 248.597 113.235 248.04 107.287C247.483 101.339 245.479 95.6908 242.257 90.9888C246.107 85.3701 248.2 78.429 248.2 71.2804C248.2 64.1319 246.107 57.1908 242.257 51.5721L242.27 51.5842Z" fill="#277AFF"/>
<path opacity="0.1" d="M192.68 71.2939C192.67 78.4438 194.764 85.3879 198.622 91.0007C195.4 95.7028 193.396 101.351 192.839 107.299C192.282 113.247 193.193 119.255 195.47 124.636C197.747 130.017 201.296 134.554 205.713 137.728C210.13 140.903 215.235 142.586 220.446 142.586C225.657 142.586 230.763 140.903 235.179 137.728C239.596 134.554 243.146 130.017 245.422 124.636C247.699 119.255 248.61 113.247 248.053 107.299C247.496 101.351 245.492 95.7028 242.27 91.0007C245.992 85.5768 192.68 67.7141 192.68 71.2939Z" fill="black"/>
</g>
<g opacity="0.1">
<path opacity="0.1" d="M57.9553 187.733C59.9035 187.733 61.4829 185.359 61.4829 182.43C61.4829 179.501 59.9035 177.126 57.9553 177.126C56.0071 177.126 54.4277 179.501 54.4277 182.43C54.4277 185.359 56.0071 187.733 57.9553 187.733Z" fill="#3F3D56"/>
<path opacity="0.1" d="M60.7615 159.743C61.2539 158.757 61.5085 157.637 61.499 156.501C61.499 153.572 59.9242 151.197 57.9688 151.197C56.0134 151.197 54.4412 153.572 54.4412 156.501C54.431 157.637 54.6847 158.756 55.1762 159.743C54.6944 160.733 54.4414 161.849 54.4414 162.984C54.4414 164.118 54.6944 165.234 55.1762 166.224C54.6944 167.215 54.4414 168.331 54.4414 169.465C54.4414 170.6 54.6944 171.715 55.1762 172.706C54.6843 173.691 54.4306 174.81 54.4412 175.945C54.4412 178.877 56.0161 181.252 57.9688 181.252C59.9216 181.252 61.499 178.877 61.499 175.945C61.5089 174.809 61.2543 173.691 60.7615 172.706C61.2447 171.716 61.4985 170.6 61.4985 169.465C61.4985 168.33 61.2447 167.214 60.7615 166.224C61.2447 165.234 61.4985 164.119 61.4985 162.984C61.4985 161.849 61.2447 160.733 60.7615 159.743Z" fill="#3F3D56"/>
<path opacity="0.1" d="M57.9553 155.322C59.9035 155.322 61.4829 152.948 61.4829 150.019C61.4829 147.09 59.9035 144.715 57.9553 144.715C56.0071 144.715 54.4277 147.09 54.4277 150.019C54.4277 152.948 56.0071 155.322 57.9553 155.322Z" fill="#3F3D56"/>
<path opacity="0.1" d="M57.9553 148.841C59.9035 148.841 61.4829 146.466 61.4829 143.537C61.4829 140.608 59.9035 138.234 57.9553 138.234C56.0071 138.234 54.4277 140.608 54.4277 143.537C54.4277 146.466 56.0071 148.841 57.9553 148.841Z" fill="#3F3D56"/>
<path opacity="0.1" d="M44.7507 99.1759C44.269 98.4714 43.8305 97.7294 43.4384 96.9551L52.7114 95.2074L42.6825 95.2948C41.7224 92.8927 41.1986 90.2912 41.1431 87.6491C41.0876 85.0069 41.5015 82.3795 42.3597 79.9271L55.8059 87.9454L43.399 77.4592C44.5627 75.1562 46.1267 73.1527 47.9938 71.5735C49.8608 69.9942 51.991 68.8729 54.2517 68.2794C56.5124 67.6858 58.8554 67.6327 61.1347 68.1233C63.4141 68.614 65.5812 69.6378 67.5011 71.1312C69.421 72.6246 71.0527 74.5557 72.2946 76.8041C73.5366 79.0526 74.3622 81.5704 74.7202 84.2009C75.0782 86.8315 74.9609 89.5184 74.3755 92.0947C73.7902 94.6709 72.7493 97.0813 71.3177 99.1759C72.0687 100.271 72.7146 101.456 73.2442 102.71L61.2074 109.894L74.0421 104.949C74.9435 108.008 75.1664 111.276 74.6907 114.458C74.215 117.64 73.0557 120.635 71.3177 123.174C73.2786 126.036 74.4984 129.474 74.8376 133.095C75.1767 136.716 74.6216 140.373 73.2357 143.649C71.8498 146.924 69.689 149.686 67.0003 151.618C64.3116 153.551 61.2036 154.575 58.0316 154.575C54.8596 154.575 51.7516 153.551 49.0629 151.618C46.3742 149.686 44.2134 146.924 42.8275 143.649C41.4415 140.373 40.8864 136.716 41.2256 133.095C41.5648 129.474 42.7846 126.036 44.7455 123.174C42.4023 119.753 41.1284 115.527 41.1284 111.175C41.1284 106.823 42.4023 102.597 44.7455 99.1759H44.7507Z" fill="#277AFF"/>
<path opacity="0.1" d="M74.9347 111.175C74.9403 115.528 73.6659 119.756 71.3179 123.174C73.2788 126.036 74.4986 129.474 74.8378 133.095C75.177 136.716 74.6219 140.373 73.236 143.649C71.85 146.925 69.6892 149.686 67.0005 151.619C64.3118 153.551 61.2038 154.576 58.0318 154.576C54.8598 154.576 51.7518 153.551 49.0631 151.619C46.3744 149.686 44.2136 146.925 42.8277 143.649C41.4418 140.373 40.8866 136.716 41.2258 133.095C41.565 129.474 42.7848 126.036 44.7457 123.174C42.4806 119.886 74.9347 108.996 74.9347 111.175Z" fill="black"/>
</g>
<g opacity="0.1">
<path opacity="0.1" d="M137.483 192.349C140.091 192.349 142.205 189.172 142.205 185.253C142.205 181.334 140.091 178.157 137.483 178.157C134.875 178.157 132.761 181.334 132.761 185.253C132.761 189.172 134.875 192.349 137.483 192.349Z" fill="#3F3D56"/>
<path opacity="0.1" d="M141.22 154.891C141.878 153.571 142.218 152.073 142.205 150.552C142.205 146.635 140.105 143.456 137.48 143.456C134.856 143.456 132.756 146.635 132.756 150.552C132.742 152.074 133.083 153.572 133.743 154.891C133.096 156.216 132.756 157.71 132.756 159.229C132.756 160.748 133.096 162.242 133.743 163.567C133.096 164.891 132.756 166.384 132.756 167.903C132.756 169.421 133.096 170.914 133.743 172.239C133.083 173.558 132.742 175.056 132.756 176.578C132.756 180.495 134.871 183.674 137.48 183.674C140.089 183.674 142.205 180.495 142.205 176.578C142.218 175.057 141.878 173.559 141.22 172.239C141.866 170.914 142.205 169.421 142.205 167.903C142.205 166.385 141.866 164.892 141.22 163.567C141.866 162.241 142.205 160.748 142.205 159.229C142.205 157.71 141.866 156.217 141.22 154.891Z" fill="#3F3D56"/>
<path opacity="0.1" d="M137.483 148.976C140.091 148.976 142.205 145.799 142.205 141.88C142.205 137.961 140.091 134.784 137.483 134.784C134.875 134.784 132.761 137.961 132.761 141.88C132.761 145.799 134.875 148.976 137.483 148.976Z" fill="#3F3D56"/>
<path opacity="0.1" d="M137.483 140.301C140.091 140.301 142.205 137.124 142.205 133.205C142.205 129.285 140.091 126.108 137.483 126.108C134.875 126.108 132.761 129.285 132.761 133.205C132.761 137.124 134.875 140.301 137.483 140.301Z" fill="#3F3D56"/>
<path opacity="0.1" d="M119.816 73.8433C119.171 72.9009 118.583 71.9082 118.058 70.8722L130.465 68.5339L117.047 68.6484C115.76 65.4326 115.057 61.9491 114.983 58.4109C114.908 54.8727 115.464 51.3543 116.614 48.0708L134.619 58.792L118.013 44.7803C119.565 41.6849 121.655 38.9902 124.155 36.8644C126.655 34.7387 129.509 33.2276 132.54 32.4256C135.572 31.6236 138.714 31.5479 141.772 32.2033C144.83 32.8587 147.737 34.2311 150.312 36.2347C152.887 38.2382 155.075 40.83 156.738 43.848C158.401 46.8659 159.504 50.2453 159.978 53.7748C160.452 57.3043 160.287 60.9081 159.494 64.3612C158.7 67.8142 157.294 71.0421 155.365 73.8433C156.37 75.3115 157.234 76.8996 157.942 78.5802L141.837 88.1865L159.01 81.5573C160.217 85.6496 160.515 90.0227 159.879 94.2808C159.242 98.5388 157.691 102.547 155.365 105.944C157.989 109.774 159.621 114.375 160.075 119.22C160.529 124.066 159.786 128.96 157.931 133.343C156.077 137.727 153.185 141.423 149.587 144.009C145.989 146.594 141.83 147.966 137.585 147.966C133.34 147.966 129.181 146.594 125.583 144.009C121.985 141.423 119.094 137.727 117.239 133.343C115.385 128.96 114.642 124.066 115.096 119.22C115.549 114.375 117.182 109.774 119.806 105.944C116.67 101.366 114.966 95.7111 114.966 89.8875C114.966 84.0639 116.67 78.4093 119.806 73.8313L119.816 73.8433Z" fill="#277AFF"/>
<path opacity="0.1" d="M160.205 89.9012C160.212 95.7259 158.507 101.383 155.365 105.956C157.989 109.786 159.621 114.387 160.075 119.233C160.529 124.078 159.786 128.972 157.931 133.356C156.077 137.739 153.185 141.435 149.587 144.021C145.989 146.606 141.83 147.978 137.585 147.978C133.34 147.978 129.181 146.606 125.583 144.021C121.985 141.435 119.094 137.739 117.239 133.356C115.385 128.972 114.642 124.078 115.096 119.233C115.549 114.387 117.182 109.786 119.806 105.956C116.774 101.538 160.205 86.9843 160.205 89.9012Z" fill="black"/>
</g>
<path d="M300 191.711C300 193.781 286.819 195.673 265.026 197.134C261.063 197.397 256.816 197.647 252.312 197.882C248.421 198.083 244.342 198.272 240.076 198.451C235.943 198.62 231.652 198.777 227.202 198.921C213.149 199.382 197.614 199.714 181.11 199.88C177.105 199.922 173.046 199.954 168.934 199.976C164.651 199.998 160.318 200.008 155.937 200.006C76.3725 200.006 11.8765 196.297 11.8765 191.72C11.8765 187.142 76.3725 183.433 155.937 183.433C190.191 183.433 221.648 184.123 246.373 185.268L249.076 185.395H249.092C280.236 186.91 300 189.191 300 191.711Z" fill="#3F3D56"/>
<path opacity="0.15" d="M300 191.711C300 193.781 286.819 195.673 265.026 197.134C261.063 197.397 256.816 197.647 252.312 197.882C248.421 198.083 244.342 198.272 240.076 198.451C235.943 198.62 231.652 198.777 227.202 198.921C213.149 199.382 197.614 199.714 181.11 199.88C177.105 199.922 173.046 199.954 168.934 199.976C164.651 199.998 160.318 200.008 155.937 200.006C76.3725 200.006 11.8765 196.297 11.8765 191.72C11.8765 187.142 76.3725 183.433 155.937 183.433C190.191 183.433 221.648 184.123 246.373 185.268L249.076 185.395H249.092C280.236 186.91 300 189.191 300 191.711Z" fill="black"/>
<path d="M288.123 190.252C288.123 191.982 274.942 193.567 253.15 194.772C249.189 194.992 244.94 195.2 240.438 195.396C236.545 195.565 232.466 195.723 228.202 195.872C224.069 196.012 219.778 196.144 215.328 196.267C201.273 196.652 185.738 196.93 169.234 197.068C165.232 197.102 161.173 197.128 157.058 197.146C152.774 197.165 148.443 197.174 144.063 197.174C64.4987 197.174 0 194.073 0 190.243C0 186.413 64.4987 183.312 144.063 183.312C178.315 183.312 209.772 183.888 234.496 184.846L237.199 184.952H237.218C268.373 186.238 288.123 188.134 288.123 190.252Z" fill="#3F3D56"/>
<path d="M37.2071 127.296L33.5903 114.583L120.204 113.495L123.753 126.082L37.2071 127.296Z" fill="#3F3D56"/>
<path opacity="0.15" d="M37.2071 127.296L33.5903 114.583L120.204 113.495L123.753 126.082L37.2071 127.296Z" fill="black"/>
<path d="M31.4332 127.296L27.8164 114.583L114.431 113.495L117.979 126.082L31.4332 127.296Z" fill="#3F3D56"/>
<path d="M179.294 107.761C170.338 107.761 163.281 103.68 158.121 95.5179C152.96 87.3559 150.38 77.4684 150.38 65.8552C150.38 54.1637 152.876 44.2962 157.866 36.2528C162.856 28.2094 169.896 24.1917 178.984 24.1997C188.622 24.1997 195.883 28.4374 200.769 36.9127C205.654 45.3881 208.098 55.1973 208.1 66.3404C208.1 77.4031 205.571 87.0737 200.514 95.3522C195.457 103.631 188.384 107.767 179.294 107.761ZM179.556 98.5794C185.448 98.5794 189.851 95.6314 192.766 89.7354C195.681 83.8394 197.139 76.4067 197.139 67.4372C197.139 57.4532 195.647 49.2782 192.664 42.9121C189.68 36.5461 185.105 33.3621 178.937 33.3601C167.213 33.3601 161.351 44.0512 161.351 65.4334C161.351 87.5327 167.418 98.5814 179.551 98.5794H179.556ZM182.506 186.504H169.554L254.352 25.8359H267.06L182.506 186.504ZM257.525 188.152C248.435 188.152 241.348 184.034 236.265 175.798C231.182 167.561 228.63 157.673 228.609 146.132C228.609 134.519 231.086 124.69 236.042 116.647C240.997 108.604 248.054 104.586 257.212 104.594C266.782 104.594 273.993 108.832 278.845 117.307C283.697 125.782 286.124 135.59 286.126 146.732C286.126 157.722 283.614 167.374 278.59 175.689C273.567 184.004 266.543 188.158 257.519 188.152H257.525ZM257.677 178.735C263.54 178.735 267.92 175.838 270.816 170.042C273.712 164.247 275.16 156.844 275.16 147.834C275.16 138.192 273.694 130.105 270.764 123.574C267.833 117.044 263.267 113.773 257.065 113.763C245.274 113.763 239.378 124.454 239.378 145.837C239.374 167.771 245.472 178.737 257.672 178.735H257.677Z" fill="#3F3D56"/>
<path d="M179.294 107.761C170.338 107.761 163.281 103.68 158.121 95.5179C152.96 87.3559 150.38 77.4684 150.38 65.8552C150.38 54.1637 152.876 44.2962 157.866 36.2528C162.856 28.2094 169.896 24.1917 178.984 24.1997C188.622 24.1997 195.883 28.4374 200.769 36.9127C205.654 45.3881 208.098 55.1973 208.1 66.3404C208.1 77.4031 205.571 87.0737 200.514 95.3522C195.457 103.631 188.384 107.767 179.294 107.761ZM179.556 98.5794C185.448 98.5794 189.851 95.6314 192.766 89.7354C195.681 83.8394 197.139 76.4067 197.139 67.4372C197.139 57.4532 195.647 49.2782 192.664 42.9121C189.68 36.5461 185.105 33.3621 178.937 33.3601C167.213 33.3601 161.351 44.0512 161.351 65.4334C161.351 87.5327 167.418 98.5814 179.551 98.5794H179.556ZM182.506 186.504H169.554L254.352 25.8359H267.06L182.506 186.504ZM257.525 188.152C248.435 188.152 241.348 184.034 236.265 175.798C231.182 167.561 228.63 157.673 228.609 146.132C228.609 134.519 231.086 124.69 236.042 116.647C240.997 108.604 248.054 104.586 257.212 104.594C266.782 104.594 273.993 108.832 278.845 117.307C283.697 125.782 286.124 135.59 286.126 146.732C286.126 157.722 283.614 167.374 278.59 175.689C273.567 184.004 266.543 188.158 257.519 188.152H257.525ZM257.677 178.735C263.54 178.735 267.92 175.838 270.816 170.042C273.712 164.247 275.16 156.844 275.16 147.834C275.16 138.192 273.694 130.105 270.764 123.574C267.833 117.044 263.267 113.773 257.065 113.763C245.274 113.763 239.378 124.454 239.378 145.837C239.374 167.771 245.472 178.737 257.672 178.735H257.677Z" fill="#3F3D56"/>
<path opacity="0.15" d="M179.294 107.761C170.338 107.761 163.281 103.68 158.121 95.5179C152.96 87.3559 150.38 77.4684 150.38 65.8552C150.38 54.1637 152.876 44.2962 157.866 36.2528C162.856 28.2094 169.896 24.1917 178.984 24.1997C188.622 24.1997 195.883 28.4374 200.769 36.9127C205.654 45.3881 208.098 55.1973 208.1 66.3404C208.1 77.4031 205.571 87.0737 200.514 95.3522C195.457 103.631 188.384 107.767 179.294 107.761ZM179.556 98.5794C185.448 98.5794 189.851 95.6314 192.766 89.7354C195.681 83.8394 197.139 76.4067 197.139 67.4372C197.139 57.4532 195.647 49.2782 192.664 42.9121C189.68 36.5461 185.105 33.3621 178.937 33.3601C167.213 33.3601 161.351 44.0512 161.351 65.4334C161.351 87.5327 167.418 98.5814 179.551 98.5794H179.556ZM182.506 186.504H169.554L254.352 25.8359H267.06L182.506 186.504ZM257.525 188.152C248.435 188.152 241.348 184.034 236.265 175.798C231.182 167.561 228.63 157.673 228.609 146.132C228.609 134.519 231.086 124.69 236.042 116.647C240.997 108.604 248.054 104.586 257.212 104.594C266.782 104.594 273.993 108.832 278.845 117.307C283.697 125.782 286.124 135.59 286.126 146.732C286.126 157.722 283.614 167.374 278.59 175.689C273.567 184.004 266.543 188.158 257.519 188.152H257.525ZM257.677 178.735C263.54 178.735 267.92 175.838 270.816 170.042C273.712 164.247 275.16 156.844 275.16 147.834C275.16 138.192 273.694 130.105 270.764 123.574C267.833 117.044 263.267 113.773 257.065 113.763C245.274 113.763 239.378 124.454 239.378 145.837C239.374 167.771 245.472 178.737 257.672 178.735H257.677Z" fill="black"/>
<path d="M171.158 107.761C162.202 107.761 155.144 103.68 149.984 95.5179C144.824 87.3559 142.244 77.4684 142.244 65.8552C142.244 54.1637 144.739 44.2962 149.73 36.2528C154.72 28.2094 161.759 24.1917 170.848 24.1997C180.486 24.1997 187.747 28.4374 192.633 36.9127C197.518 45.3881 199.962 55.1973 199.963 66.3404C199.963 77.4031 197.435 87.0737 192.378 95.3522C187.321 103.631 180.248 107.767 171.158 107.761ZM171.42 98.5794C177.311 98.5794 181.715 95.6314 184.63 89.7354C187.545 83.8394 189.003 76.4067 189.003 67.4372C189.003 57.4532 187.511 49.2782 184.528 42.9121C181.544 36.5461 176.969 33.3621 170.801 33.3601C159.077 33.3601 153.215 44.0512 153.215 65.4334C153.215 87.5327 159.282 98.5814 171.415 98.5794H171.42ZM174.37 186.504H161.417L246.215 25.8359H258.924L174.37 186.504ZM249.388 188.152C240.298 188.152 233.212 184.034 228.129 175.798C223.046 167.561 220.493 157.673 220.472 146.132C220.472 134.519 222.95 124.69 227.906 116.647C232.861 108.604 239.918 104.586 249.076 104.594C258.646 104.594 265.857 108.832 270.709 117.307C275.561 125.782 277.988 135.59 277.99 146.732C277.99 157.722 275.478 167.374 270.454 175.689C265.43 184.004 258.407 188.158 249.383 188.152H249.388ZM249.541 178.735C255.404 178.735 259.784 175.838 262.68 170.042C265.576 164.247 267.024 156.844 267.024 147.834C267.024 138.192 265.558 130.105 262.627 123.574C259.696 117.044 255.129 113.773 248.924 113.763C237.132 113.763 231.236 124.454 231.236 145.837C231.236 167.771 237.336 178.737 249.535 178.735H249.541Z" fill="#3F3D56"/>
<path d="M199.494 190.536C200.575 188.233 199.347 185.413 197.935 183.358C196.523 181.303 194.801 179.169 194.837 176.551C194.89 172.793 198.365 170.573 201.137 168.578C203.198 167.099 205.099 165.345 206.801 163.353C207.513 162.585 208.102 161.679 208.541 160.677C209.116 159.206 209.097 157.534 209.066 155.925C208.945 150.557 208.714 145.198 208.373 139.846" stroke="#3F3D56" stroke-width="4" stroke-miterlimit="10"/>
<path d="M213.653 139.551C213.614 138.569 213.36 137.614 212.914 136.775C212.469 135.935 211.847 135.238 211.105 134.747L209.961 137.345L209.995 134.199C209.449 134.016 208.88 133.938 208.312 133.967C207.303 134.021 206.331 134.418 205.518 135.107C204.705 135.795 204.089 136.745 203.746 137.836C203.404 138.927 203.351 140.11 203.594 141.236C203.837 142.362 204.366 143.379 205.113 144.16C205.86 144.941 206.791 145.45 207.79 145.623C208.789 145.796 209.81 145.624 210.724 145.131C211.639 144.638 212.405 143.844 212.926 142.851C213.448 141.858 213.701 140.709 213.653 139.551Z" fill="#277AFF"/>
<path d="M204.546 179.247C204.01 180.443 203.132 181.391 202.06 181.931C200.988 182.472 199.786 182.573 198.657 182.218C197.528 181.862 196.539 181.072 195.857 179.979C195.175 178.886 194.841 177.557 194.911 176.214C194.981 174.872 195.451 173.599 196.242 172.607C197.033 171.616 198.097 170.966 199.255 170.768C200.414 170.571 201.596 170.836 202.604 171.52C203.612 172.204 204.385 173.265 204.793 174.526L201.601 177.506L205.118 176.566C205.117 177.499 204.92 178.419 204.546 179.247Z" fill="#277AFF"/>
<path d="M202.024 167.855C201.354 167.891 200.684 167.775 200.053 167.514C199.422 167.253 198.842 166.851 198.346 166.333C197.85 165.814 197.448 165.189 197.162 164.492C196.877 163.795 196.714 163.04 196.682 162.271C196.643 161.353 196.794 160.436 197.123 159.598C197.429 158.815 197.879 158.118 198.444 157.556C199.009 156.994 199.675 156.582 200.394 156.347L200.365 158.758L201.522 156.13C202.876 156.057 204.199 156.605 205.2 157.652C206.202 158.699 206.8 160.16 206.864 161.714C206.927 163.267 206.45 164.786 205.538 165.936C204.626 167.086 203.353 167.773 202 167.846L202.024 167.855Z" fill="#277AFF"/>
<path d="M214.422 158.384C213.744 158.435 213.064 158.331 212.422 158.078C211.779 157.824 211.187 157.426 210.68 156.906C210.173 156.386 209.762 155.756 209.47 155.052C209.178 154.347 209.011 153.583 208.979 152.804C208.947 152.025 209.051 151.246 209.285 150.514C209.518 149.781 209.877 149.109 210.339 148.538C210.802 147.966 211.359 147.506 211.978 147.184C212.597 146.863 213.266 146.686 213.945 146.665C214.899 146.612 215.848 146.87 216.68 147.409L215.777 150.248L217.635 148.202C218.632 149.246 219.228 150.701 219.291 152.249C219.314 152.791 219.27 153.335 219.16 153.864C218.906 155.106 218.306 156.22 217.451 157.035C216.596 157.851 215.533 158.324 214.422 158.384Z" fill="#277AFF"/>
<path opacity="0.1" d="M212.966 141.115C211.787 141.262 210.643 141.684 209.459 141.769C208.275 141.853 206.976 141.528 206.228 140.47C205.824 139.903 205.625 139.183 205.283 138.562C204.961 137.985 204.519 137.507 203.997 137.173C203.669 137.917 203.483 138.732 203.451 139.564C203.419 140.396 203.542 141.227 203.812 142C204.081 142.774 204.491 143.473 205.014 144.05C205.538 144.627 206.162 145.07 206.846 145.349C207.53 145.627 208.257 145.736 208.981 145.666C209.704 145.596 210.406 145.351 211.04 144.945C211.674 144.54 212.225 143.984 212.657 143.314C213.089 142.645 213.392 141.878 213.546 141.063C213.352 141.076 213.16 141.091 212.966 141.115Z" fill="black"/>
<path opacity="0.1" d="M214.423 158.384C213.543 158.43 212.667 158.214 211.881 157.757C211.095 157.3 210.425 156.618 209.936 155.777C209.447 154.935 209.156 153.963 209.091 152.954C209.026 151.945 209.189 150.934 209.564 150.019C209.969 150.334 210.318 150.735 210.591 151.2C210.956 151.83 211.176 152.559 211.604 153.138C212.391 154.214 213.759 154.563 214.99 154.5C216.221 154.437 217.412 154.033 218.641 153.897C218.811 153.879 218.984 153.867 219.166 153.861C218.912 155.105 218.311 156.22 217.455 157.036C216.599 157.852 215.534 158.326 214.423 158.384Z" fill="black"/>
<path opacity="0.1" d="M202.024 167.854C201.354 167.891 200.684 167.775 200.053 167.514C199.422 167.253 198.842 166.851 198.346 166.333C197.85 165.814 197.448 165.189 197.162 164.492C196.877 163.795 196.714 163.04 196.682 162.271C196.643 161.352 196.794 160.436 197.123 159.598C197.545 159.92 197.91 160.329 198.202 160.803C198.599 161.445 198.848 162.187 199.312 162.78C200.173 163.88 201.622 164.269 202.927 164.233C204.231 164.196 205.41 163.847 206.667 163.735C206.355 164.886 205.742 165.899 204.912 166.636C204.081 167.373 203.072 167.799 202.024 167.854Z" fill="black"/>
<path opacity="0.1" d="M204.546 179.247C203.952 180.588 202.931 181.616 201.695 182.117C200.46 182.618 199.103 182.555 197.907 181.94C196.711 181.326 195.766 180.207 195.269 178.815C194.771 177.423 194.759 175.865 195.234 174.462C195.654 174.78 196.032 175.167 196.354 175.61C196.84 176.291 197.16 177.063 197.722 177.696C198.772 178.871 200.452 179.356 201.953 179.401C202.819 179.409 203.685 179.358 204.546 179.247Z" fill="black"/>
<path d="M278.496 190.234C279.577 187.932 278.349 185.112 276.937 183.057C275.525 181.002 273.803 178.868 273.84 176.25C273.892 172.492 277.367 170.271 280.139 168.276C282.2 166.798 284.102 165.044 285.803 163.051C286.516 162.284 287.105 161.378 287.543 160.376C288.118 158.905 288.1 157.233 288.068 155.624C287.947 150.256 287.716 144.896 287.375 139.545" stroke="#3F3D56" stroke-width="4" stroke-miterlimit="10"/>
<path d="M292.656 139.249C292.616 138.267 292.362 137.313 291.917 136.473C291.472 135.634 290.849 134.937 290.107 134.446L288.963 137.044L288.997 133.898C288.451 133.715 287.883 133.636 287.315 133.666C286.306 133.72 285.333 134.117 284.521 134.805C283.708 135.494 283.091 136.444 282.749 137.535C282.406 138.626 282.353 139.809 282.597 140.935C282.84 142.06 283.368 143.078 284.115 143.859C284.862 144.64 285.794 145.149 286.793 145.321C287.792 145.494 288.813 145.323 289.727 144.83C290.641 144.336 291.407 143.543 291.929 142.55C292.45 141.556 292.703 140.408 292.656 139.249Z" fill="#277AFF"/>
<path d="M283.548 178.946C283.012 180.142 282.135 181.089 281.063 181.63C279.99 182.171 278.789 182.272 277.659 181.916C276.53 181.561 275.541 180.77 274.859 179.677C274.177 178.584 273.843 177.255 273.913 175.913C273.984 174.571 274.454 173.297 275.244 172.306C276.035 171.314 277.099 170.665 278.258 170.467C279.416 170.269 280.598 170.535 281.607 171.219C282.615 171.903 283.388 172.964 283.795 174.224L280.604 177.204L284.121 176.264C284.119 177.198 283.923 178.118 283.548 178.946Z" fill="#277AFF"/>
<path d="M281.026 167.553C280.356 167.589 279.686 167.474 279.055 167.212C278.424 166.951 277.844 166.55 277.348 166.032C276.852 165.513 276.45 164.888 276.165 164.191C275.879 163.494 275.716 162.739 275.685 161.97C275.645 161.051 275.796 160.135 276.126 159.297C276.431 158.514 276.882 157.817 277.447 157.255C278.012 156.693 278.677 156.28 279.396 156.046L279.367 158.456L280.525 155.829H280.538C281.208 155.793 281.878 155.909 282.509 156.17C283.14 156.431 283.72 156.832 284.216 157.35C284.712 157.869 285.114 158.495 285.399 159.191C285.685 159.888 285.848 160.643 285.879 161.412C285.911 162.182 285.81 162.95 285.582 163.675C285.355 164.399 285.005 165.065 284.554 165.635C284.102 166.204 283.557 166.666 282.95 166.993C282.343 167.321 281.686 167.508 281.016 167.544L281.026 167.553Z" fill="#277AFF"/>
<path d="M293.425 158.082C292.747 158.134 292.067 158.03 291.425 157.776C290.782 157.523 290.19 157.124 289.683 156.605C289.176 156.085 288.765 155.455 288.473 154.751C288.181 154.046 288.014 153.282 287.982 152.503C287.95 151.724 288.054 150.945 288.288 150.212C288.521 149.48 288.88 148.808 289.342 148.236C289.805 147.665 290.362 147.205 290.981 146.883C291.6 146.562 292.268 146.385 292.948 146.364C293.902 146.31 294.85 146.568 295.683 147.108L294.78 149.947L296.638 147.901C297.635 148.944 298.231 150.4 298.294 151.947C298.317 152.49 298.273 153.034 298.163 153.563C297.909 154.805 297.309 155.918 296.454 156.734C295.599 157.55 294.536 158.023 293.425 158.082Z" fill="#277AFF"/>
<path opacity="0.1" d="M291.969 140.813C290.79 140.961 289.646 141.383 288.462 141.467C287.278 141.552 285.979 141.226 285.231 140.169C284.827 139.602 284.628 138.882 284.286 138.261C283.964 137.683 283.522 137.206 283 136.872C282.672 137.615 282.486 138.43 282.454 139.263C282.422 140.095 282.545 140.926 282.815 141.699C283.084 142.473 283.494 143.171 284.017 143.749C284.54 144.326 285.165 144.769 285.849 145.048C286.533 145.326 287.26 145.434 287.984 145.365C288.707 145.295 289.409 145.049 290.043 144.644C290.677 144.238 291.228 143.682 291.66 143.013C292.092 142.344 292.395 141.576 292.549 140.762C292.355 140.774 292.163 140.789 291.969 140.813Z" fill="black"/>
<path opacity="0.1" d="M293.425 158.082C292.545 158.128 291.669 157.912 290.883 157.455C290.097 156.999 289.427 156.316 288.939 155.475C288.45 154.633 288.159 153.661 288.094 152.652C288.028 151.643 288.192 150.632 288.567 149.717C288.972 150.032 289.32 150.433 289.593 150.898C289.958 151.528 290.178 152.257 290.606 152.836C291.394 153.912 292.761 154.261 293.992 154.198C295.223 154.135 296.415 153.731 297.643 153.595C297.814 153.577 297.987 153.565 298.168 153.559C297.914 154.803 297.314 155.918 296.458 156.734C295.602 157.551 294.537 158.024 293.425 158.082Z" fill="black"/>
<path opacity="0.1" d="M281.026 167.553C280.356 167.589 279.686 167.473 279.055 167.212C278.424 166.951 277.844 166.55 277.348 166.032C276.852 165.513 276.45 164.887 276.165 164.191C275.879 163.494 275.716 162.739 275.685 161.97C275.645 161.051 275.796 160.135 276.126 159.297C276.547 159.619 276.913 160.028 277.205 160.502C277.601 161.144 277.85 161.885 278.315 162.479C279.176 163.579 280.625 163.967 281.929 163.931C283.194 163.901 284.412 163.546 285.669 163.434C285.358 164.585 284.745 165.598 283.914 166.335C283.083 167.072 282.075 167.497 281.026 167.553Z" fill="black"/>
<path opacity="0.1" d="M283.548 178.946C282.954 180.287 281.933 181.315 280.698 181.816C279.462 182.317 278.106 182.254 276.91 181.639C275.713 181.025 274.769 179.905 274.271 178.514C273.774 177.122 273.761 175.563 274.236 174.161C274.657 174.479 275.034 174.866 275.357 175.309C275.842 175.99 276.163 176.762 276.724 177.394C277.774 178.57 279.454 179.055 280.955 179.1C281.821 179.108 282.687 179.057 283.548 178.946Z" fill="black"/>
<path d="M28.853 186.317C27.7716 184.015 29 181.194 30.412 179.139C31.8241 177.084 33.5459 174.951 33.5092 172.332C33.4567 168.575 29.9816 166.354 27.2099 164.359C25.1486 162.881 23.2473 161.127 21.5459 159.134C20.8334 158.366 20.2443 157.461 19.8057 156.458C19.2309 154.988 19.2493 153.315 19.2808 151.706C19.4015 146.339 19.6325 140.979 19.9737 135.627" stroke="#3F3D56" stroke-width="4" stroke-miterlimit="10"/>
<path d="M14.6931 135.332C14.7325 134.35 14.9867 133.396 15.4321 132.556C15.8775 131.717 16.4998 131.02 17.2416 130.529L18.386 133.127L18.3519 129.981C18.8977 129.798 19.4662 129.719 20.0343 129.749C21.0433 129.803 22.0157 130.2 22.8284 130.888C23.6412 131.577 24.2577 132.527 24.6002 133.618C24.9427 134.709 24.9957 135.892 24.7525 137.018C24.5093 138.143 23.9808 139.161 23.2339 139.942C22.487 140.723 21.5552 141.232 20.5563 141.404C19.5574 141.577 18.5363 141.406 17.6222 140.913C16.708 140.419 15.9417 139.626 15.4204 138.633C14.899 137.639 14.6459 136.491 14.6931 135.332Z" fill="#277AFF"/>
<path d="M23.8007 175.029C24.3366 176.225 25.2143 177.172 26.2865 177.713C27.3587 178.254 28.5603 178.355 29.6897 177.999C30.8191 177.644 31.8078 176.853 32.4898 175.76C33.1718 174.667 33.5057 173.338 33.4356 171.996C33.3655 170.654 32.8956 169.381 32.1046 168.389C31.3137 167.397 30.2498 166.748 29.0915 166.55C27.9331 166.352 26.7507 166.618 25.7425 167.302C24.7343 167.986 23.9616 169.047 23.554 170.307L26.7456 173.288L23.2285 172.347C23.23 173.281 23.4262 174.201 23.8007 175.029Z" fill="#277AFF"/>
<path d="M26.323 163.636C26.9931 163.672 27.6628 163.556 28.2938 163.295C28.9249 163.034 29.505 162.633 30.001 162.114C30.497 161.596 30.8991 160.97 31.1845 160.273C31.4699 159.576 31.6329 158.822 31.6642 158.052C31.704 157.134 31.5528 156.218 31.2233 155.379C30.9182 154.596 30.4672 153.899 29.9022 153.337C29.3372 152.776 28.6719 152.363 27.9529 152.128L27.9818 154.539L26.8243 151.911C25.4711 151.838 24.1481 152.386 23.1465 153.433C22.1448 154.48 21.5465 155.941 21.4831 157.495C21.4198 159.048 21.8966 160.567 22.8087 161.717C23.7208 162.867 24.9934 163.554 26.3466 163.627L26.323 163.636Z" fill="#277AFF"/>
<path d="M13.9241 154.165C14.6021 154.217 15.2823 154.113 15.9248 153.859C16.5674 153.605 17.1594 153.207 17.6662 152.688C18.1731 152.168 18.5846 151.538 18.8767 150.833C19.1688 150.129 19.3356 149.365 19.3674 148.586C19.3991 147.806 19.2952 147.028 19.0617 146.295C18.8282 145.562 18.4697 144.891 18.0074 144.319C17.545 143.747 16.988 143.287 16.3689 142.966C15.7498 142.644 15.081 142.468 14.4018 142.447C13.4516 142.396 12.5083 142.654 11.68 143.191L12.5829 146.029L10.7115 143.992C9.71603 145.034 9.12052 146.486 9.05533 148.03C9.03209 148.573 9.07628 149.117 9.18657 149.645C9.44057 150.888 10.0405 152.001 10.8955 152.817C11.7504 153.633 12.8137 154.106 13.9241 154.165Z" fill="#277AFF"/>
<path opacity="0.1" d="M15.3803 136.896C16.5588 137.044 17.7032 137.465 18.8869 137.55C20.0706 137.634 21.3698 137.309 22.1179 136.251C22.5221 135.685 22.7215 134.964 23.0628 134.344C23.385 133.766 23.8268 133.289 24.3488 132.955C24.6767 133.698 24.8628 134.513 24.8949 135.345C24.9269 136.177 24.804 137.008 24.5345 137.782C24.265 138.555 23.855 139.254 23.3318 139.831C22.8086 140.409 22.1843 140.851 21.5004 141.13C20.8165 141.409 20.0887 141.517 19.3655 141.447C18.6424 141.378 17.9404 141.132 17.3065 140.726C16.6725 140.321 16.1211 139.765 15.689 139.096C15.2568 138.426 14.9539 137.659 14.8003 136.845C14.9945 136.857 15.1861 136.872 15.3803 136.896Z" fill="black"/>
<path opacity="0.1" d="M13.9239 154.165C14.8041 154.211 15.6797 153.995 16.4658 153.538C17.2519 153.082 17.9218 152.399 18.4106 151.558C18.8994 150.716 19.1905 149.744 19.2556 148.735C19.3207 147.726 19.1576 146.715 18.7822 145.8C18.3775 146.115 18.0292 146.516 17.756 146.981C17.3911 147.611 17.1707 148.34 16.7428 148.919C15.9554 149.995 14.588 150.344 13.357 150.281C12.126 150.218 10.9344 149.814 9.70609 149.678C9.53548 149.66 9.36225 149.648 9.18115 149.642C9.43492 150.886 10.0354 152.001 10.8915 152.817C11.7475 153.634 12.8123 154.107 13.9239 154.165Z" fill="black"/>
<path opacity="0.1" d="M26.3227 163.636C26.9928 163.672 27.6625 163.556 28.2935 163.295C28.9246 163.034 29.5047 162.633 30.0007 162.114C30.4967 161.596 30.8988 160.97 31.1842 160.273C31.4696 159.576 31.6326 158.821 31.6639 158.052C31.7037 157.134 31.5525 156.218 31.223 155.379C30.8019 155.702 30.4361 156.11 30.1443 156.585C29.7479 157.227 29.4986 157.968 29.034 158.561C28.1731 159.661 26.7243 160.05 25.4198 160.014C24.1548 159.984 22.9369 159.628 21.6797 159.517C21.9913 160.668 22.6042 161.68 23.4349 162.417C24.2657 163.155 25.274 163.58 26.3227 163.636Z" fill="black"/>
<path opacity="0.1" d="M23.8003 175.029C24.3946 176.37 25.4152 177.398 26.6509 177.899C27.8866 178.4 29.2429 178.337 30.4391 177.722C31.6353 177.108 32.5799 175.988 33.0776 174.597C33.5752 173.205 33.5877 171.646 33.1126 170.244C32.6921 170.562 32.3145 170.949 31.9919 171.392C31.5063 172.073 31.1861 172.845 30.6244 173.477C29.5746 174.653 27.8948 175.138 26.3935 175.183C25.5272 175.191 24.6612 175.14 23.8003 175.029Z" fill="black"/>
<path d="M176.772 158.079C176.776 157.349 176.632 156.627 176.351 155.972C176.069 155.317 175.658 154.747 175.149 154.307C175.086 151.544 173.37 149.287 171.163 148.937C170.992 147.998 170.609 147.128 170.053 146.413C169.496 145.697 168.785 145.163 167.992 144.863C167.799 144.793 167.601 144.74 167.401 144.704H167.344L167.241 144.688H167.155H167.068H166.955H166.887H166.701C164.449 144.688 162.575 146.665 162.189 149.272C160.732 148.886 159.396 149.386 159.157 150.444C159.096 150.724 159.109 151.019 159.197 151.291C159.443 152.11 160.247 152.894 161.336 153.282L161.478 153.331C161.548 153.355 161.619 153.373 161.69 153.391H161.737C161.337 154.371 161.28 155.491 161.579 156.518C161.877 157.545 162.508 158.4 163.341 158.908C163.308 158.929 163.277 158.952 163.247 158.977C163.112 159.119 163.005 159.292 162.932 159.484C162.668 160.014 162.464 160.58 162.323 161.168C162.218 161.671 162.199 162.199 162.06 162.696C161.821 163.6 161.207 164.392 161.136 165.354C161.105 165.781 161.165 166.285 160.9 166.577C160.834 166.642 160.764 166.702 160.69 166.755C160.504 166.901 160.347 167.09 160.228 167.309C160.151 167.491 160.047 167.656 159.921 167.797C159.682 168.005 159.289 167.984 159.17 168.304C159.052 168.623 159.357 169 159.286 169.349C159.228 169.632 158.958 169.762 158.761 169.952C158.541 170.226 158.387 170.562 158.315 170.925C157.923 171.012 157.519 170.998 157.132 170.885C156.745 170.772 156.384 170.563 156.076 170.271C156.182 170.582 156.259 170.904 156.307 171.232C155.995 170.85 155.48 170.738 155.1 170.539C154.609 170.281 154.171 169.908 153.813 169.443L154.501 169.334L151.457 164.031L150.559 163.82L151.365 165.595C151.299 165.631 151.241 165.684 151.195 165.75C151.15 165.816 151.118 165.892 151.102 165.974C151.059 166.171 151.048 166.376 151.071 166.577C151.113 167.053 151.183 167.525 151.278 167.99L151.512 169.238C151.531 169.355 151.557 169.47 151.588 169.584C151.283 169.572 150.979 169.611 150.685 169.702C150.081 169.445 149.453 169.274 148.813 169.192C148.673 169.164 148.528 169.172 148.391 169.217C148.235 169.299 148.099 169.426 147.997 169.584C147.472 170.281 147.006 171.034 146.606 171.832C144.971 175.098 142.787 177.949 140.743 180.902C139.331 181.562 137.908 182.189 136.483 182.809L133.42 184.15C132.808 184.419 132.173 184.693 131.522 184.645C131.228 184.623 130.871 184.572 130.706 184.858C130.625 185 130.563 185.155 130.52 185.317C130.412 185.317 130.304 185.347 130.205 185.353H130.186C129.992 184.798 129.824 184.205 129.451 183.801C129.376 183.814 129.305 183.849 129.245 183.901C129.184 183.954 129.136 184.023 129.105 184.102C129.031 184.259 128.987 184.431 128.903 184.575C128.737 184.852 128.451 184.988 128.247 185.223C128.042 185.458 127.913 185.826 127.693 186.055C127.384 186.312 127.022 186.473 126.643 186.522C126.075 186.675 125.527 186.915 125.013 187.233C124.824 187.367 124.621 187.474 124.409 187.552C124.177 187.604 123.938 187.613 123.703 187.579L122.081 187.444C121.937 187.422 121.79 187.429 121.648 187.465C121.481 187.535 121.339 187.667 121.244 187.84C121.149 188.013 121.107 188.217 121.123 188.42C121.143 188.622 121.199 188.817 121.287 188.993C121.375 189.17 121.493 189.323 121.635 189.445C121.917 189.682 122.228 189.868 122.559 189.996C123.968 190.623 125.421 191.112 126.903 191.458V191.834C127.929 192.428 129.063 192.737 130.212 192.738C130.297 192.746 130.382 192.728 130.459 192.687C130.565 192.595 130.639 192.463 130.666 192.313C131.011 191.132 131.228 189.906 131.315 188.664C131.517 188.649 131.716 188.591 131.9 188.493C132.459 188.318 133.013 188.758 133.588 188.83C134.296 188.917 134.955 188.444 135.624 188.152C135.722 188.11 135.819 188.074 135.916 188.037C135.725 188.321 135.5 188.572 135.247 188.782C134.968 189.011 134.656 189.18 134.383 189.418C134.156 189.656 133.913 189.872 133.656 190.065C133.475 190.162 133.288 190.245 133.097 190.313C132.82 190.429 132.556 190.581 132.31 190.768C132.089 190.917 131.902 191.123 131.764 191.37C131.694 191.486 131.651 191.619 131.639 191.759C131.627 191.899 131.647 192.04 131.696 192.169C131.744 192.297 131.821 192.409 131.919 192.494C132.016 192.579 132.131 192.634 132.252 192.654C132.471 192.699 132.695 192.706 132.916 192.675C133.792 192.6 134.666 192.506 135.54 192.416C135.911 192.387 136.278 192.327 136.64 192.235C136.832 192.181 137.021 192.108 137.212 192.051C137.539 191.952 137.875 191.895 138.212 191.879C138.31 191.871 138.409 191.882 138.504 191.913C138.708 191.988 138.853 192.214 139.06 192.274C139.195 192.289 139.331 192.268 139.457 192.211C140.096 192.051 140.749 191.972 141.404 191.973C141.69 191.955 142.026 191.891 142.16 191.587C142.323 191.21 142.05 190.789 141.942 190.382C141.887 190.123 141.857 189.858 141.853 189.592C141.803 188.936 141.639 188.297 141.37 187.715C141.227 187.443 141.107 187.157 141.01 186.859C142.265 186.312 143.465 185.613 144.59 184.774C145.236 184.313 145.903 183.816 146.632 183.647C147.483 183.451 148.359 183.71 149.197 183.988C151.191 184.65 153.153 185.436 155.073 186.341C155.992 186.772 156.911 187.23 157.85 187.546C158.125 187.972 158.457 188.344 158.834 188.649C159.464 189.116 160.233 189.252 160.974 189.318C161.973 189.423 162.978 189.466 163.981 189.448C164.748 189.433 165.538 189.372 166.223 188.972C166.39 188.873 166.548 188.754 166.693 188.616C167.218 188.725 167.756 188.402 168.168 187.989C168.713 187.457 169.106 186.748 169.296 185.955C169.538 184.868 169.352 183.599 169.934 182.71C170.089 182.472 170.291 182.279 170.443 182.038C170.631 181.715 170.723 181.332 170.706 180.944L170.732 180.899C170.864 180.549 170.952 180.18 170.995 179.802C171.064 179.507 171.151 179.218 171.257 178.937C171.553 178.097 171.811 177.239 172.029 176.367C172.18 175.789 172.3 175.2 172.386 174.604C172.449 174.128 172.485 173.649 172.52 173.17C172.562 172.42 172.689 171.68 172.897 170.967C173.416 169.267 173.708 167.488 173.766 165.688C173.766 165.652 173.766 165.619 173.766 165.583C174.528 165.487 175.232 165.068 175.739 164.408C176.246 163.748 176.521 162.895 176.509 162.015C176.51 161.484 176.413 160.96 176.226 160.475C176.588 159.745 176.776 158.919 176.772 158.079ZM161.929 178.784C161.974 178.968 162.026 179.151 162.079 179.335C161.837 179.061 161.598 178.778 161.354 178.506C161.451 178.54 161.548 178.576 161.643 178.615C161.744 178.661 161.84 178.717 161.932 178.784H161.929ZM160.753 177.88C159.32 176.451 157.661 175.343 156.194 173.962C156.981 174.417 157.769 174.945 158.556 175.451C159.473 176.054 160.401 176.63 161.338 177.181C161.185 177.449 160.989 177.682 160.761 177.868L160.753 177.88ZM161.365 174.282L161.433 174.201C161.433 174.402 161.433 174.592 161.433 174.764C161.304 174.716 161.17 174.668 161.047 174.613C161.16 174.507 161.267 174.392 161.367 174.27L161.365 174.282ZM148.748 178.151C149.338 177.385 149.851 176.545 150.278 175.647C150.845 176.789 151.769 177.612 152.556 178.567C151.291 178.362 150.023 178.202 148.75 178.139L148.748 178.151Z" fill="url(#paint0_linear_869_2733)"/>
<path d="M150.795 164.26L151.701 164.471L154.785 169.702L153.423 169.913L150.795 164.26Z" fill="#2F2E41"/>
<path d="M128.866 185.491C129.11 186.418 129.411 187.325 129.766 188.203C130.788 187.958 131.794 187.628 132.774 187.218C132.585 186.878 132.376 186.553 132.15 186.245C131.909 185.937 131.62 185.683 131.299 185.494C130.987 185.338 130.601 185.455 130.268 185.476C129.801 185.496 129.333 185.501 128.866 185.491Z" fill="#FBBEBE"/>
<path d="M131.305 186.889C130.795 186.705 130.483 186.115 130.276 185.545C130.068 184.976 129.9 184.355 129.507 183.936C129.432 183.95 129.361 183.984 129.301 184.037C129.24 184.089 129.192 184.158 129.16 184.237C129.084 184.388 129.04 184.56 128.953 184.704C128.79 184.976 128.501 185.108 128.294 185.34C128.087 185.572 127.958 185.925 127.735 186.157C127.426 186.412 127.064 186.572 126.685 186.621C126.113 186.77 125.561 187.005 125.042 187.32C124.85 187.448 124.646 187.549 124.433 187.621C124.199 187.672 123.959 187.682 123.722 187.648L122.087 187.513C121.941 187.492 121.794 187.5 121.651 187.537C121.485 187.603 121.342 187.732 121.247 187.903C121.152 188.073 121.109 188.275 121.126 188.477C121.148 188.678 121.206 188.871 121.296 189.045C121.386 189.219 121.507 189.369 121.651 189.486C121.935 189.72 122.249 189.903 122.58 190.029C124.005 190.644 125.471 191.125 126.963 191.466V191.837C128.001 192.426 129.142 192.736 130.299 192.741C130.389 192.75 130.48 192.732 130.562 192.69C130.668 192.6 130.743 192.47 130.772 192.322C131.164 191.005 131.393 189.632 131.452 188.242C131.482 187.891 131.459 187.536 131.383 187.193C131.294 186.856 131.599 186.998 131.315 186.865" fill="#2F2E41"/>
<path d="M162.653 179.814C157.806 180.151 153.018 178.518 148.163 178.343C147.56 178.301 146.955 178.346 146.362 178.476C145.744 178.666 145.146 178.933 144.577 179.272C141.976 180.661 139.283 181.812 136.593 182.963L133.507 184.283C132.887 184.545 132.249 184.813 131.591 184.768C131.297 184.747 130.937 184.695 130.769 184.979C130.268 185.831 130.507 187.088 130.837 188.046C130.945 188.348 131.126 188.694 131.415 188.73C131.619 188.714 131.819 188.656 132.005 188.558C132.567 188.387 133.129 188.821 133.706 188.89C134.423 188.977 135.087 188.51 135.761 188.224C136.879 187.751 138.102 187.766 139.278 187.54C141.252 187.163 143.079 186.112 144.79 184.912C145.441 184.457 146.102 183.969 146.848 183.804C147.706 183.611 148.591 183.864 149.433 184.138C151.442 184.791 153.419 185.564 155.357 186.455C156.366 186.958 157.4 187.391 158.454 187.751C160.752 188.445 163.182 188.283 165.394 187.287C166.181 186.934 167.01 186.314 167.055 185.352C167.081 184.804 166.711 184.322 166.464 183.846C166.304 183.544 166.147 183.243 165.974 182.957C165.139 181.559 164.126 179.711 162.653 179.814Z" fill="#2F2E41"/>
<path opacity="0.1" d="M162.653 179.814C157.806 180.151 153.018 178.518 148.163 178.343C147.56 178.301 146.955 178.346 146.362 178.476C145.744 178.666 145.146 178.933 144.577 179.272C141.976 180.661 139.283 181.812 136.593 182.963L133.507 184.283C132.887 184.545 132.249 184.813 131.591 184.768C131.297 184.747 130.937 184.695 130.769 184.979C130.268 185.831 130.507 187.088 130.837 188.046C130.945 188.348 131.126 188.694 131.415 188.73C131.619 188.714 131.819 188.656 132.005 188.558C132.567 188.387 133.129 188.821 133.706 188.89C134.423 188.977 135.087 188.51 135.761 188.224C136.879 187.751 138.102 187.766 139.278 187.54C141.252 187.163 143.079 186.112 144.79 184.912C145.441 184.457 146.102 183.969 146.848 183.804C147.706 183.611 148.591 183.864 149.433 184.138C151.442 184.791 153.419 185.564 155.357 186.455C156.366 186.958 157.4 187.391 158.454 187.751C160.752 188.445 163.182 188.283 165.394 187.287C166.181 186.934 167.01 186.314 167.055 185.352C167.081 184.804 166.711 184.322 166.464 183.846C166.304 183.544 166.147 183.243 165.974 182.957C165.139 181.559 164.126 179.711 162.653 179.814Z" fill="black"/>
<path d="M138.17 185.762C138.93 186.058 139.694 186.331 140.464 186.582C140.897 185.765 141.706 185.199 141.89 184.268C141.9 184.228 141.9 184.185 141.89 184.144C141.869 184.105 141.839 184.073 141.803 184.054C141.25 183.704 140.636 183.498 140.005 183.451C139.506 183.415 139.281 184.012 139.055 184.431C138.976 184.599 138.373 185.841 138.17 185.762Z" fill="#FBBEBE"/>
<path d="M139.239 185.166C139.012 185.123 138.796 185.025 138.604 184.881C138.412 184.736 138.248 184.547 138.123 184.325C138.016 184.111 137.903 183.822 137.688 183.837C137.472 183.852 137.399 184.123 137.354 184.349C137.209 185.193 136.999 186.021 136.727 186.823C136.453 187.627 135.988 188.328 135.386 188.845C135.105 189.068 134.793 189.237 134.517 189.472C134.287 189.707 134.042 189.921 133.782 190.111C133.599 190.207 133.411 190.287 133.218 190.352C132.935 190.465 132.665 190.616 132.412 190.801C132.191 190.95 132.003 191.156 131.864 191.403C131.796 191.529 131.757 191.671 131.749 191.818C131.74 191.966 131.764 192.113 131.816 192.247C131.873 192.356 131.949 192.451 132.039 192.524C132.13 192.597 132.233 192.647 132.341 192.672C132.562 192.714 132.788 192.72 133.011 192.69C133.895 192.615 134.777 192.524 135.659 192.434C136.032 192.407 136.403 192.349 136.769 192.259C136.963 192.205 137.152 192.133 137.344 192.075C137.675 191.979 138.013 191.922 138.354 191.907C138.453 191.898 138.553 191.909 138.648 191.94C138.853 192.015 138.997 192.241 139.207 192.295C139.343 192.311 139.479 192.291 139.606 192.235C140.252 192.078 140.91 191.999 141.57 192C141.858 191.982 142.199 191.919 142.331 191.62C142.496 191.25 142.223 190.834 142.113 190.436C142.058 190.181 142.028 189.921 142.021 189.659C141.971 189.011 141.806 188.382 141.535 187.812C141.31 187.335 141.01 186.811 141.16 186.305C141.241 186.147 141.291 185.971 141.31 185.79C141.273 184.973 139.638 185.274 139.239 185.166Z" fill="#2F2E41"/>
<path d="M155.386 170.889C154.527 170.454 153.839 169.669 153.454 168.686C153.375 168.475 153.307 168.255 153.231 168.041C152.975 167.334 152.58 166.705 152.076 166.203C152.022 166.135 151.956 166.081 151.882 166.045C151.808 166.01 151.728 165.992 151.648 165.995C151.571 166.022 151.501 166.072 151.445 166.139C151.39 166.207 151.351 166.291 151.333 166.381C151.288 166.578 151.277 166.782 151.299 166.984C151.344 167.451 151.414 167.915 151.509 168.373L151.745 169.602C151.775 169.791 151.825 169.975 151.892 170.151C151.993 170.357 152.127 170.54 152.286 170.69C152.501 170.919 152.719 171.139 152.94 171.353C153.061 171.479 153.194 171.59 153.336 171.685C153.569 171.811 153.818 171.895 154.073 171.932C155.037 172.136 156.016 172.432 156.827 173.137C156.827 173.137 156.827 172.314 156.808 172.233C156.799 171.995 156.727 171.765 156.604 171.573C156.299 171.196 155.774 171.085 155.386 170.889Z" fill="#FBBEBE"/>
<path opacity="0.1" d="M155.386 170.889C154.527 170.454 153.839 169.669 153.454 168.686C153.375 168.475 153.307 168.255 153.231 168.041C152.975 167.334 152.58 166.705 152.076 166.203C152.022 166.135 151.956 166.081 151.882 166.045C151.808 166.01 151.728 165.992 151.648 165.995C151.571 166.022 151.501 166.072 151.445 166.139C151.39 166.207 151.351 166.291 151.333 166.381C151.288 166.578 151.277 166.782 151.299 166.984C151.344 167.451 151.414 167.915 151.509 168.373L151.745 169.602C151.775 169.791 151.825 169.975 151.892 170.151C151.993 170.357 152.127 170.54 152.286 170.69C152.501 170.919 152.719 171.139 152.94 171.353C153.061 171.479 153.194 171.59 153.336 171.685C153.569 171.811 153.818 171.895 154.073 171.932C155.037 172.136 156.016 172.432 156.827 173.137C156.827 173.137 156.827 172.314 156.808 172.233C156.799 171.995 156.727 171.765 156.604 171.573C156.299 171.196 155.774 171.085 155.386 170.889Z" fill="black"/>
<path d="M165.255 161.487C165.906 161.487 166.433 160.877 166.433 160.125C166.433 159.373 165.906 158.763 165.255 158.763C164.604 158.763 164.076 159.373 164.076 160.125C164.076 160.877 164.604 161.487 165.255 161.487Z" fill="#2F2E41"/>
<path d="M164.525 159.303C164.209 159.22 163.877 159.275 163.593 159.457C163.457 159.595 163.349 159.766 163.276 159.957C163.011 160.477 162.804 161.034 162.662 161.614C162.557 162.111 162.538 162.629 162.399 163.121C162.158 164.025 161.538 164.793 161.467 165.736C161.436 166.158 161.496 166.655 161.229 166.941C161.162 167.005 161.091 167.063 161.016 167.113C160.829 167.257 160.671 167.444 160.551 167.662C160.471 167.857 160.36 168.034 160.223 168.183C159.982 168.388 159.585 168.367 159.467 168.683C159.349 169 159.654 169.367 159.583 169.711C159.525 169.991 159.252 170.12 159.058 170.313C158.837 170.582 158.682 170.914 158.609 171.275C158.215 171.36 157.809 171.346 157.42 171.234C157.031 171.122 156.667 170.915 156.354 170.627C156.683 171.558 156.69 172.585 156.704 173.589C156.741 173.91 156.667 174.235 156.496 174.493C157.436 174.517 158.349 174.794 159.265 175.044C159.657 175.195 160.081 175.195 160.473 175.044C160.682 174.915 160.87 174.743 161.026 174.538C161.525 173.956 162.047 173.333 162.168 172.522C162.2 172.066 162.207 171.608 162.189 171.151C162.237 170.587 162.339 170.03 162.491 169.491C162.755 168.371 162.93 167.226 163.016 166.071C163.071 165.356 163.606 164.784 163.89 164.145C164.415 162.94 164.966 161.689 165.008 160.339C165.045 159.899 164.914 159.36 164.525 159.303Z" fill="#2F2E41"/>
<path opacity="0.1" d="M164.525 159.303C164.209 159.22 163.877 159.275 163.593 159.457C163.457 159.595 163.349 159.766 163.276 159.957C163.011 160.477 162.804 161.034 162.662 161.614C162.557 162.111 162.538 162.629 162.399 163.121C162.158 164.025 161.538 164.793 161.467 165.736C161.436 166.158 161.496 166.655 161.229 166.941C161.162 167.005 161.091 167.063 161.016 167.113C160.829 167.257 160.671 167.444 160.551 167.662C160.471 167.857 160.36 168.034 160.223 168.183C159.982 168.388 159.585 168.367 159.467 168.683C159.349 169 159.654 169.367 159.583 169.711C159.525 169.991 159.252 170.12 159.058 170.313C158.837 170.582 158.682 170.914 158.609 171.275C158.215 171.36 157.809 171.346 157.42 171.234C157.031 171.122 156.667 170.915 156.354 170.627C156.683 171.558 156.69 172.585 156.704 173.589C156.741 173.91 156.667 174.235 156.496 174.493C157.436 174.517 158.349 174.794 159.265 175.044C159.657 175.195 160.081 175.195 160.473 175.044C160.682 174.915 160.87 174.743 161.026 174.538C161.525 173.956 162.047 173.333 162.168 172.522C162.2 172.066 162.207 171.608 162.189 171.151C162.237 170.587 162.339 170.03 162.491 169.491C162.755 168.371 162.93 167.226 163.016 166.071C163.071 165.356 163.606 164.784 163.89 164.145C164.415 162.94 164.966 161.689 165.008 160.339C165.045 159.899 164.914 159.36 164.525 159.303Z" fill="black"/>
<path d="M163.423 180.986C162.412 180.435 161.675 179.407 160.858 178.527C159.299 176.846 157.394 175.659 155.756 174.083C154.672 173.04 153.701 171.826 152.507 170.952C151.456 170.183 150.265 169.703 149.026 169.551C148.885 169.522 148.739 169.531 148.601 169.575C148.445 169.655 148.308 169.78 148.205 169.936C147.676 170.621 147.205 171.363 146.801 172.151C144.724 176.195 141.777 179.597 139.333 183.361C139.255 183.449 139.209 183.568 139.203 183.695C139.198 183.821 139.234 183.945 139.304 184.041L139.801 185.159C140.079 185.783 140.525 186.512 141.113 186.389C141.383 186.3 141.624 186.123 141.808 185.88L144.039 183.43L146.378 180.862C147.748 179.356 149.142 177.819 150.037 175.897C150.735 177.286 151.974 178.196 152.824 179.47C153.147 179.952 153.41 180.486 153.698 180.998C154.163 181.821 154.688 182.592 155.213 183.361L157.898 187.293C158.236 187.853 158.656 188.342 159.139 188.739C159.774 189.2 160.549 189.324 161.297 189.399C162.304 189.505 163.316 189.547 164.328 189.526C165.1 189.511 165.903 189.453 166.585 189.059C167.268 188.664 167.848 187.853 167.811 186.97C167.769 186.508 167.638 186.062 167.425 185.666C166.478 183.647 165.223 181.959 163.423 180.986Z" fill="#2F2E41"/>
<path d="M165.979 162.114C166.479 162.114 166.885 161.646 166.885 161.069C166.885 160.491 166.479 160.023 165.979 160.023C165.479 160.023 165.074 160.491 165.074 161.069C165.074 161.646 165.479 162.114 165.979 162.114Z" fill="#E8E8F0"/>
<path d="M165.78 160.282C165.984 160.75 166.02 161.291 165.879 161.789C165.739 162.278 165.543 162.744 165.297 163.175C165.084 163.619 164.83 164.036 164.538 164.416C165.937 164.495 167.294 163.865 168.528 163.099C169.522 162.497 170.514 161.728 171.045 160.58C170.887 160.624 170.723 160.628 170.563 160.595C170.404 160.561 170.252 160.489 170.118 160.384C169.851 160.171 169.612 159.915 169.407 159.625L168.706 158.721C168.541 158.523 168.395 158.303 168.273 158.067C168.12 157.746 168.055 157.38 168.087 157.016C167.808 157.351 167.496 157.648 167.158 157.902C166.656 158.278 166.108 158.549 165.601 158.92C165.423 159.053 165.026 159.267 165.129 159.523C165.231 159.779 165.638 159.993 165.78 160.282Z" fill="#FBBEBE"/>
<path opacity="0.1" d="M165.78 160.282C165.984 160.75 166.02 161.291 165.879 161.789C165.739 162.278 165.543 162.744 165.297 163.175C165.084 163.619 164.83 164.036 164.538 164.416C165.937 164.495 167.294 163.865 168.528 163.099C169.522 162.497 170.514 161.728 171.045 160.58C170.887 160.624 170.723 160.628 170.563 160.595C170.404 160.561 170.252 160.489 170.118 160.384C169.851 160.171 169.612 159.915 169.407 159.625L168.706 158.721C168.541 158.523 168.395 158.303 168.273 158.067C168.12 157.746 168.055 157.38 168.087 157.016C167.808 157.351 167.496 157.648 167.158 157.902C166.656 158.278 166.108 158.549 165.601 158.92C165.423 159.053 165.026 159.267 165.129 159.523C165.231 159.779 165.638 159.993 165.78 160.282Z" fill="black"/>
<path d="M165.798 160.439C165.656 160.668 165.58 160.943 165.58 161.224C165.58 161.505 165.656 161.779 165.798 162.009C165.837 162.066 165.987 162.425 166.06 162.428C166.122 162.421 166.18 162.388 166.22 162.334C166.537 161.954 166.834 161.551 167.108 161.129C167.384 160.701 167.784 160.4 168.236 160.279C168.785 160.18 169.312 160.514 169.793 160.834C169.999 160.951 170.179 161.122 170.318 161.334C170.419 161.543 170.479 161.776 170.493 162.015C170.631 163.451 170.684 164.897 170.651 166.342C170.676 167.383 170.617 168.426 170.472 169.455C170.383 169.985 170.249 170.503 170.186 171.039C170.14 171.512 170.122 171.987 170.131 172.462V174.451C170.12 174.815 170.143 175.18 170.199 175.538C170.308 175.966 170.435 176.388 170.58 176.801C170.708 177.293 170.796 177.797 170.842 178.308L171.079 180.366C171.155 181.016 171.21 181.725 170.866 182.246C170.714 182.484 170.509 182.671 170.341 182.906C169.751 183.768 169.947 185.018 169.685 186.088C169.491 186.873 169.094 187.572 168.546 188.092C168.129 188.498 167.588 188.821 167.047 188.694C166.32 188.538 165.882 187.667 165.682 186.844C165.483 186.022 165.42 185.124 164.982 184.434C164.63 183.864 164.087 183.508 163.596 183.102C163.105 182.695 162.622 182.174 162.514 181.487C162.467 181.185 162.496 180.884 162.47 180.583C162.431 180.199 162.302 179.834 162.098 179.526C161.894 179.219 161.622 178.98 161.31 178.835C160.937 178.669 160.475 178.609 160.26 178.232C160.794 177.847 161.184 177.246 161.352 176.548C161.515 175.86 161.603 175.151 161.614 174.438L161.74 172.046C161.795 170.976 161.821 169.916 162.231 168.954C162.415 168.526 162.643 168.123 162.832 167.698C163.085 167.101 163.301 166.485 163.478 165.854C163.774 164.874 164.073 163.892 164.339 162.901C164.445 162.42 164.603 161.958 164.811 161.524C165.055 161.072 165.378 160.529 165.798 160.439Z" fill="#E8E8F0"/>
<path d="M161.171 175.984L161.722 176.005L161.84 175.05C161.856 174.859 161.895 174.671 161.956 174.493C162.047 174.304 162.153 174.126 162.273 173.959C162.816 173.079 162.777 171.91 162.911 170.841C163.089 169.415 163.609 168.077 164.124 166.764L165.194 164.025C165.29 163.799 165.366 163.564 165.423 163.322C165.47 163.056 165.492 162.784 165.488 162.512C165.488 162.09 165.609 160.55 165.617 160.125C165.617 159.969 165.318 160.056 165.255 159.917C165.121 159.616 164.937 160.436 164.685 160.617C164.448 160.825 164.275 161.115 164.192 161.445C163.961 162.135 163.819 162.861 163.604 163.554C163.415 164.264 163.071 164.906 162.604 165.42C162.386 165.643 162.131 165.817 161.924 166.053C161.257 166.809 161.194 168.002 161.171 169.066C161.155 169.726 161.047 175.984 161.171 175.984Z" fill="#2F2E41"/>
<path d="M169.11 159.296C168.585 159.538 168.281 160.2 168.131 160.845C167.982 161.49 167.919 162.171 167.63 162.744C166.958 164.088 165.244 164.479 164.769 165.932C164.648 166.422 164.584 166.929 164.578 167.438C164.494 168.478 164.194 169.484 164.105 170.524C164.059 171.333 164.076 172.144 164.155 172.95L164.756 181.155C164.873 182.363 164.811 183.586 164.575 184.771C165.191 184.873 165.82 184.754 166.375 184.43C166.94 184.129 167.454 183.731 167.995 183.388C168.927 182.785 169.956 182.378 170.769 181.58C170.917 181.448 171.044 181.288 171.144 181.107C171.275 180.762 171.363 180.398 171.407 180.025C171.476 179.734 171.564 179.45 171.669 179.175C171.971 178.348 172.234 177.503 172.457 176.644C172.61 176.074 172.73 175.493 172.816 174.905C172.882 174.438 172.916 173.965 172.953 173.495C172.995 172.756 173.123 172.026 173.333 171.325C173.854 169.654 174.149 167.901 174.207 166.128C174.226 165.871 174.211 165.613 174.163 165.362C174.072 165.058 173.951 164.766 173.801 164.494C173.551 163.955 173.402 163.361 173.165 162.816C172.641 161.581 171.698 160.643 170.714 159.857C170.21 159.474 169.656 159.058 169.11 159.296Z" fill="#2F2E41"/>
<path d="M156.58 172.685C156.154 172.429 155.768 172.093 155.438 171.69C155.289 171.489 155.176 171.263 155.013 171.064C154.627 170.592 154.127 170.264 153.577 170.123C153.031 169.985 152.472 169.924 151.913 169.94C151.54 169.91 151.165 169.962 150.808 170.093C150.629 170.161 150.468 170.279 150.339 170.437C150.211 170.595 150.119 170.788 150.073 170.997C149.992 171.51 150.283 172.007 150.632 172.332C150.957 172.637 151.339 172.85 151.748 172.956C152.081 173.022 152.418 173.068 152.756 173.092C154.74 173.33 156.512 174.568 158.249 175.698C159.777 176.688 161.334 177.616 162.921 178.479C162.984 177.934 163.01 177.384 163 176.834C163 176.424 162.974 175.798 162.635 175.556C162.241 175.273 161.585 175.21 161.149 175.041C160.126 174.658 159.128 174.195 158.16 173.655C157.611 173.351 157.086 173.028 156.58 172.685Z" fill="#FBBEBE"/>
<path d="M165.255 159.815C167.207 159.815 168.79 157.987 168.79 155.732C168.79 153.477 167.207 151.649 165.255 151.649C163.302 151.649 161.719 153.477 161.719 155.732C161.719 157.987 163.302 159.815 165.255 159.815Z" fill="#FBBEBE"/>
<path d="M170.121 163.925C169.839 164.379 169.609 164.872 169.436 165.393C168.997 166.426 168.312 167.312 167.971 168.406C167.609 169.542 167.622 170.895 166.921 171.79C166.78 171.926 166.674 172.103 166.614 172.302C166.61 172.427 166.597 172.55 166.577 172.673C166.478 172.998 166.013 173.013 165.926 173.345C165.903 173.441 165.926 173.547 165.884 173.646C165.814 173.86 165.569 173.89 165.404 174.02C165.06 174.288 165.142 174.909 164.879 175.294C164.772 175.438 164.635 175.546 164.48 175.608C164.325 175.671 164.159 175.685 163.997 175.65C163.676 175.572 163.366 175.439 163.079 175.255C162.978 175.19 162.866 175.15 162.751 175.138C162.614 175.141 162.481 175.193 162.37 175.285C161.716 175.761 161.409 176.708 161.415 177.6C161.461 178.491 161.645 179.367 161.958 180.185C161.995 180.326 162.056 180.457 162.139 180.571C162.354 180.833 162.732 180.791 163.021 180.643C163.291 180.459 163.579 180.311 163.879 180.203C164.425 180.088 164.961 180.522 165.514 180.486C165.92 180.416 166.301 180.222 166.619 179.926C167.181 179.534 167.685 179.04 168.11 178.464C168.352 178.1 168.53 177.684 168.743 177.295C169.014 176.818 169.312 176.361 169.635 175.927L171.674 173.062C171.879 172.79 172.063 172.499 172.223 172.191C172.407 171.774 172.55 171.335 172.651 170.883C172.869 170.128 173.011 169.346 173.073 168.554C173.084 167.898 173.034 167.242 172.924 166.598C172.855 165.958 172.708 165.332 172.485 164.739C172.031 163.684 170.953 162.81 170.121 163.925Z" fill="#2F2E41"/>
<path d="M177.223 158.607C177.226 157.883 177.079 157.168 176.794 156.522C176.51 155.877 176.095 155.318 175.585 154.891C175.57 153.606 175.158 152.369 174.422 151.401C173.686 150.432 172.674 149.795 171.567 149.603C171.353 148.386 170.772 147.294 169.925 146.521C169.079 145.747 168.022 145.341 166.941 145.375C165.859 145.408 164.823 145.879 164.014 146.704C163.206 147.529 162.676 148.654 162.52 149.883C161.05 149.504 159.706 149.998 159.462 151.037C159.2 152.125 160.249 153.397 161.803 153.879C162.29 154.037 162.798 154.095 163.302 154.051C163.663 154.66 164.132 155.175 164.677 155.565C165.222 155.954 165.832 156.208 166.467 156.311C166.654 157.293 167.076 158.197 167.686 158.919C168.296 159.642 169.069 160.155 169.919 160.4C170.154 161.052 170.519 161.632 170.984 162.093C170.984 162.22 170.966 162.349 170.966 162.482C170.949 162.945 171.014 163.407 171.157 163.841C171.299 164.275 171.517 164.671 171.797 165.005C172.076 165.34 172.412 165.606 172.783 165.788C173.155 165.97 173.554 166.064 173.958 166.064C174.362 166.064 174.762 165.97 175.133 165.788C175.505 165.606 175.84 165.34 176.12 165.005C176.399 164.671 176.617 164.275 176.76 163.841C176.902 163.407 176.967 162.945 176.95 162.482C176.95 161.962 176.853 161.448 176.664 160.975C177.033 160.258 177.226 159.44 177.223 158.607Z" fill="#F86D70"/>
<path opacity="0.1" d="M160.459 151.245C160.703 150.206 162.034 149.711 163.517 150.091C163.689 148.843 164.24 147.705 165.073 146.878C165.905 146.051 166.965 145.588 168.065 145.571C168.168 145.571 168.27 145.571 168.37 145.571C167.945 145.422 167.502 145.347 167.058 145.348C165.957 145.365 164.897 145.828 164.065 146.655C163.233 147.482 162.682 148.62 162.509 149.868C161.039 149.488 159.695 149.983 159.451 151.022C159.189 152.11 160.239 153.382 161.793 153.864C162.082 153.956 162.378 154.014 162.677 154.038C161.202 153.544 160.21 152.309 160.459 151.245Z" fill="black"/>
<path opacity="0.1" d="M171.963 162.693C171.963 162.56 171.963 162.431 171.982 162.301C171.516 161.841 171.151 161.262 170.916 160.611C170.067 160.363 169.294 159.849 168.685 159.127C168.075 158.404 167.653 157.501 167.465 156.519C166.829 156.416 166.219 156.163 165.674 155.773C165.128 155.384 164.66 154.868 164.299 154.259C164.005 154.285 163.71 154.276 163.417 154.231C163.78 154.793 164.237 155.266 164.76 155.623C165.284 155.98 165.864 156.214 166.467 156.311C166.654 157.294 167.076 158.197 167.686 158.919C168.296 159.642 169.069 160.155 169.919 160.4C170.154 161.052 170.519 161.632 170.984 162.093C170.984 162.22 170.966 162.349 170.966 162.482C170.953 163.406 171.258 164.298 171.816 164.964C172.373 165.63 173.138 166.016 173.942 166.037C173.355 165.777 172.851 165.318 172.498 164.72C172.144 164.123 171.958 163.415 171.963 162.693Z" fill="black"/>
<path d="M166.872 157.228C167.112 157.019 167.11 156.551 166.867 156.184C166.624 155.817 166.232 155.689 165.992 155.899C165.752 156.108 165.754 156.575 165.997 156.943C166.24 157.31 166.632 157.437 166.872 157.228Z" fill="#FBBEBE"/>
<path d="M82.3622 177.545L85.8583 175.186C85.3858 174.258 84.7817 173.428 84.0709 172.73L77.4777 175.083L82.643 171.597C81.364 170.793 79.9245 170.385 78.4664 170.413C77.0083 170.441 75.5818 170.905 74.3272 171.759C73.0727 172.612 72.0333 173.826 71.3113 175.281C70.5894 176.735 70.2098 178.381 70.21 180.055C70.21 185.379 73.9711 185.563 78.6089 185.563C83.2467 185.563 87.0079 185.379 87.0079 180.055C87.0106 178.705 86.7647 177.37 86.2861 176.138L82.3622 177.545Z" fill="#277AFF"/>
<path opacity="0.1" d="M83.2519 182.722C82.8796 182.294 82.4637 181.918 82.0131 181.604C81.3805 181.119 80.7218 180.625 79.9737 180.462C79.3176 180.317 78.6404 180.441 77.9711 180.396C76.809 180.314 75.715 179.739 74.9029 178.781C74.4252 178.214 74.0499 177.518 73.475 177.084C72.8326 176.646 72.0746 176.487 71.3386 176.635C71.1253 176.669 70.914 176.719 70.706 176.783C70.377 177.833 70.2092 178.94 70.21 180.055C70.21 185.38 73.9711 185.564 78.6089 185.564C80.8609 185.564 82.9028 185.521 84.412 184.868L84.1496 184.328C83.9112 183.751 83.6095 183.211 83.2519 182.722Z" fill="black"/>
</g>
<defs>
<linearGradient id="paint0_linear_869_2733" x1="148.95" y1="192.741" x2="148.95" y2="144.637" gradientUnits="userSpaceOnUse">
<stop stop-color="#808080" stop-opacity="0.25"/>
<stop offset="0.54" stop-color="#808080" stop-opacity="0.12"/>
<stop offset="1" stop-color="#808080" stop-opacity="0.1"/>
</linearGradient>
<clipPath id="clip0_869_2733">
<rect width="300" height="200" fill="white"/>
</clipPath>
</defs>
</svg>
