<svg width="304" height="304" viewBox="0 0 304 304" fill="none" xmlns="http://www.w3.org/2000/svg">
<g filter="url(#filter0_d_720_1554)">
<path d="M2 50C2 22.3858 24.3858 0 52 0H252C279.614 0 302 22.3858 302 50V250C302 277.614 279.614 300 252 300H52C24.3858 300 2 277.614 2 250V50Z" fill="#E5E5E5"/>
</g>
<g clip-path="url(#clip0_720_1554)">
<path d="M159.571 78.9406H150.379L151.338 73.9224H175.559L174.557 78.9406H165.365L160.007 107.217H154.257L159.571 78.9406ZM185.797 107.784C177.171 107.784 172.728 101.457 172.728 94.0388C172.64 88.1042 174.862 82.3442 178.957 78.0242C182.094 75.0133 186.276 73.3552 190.632 73.3988C199.476 73.3988 203.658 79.6388 203.658 87.1879C203.745 92.9915 201.61 98.6642 197.69 102.941C194.553 106.039 190.284 107.741 185.84 107.697L185.797 107.784ZM186.668 102.941C189.108 102.897 191.416 101.893 193.115 100.104C195.991 97.2242 197.603 91.5515 197.603 87.3624C197.603 83.1733 196.078 78.2424 189.935 78.2424C187.452 78.2861 185.056 79.2897 183.357 81.1224C180.395 84.657 178.783 89.1079 178.827 93.7333C178.827 98.7515 181.048 102.941 186.624 102.941H186.668ZM225.222 92.4243H213.285L211.456 102.373H224.873L223.915 107.261H204.703L211.02 74.0533H229.448L228.489 78.9406H215.856L214.2 87.6679H226.18L225.222 92.4243ZM234.806 73.9661H253.103L252.144 78.8533H239.642L237.812 88.1915H249.443L248.485 93.0352H236.984L234.327 107.217H228.489L234.806 73.9661ZM258.243 73.9661H263.95L258.635 102.199H271.661L270.702 107.217H251.927L258.243 73.9661ZM281.201 105.952C279.807 107.61 277.324 107.828 275.669 106.432C274.013 105.035 273.796 102.548 275.19 100.89C275.32 100.715 275.495 100.541 275.669 100.41C277.063 98.7515 279.546 98.5333 281.201 99.9297C282.857 101.326 283.075 103.813 281.681 105.472L281.201 105.952ZM276.061 100.759C274.754 102.068 274.754 104.206 276.061 105.515C277.368 106.824 279.502 106.824 280.809 105.515C282.116 104.206 282.116 102.068 280.809 100.759C280.199 100.148 279.328 99.7988 278.457 99.7552C277.542 99.7552 276.627 100.104 276.061 100.759ZM278.326 100.977C278.718 100.933 279.11 101.021 279.502 101.108C279.938 101.282 280.199 101.719 280.156 102.199C280.199 102.548 280.025 102.853 279.72 103.028C279.546 103.159 279.328 103.202 279.11 103.246C279.415 103.29 279.677 103.421 279.851 103.682C279.982 103.857 280.069 104.119 280.069 104.337V105.166H279.328V104.773C279.372 104.381 279.241 103.988 278.936 103.77C278.675 103.639 278.37 103.595 278.108 103.639H277.498V105.341H276.758V100.933H278.326V100.977ZM279.154 101.675C278.849 101.544 278.544 101.501 278.239 101.501H277.498V103.072H278.195C278.457 103.072 278.675 103.072 278.892 102.984C279.285 102.81 279.459 102.33 279.285 101.937C279.241 101.806 279.154 101.719 279.067 101.632H279.154V101.675Z" fill="#003082"/>
<path d="M109.037 105.297L108.907 105.384C99.7149 112.41 90.4358 116.686 78.8478 119.217C61.0738 123.101 44.5631 120.788 35.6761 113.195C31.6683 109.792 29.4465 105.472 29.0544 100.454C27.9653 87.5372 37.6801 74.1409 54.9749 64.6718L55.1491 64.5845L54.9313 64.1045L54.757 64.1918C34.4563 72.3954 20.1674 87.6681 21.2565 102.155C21.6922 108.09 24.3495 113.326 28.9237 117.341C38.3335 125.588 55.062 128.119 73.6202 124.148C88.5625 120.963 100.455 114.286 109.255 105.908L109.43 105.734L109.037 105.297Z" fill="#003082"/>
<path d="M122.542 70.17C119.014 62.2718 111.259 56.9481 100.717 55.0718C83.6834 52.0609 63.252 59.4354 53.0145 71.3045L52.8838 71.4354L53.1887 71.8718L53.363 71.7409C60.1589 66.0681 70.2222 61.7481 80.2854 60.2209C95.2278 57.9518 107.774 61.7045 113.83 70.3009C119.711 78.6354 118.055 94.7372 110.301 104.075L110.17 104.25L110.562 104.686L110.736 104.555C122.499 93.3845 128.162 82.7809 122.542 70.17Z" fill="#892528"/>
<path d="M59.7667 92.8619H48.4837L47.2639 99.3637H59.8538L58.8519 104.687H39.9888L45.26 76.4982H63.3825L62.337 81.8219H50.5748L49.4857 87.5819H60.7687L59.7667 92.8619ZM71.224 81.8219H64.2973L65.3429 76.4546H89.2594C87.8218 76.76 86.5584 77.6328 85.3822 78.8109C84.0317 80.1637 83.7704 81.7782 83.7704 81.7782H77.4972L73.2279 104.6H66.9547L71.224 81.8219Z" fill="#003082"/>
<path d="M83.9881 97.7926C85.9049 98.9271 88.5623 99.8435 91.5246 99.8435C93.8335 99.8435 96.0988 98.8835 96.0988 96.658C96.0988 95.1744 94.7919 94.1271 91.9602 92.9053C88.693 91.509 85.3385 89.2835 85.3385 85.2253C85.3385 79.4217 90.7405 76.0181 97.0136 76.0181C100.847 76.0181 103.113 76.8472 104.507 77.5453L102.459 82.7381C101.501 82.2581 99.1483 81.2981 96.4909 81.3417C93.485 81.3417 92.0038 82.7381 92.0038 84.0471C92.0038 85.7926 94.1384 86.7962 96.5344 87.9308C100.324 89.589 102.851 91.8581 102.851 95.5671C102.851 102.025 97.2314 105.123 90.6533 105.123C86.3841 105.036 83.2475 103.945 81.6792 102.767L83.9881 97.7926ZM121.061 111.32C120.32 112.062 119.405 112.454 118.316 112.454C117.227 112.454 116.356 112.062 115.572 111.32C114.831 110.578 114.439 109.662 114.439 108.571C114.439 107.524 114.831 106.607 115.572 105.822C116.312 105.08 117.227 104.687 118.273 104.687C119.362 104.687 120.277 105.08 121.017 105.822C121.758 106.563 122.15 107.48 122.15 108.571C122.193 109.618 121.801 110.534 121.061 111.32ZM115.964 106.214C115.31 106.869 115.005 107.654 115.005 108.571C115.005 109.487 115.31 110.273 115.964 110.927C116.617 111.582 117.401 111.931 118.316 111.931C119.231 111.931 120.015 111.625 120.669 110.927C121.322 110.273 121.627 109.487 121.627 108.571C121.627 107.654 121.322 106.869 120.669 106.214C120.015 105.56 119.231 105.211 118.316 105.211C117.401 105.211 116.617 105.56 115.964 106.214ZM118.229 106.433C118.752 106.433 119.144 106.476 119.405 106.564C119.841 106.738 120.059 107.087 120.059 107.654C120.059 108.047 119.928 108.309 119.623 108.483C119.493 108.571 119.275 108.658 119.013 108.702C119.362 108.745 119.58 108.876 119.754 109.138C119.928 109.356 119.972 109.574 119.972 109.793V110.403C119.972 110.534 119.972 110.578 120.015 110.622L120.059 110.665H119.362V110.098C119.362 109.618 119.231 109.269 118.97 109.138C118.795 109.051 118.534 109.007 118.142 109.007H117.532V110.665H116.792V106.433H118.229ZM119.057 107.087C118.883 107 118.578 106.913 118.142 106.913H117.489V108.44H118.142C118.447 108.44 118.708 108.396 118.839 108.353C119.144 108.222 119.275 108.004 119.275 107.698C119.318 107.393 119.231 107.174 119.057 107.087Z" fill="#003082"/>
</g>
<path d="M144.6 215.582C144.6 215.27 144.54 215.114 144.42 215.114L143.592 215.51C143.592 215.342 143.496 215.222 143.304 215.15L143.016 215.114C142.824 215.114 142.584 215.198 142.296 215.366C142.248 215.246 142.188 215.126 142.116 215.006C142.044 214.886 141.984 214.778 141.936 214.682C141.624 214.082 141.312 213.422 141 212.702C140.712 211.958 140.436 211.25 140.172 210.578C139.932 209.906 139.74 209.378 139.596 208.994C139.5 208.682 139.392 208.214 139.272 207.59C139.152 206.966 139.032 206.174 138.912 205.214C139.176 205.382 139.38 205.466 139.524 205.466C139.692 205.466 139.848 205.214 139.992 204.71C140.064 204.806 140.196 204.854 140.388 204.854C140.532 204.854 140.64 204.806 140.712 204.71L141.288 203.846L141.936 204.062H141.972C142.02 204.062 142.068 204.038 142.116 203.99C142.164 203.942 142.236 203.894 142.332 203.846C142.524 203.726 142.668 203.666 142.764 203.666L142.872 203.702C143.472 203.99 143.856 204.518 144.024 205.286C144.456 207.11 144.888 208.022 145.32 208.022C145.752 208.022 146.256 207.566 146.832 206.654C147.12 206.198 147.408 205.67 147.696 205.07C148.008 204.47 148.32 203.798 148.632 203.054C148.68 203.342 148.728 203.486 148.776 203.486C148.896 203.486 149.1 203.186 149.388 202.586C149.7 201.986 150.192 201.158 150.864 200.102C151.248 199.454 151.728 198.722 152.304 197.906C152.904 197.09 153.54 196.25 154.212 195.386C154.884 194.522 155.532 193.706 156.156 192.938C156.804 192.17 157.38 191.51 157.884 190.958C158.388 190.406 158.76 190.046 159 189.878C159.912 189.254 160.632 188.654 161.16 188.078C161.136 188.246 161.1 188.402 161.052 188.546C161.028 188.666 161.016 188.75 161.016 188.798C161.016 188.894 161.064 188.942 161.16 188.942L162.168 188.438V188.582C162.168 188.774 162.216 188.87 162.312 188.87C162.384 188.87 162.528 188.762 162.744 188.546C162.96 188.33 163.08 188.174 163.104 188.078L163.032 188.582L164.256 187.862L163.968 188.51C164.352 188.246 164.628 188.114 164.796 188.114C164.892 188.114 164.964 188.174 165.012 188.294C165.06 188.39 165.084 188.486 165.084 188.582C165.084 188.726 165.024 188.894 164.904 189.086C164.784 189.278 164.628 189.506 164.436 189.77C164.292 189.962 164.052 190.25 163.716 190.634C163.404 190.994 162.924 191.534 162.276 192.254C161.628 192.95 160.764 193.922 159.684 195.17C159.396 195.482 158.952 196.034 158.352 196.826C157.752 197.594 157.068 198.494 156.3 199.526C155.556 200.534 154.812 201.554 154.068 202.586C153.324 203.618 152.664 204.554 152.088 205.394C151.512 206.21 151.104 206.822 150.864 207.23L148.632 211.01C148.152 211.826 147.756 212.498 147.444 213.026C147.132 213.53 146.892 213.878 146.724 214.07C146.364 214.502 145.968 214.886 145.536 215.222L145.212 215.042L144.924 215.222L144.6 215.582Z" fill="#0D7160"/>
<g filter="url(#filter1_d_720_1554)">
<path d="M250 36C250 27.1634 257.163 20 266 20C274.837 20 282 27.1634 282 36C282 44.8366 274.837 52 266 52C257.163 52 250 44.8366 250 36Z" fill="#003082"/>
<path d="M266 31V47M266 25L266 28" stroke="white" stroke-width="3"/>
</g>
<defs>
<filter id="filter0_d_720_1554" x="0" y="0" width="304" height="304" filterUnits="userSpaceOnUse" color-interpolation-filters="sRGB">
<feFlood flood-opacity="0" result="BackgroundImageFix"/>
<feColorMatrix in="SourceAlpha" type="matrix" values="0 0 0 0 0 0 0 0 0 0 0 0 0 0 0 0 0 0 127 0" result="hardAlpha"/>
<feOffset dy="2"/>
<feGaussianBlur stdDeviation="1"/>
<feComposite in2="hardAlpha" operator="out"/>
<feColorMatrix type="matrix" values="0 0 0 0 0 0 0 0 0 0 0 0 0 0 0 0 0 0 0.25 0"/>
<feBlend mode="normal" in2="BackgroundImageFix" result="effect1_dropShadow_720_1554"/>
<feBlend mode="normal" in="SourceGraphic" in2="effect1_dropShadow_720_1554" result="shape"/>
</filter>
<filter id="filter1_d_720_1554" x="246" y="20" width="40" height="40" filterUnits="userSpaceOnUse" color-interpolation-filters="sRGB">
<feFlood flood-opacity="0" result="BackgroundImageFix"/>
<feColorMatrix in="SourceAlpha" type="matrix" values="0 0 0 0 0 0 0 0 0 0 0 0 0 0 0 0 0 0 127 0" result="hardAlpha"/>
<feOffset dy="4"/>
<feGaussianBlur stdDeviation="2"/>
<feComposite in2="hardAlpha" operator="out"/>
<feColorMatrix type="matrix" values="0 0 0 0 0 0 0 0 0 0 0 0 0 0 0 0 0 0 0.25 0"/>
<feBlend mode="normal" in2="BackgroundImageFix" result="effect1_dropShadow_720_1554"/>
<feBlend mode="normal" in="SourceGraphic" in2="effect1_dropShadow_720_1554" result="shape"/>
</filter>
<clipPath id="clip0_720_1554">
<rect width="261.818" height="72" fill="white" transform="translate(21.1982 54.3979)"/>
</clipPath>
</defs>
</svg>
