<svg width="126" height="127" viewBox="0 0 126 127" fill="none" xmlns="http://www.w3.org/2000/svg">
<path d="M91.4141 70.1234C96.1016 70.1234 100.227 67.5453 102.352 63.6466L124.727 22.8368C127.039 18.6866 124.039 13.5304 119.289 13.5304H26.7891L20.9141 0.954163H0.476562V13.5304H12.9766L35.4766 61.2571L27.0391 76.6001C22.4766 85.0262 28.4766 95.2758 37.9766 95.2758H112.977V82.6996H37.9766L44.8516 70.1234H91.4141ZM32.7266 26.1066H108.664L91.4141 57.5472H47.5391L32.7266 26.1066ZM37.9766 101.564C31.1016 101.564 25.5391 107.223 25.5391 114.14C25.5391 121.057 31.1016 126.716 37.9766 126.716C44.8516 126.716 50.4766 121.057 50.4766 114.14C50.4766 107.223 44.8516 101.564 37.9766 101.564ZM100.477 101.564C93.6016 101.564 88.0391 107.223 88.0391 114.14C88.0391 121.057 93.6016 126.716 100.477 126.716C107.352 126.716 112.977 121.057 112.977 114.14C112.977 107.223 107.352 101.564 100.477 101.564Z" fill="#333333"/>
</svg>
